<?xml version="1.0" encoding="UTF-8" standalone="no"?>
<!-- Created with Inkscape (http://www.inkscape.org/) -->

<svg
   width="337mm"
   height="327mm"
   viewBox="0 0 337 327"
   version="1.1"
   id="svg5"
   xml:space="preserve"
   inkscape:version="1.2.1 (9c6d41e, 2022-07-14)"
   sodipodi:docname="QuizCube Board v1_cutter_3_V2.svg"
   inkscape:export-filename="QuizCube Board v1_cutter.png"
   inkscape:export-xdpi="96"
   inkscape:export-ydpi="96"
   xmlns:inkscape="http://www.inkscape.org/namespaces/inkscape"
   xmlns:sodipodi="http://sodipodi.sourceforge.net/DTD/sodipodi-0.dtd"
   xmlns="http://www.w3.org/2000/svg"
   xmlns:svg="http://www.w3.org/2000/svg"><sodipodi:namedview
     id="namedview7"
     pagecolor="#505050"
     bordercolor="#eeeeee"
     borderopacity="1"
     inkscape:showpageshadow="0"
     inkscape:pageopacity="0"
     inkscape:pagecheckerboard="0"
     inkscape:deskcolor="#505050"
     inkscape:document-units="mm"
     showgrid="false"
     inkscape:zoom="0.20941921"
     inkscape:cx="288.89422"
     inkscape:cy="651.80267"
     inkscape:window-width="1800"
     inkscape:window-height="1097"
     inkscape:window-x="0"
     inkscape:window-y="44"
     inkscape:window-maximized="1"
     inkscape:current-layer="layer1" /><defs
     id="defs2" /><g
     inkscape:label="Layer 1"
     inkscape:groupmode="layer"
     id="layer1"
     transform="translate(20.999998,-304.99972)"><path
       id="rect111"
       style="color:#000000;fill:#666666;fill-opacity:1;stroke-linecap:round;stroke-linejoin:round;-inkscape-stroke:none"
       inkscape:label="grid"
       d="M 294.84997 533.38888 C 294.08488 533.37828 293.20601 533.57285 292.75915 534.25291 C 291.53198 537.49163 289.17792 540.31979 286.0903 541.93151 C 285.05178 542.4147 283.58173 542.77032 283.41243 544.12363 C 283.41943 573.28509 283.40795 602.44702 283.42225 631.60821 L 284.99993 631.60821 L 284.99993 544.12363 C 289.21878 542.60045 292.59971 539.21952 294.12289 535.00067 L 315.6084 535.00067 L 315.6084 533.40232 C 308.68874 533.40632 301.769 533.4197 294.84946 533.3894 L 294.84997 533.38888 z " /><path
       id="path12346"
       style="color:#000000;fill:#666666;fill-opacity:1;stroke-linecap:round;stroke-linejoin:round;-inkscape-stroke:none"
       inkscape:label="grid"
       d="M 294.84997 403.38906 C 294.175 403.38206 293.44296 403.5219 292.94776 404.0159 C 292.39993 404.81327 292.17259 405.80732 291.61968 406.61781 C 290.35044 408.81755 288.31428 410.79446 285.98075 411.99061 C 284.9592 412.42373 283.56744 412.82349 283.41243 414.12329 C 283.42043 447.32084 283.39621 480.51972 283.42431 513.7167 C 283.43031 514.9337 283.1214 516.52107 284.33795 517.29322 C 287.58299 518.49679 290.36299 520.9019 291.96901 523.97292 C 292.41248 525.0065 292.8067 526.42249 294.1234 526.58826 L 315.60891 526.58826 L 315.60891 525.00076 L 294.1234 525.00076 C 292.60025 520.78185 289.21935 517.40049 285.00045 515.87729 L 285.00045 414.12381 C 289.21935 412.60063 292.60025 409.21925 294.1234 405.00033 L 315.60891 405.00033 L 315.60891 403.4025 C 308.68926 403.4065 301.76952 403.41936 294.84997 403.38906 z " /><path
       id="path12344"
       style="color:#000000;fill:#666666;fill-opacity:1;stroke-linecap:round;stroke-linejoin:round;-inkscape-stroke:none"
       inkscape:label="grid"
       d="M 15.000389 305.39143 L 15.000389 385.87747 C 9.2128582 387.96692 5.0004821 393.55277 5.0004821 400.00064 C 5.0004821 406.4485 9.2128582 412.03436 15.000389 414.12381 L 15.000389 515.87729 C 9.2128582 517.96676 5.0004821 523.5526 5.0004821 530.00046 C 5.0004821 536.44833 9.2128582 542.03416 15.000389 544.12363 L 15.000389 631.60821 L 16.57807 631.60821 C 16.57607 626.21314 16.581465 620.81858 16.588405 615.42418 C 16.578505 592.31313 16.607899 569.20089 16.573419 546.09043 C 16.618269 544.89923 16.802927 543.33069 15.57038 542.64103 C 10.51242 540.86494 6.7229944 535.85625 6.6086527 530.46451 C 6.3453864 525.33962 9.4593738 520.36571 13.970994 518.02961 C 15.007087 517.58695 16.418388 517.19378 16.588405 515.87729 L 16.588405 417.32413 C 16.483327 416.11961 16.780394 414.87759 16.439577 413.70161 C 16.152143 412.63316 14.966654 412.51142 14.145144 412.03608 C 9.7352836 409.86894 6.6321494 405.19563 6.6003845 400.2492 C 6.4340654 395.2604 9.4407332 390.45077 13.800979 388.11971 C 14.835514 387.59914 16.319581 387.31691 16.572386 385.97617 C 16.609366 366.32813 16.577785 346.67436 16.588405 327.02422 C 16.581505 319.8134 16.57604 312.60248 16.57807 305.39143 L 15.000389 305.39143 z " /><path
       id="path12342"
       style="color:#000000;fill:#666666;fill-opacity:1;stroke-linecap:round;stroke-linejoin:round;-inkscape-stroke:none"
       inkscape:label="grid"
       d="M 283.41501 305.39143 C 283.41401 331.49996 283.402 357.60907 283.4238 383.71688 C 283.4298 384.93388 283.12089 386.52126 284.33744 387.2934 C 287.58246 388.49697 290.36248 390.90208 291.9685 393.9731 C 292.41197 395.00668 292.80619 396.42267 294.12289 396.58844 C 301.28466 396.58644 308.44653 396.58534 315.6084 396.58534 L 315.6084 394.99991 L 294.12289 394.99991 C 292.59971 390.78109 289.21877 387.40013 284.99993 385.87695 L 284.99993 305.39143 L 283.41501 305.39143 z " /><path
       id="path12351"
       style="color:#000000;fill:#666666;fill-opacity:1;stroke-linecap:round;stroke-linejoin:round;-inkscape-stroke:none"
       inkscape:label="grid"
       d="M 275.00002 305.39143 L 275.00002 385.87747 C 270.78134 387.4007 267.40021 390.78169 265.87706 395.00043 L 212.73199 395.00043 L 212.73199 396.58276 C 229.72691 396.58445 246.72209 396.59094 263.71647 396.57656 C 264.93347 396.57056 266.5211 396.87954 267.293 395.6624 C 268.49168 392.44437 270.86322 389.67036 273.91017 388.06958 C 274.94868 387.58641 276.41874 387.23078 276.58804 385.87747 C 276.58771 359.04885 276.58784 332.22002 276.58752 305.39143 L 275.00002 305.39143 z " /><path
       id="path12340"
       style="color:#000000;fill:#666666;fill-opacity:1;stroke-linecap:round;stroke-linejoin:round;-inkscape-stroke:none"
       inkscape:label="grid"
       d="M 212.73199 396.58276 L 212.73199 395.00043 L 164.12359 395.00043 C 162.6004 390.78151 159.21905 387.40062 155.00011 385.87747 L 155.00011 305.39143 L 153.41261 305.39143 L 153.41261 383.07712 C 153.5511 384.39572 153.00932 385.96736 154.02549 387.04794 C 154.80928 387.60891 155.81132 387.82581 156.61758 388.38119 C 158.80974 389.64498 160.77831 391.67289 161.97901 393.99274 C 162.41828 395.0199 162.81175 396.43089 164.12307 396.58844 C 180.32592 396.58454 196.5289 396.58115 212.73199 396.58276 z " /><path
       id="path12338"
       style="color:#000000;fill:#666666;fill-opacity:1;stroke-linecap:round;stroke-linejoin:round;-inkscape-stroke:none"
       inkscape:label="grid"
       d="M 212.73199 526.58826 L 263.07672 526.58826 C 264.39525 526.44938 265.96779 526.99218 267.04805 525.97538 C 267.60902 525.19159 267.82593 524.18955 268.3813 523.38329 C 269.6491 521.18605 271.6819 519.21061 274.01197 518.01411 C 275.03405 517.57864 276.43296 517.18041 276.58804 515.87729 C 276.58763 482.74619 276.58852 449.61494 276.58752 416.48387 C 276.51432 415.23072 276.94207 413.6254 275.74468 412.75955 C 272.53192 411.53676 269.71836 409.21173 268.1038 406.15272 C 267.58795 405.1359 267.30406 403.66541 265.97628 403.42782 C 248.23018 403.39859 230.48039 403.41514 212.73199 403.41542 L 212.73199 405.00033 L 265.87706 405.00033 C 267.40018 409.21915 270.78127 412.60058 275.00002 414.12381 L 275.00002 515.87729 C 270.78127 517.40054 267.40018 520.78195 265.87706 525.00076 L 212.73199 525.00076 L 212.73199 526.58826 z " /><path
       id="path12336"
       style="color:#000000;fill:#666666;fill-opacity:1;stroke-linecap:round;stroke-linejoin:round;-inkscape-stroke:none"
       inkscape:label="grid"
       d="M 212.73199 526.58826 L 212.73199 525.00076 L 164.12359 525.00076 C 162.60042 520.78177 159.2191 517.40047 155.00011 515.87729 L 155.00011 414.12381 C 159.2191 412.60065 162.60042 409.21933 164.12359 405.00033 L 212.73199 405.00033 L 212.73199 403.41542 C 209.2293 403.41547 205.72665 403.41448 202.2241 403.41283 C 189.76609 403.39743 177.30744 403.44315 164.84964 403.38855 L 164.84964 403.38906 C 164.10304 403.37816 163.26962 403.5619 162.79705 404.19005 C 162.4319 404.98486 162.05414 405.91497 161.6333 406.59817 C 160.30357 408.88273 158.32367 410.76822 155.98093 411.99061 C 154.95939 412.42373 153.56762 412.82349 153.41261 414.12329 L 153.41261 513.07694 C 153.5511 514.39554 153.00932 515.96718 154.02549 517.04776 C 154.80928 517.60873 155.81132 517.82615 156.61758 518.38153 C 158.80925 519.64523 160.77683 521.67403 161.97901 523.99255 C 162.41828 525.01971 162.81175 526.43071 164.12307 526.58826 L 212.73199 526.58826 z " /><path
       id="path12334"
       style="color:#000000;fill:#666666;fill-opacity:1;stroke-linecap:round;stroke-linejoin:round;-inkscape-stroke:none"
       inkscape:label="grid"
       d="M 212.73199 535.00067 L 265.87706 535.00067 C 267.40021 539.21942 270.78133 542.6004 275.00002 544.12363 L 275.00002 631.60821 L 276.58804 631.60821 C 276.58796 603.23345 276.58837 574.85833 276.58752 546.48369 C 276.51432 545.23054 276.94207 543.62573 275.74468 542.75988 C 272.53192 541.5371 269.71836 539.21206 268.1038 536.15305 C 267.58795 535.13623 267.30406 533.66523 265.97628 533.42764 C 248.23018 533.39841 230.48039 533.41496 212.73199 533.41524 L 212.73199 535.00067 z " /><path
       id="path12332"
       style="color:#000000;fill:#666666;fill-opacity:1;stroke-linecap:round;stroke-linejoin:round;-inkscape-stroke:none"
       inkscape:label="grid"
       d="M 212.73199 535.00067 L 212.73199 533.41524 C 209.2293 533.41529 205.72665 533.4143 202.2241 533.41265 C 189.76609 533.39725 177.30744 533.4439 164.84964 533.3894 C 164.05519 533.3766 163.12593 533.59372 162.70713 534.33818 C 161.50358 537.58322 159.09847 540.36322 156.02744 541.96923 C 154.99386 542.4127 153.57838 542.80693 153.41261 544.12363 L 153.41261 631.60821 L 155.00011 631.60821 L 155.00011 544.12363 C 159.21905 542.60047 162.6004 539.2196 164.12359 535.00067 L 212.73199 535.00067 z " /><path
       id="path12330"
       style="color:#000000;fill:#666666;fill-opacity:1;stroke-linecap:round;stroke-linejoin:round;-inkscape-stroke:none"
       inkscape:label="grid"
       d="M 82.59988 533.41265 L 72.224286 533.41265 C 59.766279 533.39725 47.307622 533.4439 34.849823 533.3894 L 34.849823 533.38888 C 34.05538 533.37608 33.126118 533.59372 32.707318 534.33818 C 31.498882 537.58064 29.102326 540.36622 26.027622 541.96923 C 24.994037 542.4127 23.578045 542.80693 23.412278 544.12363 L 23.412278 631.60821 L 25.000295 631.60821 L 25.000295 544.12363 C 29.21923 542.60047 32.600584 539.2196 34.123769 535.00067 L 82.59988 535.00067 L 82.59988 533.41265 z " /><path
       id="path12328"
       style="color:#000000;fill:#666666;fill-opacity:1;stroke-linecap:round;stroke-linejoin:round;-inkscape-stroke:none"
       inkscape:label="grid"
       d="M 82.59988 533.41265 L 82.59988 535.00067 L 135.87725 535.00067 C 137.40043 539.21952 140.78137 542.60045 145.00021 544.12363 L 145.00021 631.60821 L 146.58667 631.60821 C 146.58623 603.16687 146.60034 574.72485 146.57634 546.28422 C 146.57034 545.06722 146.87933 543.47959 145.66218 542.70769 C 142.46146 541.51299 139.70058 539.16351 138.09417 536.1391 C 137.59178 535.09316 137.25317 533.58676 135.87725 533.41265 L 82.59988 533.41265 z " /><path
       id="path12326"
       style="color:#000000;fill:#666666;fill-opacity:1;stroke-linecap:round;stroke-linejoin:round;-inkscape-stroke:none"
       inkscape:label="grid"
       d="M 82.59988 403.41283 L 72.224286 403.41283 C 59.766279 403.39743 47.307622 403.44366 34.849823 403.38906 C 34.103224 403.37816 33.269812 403.5619 32.797235 404.19005 C 32.432086 404.98486 32.053806 405.91497 31.632965 406.59817 C 30.334238 408.82368 28.426053 410.68146 26.152679 411.89707 C 25.134617 412.41407 23.665575 412.69577 23.427264 414.02459 C 23.392214 431.13973 23.422268 448.25998 23.412278 465.37701 C 23.424108 481.52333 23.388448 497.67095 23.429848 513.81643 C 23.403498 515.00433 23.159834 516.55006 24.33987 517.29529 C 27.544942 518.4857 30.305249 520.84528 31.910467 523.87163 C 32.412998 524.88597 32.708647 526.33767 34.02455 526.57328 C 50.214119 526.60638 66.408221 526.58157 82.59988 526.58723 L 82.59988 525.00076 L 34.123769 525.00076 C 32.600612 520.78177 29.219284 517.40047 25.000295 515.87729 L 25.000295 414.12381 C 29.219284 412.60065 32.600612 409.21933 34.123769 405.00033 L 82.59988 405.00033 L 82.59988 403.41283 z " /><path
       id="path12324"
       style="color:#000000;fill:#666666;fill-opacity:1;stroke-linecap:round;stroke-linejoin:round;-inkscape-stroke:none"
       inkscape:label="grid"
       d="M 82.59988 403.41283 L 82.59988 405.00033 L 135.87725 405.00033 C 137.4004 409.21925 140.78132 412.60063 145.00021 414.12381 L 145.00021 515.87729 C 140.78132 517.40049 137.4004 520.78185 135.87725 525.00076 L 82.59988 525.00076 L 82.59988 526.58723 C 83.52557 526.58755 84.451298 526.58772 85.376971 526.58826 C 101.52329 526.57656 117.67091 526.61209 133.81639 526.57069 C 135.0043 526.59679 136.55027 526.8413 137.29525 525.66067 C 138.50319 522.404 140.9215 519.61251 144.01215 518.01411 C 145.03423 517.57864 146.43314 517.18041 146.58822 515.87729 C 146.58022 482.67974 146.60444 449.48138 146.57634 416.2844 C 146.57034 415.0674 146.87881 413.47926 145.66166 412.70736 C 142.46095 411.51265 139.70058 409.16369 138.09417 406.13928 C 137.59178 405.09334 137.25317 403.58694 135.87725 403.41283 L 82.59988 403.41283 z " /><path
       id="path12322"
       style="color:#000000;fill:#666666;fill-opacity:1;stroke-linecap:round;stroke-linejoin:round;-inkscape-stroke:none"
       inkscape:label="grid"
       d="M 82.59988 395.00043 L 34.123769 395.00043 C 32.600584 390.78151 29.21923 387.40062 25.000295 385.87747 L 25.000295 305.39143 L 23.421063 305.39143 C 23.421602 315.38694 23.417561 325.38219 23.411761 335.37719 C 23.423591 351.52351 23.387931 367.67113 23.429331 383.81661 C 23.402981 385.00451 23.159318 386.55025 24.339353 387.29547 C 27.589822 388.5012 30.376328 390.9113 31.978164 393.99274 C 32.417434 395.0199 32.811419 396.43089 34.122736 396.58844 C 50.281661 396.58455 66.440724 396.58114 82.59988 396.58276 L 82.59988 395.00043 z " /><path
       id="path12320"
       style="color:#000000;fill:#666666;fill-opacity:1;stroke-linecap:round;stroke-linejoin:round;-inkscape-stroke:none"
       inkscape:label="grid"
       d="M 82.59988 395.00043 L 82.59988 396.58276 C 99.638746 396.58447 116.6778 396.59098 133.71614 396.57656 C 134.93313 396.57056 136.52077 396.87954 137.29267 395.6624 C 138.49865 392.41907 140.9002 389.63702 143.97236 388.03186 C 145.00594 387.58839 146.42194 387.19417 146.58771 385.87747 C 146.58171 359.049 146.58707 332.21989 146.57789 305.39143 L 144.99969 305.39143 L 144.99969 385.87747 C 140.78085 387.40065 137.39991 390.78159 135.87673 395.00043 L 82.59988 395.00043 z " /><path
       id="circle6017"
       style="fill:none;fill-opacity:1;stroke:#000000;stroke-width:1;stroke-linecap:round;stroke-linejoin:round;stroke-dasharray:none;stroke-opacity:1"
       inkscape:label="led"
       d="m 85.000004,308.66698 c -2.761393,-1.2e-4 -5.00004,2.23832 -5.000211,4.99969 -1.22e-4,2.76159 2.238611,5.00034 5.000211,5.00022 2.7614,-1.7e-4 5.000334,-2.23883 5.000212,-5.00022 -1.71e-4,-2.76116 -2.239019,-4.99952 -5.000212,-4.99969 z m 130.000336,0 c -2.7614,-1.2e-4 -5.00001,2.23832 -5.00021,4.99969 -1e-4,2.76159 2.23861,5.00034 5.00021,5.00022 2.7614,-1.7e-4 4.99979,-2.23883 4.99969,-5.00022 -2e-4,-2.76116 -2.23849,-4.99952 -4.99969,-4.99969 z m -130.119708,1.06763 c 1.42733,-0.0316 2.8467,0.76491 3.546553,2.01332 1.048401,1.74867 0.402157,4.17581 -1.311031,5.24464 -1.989906,1.3728 -5.002517,0.30006 -5.801713,-1.94717 -0.931051,-2.28675 0.821906,-5.10942 3.280937,-5.29322 0.09502,-0.01 0.190098,-0.0155 0.285254,-0.0176 z m 130.000338,0 c 1.42728,-0.0316 2.84675,0.76491 3.54655,2.01332 1.0484,1.74867 0.40217,4.17581 -1.31103,5.24464 -1.9899,1.3728 -5.00252,0.30006 -5.80172,-1.94717 -0.93108,-2.28675 0.82194,-5.10942 3.28094,-5.29322 0.095,-0.01 0.19006,-0.0155 0.28526,-0.0176 z M 85.000004,342.00034 c -1.137293,0.008 -2.23772,0.40436 -3.119706,1.12242 -0.399592,0.31168 -0.749476,0.68231 -1.037662,1.09915 v 5.2e-4 c -0.181912,0.27219 -0.336651,0.56159 -0.461988,0.86403 v 5.2e-4 c -0.125371,0.3024 -0.220739,0.61637 -0.284737,0.93741 v 5.2e-4 c -0.06389,0.32111 -0.09608,0.64772 -0.09612,0.97513 -2.1e-5,1.66991 0.833618,3.2296 2.222086,4.15737 h 5.17e-4 c 0.272192,0.18191 0.561589,0.33665 0.86403,0.46199 h 5.17e-4 c 0.302398,0.12537 0.616372,0.22074 0.93741,0.28473 h 5.17e-4 c 0.321115,0.0639 0.647726,0.0961 0.975134,0.0961 0.317466,-9.1e-4 0.634122,-0.0321 0.945679,-0.093 0.01655,-0.003 0.03309,-0.006 0.04961,-0.009 0.303479,-0.0622 0.600516,-0.15254 0.887284,-0.26975 0.02021,-0.008 0.04036,-0.0164 0.06046,-0.0248 0.285657,-0.12023 0.559514,-0.26676 0.818038,-0.4377 0.01244,-0.009 0.02484,-0.0172 0.03721,-0.0258 0.528177,-0.35711 0.983175,-0.81193 1.340487,-1.33997 0.0094,-0.0134 0.01918,-0.0268 0.02842,-0.0403 0.170263,-0.25776 0.316268,-0.53074 0.436149,-0.81545 0.0091,-0.0215 0.01806,-0.043 0.02687,-0.0646 0.116561,-0.28615 0.206344,-0.58249 0.2682,-0.88522 0.0028,-0.0158 0.0056,-0.0317 0.0083,-0.0475 0.0612,-0.31188 0.09251,-0.62888 0.09353,-0.94671 v -5.2e-4 -5.1e-4 c -8.81e-4,-0.31764 -0.03203,-0.63447 -0.09302,-0.9462 -0.0028,-0.0162 -0.0058,-0.0324 -0.0088,-0.0486 -0.06189,-0.30253 -0.15167,-0.59872 -0.2682,-0.8847 -0.0088,-0.0216 -0.01776,-0.0431 -0.02687,-0.0646 -0.120046,-0.28473 -0.266225,-0.55772 -0.436666,-0.81546 -0.0089,-0.013 -0.01785,-0.0258 -0.02687,-0.0387 -0.35736,-0.52846 -0.812544,-0.98365 -1.341003,-1.34101 -0.01236,-0.009 -0.02477,-0.0173 -0.03721,-0.0258 -0.258052,-0.17067 -0.531385,-0.31704 -0.816488,-0.43719 -0.02147,-0.009 -0.043,-0.0181 -0.06459,-0.0269 -0.28632,-0.11659 -0.583348,-0.20637 -0.886251,-0.2682 -0.01549,-0.003 -0.03099,-0.006 -0.04651,-0.008 -0.312219,-0.0613 -0.629573,-0.0926 -0.947746,-0.0935 z m 130.000336,0 c -1.1373,0.008 -2.23771,0.40436 -3.11971,1.12242 -0.3996,0.31168 -0.74946,0.68231 -1.03766,1.09915 v 5.2e-4 c -0.1819,0.27219 -0.33669,0.56159 -0.46199,0.86403 v 5.2e-4 c -0.1254,0.3024 -0.22074,0.61637 -0.28474,0.93741 v 5.2e-4 c -0.064,0.32111 -0.0961,0.64772 -0.0961,0.97513 0,1.66991 0.83358,3.2296 2.22208,4.15737 h 5.2e-4 c 0.2722,0.18191 0.56163,0.33665 0.86403,0.46199 h 5.2e-4 c 0.3024,0.12537 0.61631,0.22074 0.93741,0.28473 h 5.1e-4 c 0.3211,0.0639 0.64774,0.0961 0.97514,0.0961 0.3175,-9.1e-4 0.63418,-0.0321 0.94568,-0.093 0.017,-0.003 0.0331,-0.006 0.0501,-0.009 0.3035,-0.0622 0.60059,-0.15254 0.88729,-0.26975 0.02,-0.008 0.04,-0.0164 0.061,-0.0248 0.2856,-0.12023 0.55953,-0.26676 0.81803,-0.4377 0.012,-0.009 0.0247,-0.0172 0.0367,-0.0258 0.5282,-0.35711 0.98319,-0.81193 1.34049,-1.33997 0.01,-0.0134 0.0194,-0.0268 0.0284,-0.0403 0.1703,-0.25776 0.31625,-0.53074 0.43615,-0.81545 0.01,-0.0215 0.0179,-0.043 0.0269,-0.0646 0.1165,-0.28615 0.2063,-0.58249 0.2682,-0.88522 0,-0.0158 0.01,-0.0317 0.01,-0.0475 0.061,-0.31188 0.092,-0.62888 0.093,-0.94671 v -5.2e-4 -5.1e-4 c -9e-4,-0.31764 -0.032,-0.63447 -0.093,-0.9462 0,-0.0162 -0.01,-0.0324 -0.01,-0.0486 -0.062,-0.30253 -0.1517,-0.59872 -0.2682,-0.8847 -0.01,-0.0216 -0.0179,-0.0431 -0.0269,-0.0646 -0.12,-0.28473 -0.26616,-0.55772 -0.43666,-0.81546 -0.01,-0.013 -0.0184,-0.0258 -0.0274,-0.0387 -0.3574,-0.52846 -0.81261,-0.98365 -1.34101,-1.34101 -0.012,-0.009 -0.0247,-0.0173 -0.0367,-0.0258 -0.258,-0.17067 -0.53138,-0.31704 -0.81648,-0.43719 -0.021,-0.009 -0.0431,-0.0181 -0.0651,-0.0269 -0.2864,-0.11659 -0.58283,-0.20637 -0.88573,-0.2682 -0.015,-0.003 -0.031,-0.006 -0.046,-0.008 -0.3122,-0.0613 -0.62965,-0.0926 -0.94775,-0.0935 z m -129.967779,1.06867 c 1.275986,0.008 2.510407,0.70387 3.22926,1.75235 0.394166,0.54238 0.605388,1.17203 0.657324,1.81591 0.103955,1.52504 -0.688524,3.12671 -2.090312,3.83904 -0.51147,0.29372 -1.073701,0.43838 -1.639693,0.45527 -0.0021,5e-5 -0.0041,-4e-5 -0.0062,0 -0.128749,0.004 -0.257452,-8e-4 -0.386023,-0.0103 -0.03659,-0.003 -0.07303,-0.008 -0.109554,-0.0114 -0.100414,-0.0101 -0.20073,-0.0231 -0.30024,-0.0408 -0.05233,-0.009 -0.104085,-0.0221 -0.156063,-0.0336 -0.08542,-0.0187 -0.170597,-0.0379 -0.254765,-0.062 -0.06495,-0.0187 -0.128723,-0.0411 -0.192753,-0.063 -0.06954,-0.0236 -0.139488,-0.0461 -0.207739,-0.0734 -0.06921,-0.0276 -0.136434,-0.0596 -0.204122,-0.0909 -0.0651,-0.03 -0.130808,-0.0587 -0.194303,-0.092 -0.05932,-0.0311 -0.115867,-0.067 -0.173633,-0.10077 -0.06896,-0.0405 -0.138666,-0.0797 -0.205156,-0.12402 -0.0429,-0.0285 -0.08327,-0.0604 -0.125057,-0.0904 -0.07764,-0.0561 -0.155485,-0.11181 -0.228926,-0.17312 -0.02139,-0.0178 -0.041,-0.0376 -0.06201,-0.0558 -0.518071,-0.45105 -0.921154,-1.03106 -1.121895,-1.70739 -0.14709,-0.41176 -0.206782,-0.83662 -0.195854,-1.25729 4.19e-4,-0.0156 -0.0011,-0.0314 -5.17e-4,-0.047 0.0043,-0.11041 0.0174,-0.22026 0.03152,-0.3297 0.0048,-0.037 0.0065,-0.0743 0.0124,-0.1111 0.01477,-0.0928 0.0374,-0.18389 0.05891,-0.27544 0.01242,-0.0525 0.02212,-0.10561 0.03669,-0.15761 0.02188,-0.0785 0.05037,-0.15494 0.077,-0.23203 0.02185,-0.063 0.04122,-0.1267 0.06615,-0.18862 0.02623,-0.0654 0.05779,-0.12873 0.08733,-0.19275 0.03324,-0.0718 0.06506,-0.14408 0.102319,-0.21394 0.02737,-0.0515 0.05888,-0.10058 0.08837,-0.1509 0.04637,-0.0789 0.09231,-0.15827 0.14366,-0.23409 0.02812,-0.0416 0.05931,-0.0809 0.08888,-0.12144 0.05728,-0.0785 0.114789,-0.15667 0.17725,-0.23099 0.03376,-0.0402 0.0702,-0.0779 0.10542,-0.11679 0.06426,-0.0709 0.129048,-0.14147 0.19792,-0.20774 0.03554,-0.0342 0.07335,-0.0658 0.110071,-0.0987 0.07354,-0.0658 0.147813,-0.13048 0.225826,-0.19069 0.03664,-0.0283 0.07507,-0.0541 0.112655,-0.0811 0.08296,-0.0595 0.166968,-0.11777 0.254248,-0.17053 0.0358,-0.0217 0.07305,-0.041 0.109554,-0.0615 0.0934,-0.0523 0.188155,-0.10217 0.285771,-0.14624 0.03333,-0.0151 0.06748,-0.0282 0.101285,-0.0424 0.104272,-0.0433 0.209974,-0.0835 0.318327,-0.11679 0.05929,-0.0184 0.119401,-0.0348 0.179834,-0.0501 0.08862,-0.0221 0.177896,-0.042 0.268718,-0.0569 0.02156,-0.004 0.04343,-0.006 0.06511,-0.009 0.133993,-0.0194 0.269762,-0.0321 0.407727,-0.0351 0.0853,-0.006 0.170215,-0.008 0.255282,-0.007 z m 129.996719,0 h 0.004 c 1.276,0.008 2.51036,0.70387 3.22926,1.75235 0.3941,0.54238 0.60543,1.17203 0.65733,1.81591 0.104,1.52504 -0.68852,3.12671 -2.09032,3.83904 -0.5115,0.29372 -1.07369,0.43838 -1.63969,0.45527 0,5e-5 -3.3e-4,-4e-5 -0.0103,0 -0.1288,0.004 -0.25753,-8e-4 -0.38603,-0.0103 -0.037,-0.003 -0.073,-0.008 -0.10955,-0.0114 -0.1004,-0.0101 -0.20074,-0.0231 -0.30024,-0.0408 -0.052,-0.009 -0.10406,-0.0221 -0.15606,-0.0336 -0.085,-0.0187 -0.17057,-0.0379 -0.25477,-0.062 -0.065,-0.0187 -0.12875,-0.0411 -0.19275,-0.063 -0.07,-0.0236 -0.13944,-0.0461 -0.20774,-0.0734 -0.069,-0.0276 -0.13642,-0.0596 -0.20412,-0.0909 -0.065,-0.03 -0.13081,-0.0587 -0.19431,-0.092 -0.059,-0.0311 -0.11593,-0.067 -0.17363,-0.10077 -0.069,-0.0405 -0.13866,-0.0797 -0.20516,-0.12402 -0.043,-0.0285 -0.083,-0.0604 -0.12505,-0.0904 -0.078,-0.0561 -0.15543,-0.11181 -0.22893,-0.17312 -0.021,-0.0178 -0.041,-0.0376 -0.062,-0.0558 -0.5181,-0.45105 -0.9211,-1.03106 -1.1219,-1.70739 -0.1471,-0.41176 -0.20685,-0.83662 -0.19585,-1.25729 4e-4,-0.0156 8e-5,-0.0314 -5.2e-4,-0.047 0,-0.11041 0.017,-0.22026 0.032,-0.3297 0,-0.037 0.01,-0.0743 0.0119,-0.1111 0.015,-0.0928 0.0369,-0.18389 0.0589,-0.27544 0.012,-0.0525 0.0222,-0.10561 0.0372,-0.15761 0.022,-0.0785 0.05,-0.15494 0.077,-0.23203 0.022,-0.063 0.0412,-0.1267 0.0662,-0.18862 0.026,-0.0654 0.0578,-0.12873 0.0868,-0.19275 0.033,-0.0718 0.0649,-0.14408 0.10232,-0.21394 0.027,-0.0515 0.0594,-0.10058 0.0884,-0.1509 0.046,-0.0789 0.092,-0.15827 0.14366,-0.23409 0.028,-0.0416 0.0589,-0.0809 0.0889,-0.12144 0.057,-0.0785 0.11485,-0.15667 0.17725,-0.23099 0.034,-0.0402 0.0699,-0.0779 0.10542,-0.11679 0.064,-0.0709 0.12902,-0.14147 0.19792,-0.20774 0.035,-0.0342 0.0731,-0.0658 0.11007,-0.0987 0.074,-0.0658 0.14782,-0.13048 0.22582,-0.19069 0.037,-0.0283 0.0751,-0.0541 0.11266,-0.0811 0.083,-0.0595 0.16695,-0.11777 0.25425,-0.17053 0.036,-0.0217 0.073,-0.041 0.10955,-0.0615 0.093,-0.0523 0.18817,-0.10217 0.28577,-0.14624 0.033,-0.0151 0.068,-0.0282 0.10129,-0.0424 0.1043,-0.0433 0.21002,-0.0835 0.31832,-0.11679 0.059,-0.0184 0.11934,-0.0348 0.17984,-0.0501 0.089,-0.0221 0.17792,-0.042 0.26872,-0.0569 0.021,-0.004 0.0431,-0.006 0.0651,-0.009 0.134,-0.0194 0.26973,-0.0321 0.40773,-0.0351 0.085,-0.006 0.17018,-0.008 0.25528,-0.007 z m -130.029276,32.2647 c -2.761597,-1.2e-4 -5.000327,2.23864 -5.000211,5.00021 1.66e-4,2.76139 2.238814,4.99982 5.000211,4.9997 2.761196,-1.7e-4 5.000046,-2.23851 5.000212,-4.9997 1.16e-4,-2.76137 -2.238816,-5.00004 -5.000212,-5.00021 z m 130.000336,0 c -2.7616,-1.2e-4 -5.00031,2.23864 -5.00021,5.00021 2e-4,2.76139 2.23881,4.99982 5.00021,4.9997 2.7612,-1.7e-4 4.99949,-2.23851 4.99969,-4.9997 1e-4,-2.76137 -2.23829,-5.00004 -4.99969,-5.00021 z m -130.128493,1.05885 c 0.08371,-0.003 0.167184,-0.003 0.250631,0 1.168265,0.0392 2.305673,0.63326 3.014286,1.56321 1.504422,1.81652 0.758623,4.79613 -1.300179,5.85029 -2.046426,1.17951 -4.908521,-0.0262 -5.575887,-2.26911 -0.812722,-2.27471 0.963623,-4.94535 3.360001,-5.1263 0.08349,-0.009 0.167438,-0.0151 0.251148,-0.0181 z m 130.000333,0 c 0.084,-0.003 0.16723,-0.003 0.25063,0 1.1683,0.0392 2.30569,0.63326 3.01429,1.56321 1.5044,1.81652 0.75862,4.79613 -1.30018,5.85029 -2.0464,1.17951 -4.90849,-0.0262 -5.57589,-2.26911 -0.8127,-2.27471 0.96362,-4.94535 3.36,-5.1263 0.084,-0.009 0.16745,-0.0151 0.25115,-0.0181 z M 85.000004,408.66708 c -2.761393,-1.2e-4 -5.00004,2.2383 -5.000211,4.99969 -1.16e-4,2.76159 2.238614,5.00033 5.000211,5.00021 2.761396,-1.7e-4 5.000328,-2.23882 5.000212,-5.00021 -1.71e-4,-2.76118 -2.239019,-4.99952 -5.000212,-4.99969 z m 130.000336,0 c -2.7614,-1.2e-4 -5.00001,2.2383 -5.00021,4.99969 -1e-4,2.76159 2.23861,5.00033 5.00021,5.00021 2.7614,-1.7e-4 4.99979,-2.23882 4.99969,-5.00021 -2e-4,-2.76118 -2.23849,-4.99952 -4.99969,-4.99969 z m -130.119708,1.06763 c 1.42733,-0.0316 2.8467,0.76491 3.546553,2.01332 1.048401,1.74864 0.402157,4.17581 -1.311031,5.24464 -1.989906,1.3728 -5.002517,0.30006 -5.801713,-1.94717 -0.931051,-2.28675 0.821906,-5.10942 3.280937,-5.29322 0.09502,-0.01 0.190098,-0.0155 0.285254,-0.0176 z m 130.000338,0 c 1.42728,-0.0316 2.84675,0.76491 3.54655,2.01332 1.0484,1.74864 0.40217,4.17581 -1.31103,5.24464 -1.9899,1.3728 -5.00252,0.30006 -5.80172,-1.94717 -0.93108,-2.28675 0.82194,-5.10942 3.28094,-5.29322 0.095,-0.01 0.19006,-0.0155 0.28526,-0.0176 z M 85.000004,441.99993 c -0.989022,0 -1.955819,0.29331 -2.778125,0.84284 -0.545836,0.36474 -1.014498,0.83341 -1.379243,1.37924 v 5.2e-4 c -0.181912,0.27219 -0.336651,0.56159 -0.461988,0.86403 v 5.2e-4 c -0.125371,0.3024 -0.220739,0.61637 -0.284737,0.93741 v 5.1e-4 c -0.06389,0.32112 -0.09608,0.64773 -0.09612,0.97514 3.6e-5,0.32741 0.03223,0.65402 0.09612,0.97513 v 5.2e-4 c 0.128199,0.64385 0.381932,1.25615 0.746725,1.80196 v 5.1e-4 c 0.364744,0.54584 0.833406,1.0145 1.379243,1.37925 h 5.17e-4 c 0.272192,0.18191 0.561589,0.33664 0.86403,0.46198 h 5.17e-4 c 0.302398,0.12537 0.616372,0.22074 0.93741,0.28474 h 5.17e-4 c 0.321115,0.0639 0.647726,0.0961 0.975134,0.0961 0.318189,-0.001 0.635544,-0.0327 0.947746,-0.0941 0.01552,-0.003 0.03102,-0.005 0.04651,-0.008 0.302903,-0.0618 0.599414,-0.15161 0.885734,-0.2682 0.02159,-0.009 0.04313,-0.0178 0.0646,-0.0269 0.283957,-0.11967 0.556244,-0.26533 0.813387,-0.43512 0.01487,-0.0102 0.02968,-0.0206 0.04444,-0.031 0.262737,-0.17668 0.508093,-0.37792 0.732772,-0.601 l 5.17e-4,-5.2e-4 c 0.224778,-0.22612 0.427409,-0.47323 0.605131,-0.73794 0.0081,-0.0117 0.01675,-0.0234 0.02481,-0.0351 0.170911,-0.25836 0.317438,-0.53204 0.437699,-0.81752 0.0091,-0.0215 0.01806,-0.043 0.02687,-0.0646 0.116561,-0.28615 0.206344,-0.58249 0.2682,-0.88522 0.0028,-0.0158 0.0056,-0.0317 0.0083,-0.0475 0.06123,-0.31205 0.09254,-0.62923 0.09353,-0.94723 -9.85e-4,-0.318 -0.0323,-0.63518 -0.09353,-0.94723 -0.0027,-0.0159 -0.0054,-0.0317 -0.0083,-0.0475 -0.06186,-0.30273 -0.151639,-0.59907 -0.2682,-0.88522 -0.0088,-0.0216 -0.01776,-0.0431 -0.02687,-0.0646 -0.120261,-0.28548 -0.266788,-0.55916 -0.437699,-0.81752 -0.008,-0.0118 -0.01666,-0.023 -0.02481,-0.0346 -0.356703,-0.52784 -0.810986,-0.98266 -1.33842,-1.33997 -0.01476,-0.0102 -0.02957,-0.0209 -0.04444,-0.031 -0.257143,-0.16979 -0.529431,-0.31494 -0.813387,-0.4346 -0.02147,-0.009 -0.043,-0.0186 -0.0646,-0.0274 -0.28632,-0.11659 -0.582831,-0.20637 -0.885734,-0.2682 -0.01549,-0.003 -0.03099,-0.006 -0.04651,-0.008 -0.312202,-0.0614 -0.629557,-0.0928 -0.947746,-0.094 z m 130.000336,0 c -0.989,0 -1.95583,0.29331 -2.77813,0.84284 -0.5458,0.36474 -1.01444,0.83341 -1.37924,1.37924 v 5.2e-4 c -0.1819,0.27219 -0.33669,0.56159 -0.46199,0.86403 v 5.2e-4 c -0.1254,0.3024 -0.22074,0.61637 -0.28474,0.93741 v 5.1e-4 c -0.064,0.32112 -0.0961,0.64773 -0.0961,0.97514 0,0.32741 0.0321,0.65402 0.0961,0.97513 v 5.2e-4 c 0.1282,0.64385 0.38203,1.25615 0.74673,1.80196 v 5.1e-4 c 0.3648,0.54584 0.83344,1.0145 1.37924,1.37925 h 5.2e-4 c 0.2722,0.18191 0.56153,0.33664 0.86403,0.46198 h 5.2e-4 c 0.3024,0.12537 0.61631,0.22074 0.93741,0.28474 h 5.1e-4 c 0.3211,0.0639 0.64774,0.0961 0.97514,0.0961 0.3182,-0.001 0.63554,-0.0327 0.94774,-0.0941 0.015,-0.003 0.031,-0.005 0.046,-0.008 0.3029,-0.0618 0.59943,-0.15161 0.88573,-0.2682 0.022,-0.009 0.0431,-0.0178 0.0651,-0.0269 0.284,-0.11967 0.55629,-0.26533 0.81339,-0.43512 0.015,-0.0102 0.0299,-0.0206 0.0439,-0.031 0.2627,-0.17668 0.50818,-0.37792 0.73278,-0.601 l 5.1e-4,-5.2e-4 c 0.2247,-0.22612 0.42743,-0.47323 0.60513,-0.73794 0.01,-0.0117 0.0158,-0.0234 0.0238,-0.0351 0.17088,-0.25836 0.31739,-0.53204 0.43769,-0.81752 0.01,-0.0215 0.0179,-0.043 0.0269,-0.0646 0.1165,-0.28615 0.2063,-0.58249 0.2682,-0.88522 0,-0.0158 0.0103,-0.0317 0.0103,-0.0475 0.061,-0.31205 0.092,-0.62923 0.093,-0.94723 0,-0.318 -0.032,-0.63518 -0.093,-0.94723 0,-0.0159 -0.0103,-0.0317 -0.0103,-0.0475 -0.062,-0.30273 -0.1517,-0.59907 -0.2682,-0.88522 -0.01,-0.0216 -0.0179,-0.0431 -0.0269,-0.0646 -0.1203,-0.28548 -0.26681,-0.55916 -0.43769,-0.81752 -0.01,-0.0118 -0.0158,-0.023 -0.0238,-0.0346 -0.3567,-0.52784 -0.81102,-0.98266 -1.33842,-1.33997 -0.015,-0.0102 -0.0299,-0.0209 -0.0439,-0.031 -0.2571,-0.16979 -0.52939,-0.31494 -0.81339,-0.4346 -0.021,-0.009 -0.0431,-0.0186 -0.0651,-0.0274 -0.2863,-0.11659 -0.58283,-0.20637 -0.88573,-0.2682 -0.015,-0.003 -0.031,-0.006 -0.046,-0.008 -0.3122,-0.0614 -0.62954,-0.0928 -0.94774,-0.094 z m -129.967779,1.06918 c 1.275986,0.008 2.510407,0.70387 3.22926,1.75235 0.394166,0.54238 0.605388,1.17203 0.657324,1.81591 0.103955,1.52503 -0.688524,3.12619 -2.090312,3.83852 -0.51147,0.29372 -1.073701,0.43889 -1.639693,0.45579 -0.0019,4e-5 -0.0038,-4e-5 -0.0057,0 -0.130993,0.004 -0.26194,-9.5e-4 -0.392741,-0.0108 -0.03003,-0.002 -0.05993,-0.006 -0.08992,-0.009 -0.105111,-0.0102 -0.210061,-0.0238 -0.314193,-0.0424 -0.05213,-0.009 -0.103767,-0.0216 -0.155546,-0.0331 -0.08542,-0.0187 -0.170597,-0.0379 -0.254765,-0.062 -0.0627,-0.0181 -0.124191,-0.04 -0.186035,-0.061 -0.07342,-0.0248 -0.147119,-0.0492 -0.219108,-0.078 -0.06367,-0.0255 -0.125719,-0.0547 -0.188102,-0.0832 -0.06922,-0.0317 -0.138773,-0.0623 -0.206189,-0.0977 -0.05911,-0.031 -0.115553,-0.0666 -0.173116,-0.10025 -0.06896,-0.0405 -0.138666,-0.0797 -0.205156,-0.12403 -0.0429,-0.0285 -0.08327,-0.0603 -0.125057,-0.0904 -0.07764,-0.0561 -0.155485,-0.11181 -0.228926,-0.17312 -0.02139,-0.0178 -0.041,-0.0376 -0.06201,-0.0558 -0.518071,-0.45105 -0.921154,-1.03156 -1.121895,-1.7079 -0.14709,-0.41176 -0.206782,-0.8361 -0.195854,-1.25677 4.19e-4,-0.0157 -0.0011,-0.0314 -5.17e-4,-0.047 0.0043,-0.11041 0.0174,-0.22025 0.03152,-0.32969 0.0048,-0.037 0.0065,-0.0743 0.0124,-0.11111 0.01451,-0.0911 0.03687,-0.18086 0.05788,-0.27078 0.01288,-0.0548 0.02302,-0.11012 0.03824,-0.16433 0.02087,-0.0747 0.04768,-0.14769 0.07286,-0.22118 0.02302,-0.0668 0.04381,-0.13434 0.07028,-0.19999 0.02534,-0.0631 0.05632,-0.12372 0.08475,-0.18552 0.03386,-0.0734 0.06633,-0.14722 0.104386,-0.21859 0.02737,-0.0515 0.05888,-0.10057 0.08837,-0.15089 0.04637,-0.0789 0.09231,-0.15828 0.14366,-0.2341 0.02812,-0.0416 0.05931,-0.0809 0.08888,-0.12144 0.05728,-0.0784 0.114789,-0.15667 0.17725,-0.23099 0.03376,-0.0402 0.0702,-0.0779 0.10542,-0.11679 0.06442,-0.0711 0.129376,-0.14182 0.198437,-0.20825 0.03447,-0.0332 0.07139,-0.0637 0.10697,-0.0956 0.07423,-0.0666 0.149094,-0.13243 0.227893,-0.19327 0.03783,-0.0292 0.07743,-0.0559 0.116272,-0.0837 0.08187,-0.0586 0.164567,-0.11591 0.250631,-0.16795 0.03593,-0.0218 0.07344,-0.0409 0.110071,-0.0615 0.0934,-0.0523 0.188155,-0.10218 0.285771,-0.14625 0.03333,-0.0151 0.06748,-0.0282 0.101285,-0.0424 0.104272,-0.0433 0.209974,-0.0835 0.318327,-0.11679 0.06678,-0.0208 0.134355,-0.0395 0.202572,-0.0563 0.08206,-0.0198 0.164639,-0.0374 0.248564,-0.0512 0.01711,-0.003 0.03449,-0.005 0.05168,-0.007 0.137474,-0.0204 0.276905,-0.0335 0.418579,-0.0367 0.0853,-0.006 0.170215,-0.008 0.255282,-0.007 z m 130.000849,0 c 1.276,0.008 2.51036,0.70387 3.22926,1.75235 0.3941,0.54238 0.60543,1.17203 0.65733,1.81591 0.104,1.52503 -0.68852,3.12619 -2.09032,3.83852 -0.5115,0.29372 -1.07369,0.43889 -1.63969,0.45579 0,4e-5 -3.3e-4,-4e-5 -0.0103,0 -0.131,0.004 -0.26195,-9.5e-4 -0.39275,-0.0108 -0.03,-0.002 -0.0599,-0.006 -0.0899,-0.009 -0.1051,-0.0102 -0.21,-0.0238 -0.3142,-0.0424 -0.052,-0.009 -0.10374,-0.0216 -0.15554,-0.0331 -0.085,-0.0187 -0.17057,-0.0379 -0.25477,-0.062 -0.063,-0.0181 -0.12423,-0.04 -0.18603,-0.061 -0.073,-0.0248 -0.14711,-0.0492 -0.21911,-0.078 -0.064,-0.0255 -0.1258,-0.0547 -0.1881,-0.0832 -0.069,-0.0317 -0.13879,-0.0623 -0.20619,-0.0977 -0.059,-0.031 -0.11562,-0.0666 -0.17312,-0.10025 -0.069,-0.0405 -0.13865,-0.0797 -0.20515,-0.12403 -0.043,-0.0285 -0.083,-0.0603 -0.12506,-0.0904 -0.078,-0.0561 -0.15543,-0.11181 -0.22893,-0.17312 -0.021,-0.0178 -0.041,-0.0376 -0.062,-0.0558 -0.5181,-0.45105 -0.92119,-1.03156 -1.12189,-1.7079 -0.1471,-0.41176 -0.20676,-0.8361 -0.19586,-1.25677 5e-4,-0.0157 -1e-5,-0.0314 -5.1e-4,-0.047 0,-0.11041 0.017,-0.22025 0.032,-0.32969 0,-0.037 0.01,-0.0743 0.0119,-0.11111 0.015,-0.0911 0.0369,-0.18086 0.0579,-0.27078 0.013,-0.0548 0.0232,-0.11012 0.0382,-0.16433 0.021,-0.0747 0.0479,-0.14769 0.0729,-0.22118 0.023,-0.0668 0.0443,-0.13434 0.0703,-0.19999 0.025,-0.0631 0.0558,-0.12372 0.0848,-0.18552 0.034,-0.0734 0.0661,-0.14722 0.10439,-0.21859 0.027,-0.0515 0.0589,-0.10057 0.0879,-0.15089 0.046,-0.0789 0.092,-0.15828 0.14366,-0.2341 0.028,-0.0416 0.0589,-0.0809 0.0889,-0.12144 0.057,-0.0784 0.11475,-0.15667 0.17725,-0.23099 0.034,-0.0402 0.07,-0.0779 0.10542,-0.11679 0.064,-0.0711 0.12934,-0.14182 0.19844,-0.20825 0.034,-0.0332 0.0711,-0.0637 0.10697,-0.0956 0.074,-0.0666 0.14909,-0.13243 0.22789,-0.19327 0.038,-0.0292 0.078,-0.0559 0.11628,-0.0837 0.082,-0.0586 0.16463,-0.11591 0.25063,-0.16795 0.036,-0.0218 0.073,-0.0409 0.11007,-0.0615 0.093,-0.0523 0.18817,-0.10218 0.28577,-0.14625 0.033,-0.0151 0.068,-0.0282 0.10128,-0.0424 0.1042,-0.0433 0.20993,-0.0835 0.31833,-0.11679 0.067,-0.0208 0.13437,-0.0395 0.20257,-0.0563 0.082,-0.0198 0.16467,-0.0374 0.24857,-0.0512 0.017,-0.003 0.0342,-0.005 0.0522,-0.007 0.1375,-0.0204 0.27688,-0.0335 0.41858,-0.0367 0.085,-0.006 0.17018,-0.008 0.25528,-0.007 z M 85.000004,475.33329 c -2.761597,-1.2e-4 -5.000327,2.23864 -5.000211,5.00021 1.66e-4,2.76139 2.238814,4.99982 5.000211,4.9997 2.761196,-1.7e-4 5.000046,-2.23851 5.000212,-4.9997 1.16e-4,-2.76137 -2.238816,-5.00004 -5.000212,-5.00021 z m 130.000336,0 c -2.7616,-1.2e-4 -5.00031,2.23864 -5.00021,5.00021 2e-4,2.76139 2.23881,4.99982 5.00021,4.9997 2.7612,-1.7e-4 4.99949,-2.23851 4.99969,-4.9997 1e-4,-2.76137 -2.23829,-5.00004 -4.99969,-5.00021 z m -129.877862,1.05885 c 1.168265,0.0392 2.305673,0.63327 3.014286,1.56321 1.504422,1.81652 0.758623,4.79613 -1.300179,5.85029 -2.046426,1.17951 -4.908521,-0.0262 -5.575887,-2.26911 -0.812722,-2.27471 0.963623,-4.94535 3.360001,-5.1263 0.166988,-0.0177 0.334883,-0.0237 0.501779,-0.0181 z m 130.000332,0 c 1.1683,0.0392 2.30569,0.63327 3.01429,1.56321 1.5044,1.81652 0.75862,4.79613 -1.30018,5.85029 -2.0464,1.17951 -4.90849,-0.0262 -5.57589,-2.26911 -0.8127,-2.27471 0.96362,-4.94535 3.36,-5.1263 0.167,-0.0177 0.33488,-0.0237 0.50178,-0.0181 z M 85.000004,508.66666 c -2.761393,-1.2e-4 -5.00004,2.23832 -5.000211,4.99969 -1.16e-4,2.76159 2.238614,5.00033 5.000211,5.00021 2.761396,-1.7e-4 5.000328,-2.23882 5.000212,-5.00021 -1.71e-4,-2.76116 -2.239019,-4.99952 -5.000212,-4.99969 z m 130.000336,0 c -2.7614,-1.2e-4 -5.00001,2.23832 -5.00021,4.99969 -1e-4,2.76159 2.23861,5.00033 5.00021,5.00021 2.7614,-1.7e-4 4.99979,-2.23882 4.99969,-5.00021 -2e-4,-2.76116 -2.23849,-4.99952 -4.99969,-4.99969 z m -130.119708,1.06763 c 1.42733,-0.0316 2.8467,0.76491 3.546553,2.01332 1.048401,1.74865 0.402157,4.17581 -1.311031,5.24464 -1.989906,1.3728 -5.002517,0.30006 -5.801713,-1.94717 -0.931051,-2.28675 0.821906,-5.10942 3.280937,-5.29322 0.09502,-0.01 0.190098,-0.0155 0.285254,-0.0176 z m 130.000338,0 c 1.42728,-0.0316 2.84675,0.76491 3.54655,2.01332 1.0484,1.74865 0.40217,4.17581 -1.31103,5.24464 -1.9899,1.3728 -5.00252,0.30006 -5.80172,-1.94717 -0.93108,-2.28675 0.82194,-5.10942 3.28094,-5.29322 0.095,-0.01 0.19006,-0.0155 0.28526,-0.0176 z M 85.000004,542.00002 c -0.989023,0 -1.95582,0.29332 -2.778125,0.84285 -1.102518,0.73671 -1.86724,1.88121 -2.125968,3.18171 v 5.2e-4 c -0.06385,0.32095 -0.09605,0.64738 -0.09612,0.97462 2e-6,0.32758 0.0322,0.65437 0.09612,0.97565 v 5.2e-4 c 0.064,0.32104 0.159366,0.63501 0.284737,0.93741 v 5.1e-4 c 0.125337,0.30244 0.280076,0.59184 0.461988,0.86403 v 5.2e-4 c 0.364745,0.54583 0.833407,1.0145 1.379243,1.37924 h 5.17e-4 c 0.272192,0.18191 0.561589,0.33665 0.86403,0.46199 h 5.17e-4 c 0.606537,0.25114 1.256587,0.38038 1.913061,0.38034 0.318173,-9.5e-4 0.635527,-0.0323 0.947746,-0.0935 0.01552,-0.003 0.03102,-0.005 0.04651,-0.008 0.302903,-0.0618 0.599414,-0.15161 0.885734,-0.2682 0.02159,-0.009 0.04313,-0.0178 0.0646,-0.0269 0.283957,-0.11967 0.556244,-0.26532 0.813387,-0.43511 0.01487,-0.0101 0.02968,-0.0203 0.04444,-0.0305 0.526732,-0.35701 0.980471,-0.81128 1.33687,-1.33842 0.009,-0.0129 0.01798,-0.0258 0.02687,-0.0388 0.170441,-0.25774 0.317137,-0.53072 0.437183,-0.81545 0.0091,-0.0215 0.01754,-0.043 0.02635,-0.0646 0.11653,-0.28598 0.20683,-0.58215 0.268717,-0.8847 0.003,-0.0162 0.0059,-0.0324 0.0088,-0.0486 0.06102,-0.3119 0.09217,-0.62892 0.09302,-0.94671 v -5.2e-4 -5.2e-4 c -0.0011,-0.31765 -0.03236,-0.63448 -0.09353,-0.94619 -0.0027,-0.0159 -0.0059,-0.0317 -0.0088,-0.0476 -0.06186,-0.30272 -0.151641,-0.59906 -0.268201,-0.88521 -0.0088,-0.0216 -0.01776,-0.0431 -0.02687,-0.0646 -0.119881,-0.28471 -0.265887,-0.55769 -0.436149,-0.81545 -0.0092,-0.0135 -0.01853,-0.0269 -0.02791,-0.0403 -0.177365,-0.26375 -0.379472,-0.50998 -0.603581,-0.73536 l -5.17e-4,-5.1e-4 c -0.225679,-0.22434 -0.47226,-0.42663 -0.736389,-0.6041 -0.01236,-0.009 -0.02477,-0.0173 -0.03721,-0.0258 -0.258524,-0.17094 -0.532381,-0.31747 -0.818038,-0.4377 -0.0201,-0.008 -0.04025,-0.0167 -0.06046,-0.0248 -0.286768,-0.11721 -0.583805,-0.20752 -0.887284,-0.26975 -0.01652,-0.003 -0.03306,-0.006 -0.04961,-0.009 -0.311557,-0.061 -0.628213,-0.0921 -0.945679,-0.093 z m 129.997746,0 c -0.98808,5.2e-4 -1.95396,0.2938 -2.77554,0.84285 -1.1025,0.73671 -1.86727,1.88121 -2.12597,3.18171 v 5.2e-4 c -0.064,0.32095 -0.0961,0.64738 -0.0961,0.97462 0,0.32758 0.0321,0.65437 0.0961,0.97565 v 5.2e-4 c 0.064,0.32104 0.15934,0.63501 0.28474,0.93741 v 5.1e-4 c 0.1253,0.30244 0.28009,0.59184 0.46199,0.86403 v 5.2e-4 c 0.3648,0.54583 0.83344,1.0145 1.37924,1.37924 h 5.2e-4 c 0.2722,0.18191 0.56153,0.33665 0.86403,0.46199 h 5.2e-4 c 0.6065,0.25114 1.25666,0.38038 1.91306,0.38034 0.3182,-9.5e-4 0.63554,-0.0323 0.94774,-0.0935 0.015,-0.003 0.031,-0.005 0.046,-0.008 0.3029,-0.0618 0.59943,-0.15161 0.88573,-0.2682 0.022,-0.009 0.0431,-0.0178 0.0651,-0.0269 0.284,-0.11967 0.55629,-0.26532 0.81339,-0.43511 0.015,-0.0101 0.0299,-0.0203 0.0439,-0.0305 0.5267,-0.35701 0.98047,-0.81128 1.33687,-1.33842 0.01,-0.0129 0.0179,-0.0258 0.0269,-0.0388 0.1705,-0.25774 0.31656,-0.53072 0.43666,-0.81545 0.01,-0.0215 0.0179,-0.043 0.0269,-0.0646 0.1165,-0.28598 0.2063,-0.58215 0.2682,-0.8847 0,-0.0162 0.0103,-0.0324 0.0103,-0.0486 0.061,-0.3119 0.0915,-0.62892 0.0925,-0.94671 v -5.2e-4 -5.2e-4 c 0,-0.31765 -0.0315,-0.63448 -0.0935,-0.94619 0,-0.0159 -0.0103,-0.0317 -0.0103,-0.0476 -0.062,-0.30272 -0.1516,-0.59906 -0.2682,-0.88521 -0.01,-0.0216 -0.0179,-0.0431 -0.0269,-0.0646 -0.1199,-0.28471 -0.26585,-0.55769 -0.43615,-0.81545 -0.01,-0.0135 -0.0189,-0.0269 -0.0279,-0.0403 -0.1774,-0.26375 -0.37948,-0.50998 -0.60358,-0.73536 l -5.1e-4,-5.1e-4 c -0.2257,-0.22434 -0.47229,-0.42663 -0.73639,-0.6041 -0.012,-0.009 -0.0252,-0.0173 -0.0372,-0.0258 -0.2585,-0.17094 -0.53244,-0.31747 -0.81804,-0.4377 -0.02,-0.008 -0.04,-0.0167 -0.061,-0.0248 -0.2868,-0.11721 -0.58378,-0.20752 -0.88728,-0.26975 -0.017,-0.003 -0.0331,-0.006 -0.0501,-0.009 -0.31075,-0.0608 -0.62646,-0.092 -0.94309,-0.093 z m -129.965189,1.06867 c 1.275986,0.008 2.510407,0.70387 3.22926,1.75235 0.394166,0.54238 0.605388,1.17255 0.657324,1.81643 0.103955,1.52501 -0.688524,3.12618 -2.090312,3.83852 -0.51147,0.29372 -1.073701,0.43837 -1.639693,0.45527 h -5.17e-4 c -0.13288,0.004 -0.265735,-4.9e-4 -0.398425,-0.0103 -0.02986,-0.002 -0.05959,-0.006 -0.0894,-0.009 -0.104748,-0.0102 -0.209382,-0.0233 -0.313159,-0.0418 -0.05598,-0.0102 -0.111346,-0.0237 -0.166915,-0.0362 -0.08015,-0.0177 -0.160216,-0.0354 -0.239262,-0.0579 -0.06672,-0.0191 -0.132164,-0.0422 -0.197921,-0.0646 -0.07096,-0.0241 -0.142258,-0.0477 -0.211873,-0.0755 -0.06535,-0.0262 -0.128761,-0.0569 -0.192753,-0.0863 -0.06775,-0.0311 -0.136039,-0.0609 -0.202055,-0.0956 -0.05797,-0.0304 -0.113535,-0.0647 -0.170016,-0.0977 -0.07024,-0.0412 -0.141089,-0.0809 -0.208772,-0.12609 -0.04278,-0.0284 -0.08286,-0.0604 -0.124541,-0.0904 -0.07744,-0.0559 -0.155142,-0.11146 -0.228409,-0.1726 -0.02241,-0.0186 -0.04261,-0.0398 -0.0646,-0.0589 -0.516896,-0.45076 -0.919401,-1.03006 -1.119828,-1.70532 -0.147084,-0.41175 -0.206775,-0.83613 -0.195854,-1.25678 4.19e-4,-0.0157 -0.0011,-0.0314 -5.17e-4,-0.047 0.0043,-0.11041 0.0174,-0.22025 0.03152,-0.3297 0.0048,-0.037 0.0065,-0.0743 0.0124,-0.1111 0.01451,-0.0911 0.03687,-0.18087 0.05788,-0.27079 0.01288,-0.0548 0.02302,-0.11011 0.03824,-0.16433 0.02087,-0.0747 0.04768,-0.14768 0.07286,-0.22117 0.02302,-0.0668 0.04381,-0.13434 0.07028,-0.19999 0.02589,-0.0644 0.05719,-0.12654 0.0863,-0.18965 0.03293,-0.0712 0.06441,-0.14312 0.101286,-0.21239 0.02977,-0.0561 0.06385,-0.10964 0.09612,-0.16433 0.04377,-0.074 0.08722,-0.14836 0.135392,-0.21963 0.03065,-0.0454 0.06426,-0.0886 0.09664,-0.13281 0.05561,-0.0758 0.111105,-0.15131 0.171566,-0.22324 0.03231,-0.0385 0.06763,-0.0743 0.101286,-0.11162 0.06661,-0.0737 0.134091,-0.14677 0.205672,-0.21549 0.03196,-0.0307 0.06578,-0.0592 0.0987,-0.0889 0.07577,-0.0682 0.152517,-0.13521 0.23306,-0.19741 0.03783,-0.0292 0.07743,-0.0559 0.116272,-0.0837 0.08187,-0.0586 0.164567,-0.11592 0.250631,-0.16795 0.03593,-0.0218 0.07344,-0.0409 0.110071,-0.0615 0.0938,-0.0525 0.188747,-0.10305 0.286804,-0.14727 0.03122,-0.0142 0.06346,-0.026 0.09508,-0.0393 0.107268,-0.0448 0.216034,-0.0863 0.327628,-0.1204 0.0624,-0.0193 0.125473,-0.0368 0.189136,-0.0527 0.08507,-0.0208 0.170784,-0.0389 0.257866,-0.0532 0.0185,-0.003 0.03723,-0.005 0.05581,-0.008 0.136135,-0.02 0.274199,-0.0331 0.414445,-0.0362 0.0853,-0.006 0.170215,-0.008 0.255282,-0.007 z m 130.000849,0 c 1.276,0.008 2.51036,0.70387 3.22926,1.75235 0.3941,0.54238 0.60543,1.17255 0.65733,1.81643 0.104,1.52501 -0.68852,3.12618 -2.09032,3.83852 -0.5115,0.29372 -1.07369,0.43837 -1.63969,0.45527 h -5.2e-4 c -0.1329,0.004 -0.26572,-4.9e-4 -0.39842,-0.0103 -0.03,-0.002 -0.0604,-0.006 -0.0894,-0.009 -0.1047,-0.0102 -0.20936,-0.0233 -0.31316,-0.0418 -0.056,-0.0102 -0.11142,-0.0237 -0.16692,-0.0362 -0.08,-0.0177 -0.16026,-0.0354 -0.23926,-0.0579 -0.067,-0.0191 -0.13222,-0.0422 -0.19792,-0.0646 -0.071,-0.0241 -0.14227,-0.0477 -0.21187,-0.0755 -0.065,-0.0262 -0.12875,-0.0569 -0.19275,-0.0863 -0.068,-0.0311 -0.13606,-0.0609 -0.20206,-0.0956 -0.058,-0.0304 -0.11352,-0.0647 -0.17002,-0.0977 -0.07,-0.0412 -0.14107,-0.0809 -0.20877,-0.12609 -0.043,-0.0284 -0.083,-0.0604 -0.12454,-0.0904 -0.077,-0.0559 -0.15511,-0.11146 -0.22841,-0.1726 -0.022,-0.0186 -0.0431,-0.0398 -0.0651,-0.0589 -0.5168,-0.45076 -0.91891,-1.03006 -1.11931,-1.70532 -0.1471,-0.41175 -0.20686,-0.83613 -0.19586,-1.25678 4e-4,-0.0157 -4.3e-4,-0.0314 -0.001,-0.047 0,-0.11041 0.017,-0.22025 0.032,-0.3297 0,-0.037 0.0104,-0.0743 0.0124,-0.1111 0.015,-0.0911 0.0369,-0.18087 0.0579,-0.27079 0.013,-0.0548 0.0227,-0.11011 0.0377,-0.16433 0.021,-0.0747 0.0484,-0.14768 0.0734,-0.22117 0.023,-0.0668 0.0438,-0.13434 0.0698,-0.19999 0.026,-0.0644 0.0573,-0.12654 0.0863,-0.18965 0.033,-0.0712 0.064,-0.14312 0.10128,-0.21239 0.03,-0.0561 0.0636,-0.10964 0.0956,-0.16433 0.044,-0.074 0.087,-0.14836 0.1354,-0.21963 0.031,-0.0454 0.0641,-0.0886 0.0971,-0.13281 0.056,-0.0758 0.11116,-0.15131 0.17156,-0.22324 0.032,-0.0385 0.068,-0.0743 0.10129,-0.11162 0.067,-0.0737 0.13407,-0.14677 0.20567,-0.21549 0.032,-0.0307 0.0662,-0.0592 0.0992,-0.0889 0.076,-0.0682 0.15246,-0.13521 0.23306,-0.19741 0.038,-0.0292 0.0771,-0.0559 0.11627,-0.0837 0.082,-0.0586 0.16453,-0.11592 0.25063,-0.16795 0.036,-0.0218 0.0731,-0.0409 0.11008,-0.0615 0.094,-0.0525 0.18828,-0.10305 0.28628,-0.14727 0.031,-0.0142 0.0641,-0.026 0.0951,-0.0393 0.1073,-0.0448 0.21613,-0.0863 0.32763,-0.1204 0.062,-0.0193 0.12543,-0.0368 0.18913,-0.0527 0.085,-0.0208 0.17087,-0.0389 0.25787,-0.0532 0.018,-0.003 0.0373,-0.005 0.0563,-0.008 0.1361,-0.02 0.27425,-0.0331 0.41445,-0.0362 0.085,-0.006 0.17018,-0.008 0.25528,-0.007 z m -130.033406,32.2647 c -2.761597,-1.2e-4 -5.000327,2.23862 -5.000211,5.00021 1.66e-4,2.76139 2.238814,4.99982 5.000211,4.9997 2.761196,-1.7e-4 5.000046,-2.23851 5.000212,-4.9997 1.16e-4,-2.76139 -2.238816,-5.00004 -5.000212,-5.00021 z m 130.000336,0 c -2.7616,-1.2e-4 -5.00031,2.23862 -5.00021,5.00021 2e-4,2.76139 2.23881,4.99982 5.00021,4.9997 2.7612,-1.7e-4 4.99949,-2.23851 4.99969,-4.9997 1e-4,-2.76139 -2.23829,-5.00004 -4.99969,-5.00021 z m -129.877862,1.05885 c 1.168265,0.0392 2.305673,0.63326 3.014286,1.56321 1.504422,1.81652 0.758623,4.79613 -1.300179,5.85029 -2.046426,1.17951 -4.908521,-0.0262 -5.575887,-2.26911 -0.812722,-2.27471 0.963623,-4.94535 3.360001,-5.1263 0.166988,-0.0177 0.334883,-0.0237 0.501779,-0.0181 z m 130.000332,0 c 1.1683,0.0392 2.30569,0.63326 3.01429,1.56321 1.5044,1.81652 0.75862,4.79613 -1.30018,5.85029 -2.0464,1.17951 -4.90849,-0.0262 -5.57589,-2.26911 -0.8127,-2.27471 0.96362,-4.94535 3.36,-5.1263 0.167,-0.0177 0.33488,-0.0237 0.50178,-0.0181 z M 85.000004,608.66676 c -2.761393,-1.2e-4 -5.00004,2.2383 -5.000211,4.99969 -1.16e-4,2.76159 2.238614,5.00033 5.000211,5.00021 2.761396,-1.7e-4 5.000328,-2.23882 5.000212,-5.00021 -1.71e-4,-2.76118 -2.239019,-4.99952 -5.000212,-4.99969 z m 130.000336,0 c -2.7614,-1.2e-4 -5.00001,2.2383 -5.00021,4.99969 -1e-4,2.76159 2.23861,5.00033 5.00021,5.00021 2.7614,-1.7e-4 4.99979,-2.23882 4.99969,-5.00021 -2e-4,-2.76118 -2.23849,-4.99952 -4.99969,-4.99969 z m -130.119708,1.06763 c 1.42733,-0.0316 2.8467,0.76493 3.546553,2.01331 1.048401,1.74867 0.402157,4.17582 -1.311031,5.24465 -1.989906,1.37277 -5.002517,0.30006 -5.801713,-1.94717 -0.931051,-2.28675 0.821906,-5.10942 3.280937,-5.29322 0.09502,-0.01 0.190098,-0.0155 0.285254,-0.0176 z m 130.000338,0 c 1.42728,-0.0316 2.84675,0.76493 3.54655,2.01331 1.0484,1.74867 0.40217,4.17582 -1.31103,5.24465 -1.9899,1.37277 -5.00252,0.30006 -5.80172,-1.94717 -0.93108,-2.28675 0.82194,-5.10942 3.28094,-5.29322 0.095,-0.01 0.19006,-0.0155 0.28526,-0.0176 z" /><rect
       style="display:inline;fill:none;fill-opacity:1;stroke:#000400;stroke-width:0.7831;stroke-linecap:round;stroke-linejoin:miter;stroke-dasharray:none;stroke-opacity:1"
       id="rect8380"
       width="336.21689"
       height="326.21689"
       x="-20.608448"
       y="305.39127"
       inkscape:label="cut3" /></g></svg>
