<?xml version="1.0" encoding="UTF-8" standalone="no"?>
<!-- Created with Inkscape (http://www.inkscape.org/) -->

<svg
   width="337mm"
   height="330mm"
   viewBox="0 0 337 330"
   version="1.1"
   id="svg5"
   xml:space="preserve"
   inkscape:version="1.2.1 (9c6d41e, 2022-07-14)"
   sodipodi:docname="QuizCube Board v1_cutter_5.svg"
   inkscape:export-filename="QuizCube Board v1_cutter.png"
   inkscape:export-xdpi="96"
   inkscape:export-ydpi="96"
   xmlns:inkscape="http://www.inkscape.org/namespaces/inkscape"
   xmlns:sodipodi="http://sodipodi.sourceforge.net/DTD/sodipodi-0.dtd"
   xmlns="http://www.w3.org/2000/svg"
   xmlns:svg="http://www.w3.org/2000/svg"><sodipodi:namedview
     id="namedview7"
     pagecolor="#505050"
     bordercolor="#eeeeee"
     borderopacity="1"
     inkscape:showpageshadow="0"
     inkscape:pageopacity="0"
     inkscape:pagecheckerboard="0"
     inkscape:deskcolor="#505050"
     inkscape:document-units="mm"
     showgrid="false"
     inkscape:zoom="0.20941921"
     inkscape:cx="527.64978"
     inkscape:cy="-584.95111"
     inkscape:window-width="1800"
     inkscape:window-height="1097"
     inkscape:window-x="0"
     inkscape:window-y="44"
     inkscape:window-maximized="1"
     inkscape:current-layer="layer1" /><defs
     id="defs2" /><g
     inkscape:label="Layer 1"
     inkscape:groupmode="layer"
     id="layer1"
     transform="translate(20.999999,-630.99966)"><path
       id="rect111"
       style="color:#000000;fill:#666666;fill-opacity:1;stroke-linecap:round;stroke-linejoin:round;-inkscape-stroke:none"
       inkscape:label="grid"
       d="m 15.000143,631.39302 v 14.50144 c -5.7840764,2.09133 -9.9999066,7.66065 -9.9999066,14.10611 0,6.44545 4.2158302,12.01439 9.9999066,14.1056 v 101.7881 c -5.7840764,2.09133 -9.9999066,7.66068 -9.9999066,14.10612 0,6.44546 4.2158302,12.01478 9.9999066,14.10612 v 101.78758 c -5.7840764,2.09134 -9.9999066,7.66067 -9.9999066,14.10612 0,8.19539 6.8042096,15.00011 14.9996016,15.00011 6.447823,0 12.034193,-4.21241 14.123685,-9.9999 H 135.877 c 2.08951,5.78746 7.67536,9.9999 14.12317,9.9999 6.44781,0 12.03367,-4.21241 14.12317,-9.9999 h 101.75348 c 2.08952,5.78746 7.67537,9.9999 14.12317,9.9999 6.44781,0 12.03366,-4.21244 14.12317,-9.9999 h 21.48344 v -1.5875 h -20.0055 c -1.07583,-0.11447 -2.4611,-0.0311 -2.98379,1.09347 -1.82773,5.0752 -6.90787,8.8535 -12.33827,8.8961 -5.03044,0.16715 -9.89561,-2.86947 -12.20287,-7.30033 -0.49463,-1.03622 -0.8419,-2.52262 -2.19935,-2.68924 h -98.55316 c -1.2052,0.10464 -2.44778,-0.19203 -3.62458,0.14831 -0.93789,0.25248 -1.16465,1.23707 -1.52756,2.00298 -2.1403,4.68113 -7.11011,7.93515 -12.27987,7.84655 -4.9149,10e-4 -9.59537,-3.01801 -11.84475,-7.35149 -0.45661,-1.04083 -0.83917,-2.47337 -2.1699,-2.64635 -33.19557,0.003 -66.391833,-0.008 -99.587201,0.005 -1.209677,0.0256 -2.738373,-0.29474 -3.561023,0.85989 -1.151524,3.15264 -3.433857,5.89293 -6.393925,7.50084 -1.213913,0.68601 -2.604977,1.16478 -3.928442,1.41128 -3.257137,0.6279 -6.714713,-0.0761 -9.505363,-1.8557 C 10.242793,929.67 8.1761707,926.9712 7.24196,924.0892 c -0.5156397,-1.57761 -0.6860323,-3.0333 -0.6438883,-4.64468 0.1909828,-4.74427 3.0818439,-9.15395 7.2884443,-11.32696 1.006378,-0.53729 2.550147,-0.84083 2.701644,-2.2226 -0.0078,-33.539 0.01475,-67.07816 -0.01137,-100.61712 0.09174,-0.98148 -0.04242,-2.16176 -1.034046,-2.65513 -2.827171,-1.02884 -5.296011,-3.0193 -6.8915686,-5.57641 -1.163378,-1.81747 -1.9470483,-4.07819 -2.0412191,-6.34689 -0.3168103,-5.17956 2.6778649,-10.20402 7.2770747,-12.58115 1.006034,-0.53797 2.54973,-0.84116 2.701128,-2.22312 V 675.5588 c 0.09077,-1.0404 0.06307,-2.38152 -1.021643,-2.91094 -4.69812,-1.72617 -8.3756771,-6.14144 -8.8852462,-11.16521 -0.680903,-5.25425 2.2471185,-10.63962 6.8507442,-13.17284 1.0488,-0.68669 2.723775,-0.83437 3.036508,-2.27634 0.0218,-4.87881 0.01124,-9.75994 0.0093,-14.64045 z m 8.411889,0 v 12.10933 c 0.08091,1.26536 -0.364722,2.88471 0.84181,3.7636 3.197718,1.2197 6.018099,3.51753 7.631058,6.56446 0.52357,1.02326 0.805036,2.49756 2.139405,2.74195 17.114855,0.037 34.235459,0.005 51.352421,0.016 16.146334,-0.0117 32.293924,0.0233 48.439424,-0.0181 1.18791,0.0261 2.73387,0.27062 3.47885,-0.91002 1.20794,-3.25667 3.62625,-6.04816 6.71691,-7.64656 1.02208,-0.43547 2.42099,-0.83319 2.57607,-2.13631 -10e-4,-4.82809 -10e-4,-9.65625 -0.002,-14.48438 h -1.58647 v 14.48387 c -4.21891,1.52319 -7.5998,4.90456 -9.12296,9.12347 H 34.123523 c -1.521847,-4.21534 -4.909736,-7.572 -9.123474,-9.09712 v -14.51022 z m 130.000338,0 v 11.78377 c 0.12355,1.33801 -0.41799,2.99727 0.75757,4.00906 0.7927,0.38614 1.74011,0.75124 2.42776,1.18184 2.27751,1.32403 4.15538,3.29476 5.38107,5.62498 0.43927,1.02716 0.83273,2.43816 2.14405,2.59571 h 98.95365 c 1.31853,-0.13888 2.89108,0.40341 3.97134,-0.6134 0.56097,-0.78379 0.77787,-1.78582 1.33325,-2.59209 1.2678,-2.19724 3.30059,-4.17268 5.63066,-5.36918 1.02208,-0.43547 2.42099,-0.83319 2.57607,-2.13631 -6e-5,-4.8281 2e-5,-9.65626 0,-14.48438 h -1.58801 v 14.48387 c -4.21877,1.52324 -7.59983,4.90466 -9.12296,9.12347 H 164.12334 c -1.52317,-4.21899 -4.90445,-7.6003 -9.12347,-9.12347 v -14.48387 z m 130.01015,0 c 0.002,4.10771 -0.002,8.21559 0.002,12.32328 0.006,1.217 -0.30291,2.80488 0.91364,3.57704 3.20239,1.19077 5.961,3.54556 7.56853,6.56807 0.4997,1.01952 0.80336,2.46923 2.11822,2.71095 7.19301,0.0155 14.3879,0.007 21.58214,0.007 v -1.57872 h -21.48344 c -1.52316,-4.21891 -4.90402,-7.60028 -9.12296,-9.12347 V 631.39302 Z M 34.849577,663.389 c -0.903502,-0.0311 -1.879391,0.26545 -2.252059,1.17202 -1.15445,3.09863 -3.486808,5.70498 -6.38669,7.27914 -1.036594,0.52324 -2.528171,0.81394 -2.783293,2.15904 -0.03654,17.13185 -0.0051,34.26916 -0.0155,51.40307 0.01183,16.14633 -0.02383,32.29392 0.01757,48.43942 -0.02681,1.18721 -0.268306,2.73015 0.908472,3.47679 3.240491,1.21007 6.037645,3.5974 7.636743,6.67607 0.44564,1.0273 0.837524,2.43065 2.14819,2.59364 33.197583,-0.008 66.39638,0.0162 99.5934,-0.0119 1.21699,-0.006 2.80463,0.30299 3.57653,-0.91416 1.20599,-3.24333 3.60753,-6.02538 6.67969,-7.63054 1.03358,-0.44346 2.44958,-0.83769 2.61535,-2.15439 -0.008,-33.19758 0.0162,-66.39639 -0.0119,-99.5934 -0.006,-1.217 0.30299,-2.80463 -0.91416,-3.57653 -3.20072,-1.1947 -5.9616,-3.54417 -7.56801,-6.56859 -0.50239,-1.04594 -0.841,-2.55234 -2.21692,-2.72645 H 72.22404 c -12.458019,-0.0154 -24.916652,0.0312 -37.374463,-0.0232 z m 129.999813,0 c -0.76604,-0.0107 -1.64573,0.18402 -2.09237,0.86558 -1.23863,3.27916 -3.64018,6.12904 -6.77634,7.73596 -1.02154,0.43313 -2.4133,0.83288 -2.56831,2.13268 v 98.95365 c 0.13849,1.3186 -0.4033,2.89023 0.61288,3.97082 0.78379,0.56096 1.78582,0.77787 2.59209,1.33325 2.19216,1.26379 4.16072,3.29169 5.36143,5.61155 0.43927,1.02716 0.83273,2.43815 2.14405,2.5957 33.19759,-0.008 66.3964,0.0162 99.59341,-0.0119 1.217,-0.006 2.80462,0.30299 3.57652,-0.91416 1.19868,-3.21804 3.57022,-5.99204 6.61717,-7.59282 1.03851,-0.48318 2.50857,-0.8388 2.67787,-2.19211 -4.1e-4,-33.13113 4.9e-4,-66.26232 -5.1e-4,-99.39342 -0.0732,-1.25315 0.35454,-2.85847 -0.84285,-3.72432 -3.21276,-1.22278 -6.02631,-3.54782 -7.64087,-6.60683 -0.51585,-1.01682 -0.79974,-2.48782 -2.12752,-2.72541 -21.24836,-0.035 -42.50194,-0.005 -63.75218,-0.015 -12.45803,-0.0154 -24.91666,0.0312 -37.37447,-0.0232 z m 130.00034,0 c -0.67497,-0.007 -1.40701,0.13282 -1.90221,0.62683 -0.54783,0.79736 -0.77518,1.7909 -1.32809,2.60139 -1.26924,2.19974 -3.3054,4.17717 -5.63893,5.37332 -1.02155,0.43313 -2.41331,0.83288 -2.56832,2.13268 0.008,33.19759 -0.0162,66.3964 0.0119,99.59341 0.006,1.21701 -0.30291,2.80437 0.91364,3.57652 3.24504,1.20357 6.02504,3.60868 7.63106,6.6797 0.44347,1.03358 0.83769,2.44958 2.15439,2.61534 7.1611,-0.002 14.32226,-0.003 21.48344,-0.003 v -1.58543 h -21.48344 c -1.52318,-4.21883 -4.9041,-7.59978 -9.12296,-9.12296 V 674.12374 c 4.21894,-1.52319 7.5998,-4.90453 9.12296,-9.12347 h 21.48344 v -1.59835 c -6.91897,0.004 -13.83801,0.0173 -20.75687,-0.0129 z M 34.123523,665.00027 H 135.877 c 1.52316,4.21894 4.90405,7.60028 9.12296,9.12347 v 101.75348 c -4.21883,1.52318 -7.59978,4.90413 -9.12296,9.12296 H 34.123523 c -1.521881,-4.2153 -4.909753,-7.57196 -9.123474,-9.09712 V 674.09739 c 4.213738,-1.52513 7.601627,-4.88175 9.123474,-9.09712 z m 129.999817,0 h 101.75348 c 1.52313,4.21884 4.90419,7.60023 9.12296,9.12347 v 101.75348 c -4.21869,1.52323 -7.59981,4.90423 -9.12296,9.12296 H 164.12334 c -1.52319,-4.21891 -4.90453,-7.5998 -9.12347,-9.12296 V 674.12374 c 4.21902,-1.52317 7.6003,-4.90445 9.12347,-9.12347 z M 34.849577,793.38881 c -0.795833,-0.0131 -1.72493,0.20598 -2.144572,0.95137 -1.202377,3.25407 -3.630929,6.02998 -6.718453,7.61917 -1.02131,0.44211 -2.418887,0.83471 -2.57452,2.13837 v 99.40427 c 0.08019,1.26466 -0.362996,2.8838 0.84181,3.76256 3.195873,1.22563 6.016232,3.5183 7.631058,6.56549 0.52357,1.02326 0.805036,2.49756 2.139405,2.74195 17.114855,0.037 34.235459,0.005 51.352421,0.016 16.146334,-0.0117 32.293924,0.0238 48.439424,-0.0176 1.18791,0.0261 2.73387,0.27062 3.47885,-0.91002 1.20794,-3.25667 3.62625,-6.04816 6.71691,-7.64656 1.02208,-0.43547 2.42099,-0.8337 2.57607,-2.13682 -0.008,-33.19759 0.0162,-66.39587 -0.0119,-99.59289 -0.006,-1.21699 0.30299,-2.80514 -0.91416,-3.57704 -3.20072,-1.19471 -5.9616,-3.54367 -7.56801,-6.56808 -0.50239,-1.04594 -0.841,-2.55234 -2.21692,-2.72645 H 72.22404 c -12.458019,-0.0154 -24.916652,0.0308 -37.374463,-0.0238 z m 129.999813,0 c -0.7466,-0.0109 -1.58001,0.17284 -2.05258,0.80099 -0.36515,0.79481 -0.74292,1.72492 -1.16376,2.40812 -1.32973,2.28457 -3.30963,4.17005 -5.65237,5.39244 -1.02154,0.43313 -2.4133,0.83339 -2.56831,2.1332 v 98.95313 c 0.13849,1.31859 -0.4033,2.89075 0.61288,3.97134 0.78379,0.56097 1.78582,0.77787 2.59209,1.33325 2.19167,1.2637 4.15924,3.2925 5.36143,5.61102 0.43927,1.02716 0.83273,2.43816 2.14405,2.59571 h 98.95365 c 1.31853,-0.13888 2.89108,0.40393 3.97134,-0.61288 0.56097,-0.78379 0.77787,-1.78582 1.33325,-2.59209 1.2678,-2.19723 3.30059,-4.17268 5.63066,-5.36918 1.02208,-0.43547 2.42099,-0.8337 2.57607,-2.13682 -4.1e-4,-33.13114 4.9e-4,-66.26231 -5.1e-4,-99.39342 -0.0732,-1.25315 0.35454,-2.85847 -0.84285,-3.72432 -3.21276,-1.22278 -6.02631,-3.54781 -7.64087,-6.60683 -0.51585,-1.01682 -0.79974,-2.48731 -2.12752,-2.7249 -21.24836,-0.035 -42.50194,-0.005 -63.75218,-0.015 -12.45803,-0.0154 -24.91666,0.0308 -37.37447,-0.0238 z m 130.00034,0 c -0.67497,-0.007 -1.40701,0.13283 -1.90221,0.62684 -0.54783,0.79737 -0.77518,1.79142 -1.32809,2.60191 -1.26924,2.19974 -3.3054,4.17665 -5.63893,5.3728 -1.02155,0.43313 -2.41331,0.83339 -2.56832,2.1332 0.008,33.19759 -0.0162,66.39587 0.0119,99.59289 0.006,1.217 -0.30291,2.80436 0.91364,3.57652 3.24504,1.20356 6.02504,3.60867 7.63106,6.6797 0.44347,1.03358 0.83769,2.44957 2.15439,2.61534 h 21.48344 v -1.5875 h -21.48344 c -1.52316,-4.21894 -4.90402,-7.60028 -9.12296,-9.12347 V 804.12356 c 4.21891,-1.5232 7.59981,-4.90457 9.12296,-9.12348 h 21.48344 v -1.59783 c -6.91897,0.004 -13.83801,0.0169 -20.75687,-0.0134 z M 34.123523,795.00008 H 135.877 c 1.52315,4.21891 4.90408,7.60028 9.12296,9.12348 v 101.75348 c -4.21891,1.52319 -7.5998,4.90453 -9.12296,9.12347 H 34.123523 c -1.521847,-4.21537 -4.909736,-7.57236 -9.123474,-9.09763 V 804.09772 c 4.213738,-1.52527 7.601627,-4.88228 9.123474,-9.09764 z m 129.999817,0 h 101.75348 c 1.52312,4.21881 4.90421,7.60023 9.12296,9.12348 v 101.75348 c -4.21877,1.52324 -7.59983,4.90463 -9.12296,9.12347 H 164.12334 c -1.52317,-4.21902 -4.90445,-7.6003 -9.12347,-9.12347 V 804.12356 c 4.21899,-1.52318 7.6003,-4.90449 9.12347,-9.12348 z" /><path
       id="circle6017"
       style="fill:none;fill-opacity:1;stroke:#000000;stroke-width:1;stroke-linecap:round;stroke-linejoin:round;stroke-dasharray:none;stroke-opacity:1"
       inkscape:label="led"
       d="m 85.000004,642.00012 c -0.989022,0 -1.955819,0.29331 -2.778125,0.84284 -1.388318,0.92767 -2.221937,2.48713 -2.222086,4.15686 v 5.1e-4 c 3.5e-5,0.32741 0.03223,0.65402 0.09612,0.97514 v 5.1e-4 c 0.064,0.32104 0.159366,0.63501 0.284737,0.93741 v 5.2e-4 c 0.378379,0.91354 1.019122,1.69437 1.841231,2.24379 h 5.17e-4 c 0.272192,0.18191 0.561589,0.33665 0.86403,0.46199 h 5.17e-4 c 0.302417,0.12519 0.61639,0.22039 0.93741,0.28422 h 5.17e-4 c 0.321115,0.0639 0.647726,0.0961 0.975134,0.0961 0.318173,-9.5e-4 0.635527,-0.0323 0.947746,-0.0935 0.01552,-0.003 0.03102,-0.005 0.04651,-0.008 0.304377,-0.0623 0.602284,-0.15272 0.889868,-0.27026 0.01882,-0.008 0.0376,-0.0154 0.05633,-0.0233 0.286583,-0.12042 0.561314,-0.2673 0.820621,-0.43873 0.01244,-0.009 0.02484,-0.0172 0.03721,-0.0258 0.528459,-0.35736 0.98416,-0.81254 1.34152,-1.341 0.009,-0.0129 0.01798,-0.0258 0.02687,-0.0388 0.170703,-0.25821 0.317058,-0.53172 0.437183,-0.817 0.0088,-0.021 0.01737,-0.042 0.02584,-0.063 0.116706,-0.28597 0.206663,-0.58213 0.268717,-0.8847 0.003,-0.0162 0.0059,-0.0324 0.0088,-0.0486 0.06102,-0.31188 0.09217,-0.6289 0.09302,-0.94671 v -5.1e-4 -5.2e-4 c -0.001,-0.31783 -0.03233,-0.63483 -0.09353,-0.94671 -0.0027,-0.0155 -0.0059,-0.031 -0.0088,-0.0465 -0.06183,-0.3029 -0.151609,-0.59942 -0.268201,-0.88574 -0.0088,-0.0216 -0.01776,-0.0431 -0.02687,-0.0646 -0.119881,-0.28471 -0.265886,-0.5577 -0.436149,-0.81546 -0.0092,-0.0135 -0.01853,-0.0269 -0.02791,-0.0403 -0.357312,-0.52804 -0.81231,-0.98286 -1.340487,-1.33997 -0.01236,-0.009 -0.02477,-0.0173 -0.03721,-0.0258 -0.258524,-0.17094 -0.532381,-0.31747 -0.818038,-0.4377 -0.0201,-0.008 -0.04025,-0.0167 -0.06046,-0.0248 -0.286768,-0.11721 -0.583804,-0.20751 -0.887284,-0.26975 -0.01652,-0.003 -0.03306,-0.006 -0.04961,-0.009 -0.311557,-0.061 -0.628213,-0.0921 -0.945679,-0.093 z m 129.997746,0 c -0.98808,5.1e-4 -1.95396,0.29379 -2.77554,0.84284 -1.3883,0.92767 -2.22188,2.48713 -2.22208,4.15686 v 5.1e-4 c 0,0.32741 0.0321,0.65402 0.0961,0.97514 v 5.1e-4 c 0.064,0.32104 0.15934,0.63501 0.28474,0.93741 v 5.2e-4 c 0.3783,0.91354 1.01913,1.69437 1.84123,2.24379 h 5.2e-4 c 0.2722,0.18191 0.56153,0.33665 0.86403,0.46199 h 5.2e-4 c 0.3024,0.12519 0.61641,0.22039 0.93741,0.28422 h 5.1e-4 c 0.3211,0.0639 0.64774,0.0961 0.97514,0.0961 0.3182,-9.5e-4 0.63554,-0.0323 0.94774,-0.0935 0.015,-0.003 0.031,-0.005 0.046,-0.008 0.3044,-0.0623 0.60226,-0.15272 0.88986,-0.27026 0.019,-0.008 0.0378,-0.0154 0.0558,-0.0233 0.2866,-0.12042 0.56133,-0.2673 0.82063,-0.43873 0.012,-0.009 0.0252,-0.0172 0.0372,-0.0258 0.5285,-0.35736 0.98361,-0.81254 1.34101,-1.341 0.01,-0.0129 0.0179,-0.0258 0.0269,-0.0388 0.1707,-0.25821 0.31708,-0.53172 0.43718,-0.817 0.01,-0.021 0.0168,-0.042 0.0258,-0.063 0.1168,-0.28597 0.20713,-0.58213 0.26923,-0.8847 0,-0.0162 0.01,-0.0324 0.01,-0.0486 0.061,-0.31188 0.092,-0.6289 0.093,-0.94671 v -5.1e-4 -5.2e-4 c 0,-0.31783 -0.032,-0.63483 -0.0941,-0.94671 0,-0.0155 -0.01,-0.031 -0.01,-0.0465 -0.062,-0.3029 -0.1516,-0.59942 -0.2682,-0.88574 -0.01,-0.0216 -0.0184,-0.0431 -0.0274,-0.0646 -0.1199,-0.28471 -0.26585,-0.5577 -0.43615,-0.81546 -0.01,-0.0135 -0.0189,-0.0269 -0.0279,-0.0403 -0.3573,-0.52804 -0.81229,-0.98286 -1.34049,-1.33997 -0.012,-0.009 -0.0252,-0.0173 -0.0372,-0.0258 -0.2585,-0.17094 -0.53192,-0.31747 -0.81752,-0.4377 -0.02,-0.008 -0.04,-0.0167 -0.061,-0.0248 -0.2868,-0.11721 -0.5843,-0.20751 -0.8878,-0.26975 -0.017,-0.003 -0.0326,-0.006 -0.0496,-0.009 -0.31075,-0.0608 -0.62646,-0.092 -0.94309,-0.093 z m -129.965189,1.06867 c 1.275986,0.008 2.510407,0.70387 3.22926,1.75235 0.394166,0.54238 0.605388,1.17254 0.657324,1.81642 0.10394,1.52503 -0.688535,3.1262 -2.090312,3.83853 -0.51147,0.29372 -1.073701,0.43837 -1.639693,0.45527 -0.0021,5e-5 -0.0041,-4e-5 -0.0062,0 -0.129442,0.004 -0.258829,-9.2e-4 -0.38809,-0.0103 -0.03417,-0.003 -0.06821,-0.007 -0.102319,-0.0103 -0.10197,-0.0102 -0.203851,-0.0229 -0.304891,-0.0408 -0.05598,-0.0101 -0.111346,-0.0237 -0.166915,-0.0362 -0.08015,-0.0178 -0.160216,-0.0354 -0.239262,-0.0579 -0.06672,-0.0191 -0.132164,-0.0422 -0.197921,-0.0646 -0.07096,-0.0241 -0.142258,-0.0476 -0.211873,-0.0755 -0.06535,-0.0262 -0.128761,-0.0569 -0.192753,-0.0863 -0.06775,-0.0311 -0.136039,-0.061 -0.202055,-0.0956 -0.05797,-0.0304 -0.113535,-0.0647 -0.170016,-0.0977 -0.07024,-0.0411 -0.141089,-0.0809 -0.208772,-0.12609 -0.04103,-0.0273 -0.07936,-0.0581 -0.119373,-0.0868 -0.08046,-0.0579 -0.161224,-0.11577 -0.237195,-0.17931 -0.01574,-0.0131 -0.02994,-0.0281 -0.04547,-0.0413 -0.524768,-0.45269 -0.932807,-1.03744 -1.135331,-1.71979 -0.14715,-0.41192 -0.206846,-0.83696 -0.195854,-1.2578 4.19e-4,-0.0155 -0.0011,-0.031 -5.17e-4,-0.0465 0.0043,-0.11003 0.01748,-0.21909 0.03152,-0.32815 0.0049,-0.0373 0.0064,-0.075 0.0124,-0.11213 0.01451,-0.0912 0.03687,-0.18087 0.05788,-0.27079 0.01288,-0.0548 0.02302,-0.11011 0.03824,-0.16433 0.02087,-0.0747 0.04768,-0.14768 0.07286,-0.22117 0.02302,-0.0669 0.04381,-0.13434 0.07028,-0.19999 0.02589,-0.0644 0.05719,-0.12654 0.0863,-0.18965 0.03293,-0.0712 0.06441,-0.14312 0.101286,-0.21239 0.02977,-0.056 0.06385,-0.10966 0.09612,-0.16434 0.04377,-0.074 0.08722,-0.14835 0.135392,-0.21962 0.03065,-0.0454 0.06426,-0.0886 0.09664,-0.13281 0.05561,-0.0758 0.111105,-0.15131 0.171566,-0.22324 0.03302,-0.0393 0.06893,-0.0761 0.103353,-0.11421 0.06497,-0.0718 0.130805,-0.14326 0.200504,-0.21032 0.03545,-0.0341 0.07292,-0.0659 0.109554,-0.0987 0.07326,-0.0656 0.147093,-0.13016 0.224793,-0.19017 0.03874,-0.0299 0.07958,-0.0568 0.119372,-0.0853 0.07972,-0.057 0.16022,-0.11305 0.243913,-0.16381 0.04085,-0.0248 0.0833,-0.047 0.125057,-0.0703 0.08865,-0.0493 0.178355,-0.0966 0.270785,-0.13849 0.03583,-0.0163 0.07267,-0.0303 0.109037,-0.0455 0.104362,-0.0432 0.209886,-0.0836 0.318327,-0.11679 0.06256,-0.0194 0.125827,-0.0368 0.189652,-0.0527 0.08184,-0.02 0.164346,-0.0377 0.248047,-0.0517 0.02839,-0.005 0.05719,-0.008 0.08578,-0.0124 0.129687,-0.0183 0.260903,-0.0306 0.394291,-0.0336 0.0853,-0.006 0.170215,-0.008 0.255282,-0.007 z m 129.997229,0 h 0.004 c 1.276,0.008 2.51036,0.70387 3.22926,1.75235 0.3941,0.54238 0.60543,1.17254 0.65733,1.81642 0.1039,1.52503 -0.68852,3.1262 -2.09032,3.83853 -0.5115,0.29372 -1.07369,0.43837 -1.63969,0.45527 0,5e-5 -3.3e-4,-4e-5 -0.0103,0 -0.1295,0.004 -0.25889,-9.2e-4 -0.38809,-0.0103 -0.034,-0.003 -0.068,-0.007 -0.10232,-0.0103 -0.102,-0.0102 -0.20391,-0.0229 -0.30489,-0.0408 -0.056,-0.0101 -0.11142,-0.0237 -0.16692,-0.0362 -0.08,-0.0178 -0.16026,-0.0354 -0.23926,-0.0579 -0.067,-0.0191 -0.13222,-0.0422 -0.19792,-0.0646 -0.071,-0.0241 -0.14228,-0.0476 -0.21188,-0.0755 -0.065,-0.0262 -0.12875,-0.0569 -0.19275,-0.0863 -0.068,-0.0311 -0.13605,-0.061 -0.20205,-0.0956 -0.058,-0.0304 -0.11352,-0.0647 -0.17002,-0.0977 -0.07,-0.0411 -0.14107,-0.0809 -0.20877,-0.12609 -0.041,-0.0273 -0.079,-0.0581 -0.11937,-0.0868 -0.08,-0.0579 -0.1612,-0.11577 -0.2372,-0.17931 -0.016,-0.0131 -0.03,-0.0281 -0.045,-0.0413 -0.5248,-0.45269 -0.93283,-1.03744 -1.13533,-1.71979 -0.1471,-0.41192 -0.20685,-0.83696 -0.19585,-1.2578 4e-4,-0.0155 8e-5,-0.031 -5.2e-4,-0.0465 0,-0.11003 0.017,-0.21909 0.032,-0.32815 0,-0.0373 0.01,-0.075 0.0119,-0.11213 0.015,-0.0912 0.0369,-0.18087 0.0579,-0.27079 0.013,-0.0548 0.0232,-0.11011 0.0382,-0.16433 0.021,-0.0747 0.0479,-0.14768 0.0729,-0.22117 0.023,-0.0669 0.0443,-0.13434 0.0703,-0.19999 0.026,-0.0644 0.0568,-0.12654 0.0858,-0.18965 0.033,-0.0712 0.064,-0.14312 0.10129,-0.21239 0.03,-0.056 0.0641,-0.10966 0.0961,-0.16434 0.044,-0.074 0.087,-0.14835 0.1354,-0.21962 0.031,-0.0454 0.0636,-0.0886 0.0966,-0.13281 0.056,-0.0758 0.11117,-0.15131 0.17157,-0.22324 0.033,-0.0393 0.069,-0.0761 0.10335,-0.11421 0.065,-0.0718 0.1308,-0.14326 0.2005,-0.21032 0.035,-0.0341 0.0731,-0.0659 0.10956,-0.0987 0.073,-0.0656 0.14709,-0.13016 0.22479,-0.19017 0.039,-0.0299 0.08,-0.0568 0.11937,-0.0853 0.08,-0.057 0.16022,-0.11305 0.24392,-0.16381 0.041,-0.0248 0.083,-0.047 0.12505,-0.0703 0.089,-0.0493 0.17829,-0.0966 0.27079,-0.13849 0.036,-0.0163 0.073,-0.0303 0.10904,-0.0455 0.1044,-0.0432 0.20992,-0.0836 0.31832,-0.11679 0.063,-0.0194 0.12585,-0.0368 0.18965,-0.0527 0.082,-0.02 0.16435,-0.0377 0.24805,-0.0517 0.028,-0.005 0.0573,-0.008 0.0863,-0.0124 0.1297,-0.0183 0.26089,-0.0306 0.39429,-0.0336 0.085,-0.006 0.17018,-0.008 0.25528,-0.007 z m -130.029786,32.2647 c -2.761597,-1.2e-4 -5.000327,2.23862 -5.000211,5.00021 1.71e-4,2.76139 2.238818,4.99981 5.000211,4.99969 2.761193,-1.7e-4 5.000041,-2.23851 5.000212,-4.99969 1.16e-4,-2.76139 -2.238816,-5.00004 -5.000212,-5.00021 z m 130.000336,0 c -2.7616,-1.2e-4 -5.00031,2.23862 -5.00021,5.00021 2e-4,2.76139 2.23881,4.99981 5.00021,4.99969 2.7612,-1.7e-4 4.99949,-2.23851 4.99969,-4.99969 1e-4,-2.76139 -2.23829,-5.00004 -4.99969,-5.00021 z m -129.877862,1.05885 c 1.168265,0.0392 2.305673,0.63326 3.014286,1.56321 1.504422,1.81652 0.758623,4.79613 -1.300179,5.85029 -2.046426,1.17951 -4.908521,-0.0262 -5.575887,-2.26911 -0.812722,-2.27471 0.963623,-4.94536 3.360001,-5.12631 0.166988,-0.0177 0.334883,-0.0237 0.501779,-0.0181 z m 130.000332,0 c 1.1683,0.0392 2.30569,0.63326 3.01429,1.56321 1.5044,1.81652 0.75862,4.79613 -1.30018,5.85029 -2.0464,1.17951 -4.90849,-0.0262 -5.57589,-2.26911 -0.8127,-2.27471 0.96362,-4.94536 3.36,-5.12631 0.167,-0.0177 0.33488,-0.0237 0.50178,-0.0181 z M 85.000004,708.66685 c -2.761397,-1.2e-4 -5.000045,2.23831 -5.000211,4.9997 -1.16e-4,2.76157 2.238614,5.00033 5.000211,5.00021 2.761396,-1.7e-4 5.000328,-2.23884 5.000212,-5.00021 -1.66e-4,-2.76119 -2.239016,-4.99953 -5.000212,-4.9997 z m 130.000336,0 c -2.7614,-1.2e-4 -5.00001,2.23831 -5.00021,4.9997 -1e-4,2.76157 2.23861,5.00033 5.00021,5.00021 2.7614,-1.7e-4 4.99979,-2.23884 4.99969,-5.00021 -2e-4,-2.76119 -2.23849,-4.99953 -4.99969,-4.9997 z m -130.119708,1.06764 c 1.42733,-0.0316 2.8467,0.7649 3.546553,2.01331 1.048401,1.74867 0.402157,4.17581 -1.311031,5.24464 -1.989906,1.3728 -5.002517,0.30005 -5.801713,-1.94717 -0.931051,-2.28673 0.821906,-5.10941 3.280937,-5.29321 0.09502,-0.01 0.190098,-0.0155 0.285254,-0.0176 z m 130.000338,0 c 1.42728,-0.0316 2.84675,0.7649 3.54655,2.01331 1.0484,1.74867 0.40217,4.17581 -1.31103,5.24464 -1.9899,1.3728 -5.00252,0.30005 -5.80172,-1.94717 -0.93108,-2.28673 0.82194,-5.10941 3.28094,-5.29321 0.095,-0.01 0.19006,-0.0155 0.28526,-0.0176 z M 85.000004,742.00022 c -0.98897,-1.5e-4 -1.955762,0.29299 -2.778125,0.84232 -0.822109,0.54942 -1.462852,1.33026 -1.841231,2.2438 v 5.1e-4 c -0.125371,0.3024 -0.220739,0.61637 -0.284737,0.93741 v 5.2e-4 c -0.06389,0.32111 -0.09608,0.64772 -0.09612,0.97513 v 5.2e-4 c 1.53e-4,1.66972 0.833771,3.22918 2.222086,4.15685 0.130836,0.0779 0.265161,0.14983 0.40256,0.21549 0.149575,0.0904 0.303779,0.17281 0.461987,0.24702 h 5.17e-4 c 0.302417,0.12519 0.61639,0.22039 0.93741,0.28422 h 5.17e-4 c 0.321115,0.0639 0.647726,0.0961 0.975134,0.0961 0.317466,-9.1e-4 0.634122,-0.0321 0.945679,-0.093 0.01655,-0.003 0.03309,-0.006 0.04961,-0.009 0.303479,-0.0622 0.600516,-0.15255 0.887284,-0.26976 0.02021,-0.008 0.04036,-0.0164 0.06046,-0.0248 0.285657,-0.12023 0.559514,-0.26676 0.818038,-0.4377 0.01244,-0.009 0.02484,-0.0172 0.03721,-0.0258 0.528177,-0.35711 0.983175,-0.81193 1.340487,-1.33997 0.0094,-0.0134 0.01918,-0.0268 0.02842,-0.0403 0.170262,-0.25776 0.316268,-0.53075 0.436149,-0.81546 0.0091,-0.0215 0.01806,-0.043 0.02687,-0.0646 0.116591,-0.28632 0.206375,-0.58284 0.2682,-0.88574 0.0028,-0.0155 0.0056,-0.031 0.0083,-0.0465 0.06123,-0.31205 0.09254,-0.62923 0.09353,-0.94723 v -5.1e-4 -5.2e-4 c -10e-4,-0.31783 -0.03233,-0.63483 -0.09353,-0.94671 -0.0027,-0.0155 -0.0054,-0.031 -0.0083,-0.0465 -0.06196,-0.30309 -0.151919,-0.59978 -0.268717,-0.88625 -0.0085,-0.0211 -0.0176,-0.0416 -0.02635,-0.0625 -0.120125,-0.28528 -0.26648,-0.55879 -0.437183,-0.817 -0.0089,-0.013 -0.01785,-0.0264 -0.02687,-0.0393 -0.357362,-0.52846 -0.812545,-0.98364 -1.341004,-1.341 -0.01236,-0.009 -0.02477,-0.0168 -0.03721,-0.0253 -0.259306,-0.17144 -0.534038,-0.31832 -0.820621,-0.43874 -0.01873,-0.008 -0.0375,-0.0161 -0.05633,-0.0238 -0.287584,-0.11754 -0.585491,-0.20802 -0.889868,-0.27027 -0.01549,-0.003 -0.03099,-0.006 -0.04651,-0.008 -0.312219,-0.0613 -0.629573,-0.0926 -0.947746,-0.0935 z m 130.000336,0 c -0.9889,-1.5e-4 -1.95573,0.29299 -2.77813,0.84232 -0.8221,0.54942 -1.46293,1.33026 -1.84123,2.2438 v 5.1e-4 c -0.1254,0.3024 -0.22074,0.61637 -0.28474,0.93741 v 5.2e-4 c -0.064,0.32111 -0.0961,0.64772 -0.0961,0.97513 v 5.2e-4 c 2e-4,1.66972 0.83378,3.22918 2.22208,4.15685 0.1308,0.0779 0.26516,0.14983 0.40256,0.21549 0.1495,0.0904 0.30379,0.17281 0.46199,0.24702 h 5.2e-4 c 0.3024,0.12519 0.61641,0.22039 0.93741,0.28422 h 5.1e-4 c 0.3211,0.0639 0.64774,0.0961 0.97514,0.0961 0.3175,-9.1e-4 0.63418,-0.0321 0.94568,-0.093 0.017,-0.003 0.0331,-0.006 0.0501,-0.009 0.3035,-0.0622 0.60059,-0.15255 0.88729,-0.26976 0.02,-0.008 0.04,-0.0164 0.061,-0.0248 0.2856,-0.12023 0.55953,-0.26676 0.81803,-0.4377 0.012,-0.009 0.0247,-0.0172 0.0367,-0.0258 0.5282,-0.35711 0.98319,-0.81193 1.34049,-1.33997 0.01,-0.0134 0.0194,-0.0268 0.0284,-0.0403 0.1703,-0.25776 0.31625,-0.53075 0.43615,-0.81546 0.01,-0.0215 0.0179,-0.043 0.0269,-0.0646 0.1165,-0.28632 0.2063,-0.58284 0.2682,-0.88574 0,-0.0155 0.01,-0.031 0.01,-0.0465 0.061,-0.31205 0.092,-0.62923 0.093,-0.94723 v -5.1e-4 -5.2e-4 c 0,-0.31783 -0.032,-0.63483 -0.093,-0.94671 0,-0.0155 -0.01,-0.031 -0.01,-0.0465 -0.062,-0.30309 -0.15191,-0.59978 -0.26871,-0.88625 -0.01,-0.0211 -0.0174,-0.0416 -0.0264,-0.0625 -0.1201,-0.28528 -0.26648,-0.55879 -0.43718,-0.817 -0.01,-0.013 -0.0179,-0.0264 -0.0269,-0.0393 -0.3573,-0.52846 -0.81251,-0.98364 -1.34101,-1.341 -0.012,-0.009 -0.0247,-0.0168 -0.0367,-0.0253 -0.2593,-0.17144 -0.53402,-0.31832 -0.82062,-0.43874 -0.019,-0.008 -0.0373,-0.0161 -0.0563,-0.0238 -0.2876,-0.11754 -0.58546,-0.20802 -0.88986,-0.27027 -0.015,-0.003 -0.031,-0.006 -0.046,-0.008 -0.3122,-0.0613 -0.62954,-0.0926 -0.94774,-0.0935 z m -129.967779,1.06867 c 1.275986,0.008 2.510407,0.70387 3.22926,1.75235 0.394166,0.54236 0.605388,1.17254 0.657324,1.81642 0.103741,1.52488 -0.688682,3.12627 -2.090312,3.83853 -0.51147,0.29372 -1.073701,0.43837 -1.639693,0.45527 -0.0021,4e-5 -0.0041,-5e-5 -0.0062,0 -0.129442,0.004 -0.258829,-9.2e-4 -0.38809,-0.0103 -0.03417,-0.003 -0.06821,-0.007 -0.102319,-0.0103 -0.10197,-0.0102 -0.203851,-0.0228 -0.304891,-0.0408 -0.05425,-0.01 -0.107882,-0.0231 -0.161747,-0.0351 -0.08366,-0.0184 -0.167144,-0.0374 -0.249598,-0.061 -0.0611,-0.0176 -0.121094,-0.0386 -0.181384,-0.0589 -0.07503,-0.0252 -0.150223,-0.0501 -0.223759,-0.0796 -0.06514,-0.0261 -0.128451,-0.0565 -0.192236,-0.0858 -0.06775,-0.0311 -0.136039,-0.061 -0.202055,-0.0956 -0.05571,-0.0292 -0.108956,-0.0625 -0.163298,-0.0941 -0.07361,-0.043 -0.147773,-0.085 -0.218591,-0.1323 -0.03799,-0.0253 -0.07347,-0.0541 -0.110587,-0.0806 -0.08143,-0.0584 -0.162926,-0.11671 -0.239779,-0.18087 -0.02139,-0.0178 -0.041,-0.0376 -0.06201,-0.0558 -0.518071,-0.45105 -0.921154,-1.03105 -1.121895,-1.70739 -0.14715,-0.41193 -0.206846,-0.83697 -0.195854,-1.2578 4.19e-4,-0.0155 -0.0011,-0.031 -5.17e-4,-0.0465 0.0043,-0.11108 0.01777,-0.22115 0.03204,-0.33125 0.0047,-0.0361 0.0061,-0.0726 0.01188,-0.10852 0.01491,-0.0937 0.03764,-0.18608 0.05943,-0.27853 0.01228,-0.0518 0.02179,-0.10423 0.03617,-0.15555 0.02188,-0.0785 0.05037,-0.15494 0.077,-0.23203 0.02185,-0.063 0.04122,-0.1267 0.06615,-0.18862 0.02703,-0.0674 0.05936,-0.1325 0.08992,-0.19843 0.03211,-0.0691 0.06235,-0.13889 0.09819,-0.20619 0.02866,-0.054 0.06204,-0.10544 0.09302,-0.15813 0.04534,-0.0769 0.08996,-0.15445 0.140043,-0.22841 0.02876,-0.0426 0.06067,-0.0825 0.09095,-0.12403 0.05687,-0.0778 0.11373,-0.1552 0.1757,-0.22892 0.03302,-0.0393 0.06893,-0.0761 0.103353,-0.11421 0.06497,-0.0718 0.130805,-0.14327 0.200504,-0.21032 0.03545,-0.0341 0.07292,-0.0659 0.109554,-0.0987 0.07354,-0.0659 0.147813,-0.13047 0.225826,-0.19069 0.03664,-0.0283 0.07507,-0.0541 0.112655,-0.0811 0.08265,-0.0593 0.166276,-0.11743 0.253214,-0.17002 0.03799,-0.023 0.07749,-0.0434 0.116272,-0.0651 0.09025,-0.0503 0.181767,-0.0984 0.275953,-0.14108 0.03583,-0.0163 0.07267,-0.0303 0.109037,-0.0455 0.104865,-0.0434 0.210895,-0.084 0.319877,-0.11731 0.05438,-0.0168 0.109503,-0.0318 0.164848,-0.046 0.09181,-0.0231 0.184362,-0.0439 0.278536,-0.0594 0.02156,-0.004 0.04343,-0.006 0.06511,-0.009 0.133993,-0.0194 0.269762,-0.0321 0.407727,-0.0351 0.0853,-0.006 0.170215,-0.008 0.255282,-0.007 z m 130.000849,0 c 1.276,0.008 2.51036,0.70387 3.22926,1.75235 0.3941,0.54236 0.60543,1.17254 0.65733,1.81642 0.1037,1.52488 -0.68872,3.12627 -2.09032,3.83853 -0.5115,0.29372 -1.07369,0.43837 -1.63969,0.45527 0,4e-5 -3.3e-4,-5e-5 -0.0103,0 -0.1295,0.004 -0.25889,-9.2e-4 -0.38809,-0.0103 -0.034,-0.003 -0.068,-0.007 -0.10232,-0.0103 -0.102,-0.0102 -0.20391,-0.0228 -0.30489,-0.0408 -0.054,-0.01 -0.10785,-0.0231 -0.16175,-0.0351 -0.084,-0.0184 -0.1671,-0.0374 -0.2496,-0.061 -0.061,-0.0176 -0.12108,-0.0386 -0.18138,-0.0589 -0.075,-0.0252 -0.15026,-0.0501 -0.22376,-0.0796 -0.065,-0.0261 -0.12844,-0.0565 -0.19224,-0.0858 -0.068,-0.0311 -0.13605,-0.061 -0.20205,-0.0956 -0.056,-0.0292 -0.109,-0.0625 -0.1633,-0.0941 -0.074,-0.043 -0.14779,-0.085 -0.21859,-0.1323 -0.038,-0.0253 -0.073,-0.0541 -0.11059,-0.0806 -0.081,-0.0584 -0.16288,-0.11671 -0.23978,-0.18087 -0.021,-0.0178 -0.041,-0.0376 -0.062,-0.0558 -0.5181,-0.45105 -0.9211,-1.03105 -1.1219,-1.70739 -0.1471,-0.41193 -0.20685,-0.83697 -0.19585,-1.2578 4e-4,-0.0155 8e-5,-0.031 -5.2e-4,-0.0465 0,-0.11108 0.018,-0.22115 0.032,-0.33125 0,-0.0361 0.01,-0.0726 0.0119,-0.10852 0.015,-0.0937 0.0379,-0.18608 0.0589,-0.27853 0.012,-0.0518 0.0222,-0.10423 0.0362,-0.15555 0.022,-0.0785 0.05,-0.15494 0.077,-0.23203 0.022,-0.063 0.0411,-0.1267 0.0661,-0.18862 0.027,-0.0674 0.0589,-0.1325 0.0899,-0.19843 0.032,-0.0691 0.0622,-0.13889 0.0982,-0.20619 0.029,-0.054 0.062,-0.10544 0.093,-0.15813 0.045,-0.0769 0.0895,-0.15445 0.13952,-0.22841 0.029,-0.0426 0.0615,-0.0825 0.0915,-0.12403 0.057,-0.0778 0.1137,-0.1552 0.1757,-0.22892 0.033,-0.0393 0.0685,-0.0761 0.10284,-0.11421 0.065,-0.0718 0.1308,-0.14327 0.2005,-0.21032 0.035,-0.0341 0.0735,-0.0659 0.11007,-0.0987 0.073,-0.0659 0.14783,-0.13047 0.22583,-0.19069 0.037,-0.0283 0.075,-0.0541 0.11265,-0.0811 0.083,-0.0593 0.16622,-0.11743 0.25322,-0.17002 0.038,-0.023 0.0765,-0.0434 0.11575,-0.0651 0.09,-0.0503 0.18227,-0.0984 0.27647,-0.14108 0.036,-0.0163 0.0725,-0.0303 0.10852,-0.0455 0.1049,-0.0434 0.2114,-0.084 0.3204,-0.11731 0.054,-0.0168 0.10944,-0.0318 0.16484,-0.046 0.092,-0.0231 0.18434,-0.0439 0.27854,-0.0594 0.022,-0.004 0.0426,-0.006 0.0646,-0.009 0.134,-0.0194 0.26983,-0.0321 0.40773,-0.0351 0.085,-0.006 0.17028,-0.008 0.25528,-0.007 z M 85.000004,775.33358 c -2.761597,-1.2e-4 -5.000327,2.23863 -5.000211,5.00022 1.71e-4,2.76137 2.238818,4.99981 5.000211,4.99969 2.761193,-1.7e-4 5.000041,-2.23853 5.000212,-4.99969 1.16e-4,-2.76139 -2.238816,-5.00005 -5.000212,-5.00022 z m 130.000336,0 c -2.7616,-1.2e-4 -5.00031,2.23863 -5.00021,5.00022 2e-4,2.76137 2.23881,4.99981 5.00021,4.99969 2.7612,-1.7e-4 4.99949,-2.23853 4.99969,-4.99969 1e-4,-2.76139 -2.23829,-5.00005 -4.99969,-5.00022 z m -130.128493,1.05885 c 0.08371,-0.003 0.167184,-0.003 0.250631,0 1.168265,0.0392 2.305673,0.63327 3.014286,1.56322 1.504422,1.81652 0.758623,4.79613 -1.300179,5.85029 -2.046426,1.17948 -4.908521,-0.0262 -5.575887,-2.26912 -0.812722,-2.27468 0.963623,-4.94535 3.360001,-5.1263 0.08349,-0.009 0.167438,-0.0151 0.251148,-0.0181 z m 130.000333,0 c 0.084,-0.003 0.16723,-0.003 0.25063,0 1.1683,0.0392 2.30569,0.63327 3.01429,1.56322 1.5044,1.81652 0.75862,4.79613 -1.30018,5.85029 -2.0464,1.17948 -4.90849,-0.0262 -5.57589,-2.26912 -0.8127,-2.27468 0.96362,-4.94535 3.36,-5.1263 0.084,-0.009 0.16745,-0.0151 0.25115,-0.0181 z M 85.000004,808.66695 c -2.761397,-1.2e-4 -5.000045,2.23831 -5.000211,4.9997 -1.16e-4,2.76157 2.238614,5.00033 5.000211,5.00021 2.761396,-1.7e-4 5.000328,-2.23884 5.000212,-5.00021 -1.66e-4,-2.76119 -2.239016,-4.99953 -5.000212,-4.9997 z m 130.000336,0 c -2.7614,-1.2e-4 -5.00001,2.23831 -5.00021,4.9997 -1e-4,2.76157 2.23861,5.00033 5.00021,5.00021 2.7614,-1.7e-4 4.99979,-2.23884 4.99969,-5.00021 -2e-4,-2.76119 -2.23849,-4.99953 -4.99969,-4.9997 z m -130.119708,1.06764 c 1.42733,-0.0316 2.8467,0.7649 3.546553,2.01331 1.048401,1.74867 0.402157,4.17581 -1.311031,5.24464 -1.989906,1.3728 -5.002517,0.30006 -5.801713,-1.94717 -0.931051,-2.28674 0.821906,-5.10941 3.280937,-5.29321 0.09502,-0.01 0.190098,-0.0155 0.285254,-0.0176 z m 130.000338,0 c 1.42728,-0.0316 2.84675,0.7649 3.54655,2.01331 1.0484,1.74867 0.40217,4.17581 -1.31103,5.24464 -1.9899,1.3728 -5.00252,0.30006 -5.80172,-1.94717 -0.93108,-2.28674 0.82194,-5.10941 3.28094,-5.29321 0.095,-0.01 0.19006,-0.0155 0.28526,-0.0176 z M 85.000004,842.00032 c -1.137293,0.008 -2.23772,0.40435 -3.119706,1.12241 -0.144711,0.10648 -0.283576,0.22068 -0.415995,0.3421 -0.464163,0.46416 -0.832383,1.01517 -1.083655,1.6216 v 5.2e-4 c -0.125371,0.3024 -0.220739,0.61637 -0.284737,0.93741 v 5.2e-4 c -0.06389,0.32111 -0.09608,0.64772 -0.09612,0.97513 v 5.2e-4 c 1.53e-4,1.66972 0.833771,3.22918 2.222086,4.15685 h 5.17e-4 c 0.272192,0.18191 0.561589,0.33665 0.86403,0.46199 h 5.17e-4 c 0.302398,0.12537 0.616372,0.22073 0.93741,0.28473 h 5.17e-4 c 0.321115,0.0639 0.647727,0.0961 0.975134,0.0961 0.317465,-9.1e-4 0.634121,-0.0321 0.945679,-0.093 0.01655,-0.003 0.03309,-0.006 0.04961,-0.009 0.303479,-0.0622 0.600516,-0.15254 0.887284,-0.26975 0.02021,-0.008 0.04036,-0.0164 0.06046,-0.0248 0.285657,-0.12023 0.559514,-0.26676 0.818038,-0.4377 0.01244,-0.009 0.02484,-0.0172 0.03721,-0.0258 0.264332,-0.17761 0.511085,-0.38006 0.736906,-0.60461 0.224109,-0.22538 0.426216,-0.47162 0.603581,-0.73536 0.0094,-0.0134 0.01918,-0.0268 0.02842,-0.0403 0.170262,-0.25776 0.316268,-0.53074 0.436149,-0.81545 0.0091,-0.0215 0.01806,-0.043 0.02687,-0.0646 0.116591,-0.28632 0.206375,-0.58283 0.2682,-0.88573 0.0028,-0.0155 0.0056,-0.031 0.0083,-0.0465 0.0612,-0.31188 0.09251,-0.62888 0.09353,-0.94671 v -5.2e-4 -5.2e-4 -5.1e-4 c -8.81e-4,-0.31764 -0.03203,-0.63447 -0.09302,-0.9462 -0.0028,-0.0162 -0.0058,-0.0324 -0.0088,-0.0486 -0.06189,-0.30255 -0.15167,-0.59872 -0.2682,-0.8847 -0.0088,-0.0216 -0.01776,-0.0431 -0.02687,-0.0646 -0.120046,-0.28473 -0.266225,-0.55771 -0.436666,-0.81545 -0.0089,-0.013 -0.01785,-0.0259 -0.02687,-0.0388 -0.177473,-0.26413 -0.379756,-0.51071 -0.604097,-0.73639 -0.225821,-0.22455 -0.472574,-0.427 -0.736906,-0.60461 -0.01236,-0.009 -0.02477,-0.0173 -0.03721,-0.0258 -0.258052,-0.17067 -0.531385,-0.31704 -0.816488,-0.43719 -0.02147,-0.009 -0.043,-0.0181 -0.06459,-0.0269 -0.28632,-0.11659 -0.583348,-0.20637 -0.886251,-0.2682 -0.01549,-0.003 -0.03099,-0.006 -0.04651,-0.008 -0.312219,-0.0613 -0.629573,-0.0926 -0.947746,-0.0935 z m 130.000336,0 c -1.1373,0.008 -2.23771,0.40435 -3.11971,1.12241 -0.1447,0.10648 -0.28359,0.22068 -0.41599,0.3421 -0.4641,0.46416 -0.83246,1.01517 -1.08366,1.6216 v 5.2e-4 c -0.1254,0.3024 -0.22074,0.61637 -0.28474,0.93741 v 5.2e-4 c -0.064,0.32111 -0.0961,0.64772 -0.0961,0.97513 v 5.2e-4 c 2e-4,1.66972 0.83378,3.22918 2.22208,4.15685 h 5.2e-4 c 0.2722,0.18191 0.56163,0.33665 0.86403,0.46199 h 5.2e-4 c 0.3024,0.12537 0.61631,0.22073 0.93741,0.28473 h 5.1e-4 c 0.3211,0.0639 0.64774,0.0961 0.97514,0.0961 0.3175,-9.1e-4 0.63418,-0.0321 0.94568,-0.093 0.017,-0.003 0.0331,-0.006 0.0501,-0.009 0.3035,-0.0622 0.60059,-0.15254 0.88729,-0.26975 0.02,-0.008 0.04,-0.0164 0.061,-0.0248 0.2856,-0.12023 0.55953,-0.26676 0.81803,-0.4377 0.012,-0.009 0.0247,-0.0172 0.0367,-0.0258 0.2644,-0.17761 0.51111,-0.38006 0.73691,-0.60461 0.2242,-0.22538 0.42628,-0.47162 0.60358,-0.73536 0.01,-0.0134 0.0194,-0.0268 0.0284,-0.0403 0.1703,-0.25776 0.31625,-0.53074 0.43615,-0.81545 0.01,-0.0215 0.0179,-0.043 0.0269,-0.0646 0.1165,-0.28632 0.2063,-0.58283 0.2682,-0.88573 0,-0.0155 0.01,-0.031 0.01,-0.0465 0.061,-0.31188 0.092,-0.62888 0.093,-0.94671 v -5.2e-4 -5.2e-4 -5.1e-4 c -9e-4,-0.31764 -0.032,-0.63447 -0.093,-0.9462 0,-0.0162 -0.01,-0.0324 -0.01,-0.0486 -0.062,-0.30255 -0.1517,-0.59872 -0.2682,-0.8847 -0.01,-0.0216 -0.0179,-0.0431 -0.0269,-0.0646 -0.12,-0.28473 -0.26616,-0.55771 -0.43666,-0.81545 -0.01,-0.013 -0.0184,-0.0259 -0.0274,-0.0388 -0.1775,-0.26413 -0.3798,-0.51071 -0.6041,-0.73639 -0.2259,-0.22455 -0.47261,-0.427 -0.73691,-0.60461 -0.012,-0.009 -0.0247,-0.0173 -0.0367,-0.0258 -0.258,-0.17067 -0.53138,-0.31704 -0.81648,-0.43719 -0.021,-0.009 -0.0431,-0.0181 -0.0651,-0.0269 -0.2864,-0.11659 -0.58283,-0.20637 -0.88573,-0.2682 -0.015,-0.003 -0.031,-0.006 -0.046,-0.008 -0.3122,-0.0613 -0.62965,-0.0926 -0.94775,-0.0935 z m -129.967779,1.06867 c 1.275986,0.008 2.510407,0.70386 3.22926,1.75234 0.322118,0.44324 0.523331,0.94456 0.614433,1.46451 0.02038,0.11631 0.0334,0.23371 0.04289,0.3514 0.103955,1.52504 -0.688524,3.12672 -2.090312,3.83904 -0.510696,0.29327 -1.071987,0.43802 -1.637109,0.45527 -8.57e-4,3e-5 -0.0017,-2e-5 -0.0026,0 -0.0021,5e-5 -0.0041,-4e-5 -0.0062,0 -0.128749,0.004 -0.257452,-8e-4 -0.386023,-0.0103 -0.03659,-0.003 -0.07303,-0.008 -0.109554,-0.0114 -0.100414,-0.0101 -0.20073,-0.0231 -0.30024,-0.0408 -0.05233,-0.009 -0.104085,-0.0221 -0.156063,-0.0336 -0.08542,-0.0187 -0.170597,-0.0379 -0.254765,-0.062 -0.06495,-0.0187 -0.128723,-0.0412 -0.192753,-0.063 -0.06954,-0.0236 -0.139488,-0.0462 -0.207739,-0.0734 -0.06921,-0.0276 -0.136434,-0.0597 -0.204122,-0.0909 -0.06531,-0.0302 -0.131127,-0.0591 -0.19482,-0.0925 -0.05571,-0.0292 -0.108956,-0.0624 -0.163298,-0.094 -0.07361,-0.0429 -0.147773,-0.085 -0.218591,-0.1323 -0.03799,-0.0253 -0.07347,-0.0541 -0.110587,-0.0806 -0.08143,-0.0584 -0.162926,-0.11671 -0.239779,-0.18087 -0.02139,-0.0178 -0.041,-0.0376 -0.06201,-0.0558 -0.08926,-0.0777 -0.177026,-0.15705 -0.258899,-0.24236 -0.393332,-0.40987 -0.69684,-0.90522 -0.862996,-1.46503 -0.14709,-0.41176 -0.206782,-0.83662 -0.195854,-1.25729 4.19e-4,-0.0156 -0.0011,-0.0314 -5.17e-4,-0.047 0.0043,-0.11142 0.0177,-0.22185 0.03204,-0.33228 0.0047,-0.0358 0.0062,-0.0719 0.01188,-0.10749 0.01491,-0.0937 0.03764,-0.18608 0.05943,-0.27853 0.01228,-0.0518 0.02179,-0.10423 0.03617,-0.15555 0.02188,-0.0785 0.05037,-0.15494 0.077,-0.23203 0.02185,-0.063 0.04122,-0.1267 0.06615,-0.18862 0.02623,-0.0654 0.05779,-0.12873 0.08733,-0.19275 0.03324,-0.0718 0.06506,-0.14408 0.102319,-0.21394 0.02737,-0.0515 0.05888,-0.10057 0.08837,-0.15089 0.04637,-0.0789 0.09231,-0.15828 0.14366,-0.2341 0.02812,-0.0416 0.05931,-0.0809 0.08888,-0.12144 0.05728,-0.0785 0.114789,-0.15667 0.17725,-0.23099 0.03376,-0.0402 0.0702,-0.0779 0.10542,-0.11679 0.06426,-0.0709 0.129048,-0.14147 0.19792,-0.20774 0.03554,-0.0342 0.07335,-0.0658 0.110071,-0.0987 0.07354,-0.0658 0.147813,-0.13047 0.225826,-0.19069 0.03664,-0.0283 0.07507,-0.0536 0.112655,-0.0806 0.08265,-0.0593 0.166276,-0.11743 0.253214,-0.17002 0.03799,-0.023 0.07749,-0.0434 0.116272,-0.0651 0.09025,-0.0504 0.181767,-0.0984 0.275953,-0.14108 0.03638,-0.0166 0.07364,-0.0311 0.110587,-0.0465 0.102631,-0.0424 0.206583,-0.082 0.313159,-0.11472 0.05929,-0.0184 0.119401,-0.0348 0.179834,-0.0501 0.08862,-0.0221 0.177896,-0.0418 0.268718,-0.0568 0.02156,-0.004 0.04343,-0.006 0.06511,-0.009 0.133993,-0.0194 0.269762,-0.0321 0.407727,-0.0351 0.0853,-0.006 0.170215,-0.008 0.255282,-0.007 z m 130.000849,0 c 1.276,0.008 2.51036,0.70386 3.22926,1.75234 0.3221,0.44324 0.52333,0.94456 0.61443,1.46451 0.02,0.11631 0.0329,0.23371 0.0429,0.3514 0.104,1.52504 -0.68852,3.12672 -2.09032,3.83904 -0.5107,0.29327 -1.07201,0.43802 -1.63711,0.45527 0,5e-5 1.9e-4,-4e-5 -0.01,0 -0.1288,0.004 -0.25794,-8e-4 -0.38654,-0.0103 -0.037,-0.003 -0.0731,-0.008 -0.10956,-0.0114 -0.1004,-0.0101 -0.20074,-0.0231 -0.30024,-0.0408 -0.052,-0.009 -0.10406,-0.0221 -0.15606,-0.0336 -0.085,-0.0187 -0.17057,-0.0379 -0.25477,-0.062 -0.065,-0.0187 -0.12823,-0.0412 -0.19223,-0.063 -0.07,-0.0236 -0.13996,-0.0462 -0.20826,-0.0734 -0.069,-0.0276 -0.13642,-0.0597 -0.20412,-0.0909 -0.065,-0.0302 -0.13112,-0.0591 -0.19482,-0.0925 -0.056,-0.0292 -0.109,-0.0624 -0.1633,-0.094 -0.074,-0.0429 -0.14779,-0.085 -0.21859,-0.1323 -0.038,-0.0253 -0.073,-0.0541 -0.11059,-0.0806 -0.081,-0.0584 -0.16289,-0.11671 -0.23977,-0.18087 -0.021,-0.0178 -0.041,-0.0376 -0.062,-0.0558 -0.089,-0.0777 -0.177,-0.15705 -0.2589,-0.24236 -0.3933,-0.40987 -0.69679,-0.90522 -0.86299,-1.46503 -0.1471,-0.41176 -0.20676,-0.83662 -0.19586,-1.25729 5e-4,-0.0156 -1e-5,-0.0314 -5.1e-4,-0.047 0,-0.11142 0.018,-0.22185 0.032,-0.33228 0,-0.0358 0.01,-0.0719 0.0119,-0.10749 0.015,-0.0937 0.0384,-0.18608 0.0594,-0.27853 0.012,-0.0518 0.0217,-0.10423 0.0357,-0.15555 0.022,-0.0785 0.05,-0.15494 0.077,-0.23203 0.022,-0.063 0.0411,-0.1267 0.0661,-0.18862 0.026,-0.0654 0.0578,-0.12873 0.0868,-0.19275 0.033,-0.0718 0.0654,-0.14408 0.10283,-0.21394 0.027,-0.0515 0.0589,-0.10057 0.0879,-0.15089 0.046,-0.0789 0.092,-0.15828 0.14366,-0.2341 0.028,-0.0416 0.0589,-0.0809 0.0889,-0.12144 0.057,-0.0785 0.11485,-0.15667 0.17725,-0.23099 0.034,-0.0402 0.07,-0.0779 0.10542,-0.11679 0.064,-0.0709 0.12902,-0.14147 0.19792,-0.20774 0.035,-0.0342 0.0731,-0.0658 0.11007,-0.0987 0.074,-0.0658 0.14782,-0.13047 0.22582,-0.19069 0.037,-0.0283 0.0751,-0.0536 0.11266,-0.0806 0.083,-0.0593 0.16631,-0.11743 0.25321,-0.17002 0.038,-0.023 0.077,-0.0434 0.11628,-0.0651 0.09,-0.0504 0.18175,-0.0984 0.27595,-0.14108 0.036,-0.0166 0.0741,-0.0311 0.11059,-0.0465 0.1027,-0.0424 0.20655,-0.082 0.31315,-0.11472 0.059,-0.0184 0.11944,-0.0348 0.17984,-0.0501 0.089,-0.0221 0.17782,-0.0418 0.26872,-0.0568 0.021,-0.004 0.0431,-0.006 0.0651,-0.009 0.134,-0.0194 0.26973,-0.0321 0.40773,-0.0351 0.085,-0.006 0.17018,-0.008 0.25528,-0.007 z M 85.000004,875.33368 c -2.761597,-1.2e-4 -5.000327,2.23864 -5.000211,5.00021 1.66e-4,2.76139 2.238814,4.99982 5.000211,4.9997 2.761196,-1.7e-4 5.000046,-2.23851 5.000212,-4.9997 1.16e-4,-2.76137 -2.238816,-5.00004 -5.000212,-5.00021 z m 130.000336,0 c -2.7616,-1.2e-4 -5.00031,2.23864 -5.00021,5.00021 2e-4,2.76139 2.23881,4.99982 5.00021,4.9997 2.7612,-1.7e-4 4.99949,-2.23851 4.99969,-4.9997 1e-4,-2.76137 -2.23829,-5.00004 -4.99969,-5.00021 z m -130.128493,1.05885 c 0.08371,-0.003 0.167184,-0.003 0.250631,0 1.168265,0.0392 2.305673,0.63329 3.014286,1.56321 1.504422,1.81652 0.758623,4.79613 -1.300179,5.85029 -2.046426,1.17951 -4.908521,-0.0262 -5.575887,-2.26911 -0.812722,-2.27471 0.963623,-4.94535 3.360001,-5.1263 0.08349,-0.009 0.167438,-0.0151 0.251148,-0.0181 z m 130.000333,0 c 0.084,-0.003 0.16723,-0.003 0.25063,0 1.1683,0.0392 2.30569,0.63329 3.01429,1.56321 1.5044,1.81652 0.75862,4.79613 -1.30018,5.85029 -2.0464,1.17951 -4.90849,-0.0262 -5.57589,-2.26911 -0.8127,-2.27471 0.96362,-4.94535 3.36,-5.1263 0.084,-0.009 0.16745,-0.0151 0.25115,-0.0181 z M 85.000004,908.66705 c -2.761393,-1.2e-4 -5.00004,2.23832 -5.000211,4.99969 -1.22e-4,2.76159 2.238611,5.00033 5.000211,5.00021 2.7614,-1.7e-4 5.000334,-2.23882 5.000212,-5.00021 -1.71e-4,-2.76116 -2.239019,-4.99952 -5.000212,-4.99969 z m 130.000336,0 c -2.7614,-1.2e-4 -5.00001,2.23832 -5.00021,4.99969 -1e-4,2.76159 2.23861,5.00033 5.00021,5.00021 2.7614,-1.7e-4 4.99979,-2.23882 4.99969,-5.00021 -2e-4,-2.76116 -2.23849,-4.99952 -4.99969,-4.99969 z m -130.119708,1.06763 c 1.42733,-0.0316 2.8467,0.76491 3.546553,2.01332 1.048401,1.74867 0.402157,4.17581 -1.311031,5.24464 -1.989906,1.3728 -5.002517,0.30006 -5.801713,-1.94717 -0.931051,-2.28675 0.821906,-5.10942 3.280937,-5.29322 0.09502,-0.01 0.190098,-0.0155 0.285254,-0.0176 z m 130.000338,0 c 1.42728,-0.0316 2.84675,0.76491 3.54655,2.01332 1.0484,1.74867 0.40217,4.17581 -1.31103,5.24464 -1.9899,1.3728 -5.00252,0.30006 -5.80172,-1.94717 -0.93108,-2.28675 0.82194,-5.10942 3.28094,-5.29322 0.095,-0.01 0.19006,-0.0155 0.28526,-0.0176 z" /><rect
       style="display:inline;fill:none;fill-opacity:1;stroke:#000400;stroke-width:0.786684;stroke-linecap:round;stroke-linejoin:miter;stroke-dasharray:none;stroke-opacity:1"
       id="rect1341"
       width="336.21332"
       height="329.21332"
       x="-20.606657"
       y="631.39301"
       inkscape:label="cut5" /></g></svg>
