<?xml version="1.0" encoding="UTF-8" standalone="no"?>
<!-- Created with Inkscape (http://www.inkscape.org/) -->

<svg
   width="337mm"
   height="327mm"
   viewBox="0 0 337 327"
   version="1.1"
   id="svg5"
   xml:space="preserve"
   inkscape:version="1.2.1 (9c6d41e, 2022-07-14)"
   sodipodi:docname="QuizCube Board v1_cutter_.svg"
   inkscape:export-filename="QuizCube Board v1_cutter.png"
   inkscape:export-xdpi="96"
   inkscape:export-ydpi="96"
   xmlns:inkscape="http://www.inkscape.org/namespaces/inkscape"
   xmlns:sodipodi="http://sodipodi.sourceforge.net/DTD/sodipodi-0.dtd"
   xmlns="http://www.w3.org/2000/svg"
   xmlns:svg="http://www.w3.org/2000/svg"><sodipodi:namedview
     id="namedview7"
     pagecolor="#505050"
     bordercolor="#eeeeee"
     borderopacity="1"
     inkscape:showpageshadow="0"
     inkscape:pageopacity="0"
     inkscape:pagecheckerboard="0"
     inkscape:deskcolor="#505050"
     inkscape:document-units="mm"
     showgrid="false"
     inkscape:zoom="0.20941921"
     inkscape:cx="527.64978"
     inkscape:cy="647.02756"
     inkscape:window-width="1800"
     inkscape:window-height="1097"
     inkscape:window-x="0"
     inkscape:window-y="44"
     inkscape:window-maximized="1"
     inkscape:current-layer="layer1" /><defs
     id="defs2" /><g
     inkscape:label="Layer 1"
     inkscape:groupmode="layer"
     id="layer1"
     transform="translate(20.999998,-304.99972)"><path
       id="rect111"
       style="color:#000000;fill:#666666;fill-opacity:1;stroke-linecap:round;stroke-linejoin:round;-inkscape-stroke:none"
       inkscape:label="grid"
       d="m 15.000143,305.39121 v 80.48604 c -5.7875361,2.08945 -9.9999066,7.67529 -9.9999066,14.12317 0,6.44787 4.2123705,12.03372 9.9999066,14.12317 v 101.75348 c -5.7875361,2.08947 -9.9999066,7.67531 -9.9999066,14.12317 0,6.44788 4.2123705,12.0337 9.9999066,14.12317 v 87.48458 h 1.577681 c -0.002,-5.39507 0.0034,-10.78962 0.01034,-16.18402 -0.0099,-23.11108 0.01949,-46.22328 -0.01499,-69.33376 0.04485,-1.1912 0.22951,-2.75974 -1.003039,-3.4494 -5.057965,-1.77609 -8.8473852,-6.78478 -8.961727,-12.17652 -0.2632666,-5.1249 2.8507163,-10.0988 7.362341,-12.4349 1.036094,-0.44266 2.447395,-0.83583 2.617412,-2.15232 v -98.55316 c -0.105078,-1.20452 0.191988,-2.44654 -0.148829,-3.62252 -0.287434,-1.06845 -1.472922,-1.19019 -2.294433,-1.66553 -4.4098644,-2.16714 -7.5129943,-6.84044 -7.5447592,-11.78687 -0.1663193,-4.98881 2.8403445,-9.79844 7.2005942,-12.1295 1.034536,-0.52057 2.518602,-0.80279 2.771407,-2.14353 0.03698,-19.64806 0.0054,-39.3018 0.01602,-58.95196 -0.0069,-7.21082 -0.01237,-14.42173 -0.01034,-21.63279 z m 8.420674,0 c 5.39e-4,9.99552 -0.003,19.99076 -0.0088,29.98577 0.01183,16.14633 -0.02383,32.29392 0.01757,48.43942 -0.02635,1.1879 -0.270015,2.73363 0.910022,3.47885 3.250472,1.20573 6.036974,3.61583 7.638811,6.69727 0.439271,1.02716 0.833254,2.43816 2.144572,2.59571 33.197583,-0.008 66.396378,0.0162 99.593398,-0.0119 1.21699,-0.006 2.80463,0.30299 3.57653,-0.91415 1.20599,-3.24334 3.60753,-6.02539 6.67969,-7.63055 1.03358,-0.44347 2.44958,-0.83769 2.61535,-2.15439 -0.006,-26.8285 -8.2e-4,-53.65755 -0.01,-80.48604 h -1.5782 v 80.48604 c -4.21884,1.52318 -7.59978,4.90412 -9.12296,9.12296 H 34.123523 c -1.523187,-4.21892 -4.904535,-7.59981 -9.123474,-9.12296 V 305.3912 Z m 129.991553,0 v 77.6857 c 0.13849,1.3186 -0.4033,2.89023 0.61288,3.97081 0.78379,0.56097 1.78582,0.77788 2.59209,1.33326 2.19216,1.26379 4.16072,3.29169 5.36143,5.61154 0.43927,1.02716 0.83273,2.43816 2.14405,2.59571 33.19759,-0.008 66.3964,0.0162 99.59341,-0.0119 1.217,-0.006 2.80462,0.30299 3.57652,-0.91415 1.19868,-3.21805 3.57022,-5.99204 6.61717,-7.59282 1.03851,-0.48319 2.50857,-0.83881 2.67787,-2.19212 -3.3e-4,-26.82868 -1.9e-4,-53.65739 -5.1e-4,-80.48604 h -1.5875 v 80.48604 c -4.2187,1.52323 -7.59981,4.90422 -9.12296,9.12296 H 164.12334 c -1.52319,-4.21892 -4.90453,-7.59981 -9.12347,-9.12296 V 305.3912 Z m 130.0024,0 c -10e-4,26.10859 -0.0128,52.21758 0.009,78.32545 0.006,1.217 -0.30291,2.80437 0.91364,3.57653 3.24504,1.20357 6.02504,3.60867 7.63106,6.67969 0.44347,1.03358 0.83769,2.44958 2.15439,2.61535 7.16179,-0.002 14.32364,-0.003 21.48551,-0.003 v -1.58543 h -21.48551 c -1.52318,-4.21884 -4.9041,-7.59978 -9.12296,-9.12296 V 305.39121 Z M 34.849577,403.38885 c -0.7466,-0.0109 -1.580011,0.17283 -2.052588,0.80098 -0.365149,0.79481 -0.743429,1.72492 -1.16427,2.40812 -1.298728,2.22551 -3.206909,4.08329 -5.480285,5.2989 -1.018063,0.517 -2.487104,0.7987 -2.725415,2.12752 -0.03505,17.11516 -0.005,34.23537 -0.01499,51.35242 0.01183,16.14634 -0.02383,32.29392 0.01757,48.43942 -0.02635,1.1879 -0.270015,2.73363 0.910022,3.47886 3.205075,1.19041 5.965378,3.54999 7.570598,6.57634 0.502531,1.01434 0.798178,2.46604 2.114083,2.70165 17.115157,0.035 34.235373,0.005 51.352421,0.015 16.146337,-0.0117 32.293927,0.0238 48.439427,-0.0176 1.18791,0.0261 2.73387,0.27061 3.47885,-0.91002 1.20794,-3.25667 3.62625,-6.04816 6.71691,-7.64656 1.02208,-0.43547 2.42099,-0.8337 2.57607,-2.13682 -0.008,-33.19758 0.0162,-66.39588 -0.0119,-99.59289 -0.006,-1.217 0.30299,-2.80514 -0.91416,-3.57704 -3.20072,-1.19471 -5.9616,-3.54366 -7.56801,-6.56807 -0.50239,-1.04594 -0.841,-2.55234 -2.21692,-2.72645 H 72.22404 c -12.458019,-0.0154 -24.916652,0.0308 -37.374463,-0.0238 z m 129.999813,0 c -0.7466,-0.0109 -1.58001,0.17283 -2.05258,0.80098 -0.36515,0.79481 -0.74292,1.72492 -1.16376,2.40812 -1.32973,2.28456 -3.30963,4.17005 -5.65237,5.39244 -1.02154,0.43313 -2.4133,0.83288 -2.56831,2.13268 v 98.95365 c 0.13849,1.3186 -0.4033,2.89024 0.61288,3.97082 0.78379,0.56097 1.78582,0.77839 2.59209,1.33377 2.19167,1.2637 4.15924,3.2925 5.36143,5.61103 0.43927,1.02716 0.83273,2.43815 2.14405,2.5957 h 98.95365 c 1.31853,-0.13888 2.89108,0.40392 3.97134,-0.61288 0.56097,-0.78379 0.77787,-1.78583 1.33325,-2.59209 1.2678,-2.19724 3.30059,-4.17268 5.63066,-5.36918 1.02208,-0.43547 2.42099,-0.8337 2.57607,-2.13682 -4.1e-4,-33.13113 4.9e-4,-66.26232 -5.1e-4,-99.39342 -0.0732,-1.25315 0.35454,-2.85847 -0.84285,-3.72432 -3.21276,-1.22279 -6.02631,-3.54782 -7.64087,-6.60683 -0.51585,-1.01682 -0.79974,-2.48731 -2.12752,-2.7249 -21.24836,-0.035 -42.50194,-0.005 -63.75218,-0.015 -12.45803,-0.0154 -24.91666,0.0308 -37.37447,-0.0238 z m 130.00034,0 c -0.67497,-0.007 -1.40701,0.13283 -1.90221,0.62683 -0.54783,0.79737 -0.77518,1.79142 -1.32809,2.60191 -1.26924,2.19975 -3.3054,4.17665 -5.63893,5.3728 -1.02155,0.43313 -2.41331,0.83288 -2.56832,2.13268 0.008,33.19758 -0.0162,66.3964 0.0119,99.59341 0.006,1.21701 -0.30291,2.80437 0.91364,3.57652 3.24504,1.20357 6.02504,3.60868 7.63106,6.6797 0.44347,1.03358 0.83769,2.44957 2.15439,2.61534 h 21.48551 v -1.5875 h -21.48551 c -1.52315,-4.21892 -4.90405,-7.60027 -9.12296,-9.12347 V 414.12359 c 4.21891,-1.52318 7.59981,-4.90455 9.12296,-9.12347 h 21.48551 v -1.59784 c -6.91966,0.004 -13.83939,0.0169 -20.75894,-0.0134 z M 34.123523,405.00012 H 135.877 c 1.52315,4.21892 4.90407,7.60029 9.12296,9.12347 v 101.75348 c -4.21889,1.5232 -7.59981,4.90455 -9.12296,9.12347 H 34.123523 c -1.523159,-4.219 -4.904481,-7.60029 -9.123474,-9.12347 V 414.12359 c 4.218993,-1.52316 7.600315,-4.90447 9.123474,-9.12347 z m 129.999817,0 h 101.75348 c 1.52312,4.21882 4.9042,7.60024 9.12296,9.12347 v 101.75348 c -4.21876,1.52325 -7.59984,4.90465 -9.12296,9.12347 H 164.12334 c -1.52317,-4.219 -4.90448,-7.60029 -9.12347,-9.12347 V 414.12359 c 4.21899,-1.52316 7.6003,-4.90447 9.12347,-9.12347 z M 34.849577,533.38866 c -0.794444,-0.0128 -1.723705,0.20484 -2.142505,0.9493 -1.208437,3.24247 -3.604988,6.02804 -6.679695,7.63106 -1.033586,0.44347 -2.449578,0.83769 -2.615345,2.15439 v 87.48458 h 1.588017 v -87.48458 c 4.218939,-1.52316 7.600287,-4.90402 9.123474,-9.12296 H 135.877 c 1.52318,4.21886 4.90412,7.59978 9.12296,9.12296 v 87.48458 h 1.58647 c -4.4e-4,-28.44137 0.0137,-56.88333 -0.0103,-85.32399 -0.006,-1.217 0.30299,-2.80463 -0.91416,-3.57653 -3.20072,-1.1947 -5.9616,-3.54418 -7.56801,-6.56859 -0.50239,-1.04594 -0.841,-2.55234 -2.21692,-2.72645 h -63.653 c -12.458019,-0.0154 -24.916652,0.0313 -37.374463,-0.0232 z m 260.000153,0 c -0.76509,-0.0106 -1.64396,0.18397 -2.09083,0.86403 -1.22717,3.23872 -3.58122,6.06688 -6.66884,7.6786 -1.03852,0.48319 -2.50858,0.83881 -2.67788,2.19212 0.007,29.16149 -0.004,58.32336 0.0103,87.48458 h 1.57768 v -87.48458 c 4.21886,-1.52318 7.59978,-4.9041 9.12296,-9.12296 h 21.48551 v -1.59835 c -6.91966,0.004 -13.83939,0.0174 -20.75894,-0.0129 z m -130.00034,5.2e-4 c -0.79445,-0.0128 -1.7237,0.20432 -2.1425,0.94878 -1.20356,3.24505 -3.60867,6.02504 -6.6797,7.63106 -1.03358,0.44347 -2.44905,0.83769 -2.61482,2.15439 v 87.48458 h 1.5875 v -87.48458 c 4.21894,-1.52316 7.60028,-4.90402 9.12347,-9.12296 h 101.75348 c 1.52315,4.21876 4.90426,7.59973 9.12296,9.12296 v 87.48458 h 1.58801 c -8e-5,-28.37479 3.4e-4,-56.74985 -5.1e-4,-85.12452 -0.0732,-1.25315 0.35454,-2.85795 -0.84285,-3.7238 -3.21276,-1.22279 -6.02631,-3.54782 -7.64087,-6.60683 -0.51585,-1.01682 -0.79974,-2.48783 -2.12752,-2.72542 -21.24836,-0.035 -42.50194,-0.005 -63.75218,-0.015 -12.45803,-0.0154 -24.91666,0.0313 -37.37447,-0.0232 z" /><path
       id="circle6017"
       style="fill:none;fill-opacity:1;stroke:#000000;stroke-width:1;stroke-linecap:round;stroke-linejoin:round;stroke-dasharray:none;stroke-opacity:1"
       inkscape:label="led"
       d="m 85.000004,308.66698 c -2.761393,-1.2e-4 -5.00004,2.23832 -5.000211,4.99969 -1.22e-4,2.76159 2.238611,5.00034 5.000211,5.00022 2.7614,-1.7e-4 5.000334,-2.23883 5.000212,-5.00022 -1.71e-4,-2.76116 -2.239019,-4.99952 -5.000212,-4.99969 z m 130.000336,0 c -2.7614,-1.2e-4 -5.00001,2.23832 -5.00021,4.99969 -1e-4,2.76159 2.23861,5.00034 5.00021,5.00022 2.7614,-1.7e-4 4.99979,-2.23883 4.99969,-5.00022 -2e-4,-2.76116 -2.23849,-4.99952 -4.99969,-4.99969 z m -130.119708,1.06763 c 1.42733,-0.0316 2.8467,0.76491 3.546553,2.01332 1.048401,1.74867 0.402157,4.17581 -1.311031,5.24464 -1.989906,1.3728 -5.002517,0.30006 -5.801713,-1.94717 -0.931051,-2.28675 0.821906,-5.10942 3.280937,-5.29322 0.09502,-0.01 0.190098,-0.0155 0.285254,-0.0176 z m 130.000338,0 c 1.42728,-0.0316 2.84675,0.76491 3.54655,2.01332 1.0484,1.74867 0.40217,4.17581 -1.31103,5.24464 -1.9899,1.3728 -5.00252,0.30006 -5.80172,-1.94717 -0.93108,-2.28675 0.82194,-5.10942 3.28094,-5.29322 0.095,-0.01 0.19006,-0.0155 0.28526,-0.0176 z M 85.000004,342.00034 c -1.137293,0.008 -2.23772,0.40436 -3.119706,1.12242 -0.399592,0.31168 -0.749476,0.68231 -1.037662,1.09915 v 5.2e-4 c -0.181912,0.27219 -0.336651,0.56159 -0.461988,0.86403 v 5.2e-4 c -0.125371,0.3024 -0.220739,0.61637 -0.284737,0.93741 v 5.2e-4 c -0.06389,0.32111 -0.09608,0.64772 -0.09612,0.97513 -2.1e-5,1.66991 0.833618,3.2296 2.222086,4.15737 h 5.17e-4 c 0.272192,0.18191 0.561589,0.33665 0.86403,0.46199 h 5.17e-4 c 0.302398,0.12537 0.616372,0.22074 0.93741,0.28473 h 5.17e-4 c 0.321115,0.0639 0.647726,0.0961 0.975134,0.0961 0.317466,-9.1e-4 0.634122,-0.0321 0.945679,-0.093 0.01655,-0.003 0.03309,-0.006 0.04961,-0.009 0.303479,-0.0622 0.600516,-0.15254 0.887284,-0.26975 0.02021,-0.008 0.04036,-0.0164 0.06046,-0.0248 0.285657,-0.12023 0.559514,-0.26676 0.818038,-0.4377 0.01244,-0.009 0.02484,-0.0172 0.03721,-0.0258 0.528177,-0.35711 0.983175,-0.81193 1.340487,-1.33997 0.0094,-0.0134 0.01918,-0.0268 0.02842,-0.0403 0.170263,-0.25776 0.316268,-0.53074 0.436149,-0.81545 0.0091,-0.0215 0.01806,-0.043 0.02687,-0.0646 0.116561,-0.28615 0.206344,-0.58249 0.2682,-0.88522 0.0028,-0.0158 0.0056,-0.0317 0.0083,-0.0475 0.0612,-0.31188 0.09251,-0.62888 0.09353,-0.94671 v -5.2e-4 -5.1e-4 c -8.81e-4,-0.31764 -0.03203,-0.63447 -0.09302,-0.9462 -0.0028,-0.0162 -0.0058,-0.0324 -0.0088,-0.0486 -0.06189,-0.30253 -0.15167,-0.59872 -0.2682,-0.8847 -0.0088,-0.0216 -0.01776,-0.0431 -0.02687,-0.0646 -0.120046,-0.28473 -0.266225,-0.55772 -0.436666,-0.81546 -0.0089,-0.013 -0.01785,-0.0258 -0.02687,-0.0387 -0.35736,-0.52846 -0.812544,-0.98365 -1.341003,-1.34101 -0.01236,-0.009 -0.02477,-0.0173 -0.03721,-0.0258 -0.258052,-0.17067 -0.531385,-0.31704 -0.816488,-0.43719 -0.02147,-0.009 -0.043,-0.0181 -0.06459,-0.0269 -0.28632,-0.11659 -0.583348,-0.20637 -0.886251,-0.2682 -0.01549,-0.003 -0.03099,-0.006 -0.04651,-0.008 -0.312219,-0.0613 -0.629573,-0.0926 -0.947746,-0.0935 z m 130.000336,0 c -1.1373,0.008 -2.23771,0.40436 -3.11971,1.12242 -0.3996,0.31168 -0.74946,0.68231 -1.03766,1.09915 v 5.2e-4 c -0.1819,0.27219 -0.33669,0.56159 -0.46199,0.86403 v 5.2e-4 c -0.1254,0.3024 -0.22074,0.61637 -0.28474,0.93741 v 5.2e-4 c -0.064,0.32111 -0.0961,0.64772 -0.0961,0.97513 0,1.66991 0.83358,3.2296 2.22208,4.15737 h 5.2e-4 c 0.2722,0.18191 0.56163,0.33665 0.86403,0.46199 h 5.2e-4 c 0.3024,0.12537 0.61631,0.22074 0.93741,0.28473 h 5.1e-4 c 0.3211,0.0639 0.64774,0.0961 0.97514,0.0961 0.3175,-9.1e-4 0.63418,-0.0321 0.94568,-0.093 0.017,-0.003 0.0331,-0.006 0.0501,-0.009 0.3035,-0.0622 0.60059,-0.15254 0.88729,-0.26975 0.02,-0.008 0.04,-0.0164 0.061,-0.0248 0.2856,-0.12023 0.55953,-0.26676 0.81803,-0.4377 0.012,-0.009 0.0247,-0.0172 0.0367,-0.0258 0.5282,-0.35711 0.98319,-0.81193 1.34049,-1.33997 0.01,-0.0134 0.0194,-0.0268 0.0284,-0.0403 0.1703,-0.25776 0.31625,-0.53074 0.43615,-0.81545 0.01,-0.0215 0.0179,-0.043 0.0269,-0.0646 0.1165,-0.28615 0.2063,-0.58249 0.2682,-0.88522 0,-0.0158 0.01,-0.0317 0.01,-0.0475 0.061,-0.31188 0.092,-0.62888 0.093,-0.94671 v -5.2e-4 -5.1e-4 c -9e-4,-0.31764 -0.032,-0.63447 -0.093,-0.9462 0,-0.0162 -0.01,-0.0324 -0.01,-0.0486 -0.062,-0.30253 -0.1517,-0.59872 -0.2682,-0.8847 -0.01,-0.0216 -0.0179,-0.0431 -0.0269,-0.0646 -0.12,-0.28473 -0.26616,-0.55772 -0.43666,-0.81546 -0.01,-0.013 -0.0184,-0.0258 -0.0274,-0.0387 -0.3574,-0.52846 -0.81261,-0.98365 -1.34101,-1.34101 -0.012,-0.009 -0.0247,-0.0173 -0.0367,-0.0258 -0.258,-0.17067 -0.53138,-0.31704 -0.81648,-0.43719 -0.021,-0.009 -0.0431,-0.0181 -0.0651,-0.0269 -0.2864,-0.11659 -0.58283,-0.20637 -0.88573,-0.2682 -0.015,-0.003 -0.031,-0.006 -0.046,-0.008 -0.3122,-0.0613 -0.62965,-0.0926 -0.94775,-0.0935 z m -129.967779,1.06867 c 1.275986,0.008 2.510407,0.70387 3.22926,1.75235 0.394166,0.54238 0.605388,1.17203 0.657324,1.81591 0.103955,1.52504 -0.688524,3.12671 -2.090312,3.83904 -0.51147,0.29372 -1.073701,0.43838 -1.639693,0.45527 -0.0021,5e-5 -0.0041,-4e-5 -0.0062,0 -0.128749,0.004 -0.257452,-8e-4 -0.386023,-0.0103 -0.03659,-0.003 -0.07303,-0.008 -0.109554,-0.0114 -0.100414,-0.0101 -0.20073,-0.0231 -0.30024,-0.0408 -0.05233,-0.009 -0.104085,-0.0221 -0.156063,-0.0336 -0.08542,-0.0187 -0.170597,-0.0379 -0.254765,-0.062 -0.06495,-0.0187 -0.128723,-0.0411 -0.192753,-0.063 -0.06954,-0.0236 -0.139488,-0.0461 -0.207739,-0.0734 -0.06921,-0.0276 -0.136434,-0.0596 -0.204122,-0.0909 -0.0651,-0.03 -0.130808,-0.0587 -0.194303,-0.092 -0.05932,-0.0311 -0.115867,-0.067 -0.173633,-0.10077 -0.06896,-0.0405 -0.138666,-0.0797 -0.205156,-0.12402 -0.0429,-0.0285 -0.08327,-0.0604 -0.125057,-0.0904 -0.07764,-0.0561 -0.155485,-0.11181 -0.228926,-0.17312 -0.02139,-0.0178 -0.041,-0.0376 -0.06201,-0.0558 -0.518071,-0.45105 -0.921154,-1.03106 -1.121895,-1.70739 -0.14709,-0.41176 -0.206782,-0.83662 -0.195854,-1.25729 4.19e-4,-0.0156 -0.0011,-0.0314 -5.17e-4,-0.047 0.0043,-0.11041 0.0174,-0.22026 0.03152,-0.3297 0.0048,-0.037 0.0065,-0.0743 0.0124,-0.1111 0.01477,-0.0928 0.0374,-0.18389 0.05891,-0.27544 0.01242,-0.0525 0.02212,-0.10561 0.03669,-0.15761 0.02188,-0.0785 0.05037,-0.15494 0.077,-0.23203 0.02185,-0.063 0.04122,-0.1267 0.06615,-0.18862 0.02623,-0.0654 0.05779,-0.12873 0.08733,-0.19275 0.03324,-0.0718 0.06506,-0.14408 0.102319,-0.21394 0.02737,-0.0515 0.05888,-0.10058 0.08837,-0.1509 0.04637,-0.0789 0.09231,-0.15827 0.14366,-0.23409 0.02812,-0.0416 0.05931,-0.0809 0.08888,-0.12144 0.05728,-0.0785 0.114789,-0.15667 0.17725,-0.23099 0.03376,-0.0402 0.0702,-0.0779 0.10542,-0.11679 0.06426,-0.0709 0.129048,-0.14147 0.19792,-0.20774 0.03554,-0.0342 0.07335,-0.0658 0.110071,-0.0987 0.07354,-0.0658 0.147813,-0.13048 0.225826,-0.19069 0.03664,-0.0283 0.07507,-0.0541 0.112655,-0.0811 0.08296,-0.0595 0.166968,-0.11777 0.254248,-0.17053 0.0358,-0.0217 0.07305,-0.041 0.109554,-0.0615 0.0934,-0.0523 0.188155,-0.10217 0.285771,-0.14624 0.03333,-0.0151 0.06748,-0.0282 0.101285,-0.0424 0.104272,-0.0433 0.209974,-0.0835 0.318327,-0.11679 0.05929,-0.0184 0.119401,-0.0348 0.179834,-0.0501 0.08862,-0.0221 0.177896,-0.042 0.268718,-0.0569 0.02156,-0.004 0.04343,-0.006 0.06511,-0.009 0.133993,-0.0194 0.269762,-0.0321 0.407727,-0.0351 0.0853,-0.006 0.170215,-0.008 0.255282,-0.007 z m 129.996719,0 h 0.004 c 1.276,0.008 2.51036,0.70387 3.22926,1.75235 0.3941,0.54238 0.60543,1.17203 0.65733,1.81591 0.104,1.52504 -0.68852,3.12671 -2.09032,3.83904 -0.5115,0.29372 -1.07369,0.43838 -1.63969,0.45527 0,5e-5 -3.3e-4,-4e-5 -0.0103,0 -0.1288,0.004 -0.25753,-8e-4 -0.38603,-0.0103 -0.037,-0.003 -0.073,-0.008 -0.10955,-0.0114 -0.1004,-0.0101 -0.20074,-0.0231 -0.30024,-0.0408 -0.052,-0.009 -0.10406,-0.0221 -0.15606,-0.0336 -0.085,-0.0187 -0.17057,-0.0379 -0.25477,-0.062 -0.065,-0.0187 -0.12875,-0.0411 -0.19275,-0.063 -0.07,-0.0236 -0.13944,-0.0461 -0.20774,-0.0734 -0.069,-0.0276 -0.13642,-0.0596 -0.20412,-0.0909 -0.065,-0.03 -0.13081,-0.0587 -0.19431,-0.092 -0.059,-0.0311 -0.11593,-0.067 -0.17363,-0.10077 -0.069,-0.0405 -0.13866,-0.0797 -0.20516,-0.12402 -0.043,-0.0285 -0.083,-0.0604 -0.12505,-0.0904 -0.078,-0.0561 -0.15543,-0.11181 -0.22893,-0.17312 -0.021,-0.0178 -0.041,-0.0376 -0.062,-0.0558 -0.5181,-0.45105 -0.9211,-1.03106 -1.1219,-1.70739 -0.1471,-0.41176 -0.20685,-0.83662 -0.19585,-1.25729 4e-4,-0.0156 8e-5,-0.0314 -5.2e-4,-0.047 0,-0.11041 0.017,-0.22026 0.032,-0.3297 0,-0.037 0.01,-0.0743 0.0119,-0.1111 0.015,-0.0928 0.0369,-0.18389 0.0589,-0.27544 0.012,-0.0525 0.0222,-0.10561 0.0372,-0.15761 0.022,-0.0785 0.05,-0.15494 0.077,-0.23203 0.022,-0.063 0.0412,-0.1267 0.0662,-0.18862 0.026,-0.0654 0.0578,-0.12873 0.0868,-0.19275 0.033,-0.0718 0.0649,-0.14408 0.10232,-0.21394 0.027,-0.0515 0.0594,-0.10058 0.0884,-0.1509 0.046,-0.0789 0.092,-0.15827 0.14366,-0.23409 0.028,-0.0416 0.0589,-0.0809 0.0889,-0.12144 0.057,-0.0785 0.11485,-0.15667 0.17725,-0.23099 0.034,-0.0402 0.0699,-0.0779 0.10542,-0.11679 0.064,-0.0709 0.12902,-0.14147 0.19792,-0.20774 0.035,-0.0342 0.0731,-0.0658 0.11007,-0.0987 0.074,-0.0658 0.14782,-0.13048 0.22582,-0.19069 0.037,-0.0283 0.0751,-0.0541 0.11266,-0.0811 0.083,-0.0595 0.16695,-0.11777 0.25425,-0.17053 0.036,-0.0217 0.073,-0.041 0.10955,-0.0615 0.093,-0.0523 0.18817,-0.10217 0.28577,-0.14624 0.033,-0.0151 0.068,-0.0282 0.10129,-0.0424 0.1043,-0.0433 0.21002,-0.0835 0.31832,-0.11679 0.059,-0.0184 0.11934,-0.0348 0.17984,-0.0501 0.089,-0.0221 0.17792,-0.042 0.26872,-0.0569 0.021,-0.004 0.0431,-0.006 0.0651,-0.009 0.134,-0.0194 0.26973,-0.0321 0.40773,-0.0351 0.085,-0.006 0.17018,-0.008 0.25528,-0.007 z m -130.029276,32.2647 c -2.761597,-1.2e-4 -5.000327,2.23864 -5.000211,5.00021 1.66e-4,2.76139 2.238814,4.99982 5.000211,4.9997 2.761196,-1.7e-4 5.000046,-2.23851 5.000212,-4.9997 1.16e-4,-2.76137 -2.238816,-5.00004 -5.000212,-5.00021 z m 130.000336,0 c -2.7616,-1.2e-4 -5.00031,2.23864 -5.00021,5.00021 2e-4,2.76139 2.23881,4.99982 5.00021,4.9997 2.7612,-1.7e-4 4.99949,-2.23851 4.99969,-4.9997 1e-4,-2.76137 -2.23829,-5.00004 -4.99969,-5.00021 z m -130.128493,1.05885 c 0.08371,-0.003 0.167184,-0.003 0.250631,0 1.168265,0.0392 2.305673,0.63326 3.014286,1.56321 1.504422,1.81652 0.758623,4.79613 -1.300179,5.85029 -2.046426,1.17951 -4.908521,-0.0262 -5.575887,-2.26911 -0.812722,-2.27471 0.963623,-4.94535 3.360001,-5.1263 0.08349,-0.009 0.167438,-0.0151 0.251148,-0.0181 z m 130.000333,0 c 0.084,-0.003 0.16723,-0.003 0.25063,0 1.1683,0.0392 2.30569,0.63326 3.01429,1.56321 1.5044,1.81652 0.75862,4.79613 -1.30018,5.85029 -2.0464,1.17951 -4.90849,-0.0262 -5.57589,-2.26911 -0.8127,-2.27471 0.96362,-4.94535 3.36,-5.1263 0.084,-0.009 0.16745,-0.0151 0.25115,-0.0181 z M 85.000004,408.66708 c -2.761393,-1.2e-4 -5.00004,2.2383 -5.000211,4.99969 -1.16e-4,2.76159 2.238614,5.00033 5.000211,5.00021 2.761396,-1.7e-4 5.000328,-2.23882 5.000212,-5.00021 -1.71e-4,-2.76118 -2.239019,-4.99952 -5.000212,-4.99969 z m 130.000336,0 c -2.7614,-1.2e-4 -5.00001,2.2383 -5.00021,4.99969 -1e-4,2.76159 2.23861,5.00033 5.00021,5.00021 2.7614,-1.7e-4 4.99979,-2.23882 4.99969,-5.00021 -2e-4,-2.76118 -2.23849,-4.99952 -4.99969,-4.99969 z m -130.119708,1.06763 c 1.42733,-0.0316 2.8467,0.76491 3.546553,2.01332 1.048401,1.74864 0.402157,4.17581 -1.311031,5.24464 -1.989906,1.3728 -5.002517,0.30006 -5.801713,-1.94717 -0.931051,-2.28675 0.821906,-5.10942 3.280937,-5.29322 0.09502,-0.01 0.190098,-0.0155 0.285254,-0.0176 z m 130.000338,0 c 1.42728,-0.0316 2.84675,0.76491 3.54655,2.01332 1.0484,1.74864 0.40217,4.17581 -1.31103,5.24464 -1.9899,1.3728 -5.00252,0.30006 -5.80172,-1.94717 -0.93108,-2.28675 0.82194,-5.10942 3.28094,-5.29322 0.095,-0.01 0.19006,-0.0155 0.28526,-0.0176 z M 85.000004,441.99993 c -0.989022,0 -1.955819,0.29331 -2.778125,0.84284 -0.545836,0.36474 -1.014498,0.83341 -1.379243,1.37924 v 5.2e-4 c -0.181912,0.27219 -0.336651,0.56159 -0.461988,0.86403 v 5.2e-4 c -0.125371,0.3024 -0.220739,0.61637 -0.284737,0.93741 v 5.1e-4 c -0.06389,0.32112 -0.09608,0.64773 -0.09612,0.97514 3.6e-5,0.32741 0.03223,0.65402 0.09612,0.97513 v 5.2e-4 c 0.128199,0.64385 0.381932,1.25615 0.746725,1.80196 v 5.1e-4 c 0.364744,0.54584 0.833406,1.0145 1.379243,1.37925 h 5.17e-4 c 0.272192,0.18191 0.561589,0.33664 0.86403,0.46198 h 5.17e-4 c 0.302398,0.12537 0.616372,0.22074 0.93741,0.28474 h 5.17e-4 c 0.321115,0.0639 0.647726,0.0961 0.975134,0.0961 0.318189,-0.001 0.635544,-0.0327 0.947746,-0.0941 0.01552,-0.003 0.03102,-0.005 0.04651,-0.008 0.302903,-0.0618 0.599414,-0.15161 0.885734,-0.2682 0.02159,-0.009 0.04313,-0.0178 0.0646,-0.0269 0.283957,-0.11967 0.556244,-0.26533 0.813387,-0.43512 0.01487,-0.0102 0.02968,-0.0206 0.04444,-0.031 0.262737,-0.17668 0.508093,-0.37792 0.732772,-0.601 l 5.17e-4,-5.2e-4 c 0.224778,-0.22612 0.427409,-0.47323 0.605131,-0.73794 0.0081,-0.0117 0.01675,-0.0234 0.02481,-0.0351 0.170911,-0.25836 0.317438,-0.53204 0.437699,-0.81752 0.0091,-0.0215 0.01806,-0.043 0.02687,-0.0646 0.116561,-0.28615 0.206344,-0.58249 0.2682,-0.88522 0.0028,-0.0158 0.0056,-0.0317 0.0083,-0.0475 0.06123,-0.31205 0.09254,-0.62923 0.09353,-0.94723 -9.85e-4,-0.318 -0.0323,-0.63518 -0.09353,-0.94723 -0.0027,-0.0159 -0.0054,-0.0317 -0.0083,-0.0475 -0.06186,-0.30273 -0.151639,-0.59907 -0.2682,-0.88522 -0.0088,-0.0216 -0.01776,-0.0431 -0.02687,-0.0646 -0.120261,-0.28548 -0.266788,-0.55916 -0.437699,-0.81752 -0.008,-0.0118 -0.01666,-0.023 -0.02481,-0.0346 -0.356703,-0.52784 -0.810986,-0.98266 -1.33842,-1.33997 -0.01476,-0.0102 -0.02957,-0.0209 -0.04444,-0.031 -0.257143,-0.16979 -0.529431,-0.31494 -0.813387,-0.4346 -0.02147,-0.009 -0.043,-0.0186 -0.0646,-0.0274 -0.28632,-0.11659 -0.582831,-0.20637 -0.885734,-0.2682 -0.01549,-0.003 -0.03099,-0.006 -0.04651,-0.008 -0.312202,-0.0614 -0.629557,-0.0928 -0.947746,-0.094 z m 130.000336,0 c -0.989,0 -1.95583,0.29331 -2.77813,0.84284 -0.5458,0.36474 -1.01444,0.83341 -1.37924,1.37924 v 5.2e-4 c -0.1819,0.27219 -0.33669,0.56159 -0.46199,0.86403 v 5.2e-4 c -0.1254,0.3024 -0.22074,0.61637 -0.28474,0.93741 v 5.1e-4 c -0.064,0.32112 -0.0961,0.64773 -0.0961,0.97514 0,0.32741 0.0321,0.65402 0.0961,0.97513 v 5.2e-4 c 0.1282,0.64385 0.38203,1.25615 0.74673,1.80196 v 5.1e-4 c 0.3648,0.54584 0.83344,1.0145 1.37924,1.37925 h 5.2e-4 c 0.2722,0.18191 0.56153,0.33664 0.86403,0.46198 h 5.2e-4 c 0.3024,0.12537 0.61631,0.22074 0.93741,0.28474 h 5.1e-4 c 0.3211,0.0639 0.64774,0.0961 0.97514,0.0961 0.3182,-0.001 0.63554,-0.0327 0.94774,-0.0941 0.015,-0.003 0.031,-0.005 0.046,-0.008 0.3029,-0.0618 0.59943,-0.15161 0.88573,-0.2682 0.022,-0.009 0.0431,-0.0178 0.0651,-0.0269 0.284,-0.11967 0.55629,-0.26533 0.81339,-0.43512 0.015,-0.0102 0.0299,-0.0206 0.0439,-0.031 0.2627,-0.17668 0.50818,-0.37792 0.73278,-0.601 l 5.1e-4,-5.2e-4 c 0.2247,-0.22612 0.42743,-0.47323 0.60513,-0.73794 0.01,-0.0117 0.0158,-0.0234 0.0238,-0.0351 0.17088,-0.25836 0.31739,-0.53204 0.43769,-0.81752 0.01,-0.0215 0.0179,-0.043 0.0269,-0.0646 0.1165,-0.28615 0.2063,-0.58249 0.2682,-0.88522 0,-0.0158 0.0103,-0.0317 0.0103,-0.0475 0.061,-0.31205 0.092,-0.62923 0.093,-0.94723 0,-0.318 -0.032,-0.63518 -0.093,-0.94723 0,-0.0159 -0.0103,-0.0317 -0.0103,-0.0475 -0.062,-0.30273 -0.1517,-0.59907 -0.2682,-0.88522 -0.01,-0.0216 -0.0179,-0.0431 -0.0269,-0.0646 -0.1203,-0.28548 -0.26681,-0.55916 -0.43769,-0.81752 -0.01,-0.0118 -0.0158,-0.023 -0.0238,-0.0346 -0.3567,-0.52784 -0.81102,-0.98266 -1.33842,-1.33997 -0.015,-0.0102 -0.0299,-0.0209 -0.0439,-0.031 -0.2571,-0.16979 -0.52939,-0.31494 -0.81339,-0.4346 -0.021,-0.009 -0.0431,-0.0186 -0.0651,-0.0274 -0.2863,-0.11659 -0.58283,-0.20637 -0.88573,-0.2682 -0.015,-0.003 -0.031,-0.006 -0.046,-0.008 -0.3122,-0.0614 -0.62954,-0.0928 -0.94774,-0.094 z m -129.967779,1.06918 c 1.275986,0.008 2.510407,0.70387 3.22926,1.75235 0.394166,0.54238 0.605388,1.17203 0.657324,1.81591 0.103955,1.52503 -0.688524,3.12619 -2.090312,3.83852 -0.51147,0.29372 -1.073701,0.43889 -1.639693,0.45579 -0.0019,4e-5 -0.0038,-4e-5 -0.0057,0 -0.130993,0.004 -0.26194,-9.5e-4 -0.392741,-0.0108 -0.03003,-0.002 -0.05993,-0.006 -0.08992,-0.009 -0.105111,-0.0102 -0.210061,-0.0238 -0.314193,-0.0424 -0.05213,-0.009 -0.103767,-0.0216 -0.155546,-0.0331 -0.08542,-0.0187 -0.170597,-0.0379 -0.254765,-0.062 -0.0627,-0.0181 -0.124191,-0.04 -0.186035,-0.061 -0.07342,-0.0248 -0.147119,-0.0492 -0.219108,-0.078 -0.06367,-0.0255 -0.125719,-0.0547 -0.188102,-0.0832 -0.06922,-0.0317 -0.138773,-0.0623 -0.206189,-0.0977 -0.05911,-0.031 -0.115553,-0.0666 -0.173116,-0.10025 -0.06896,-0.0405 -0.138666,-0.0797 -0.205156,-0.12403 -0.0429,-0.0285 -0.08327,-0.0603 -0.125057,-0.0904 -0.07764,-0.0561 -0.155485,-0.11181 -0.228926,-0.17312 -0.02139,-0.0178 -0.041,-0.0376 -0.06201,-0.0558 -0.518071,-0.45105 -0.921154,-1.03156 -1.121895,-1.7079 -0.14709,-0.41176 -0.206782,-0.8361 -0.195854,-1.25677 4.19e-4,-0.0157 -0.0011,-0.0314 -5.17e-4,-0.047 0.0043,-0.11041 0.0174,-0.22025 0.03152,-0.32969 0.0048,-0.037 0.0065,-0.0743 0.0124,-0.11111 0.01451,-0.0911 0.03687,-0.18086 0.05788,-0.27078 0.01288,-0.0548 0.02302,-0.11012 0.03824,-0.16433 0.02087,-0.0747 0.04768,-0.14769 0.07286,-0.22118 0.02302,-0.0668 0.04381,-0.13434 0.07028,-0.19999 0.02534,-0.0631 0.05632,-0.12372 0.08475,-0.18552 0.03386,-0.0734 0.06633,-0.14722 0.104386,-0.21859 0.02737,-0.0515 0.05888,-0.10057 0.08837,-0.15089 0.04637,-0.0789 0.09231,-0.15828 0.14366,-0.2341 0.02812,-0.0416 0.05931,-0.0809 0.08888,-0.12144 0.05728,-0.0784 0.114789,-0.15667 0.17725,-0.23099 0.03376,-0.0402 0.0702,-0.0779 0.10542,-0.11679 0.06442,-0.0711 0.129376,-0.14182 0.198437,-0.20825 0.03447,-0.0332 0.07139,-0.0637 0.10697,-0.0956 0.07423,-0.0666 0.149094,-0.13243 0.227893,-0.19327 0.03783,-0.0292 0.07743,-0.0559 0.116272,-0.0837 0.08187,-0.0586 0.164567,-0.11591 0.250631,-0.16795 0.03593,-0.0218 0.07344,-0.0409 0.110071,-0.0615 0.0934,-0.0523 0.188155,-0.10218 0.285771,-0.14625 0.03333,-0.0151 0.06748,-0.0282 0.101285,-0.0424 0.104272,-0.0433 0.209974,-0.0835 0.318327,-0.11679 0.06678,-0.0208 0.134355,-0.0395 0.202572,-0.0563 0.08206,-0.0198 0.164639,-0.0374 0.248564,-0.0512 0.01711,-0.003 0.03449,-0.005 0.05168,-0.007 0.137474,-0.0204 0.276905,-0.0335 0.418579,-0.0367 0.0853,-0.006 0.170215,-0.008 0.255282,-0.007 z m 130.000849,0 c 1.276,0.008 2.51036,0.70387 3.22926,1.75235 0.3941,0.54238 0.60543,1.17203 0.65733,1.81591 0.104,1.52503 -0.68852,3.12619 -2.09032,3.83852 -0.5115,0.29372 -1.07369,0.43889 -1.63969,0.45579 0,4e-5 -3.3e-4,-4e-5 -0.0103,0 -0.131,0.004 -0.26195,-9.5e-4 -0.39275,-0.0108 -0.03,-0.002 -0.0599,-0.006 -0.0899,-0.009 -0.1051,-0.0102 -0.21,-0.0238 -0.3142,-0.0424 -0.052,-0.009 -0.10374,-0.0216 -0.15554,-0.0331 -0.085,-0.0187 -0.17057,-0.0379 -0.25477,-0.062 -0.063,-0.0181 -0.12423,-0.04 -0.18603,-0.061 -0.073,-0.0248 -0.14711,-0.0492 -0.21911,-0.078 -0.064,-0.0255 -0.1258,-0.0547 -0.1881,-0.0832 -0.069,-0.0317 -0.13879,-0.0623 -0.20619,-0.0977 -0.059,-0.031 -0.11562,-0.0666 -0.17312,-0.10025 -0.069,-0.0405 -0.13865,-0.0797 -0.20515,-0.12403 -0.043,-0.0285 -0.083,-0.0603 -0.12506,-0.0904 -0.078,-0.0561 -0.15543,-0.11181 -0.22893,-0.17312 -0.021,-0.0178 -0.041,-0.0376 -0.062,-0.0558 -0.5181,-0.45105 -0.92119,-1.03156 -1.12189,-1.7079 -0.1471,-0.41176 -0.20676,-0.8361 -0.19586,-1.25677 5e-4,-0.0157 -1e-5,-0.0314 -5.1e-4,-0.047 0,-0.11041 0.017,-0.22025 0.032,-0.32969 0,-0.037 0.01,-0.0743 0.0119,-0.11111 0.015,-0.0911 0.0369,-0.18086 0.0579,-0.27078 0.013,-0.0548 0.0232,-0.11012 0.0382,-0.16433 0.021,-0.0747 0.0479,-0.14769 0.0729,-0.22118 0.023,-0.0668 0.0443,-0.13434 0.0703,-0.19999 0.025,-0.0631 0.0558,-0.12372 0.0848,-0.18552 0.034,-0.0734 0.0661,-0.14722 0.10439,-0.21859 0.027,-0.0515 0.0589,-0.10057 0.0879,-0.15089 0.046,-0.0789 0.092,-0.15828 0.14366,-0.2341 0.028,-0.0416 0.0589,-0.0809 0.0889,-0.12144 0.057,-0.0784 0.11475,-0.15667 0.17725,-0.23099 0.034,-0.0402 0.07,-0.0779 0.10542,-0.11679 0.064,-0.0711 0.12934,-0.14182 0.19844,-0.20825 0.034,-0.0332 0.0711,-0.0637 0.10697,-0.0956 0.074,-0.0666 0.14909,-0.13243 0.22789,-0.19327 0.038,-0.0292 0.078,-0.0559 0.11628,-0.0837 0.082,-0.0586 0.16463,-0.11591 0.25063,-0.16795 0.036,-0.0218 0.073,-0.0409 0.11007,-0.0615 0.093,-0.0523 0.18817,-0.10218 0.28577,-0.14625 0.033,-0.0151 0.068,-0.0282 0.10128,-0.0424 0.1042,-0.0433 0.20993,-0.0835 0.31833,-0.11679 0.067,-0.0208 0.13437,-0.0395 0.20257,-0.0563 0.082,-0.0198 0.16467,-0.0374 0.24857,-0.0512 0.017,-0.003 0.0342,-0.005 0.0522,-0.007 0.1375,-0.0204 0.27688,-0.0335 0.41858,-0.0367 0.085,-0.006 0.17018,-0.008 0.25528,-0.007 z M 85.000004,475.33329 c -2.761597,-1.2e-4 -5.000327,2.23864 -5.000211,5.00021 1.66e-4,2.76139 2.238814,4.99982 5.000211,4.9997 2.761196,-1.7e-4 5.000046,-2.23851 5.000212,-4.9997 1.16e-4,-2.76137 -2.238816,-5.00004 -5.000212,-5.00021 z m 130.000336,0 c -2.7616,-1.2e-4 -5.00031,2.23864 -5.00021,5.00021 2e-4,2.76139 2.23881,4.99982 5.00021,4.9997 2.7612,-1.7e-4 4.99949,-2.23851 4.99969,-4.9997 1e-4,-2.76137 -2.23829,-5.00004 -4.99969,-5.00021 z m -129.877862,1.05885 c 1.168265,0.0392 2.305673,0.63327 3.014286,1.56321 1.504422,1.81652 0.758623,4.79613 -1.300179,5.85029 -2.046426,1.17951 -4.908521,-0.0262 -5.575887,-2.26911 -0.812722,-2.27471 0.963623,-4.94535 3.360001,-5.1263 0.166988,-0.0177 0.334883,-0.0237 0.501779,-0.0181 z m 130.000332,0 c 1.1683,0.0392 2.30569,0.63327 3.01429,1.56321 1.5044,1.81652 0.75862,4.79613 -1.30018,5.85029 -2.0464,1.17951 -4.90849,-0.0262 -5.57589,-2.26911 -0.8127,-2.27471 0.96362,-4.94535 3.36,-5.1263 0.167,-0.0177 0.33488,-0.0237 0.50178,-0.0181 z M 85.000004,508.66666 c -2.761393,-1.2e-4 -5.00004,2.23832 -5.000211,4.99969 -1.16e-4,2.76159 2.238614,5.00033 5.000211,5.00021 2.761396,-1.7e-4 5.000328,-2.23882 5.000212,-5.00021 -1.71e-4,-2.76116 -2.239019,-4.99952 -5.000212,-4.99969 z m 130.000336,0 c -2.7614,-1.2e-4 -5.00001,2.23832 -5.00021,4.99969 -1e-4,2.76159 2.23861,5.00033 5.00021,5.00021 2.7614,-1.7e-4 4.99979,-2.23882 4.99969,-5.00021 -2e-4,-2.76116 -2.23849,-4.99952 -4.99969,-4.99969 z m -130.119708,1.06763 c 1.42733,-0.0316 2.8467,0.76491 3.546553,2.01332 1.048401,1.74865 0.402157,4.17581 -1.311031,5.24464 -1.989906,1.3728 -5.002517,0.30006 -5.801713,-1.94717 -0.931051,-2.28675 0.821906,-5.10942 3.280937,-5.29322 0.09502,-0.01 0.190098,-0.0155 0.285254,-0.0176 z m 130.000338,0 c 1.42728,-0.0316 2.84675,0.76491 3.54655,2.01332 1.0484,1.74865 0.40217,4.17581 -1.31103,5.24464 -1.9899,1.3728 -5.00252,0.30006 -5.80172,-1.94717 -0.93108,-2.28675 0.82194,-5.10942 3.28094,-5.29322 0.095,-0.01 0.19006,-0.0155 0.28526,-0.0176 z M 85.000004,542.00002 c -0.989023,0 -1.95582,0.29332 -2.778125,0.84285 -1.102518,0.73671 -1.86724,1.88121 -2.125968,3.18171 v 5.2e-4 c -0.06385,0.32095 -0.09605,0.64738 -0.09612,0.97462 2e-6,0.32758 0.0322,0.65437 0.09612,0.97565 v 5.2e-4 c 0.064,0.32104 0.159366,0.63501 0.284737,0.93741 v 5.1e-4 c 0.125337,0.30244 0.280076,0.59184 0.461988,0.86403 v 5.2e-4 c 0.364745,0.54583 0.833407,1.0145 1.379243,1.37924 h 5.17e-4 c 0.272192,0.18191 0.561589,0.33665 0.86403,0.46199 h 5.17e-4 c 0.606537,0.25114 1.256587,0.38038 1.913061,0.38034 0.318173,-9.5e-4 0.635527,-0.0323 0.947746,-0.0935 0.01552,-0.003 0.03102,-0.005 0.04651,-0.008 0.302903,-0.0618 0.599414,-0.15161 0.885734,-0.2682 0.02159,-0.009 0.04313,-0.0178 0.0646,-0.0269 0.283957,-0.11967 0.556244,-0.26532 0.813387,-0.43511 0.01487,-0.0101 0.02968,-0.0203 0.04444,-0.0305 0.526732,-0.35701 0.980471,-0.81128 1.33687,-1.33842 0.009,-0.0129 0.01798,-0.0258 0.02687,-0.0388 0.170441,-0.25774 0.317137,-0.53072 0.437183,-0.81545 0.0091,-0.0215 0.01754,-0.043 0.02635,-0.0646 0.11653,-0.28598 0.20683,-0.58215 0.268717,-0.8847 0.003,-0.0162 0.0059,-0.0324 0.0088,-0.0486 0.06102,-0.3119 0.09217,-0.62892 0.09302,-0.94671 v -5.2e-4 -5.2e-4 c -0.0011,-0.31765 -0.03236,-0.63448 -0.09353,-0.94619 -0.0027,-0.0159 -0.0059,-0.0317 -0.0088,-0.0476 -0.06186,-0.30272 -0.151641,-0.59906 -0.268201,-0.88521 -0.0088,-0.0216 -0.01776,-0.0431 -0.02687,-0.0646 -0.119881,-0.28471 -0.265887,-0.55769 -0.436149,-0.81545 -0.0092,-0.0135 -0.01853,-0.0269 -0.02791,-0.0403 -0.177365,-0.26375 -0.379472,-0.50998 -0.603581,-0.73536 l -5.17e-4,-5.1e-4 c -0.225679,-0.22434 -0.47226,-0.42663 -0.736389,-0.6041 -0.01236,-0.009 -0.02477,-0.0173 -0.03721,-0.0258 -0.258524,-0.17094 -0.532381,-0.31747 -0.818038,-0.4377 -0.0201,-0.008 -0.04025,-0.0167 -0.06046,-0.0248 -0.286768,-0.11721 -0.583805,-0.20752 -0.887284,-0.26975 -0.01652,-0.003 -0.03306,-0.006 -0.04961,-0.009 -0.311557,-0.061 -0.628213,-0.0921 -0.945679,-0.093 z m 129.997746,0 c -0.98808,5.2e-4 -1.95396,0.2938 -2.77554,0.84285 -1.1025,0.73671 -1.86727,1.88121 -2.12597,3.18171 v 5.2e-4 c -0.064,0.32095 -0.0961,0.64738 -0.0961,0.97462 0,0.32758 0.0321,0.65437 0.0961,0.97565 v 5.2e-4 c 0.064,0.32104 0.15934,0.63501 0.28474,0.93741 v 5.1e-4 c 0.1253,0.30244 0.28009,0.59184 0.46199,0.86403 v 5.2e-4 c 0.3648,0.54583 0.83344,1.0145 1.37924,1.37924 h 5.2e-4 c 0.2722,0.18191 0.56153,0.33665 0.86403,0.46199 h 5.2e-4 c 0.6065,0.25114 1.25666,0.38038 1.91306,0.38034 0.3182,-9.5e-4 0.63554,-0.0323 0.94774,-0.0935 0.015,-0.003 0.031,-0.005 0.046,-0.008 0.3029,-0.0618 0.59943,-0.15161 0.88573,-0.2682 0.022,-0.009 0.0431,-0.0178 0.0651,-0.0269 0.284,-0.11967 0.55629,-0.26532 0.81339,-0.43511 0.015,-0.0101 0.0299,-0.0203 0.0439,-0.0305 0.5267,-0.35701 0.98047,-0.81128 1.33687,-1.33842 0.01,-0.0129 0.0179,-0.0258 0.0269,-0.0388 0.1705,-0.25774 0.31656,-0.53072 0.43666,-0.81545 0.01,-0.0215 0.0179,-0.043 0.0269,-0.0646 0.1165,-0.28598 0.2063,-0.58215 0.2682,-0.8847 0,-0.0162 0.0103,-0.0324 0.0103,-0.0486 0.061,-0.3119 0.0915,-0.62892 0.0925,-0.94671 v -5.2e-4 -5.2e-4 c 0,-0.31765 -0.0315,-0.63448 -0.0935,-0.94619 0,-0.0159 -0.0103,-0.0317 -0.0103,-0.0476 -0.062,-0.30272 -0.1516,-0.59906 -0.2682,-0.88521 -0.01,-0.0216 -0.0179,-0.0431 -0.0269,-0.0646 -0.1199,-0.28471 -0.26585,-0.55769 -0.43615,-0.81545 -0.01,-0.0135 -0.0189,-0.0269 -0.0279,-0.0403 -0.1774,-0.26375 -0.37948,-0.50998 -0.60358,-0.73536 l -5.1e-4,-5.1e-4 c -0.2257,-0.22434 -0.47229,-0.42663 -0.73639,-0.6041 -0.012,-0.009 -0.0252,-0.0173 -0.0372,-0.0258 -0.2585,-0.17094 -0.53244,-0.31747 -0.81804,-0.4377 -0.02,-0.008 -0.04,-0.0167 -0.061,-0.0248 -0.2868,-0.11721 -0.58378,-0.20752 -0.88728,-0.26975 -0.017,-0.003 -0.0331,-0.006 -0.0501,-0.009 -0.31075,-0.0608 -0.62646,-0.092 -0.94309,-0.093 z m -129.965189,1.06867 c 1.275986,0.008 2.510407,0.70387 3.22926,1.75235 0.394166,0.54238 0.605388,1.17255 0.657324,1.81643 0.103955,1.52501 -0.688524,3.12618 -2.090312,3.83852 -0.51147,0.29372 -1.073701,0.43837 -1.639693,0.45527 h -5.17e-4 c -0.13288,0.004 -0.265735,-4.9e-4 -0.398425,-0.0103 -0.02986,-0.002 -0.05959,-0.006 -0.0894,-0.009 -0.104748,-0.0102 -0.209382,-0.0233 -0.313159,-0.0418 -0.05598,-0.0102 -0.111346,-0.0237 -0.166915,-0.0362 -0.08015,-0.0177 -0.160216,-0.0354 -0.239262,-0.0579 -0.06672,-0.0191 -0.132164,-0.0422 -0.197921,-0.0646 -0.07096,-0.0241 -0.142258,-0.0477 -0.211873,-0.0755 -0.06535,-0.0262 -0.128761,-0.0569 -0.192753,-0.0863 -0.06775,-0.0311 -0.136039,-0.0609 -0.202055,-0.0956 -0.05797,-0.0304 -0.113535,-0.0647 -0.170016,-0.0977 -0.07024,-0.0412 -0.141089,-0.0809 -0.208772,-0.12609 -0.04278,-0.0284 -0.08286,-0.0604 -0.124541,-0.0904 -0.07744,-0.0559 -0.155142,-0.11146 -0.228409,-0.1726 -0.02241,-0.0186 -0.04261,-0.0398 -0.0646,-0.0589 -0.516896,-0.45076 -0.919401,-1.03006 -1.119828,-1.70532 -0.147084,-0.41175 -0.206775,-0.83613 -0.195854,-1.25678 4.19e-4,-0.0157 -0.0011,-0.0314 -5.17e-4,-0.047 0.0043,-0.11041 0.0174,-0.22025 0.03152,-0.3297 0.0048,-0.037 0.0065,-0.0743 0.0124,-0.1111 0.01451,-0.0911 0.03687,-0.18087 0.05788,-0.27079 0.01288,-0.0548 0.02302,-0.11011 0.03824,-0.16433 0.02087,-0.0747 0.04768,-0.14768 0.07286,-0.22117 0.02302,-0.0668 0.04381,-0.13434 0.07028,-0.19999 0.02589,-0.0644 0.05719,-0.12654 0.0863,-0.18965 0.03293,-0.0712 0.06441,-0.14312 0.101286,-0.21239 0.02977,-0.0561 0.06385,-0.10964 0.09612,-0.16433 0.04377,-0.074 0.08722,-0.14836 0.135392,-0.21963 0.03065,-0.0454 0.06426,-0.0886 0.09664,-0.13281 0.05561,-0.0758 0.111105,-0.15131 0.171566,-0.22324 0.03231,-0.0385 0.06763,-0.0743 0.101286,-0.11162 0.06661,-0.0737 0.134091,-0.14677 0.205672,-0.21549 0.03196,-0.0307 0.06578,-0.0592 0.0987,-0.0889 0.07577,-0.0682 0.152517,-0.13521 0.23306,-0.19741 0.03783,-0.0292 0.07743,-0.0559 0.116272,-0.0837 0.08187,-0.0586 0.164567,-0.11592 0.250631,-0.16795 0.03593,-0.0218 0.07344,-0.0409 0.110071,-0.0615 0.0938,-0.0525 0.188747,-0.10305 0.286804,-0.14727 0.03122,-0.0142 0.06346,-0.026 0.09508,-0.0393 0.107268,-0.0448 0.216034,-0.0863 0.327628,-0.1204 0.0624,-0.0193 0.125473,-0.0368 0.189136,-0.0527 0.08507,-0.0208 0.170784,-0.0389 0.257866,-0.0532 0.0185,-0.003 0.03723,-0.005 0.05581,-0.008 0.136135,-0.02 0.274199,-0.0331 0.414445,-0.0362 0.0853,-0.006 0.170215,-0.008 0.255282,-0.007 z m 130.000849,0 c 1.276,0.008 2.51036,0.70387 3.22926,1.75235 0.3941,0.54238 0.60543,1.17255 0.65733,1.81643 0.104,1.52501 -0.68852,3.12618 -2.09032,3.83852 -0.5115,0.29372 -1.07369,0.43837 -1.63969,0.45527 h -5.2e-4 c -0.1329,0.004 -0.26572,-4.9e-4 -0.39842,-0.0103 -0.03,-0.002 -0.0604,-0.006 -0.0894,-0.009 -0.1047,-0.0102 -0.20936,-0.0233 -0.31316,-0.0418 -0.056,-0.0102 -0.11142,-0.0237 -0.16692,-0.0362 -0.08,-0.0177 -0.16026,-0.0354 -0.23926,-0.0579 -0.067,-0.0191 -0.13222,-0.0422 -0.19792,-0.0646 -0.071,-0.0241 -0.14227,-0.0477 -0.21187,-0.0755 -0.065,-0.0262 -0.12875,-0.0569 -0.19275,-0.0863 -0.068,-0.0311 -0.13606,-0.0609 -0.20206,-0.0956 -0.058,-0.0304 -0.11352,-0.0647 -0.17002,-0.0977 -0.07,-0.0412 -0.14107,-0.0809 -0.20877,-0.12609 -0.043,-0.0284 -0.083,-0.0604 -0.12454,-0.0904 -0.077,-0.0559 -0.15511,-0.11146 -0.22841,-0.1726 -0.022,-0.0186 -0.0431,-0.0398 -0.0651,-0.0589 -0.5168,-0.45076 -0.91891,-1.03006 -1.11931,-1.70532 -0.1471,-0.41175 -0.20686,-0.83613 -0.19586,-1.25678 4e-4,-0.0157 -4.3e-4,-0.0314 -0.001,-0.047 0,-0.11041 0.017,-0.22025 0.032,-0.3297 0,-0.037 0.0104,-0.0743 0.0124,-0.1111 0.015,-0.0911 0.0369,-0.18087 0.0579,-0.27079 0.013,-0.0548 0.0227,-0.11011 0.0377,-0.16433 0.021,-0.0747 0.0484,-0.14768 0.0734,-0.22117 0.023,-0.0668 0.0438,-0.13434 0.0698,-0.19999 0.026,-0.0644 0.0573,-0.12654 0.0863,-0.18965 0.033,-0.0712 0.064,-0.14312 0.10128,-0.21239 0.03,-0.0561 0.0636,-0.10964 0.0956,-0.16433 0.044,-0.074 0.087,-0.14836 0.1354,-0.21963 0.031,-0.0454 0.0641,-0.0886 0.0971,-0.13281 0.056,-0.0758 0.11116,-0.15131 0.17156,-0.22324 0.032,-0.0385 0.068,-0.0743 0.10129,-0.11162 0.067,-0.0737 0.13407,-0.14677 0.20567,-0.21549 0.032,-0.0307 0.0662,-0.0592 0.0992,-0.0889 0.076,-0.0682 0.15246,-0.13521 0.23306,-0.19741 0.038,-0.0292 0.0771,-0.0559 0.11627,-0.0837 0.082,-0.0586 0.16453,-0.11592 0.25063,-0.16795 0.036,-0.0218 0.0731,-0.0409 0.11008,-0.0615 0.094,-0.0525 0.18828,-0.10305 0.28628,-0.14727 0.031,-0.0142 0.0641,-0.026 0.0951,-0.0393 0.1073,-0.0448 0.21613,-0.0863 0.32763,-0.1204 0.062,-0.0193 0.12543,-0.0368 0.18913,-0.0527 0.085,-0.0208 0.17087,-0.0389 0.25787,-0.0532 0.018,-0.003 0.0373,-0.005 0.0563,-0.008 0.1361,-0.02 0.27425,-0.0331 0.41445,-0.0362 0.085,-0.006 0.17018,-0.008 0.25528,-0.007 z m -130.033406,32.2647 c -2.761597,-1.2e-4 -5.000327,2.23862 -5.000211,5.00021 1.66e-4,2.76139 2.238814,4.99982 5.000211,4.9997 2.761196,-1.7e-4 5.000046,-2.23851 5.000212,-4.9997 1.16e-4,-2.76139 -2.238816,-5.00004 -5.000212,-5.00021 z m 130.000336,0 c -2.7616,-1.2e-4 -5.00031,2.23862 -5.00021,5.00021 2e-4,2.76139 2.23881,4.99982 5.00021,4.9997 2.7612,-1.7e-4 4.99949,-2.23851 4.99969,-4.9997 1e-4,-2.76139 -2.23829,-5.00004 -4.99969,-5.00021 z m -129.877862,1.05885 c 1.168265,0.0392 2.305673,0.63326 3.014286,1.56321 1.504422,1.81652 0.758623,4.79613 -1.300179,5.85029 -2.046426,1.17951 -4.908521,-0.0262 -5.575887,-2.26911 -0.812722,-2.27471 0.963623,-4.94535 3.360001,-5.1263 0.166988,-0.0177 0.334883,-0.0237 0.501779,-0.0181 z m 130.000332,0 c 1.1683,0.0392 2.30569,0.63326 3.01429,1.56321 1.5044,1.81652 0.75862,4.79613 -1.30018,5.85029 -2.0464,1.17951 -4.90849,-0.0262 -5.57589,-2.26911 -0.8127,-2.27471 0.96362,-4.94535 3.36,-5.1263 0.167,-0.0177 0.33488,-0.0237 0.50178,-0.0181 z M 85.000004,608.66676 c -2.761393,-1.2e-4 -5.00004,2.2383 -5.000211,4.99969 -1.16e-4,2.76159 2.238614,5.00033 5.000211,5.00021 2.761396,-1.7e-4 5.000328,-2.23882 5.000212,-5.00021 -1.71e-4,-2.76118 -2.239019,-4.99952 -5.000212,-4.99969 z m 130.000336,0 c -2.7614,-1.2e-4 -5.00001,2.2383 -5.00021,4.99969 -1e-4,2.76159 2.23861,5.00033 5.00021,5.00021 2.7614,-1.7e-4 4.99979,-2.23882 4.99969,-5.00021 -2e-4,-2.76118 -2.23849,-4.99952 -4.99969,-4.99969 z m -130.119708,1.06763 c 1.42733,-0.0316 2.8467,0.76493 3.546553,2.01331 1.048401,1.74867 0.402157,4.17582 -1.311031,5.24465 -1.989906,1.37277 -5.002517,0.30006 -5.801713,-1.94717 -0.931051,-2.28675 0.821906,-5.10942 3.280937,-5.29322 0.09502,-0.01 0.190098,-0.0155 0.285254,-0.0176 z m 130.000338,0 c 1.42728,-0.0316 2.84675,0.76493 3.54655,2.01331 1.0484,1.74867 0.40217,4.17582 -1.31103,5.24465 -1.9899,1.37277 -5.00252,0.30006 -5.80172,-1.94717 -0.93108,-2.28675 0.82194,-5.10942 3.28094,-5.29322 0.095,-0.01 0.19006,-0.0155 0.28526,-0.0176 z" /><rect
       style="display:inline;fill:none;fill-opacity:1;stroke:#000400;stroke-width:0.7831;stroke-linecap:round;stroke-linejoin:miter;stroke-dasharray:none;stroke-opacity:1"
       id="rect8380"
       width="336.21689"
       height="326.21689"
       x="-20.608448"
       y="305.39127"
       inkscape:label="cut3" /></g></svg>
