<?xml version="1.0" encoding="UTF-8" standalone="no"?>
<!-- Created with Inkscape (http://www.inkscape.org/) -->

<svg
   width="395mm"
   height="330mm"
   viewBox="0 0 395 330"
   version="1.1"
   id="svg5"
   xml:space="preserve"
   inkscape:version="1.2.1 (9c6d41e, 2022-07-14)"
   sodipodi:docname="QuizCube Board v1_cutter_6_V3.svg"
   inkscape:export-filename="QuizCube Board v1_cutter.png"
   inkscape:export-xdpi="96"
   inkscape:export-ydpi="96"
   xmlns:inkscape="http://www.inkscape.org/namespaces/inkscape"
   xmlns:sodipodi="http://sodipodi.sourceforge.net/DTD/sodipodi-0.dtd"
   xmlns="http://www.w3.org/2000/svg"
   xmlns:svg="http://www.w3.org/2000/svg"><sodipodi:namedview
     id="namedview7"
     pagecolor="#505050"
     bordercolor="#eeeeee"
     borderopacity="1"
     inkscape:showpageshadow="0"
     inkscape:pageopacity="0"
     inkscape:pagecheckerboard="0"
     inkscape:deskcolor="#505050"
     inkscape:document-units="mm"
     showgrid="false"
     inkscape:zoom="0.4883788"
     inkscape:cx="915.27315"
     inkscape:cy="646.01494"
     inkscape:window-width="1800"
     inkscape:window-height="1097"
     inkscape:window-x="0"
     inkscape:window-y="44"
     inkscape:window-maximized="1"
     inkscape:current-layer="layer1" /><defs
     id="defs2" /><g
     inkscape:label="Layer 1"
     inkscape:groupmode="layer"
     id="layer1"
     transform="translate(-315.00021,-630.99969)"><path
       id="rect111"
       style="color:#000000;fill:none;fill-opacity:1;stroke-linecap:round;stroke-linejoin:round;-inkscape-stroke:none;stroke:#666666;stroke-opacity:1"
       inkscape:label="grid"
       d="m 405.00011,631.42557 v 14.45132 c -4.21903,1.52317 -7.60031,4.90448 -9.12347,9.12347 h -80.45039 v 1.57872 c 9.98363,-6.7e-4 19.96694,0.003 29.95011,0.009 16.14634,-0.0117 32.29444,0.0238 48.43994,-0.0176 1.18791,0.0261 2.73387,0.27062 3.47885,-0.91002 1.20794,-3.25667 3.62573,-6.04816 6.71639,-7.64656 1.02207,-0.43547 2.42151,-0.83319 2.57659,-2.13631 v -14.45183 z m 8.42223,0 c 0.002,4.09703 -0.002,8.19426 0.002,12.29124 0.006,1.217 -0.3024,2.80437 0.91415,3.57653 3.20381,1.19398 5.96998,3.54741 7.57215,6.57789 0.50253,1.01434 0.79817,2.46655 2.11408,2.70216 17.11515,0.035 34.23538,0.005 51.35242,0.015 16.14634,-0.0117 32.29393,0.0233 48.43942,-0.0181 1.18791,0.0261 2.73388,0.27062 3.47886,-0.91002 1.20794,-3.25667 3.62625,-6.04816 6.7169,-7.64656 1.02208,-0.43547 2.42099,-0.83319 2.57607,-2.13631 -10e-4,-4.81724 -10e-4,-9.63454 -0.002,-14.45183 h -1.58646 v 14.45132 c -4.21891,1.52319 -7.5998,4.90456 -9.12296,9.12347 H 424.12349 c -1.52317,-4.21899 -4.90445,-7.6003 -9.12347,-9.12347 v -14.45132 z m 129.98999,0 v 11.75122 c 0.12355,1.33801 -0.41798,2.99727 0.75758,4.00906 0.79269,0.38614 1.74011,0.75071 2.42776,1.18132 2.27752,1.32403 4.15538,3.29476 5.38107,5.62498 0.43927,1.02716 0.83325,2.43816 2.14457,2.59571 33.47418,0.004 66.95028,-0.007 100.42333,0.005 1.05044,0.0569 2.40114,-0.009 2.85563,-1.15342 1.16298,-3.12571 3.52733,-5.74694 6.45956,-7.31893 1.05288,-0.48926 2.54672,-0.84797 2.72593,-2.21795 v -14.47664 h -1.5875 v 14.47767 c -4.21379,1.52505 -7.60155,4.88165 -9.12347,9.09712 H 554.12331 c -1.52316,-4.21899 -4.90447,-7.6003 -9.12348,-9.12347 v -14.45132 z m 130.01429,0 c 0.003,4.20262 -0.007,8.40586 0.005,12.60802 -0.0937,1.17437 -0.18005,2.78718 1.10329,3.36568 3.07855,1.15263 5.70816,3.44631 7.27966,6.33554 1.71559,3.16252 2.09735,6.98559 0.92914,10.36215 -1.07796,3.28329 -3.511,6.15874 -6.60942,7.80056 -1.05221,0.48649 -2.54254,0.84207 -2.72231,2.20865 0.0101,33.26438 -0.0222,66.52902 0.0171,99.79339 -0.0467,1.19816 -0.24292,2.80456 1.01545,3.47679 1.7085,0.62093 3.32597,1.59258 4.68498,2.88458 2.44569,2.28613 4.09723,5.59538 4.26124,8.97775 0.37098,5.20012 -2.75033,10.34102 -7.34374,12.70723 -1.04081,0.44565 -2.46324,0.83663 -2.63498,2.16008 v 99.38876 c 0.0798,1.26589 -0.36185,2.88637 0.84388,3.76567 3.36223,1.27573 6.30592,3.76209 7.85016,7.04453 1.75387,3.55294 1.71101,8.01247 -0.0258,11.45615 -2.21786,4.64536 -7.2397,7.83517 -12.41475,7.64811 -4.81913,-0.0909 -9.37223,-3.05822 -11.58947,-7.30705 -0.49463,-1.03622 -0.8419,-2.52262 -2.19935,-2.68924 H 555.60125 c -1.07583,-0.11447 -2.4611,-0.0311 -2.98379,1.09347 -1.8275,5.07594 -6.9075,8.8536 -12.33827,8.8961 -5.03044,0.16712 -9.89561,-2.86946 -12.20287,-7.30033 -0.49463,-1.03622 -0.8419,-2.52262 -2.19935,-2.68924 -32.67753,0.0111 -65.35527,-0.0224 -98.03278,0.015 -1.32327,0.0892 -2.66307,-0.16228 -3.97133,0.0765 -1.00347,0.18781 -1.31786,1.21047 -1.66915,2.02261 -2.07061,4.4926 -6.70512,7.71509 -11.67681,7.87291 -5.11001,0.27813 -10.14737,-2.83274 -12.44678,-7.29207 -0.49978,-1.0354 -0.84115,-2.52711 -2.20297,-2.69492 h -80.4509 v 1.5875 h 80.45039 c 2.08949,5.78749 7.67534,9.9999 14.12317,9.9999 6.44782,0 12.03418,-4.21241 14.12368,-9.9999 h 101.75348 c 2.08952,5.78746 7.67538,9.9999 14.12317,9.9999 6.44784,0 12.03368,-4.21241 14.12317,-9.9999 h 101.75348 c 2.0895,5.78746 7.67536,9.9999 14.12317,9.9999 8.19539,0 15.00011,-6.80472 15.00011,-15.00011 0,-6.44522 -4.216,-12.01408 -9.9999,-14.1056 V 804.10599 c 5.7839,-2.09151 9.9999,-7.66037 9.9999,-14.1056 0,-6.44521 -4.216,-12.01408 -9.9999,-14.1056 V 674.10565 c 5.7839,-2.09137 9.9999,-7.65987 9.9999,-14.10508 0,-6.44523 -4.216,-12.01409 -9.9999,-14.1056 v -14.4694 z M 424.84954,663.389 c -0.79444,-0.0128 -1.7237,0.20483 -2.1425,0.94929 -1.21179,3.25872 -3.62875,6.05713 -6.72672,7.65225 -1.02155,0.43313 -2.41332,0.83288 -2.56832,2.13268 0.008,33.19759 -0.0162,66.3964 0.0119,99.59341 0.006,1.21701 -0.3024,2.80437 0.91415,3.57652 3.25045,1.20791 6.03891,3.61601 7.64036,6.69934 0.43927,1.02716 0.83326,2.43815 2.14457,2.5957 33.19759,-0.008 66.3964,0.0162 99.59341,-0.0119 1.217,-0.006 2.80462,0.30299 3.57652,-0.91416 1.20599,-3.24333 3.60754,-6.02538 6.6797,-7.63054 1.03358,-0.44346 2.44957,-0.83769 2.61534,-2.15439 -0.008,-33.19758 0.0162,-66.39639 -0.0119,-99.5934 -0.006,-1.217 0.30299,-2.80463 -0.91416,-3.57653 -3.2007,-1.19317 -5.96132,-3.54495 -7.56801,-6.56859 -0.50239,-1.04594 -0.841,-2.55234 -2.21692,-2.72645 H 462.224 c -12.45802,-0.0154 -24.91666,0.0312 -37.37447,-0.0232 z m 130.00034,0 c -0.76604,-0.0107 -1.64625,0.18402 -2.0929,0.86558 -1.23863,3.27916 -3.64018,6.12904 -6.77633,7.73596 -1.02155,0.43313 -2.41331,0.83288 -2.56832,2.13268 v 99.05339 c 0.12355,1.33801 -0.41798,2.99726 0.75758,4.00906 0.79269,0.38614 1.74011,0.75123 2.42776,1.18184 2.23411,1.30281 4.09466,3.22149 5.31234,5.50405 0.50253,1.01434 0.79818,2.46604 2.11408,2.70165 17.11516,0.035 34.23537,0.005 51.35242,0.015 16.14633,-0.0117 32.29444,0.0238 48.43994,-0.0176 1.18791,0.0261 2.73336,0.27062 3.47834,-0.91002 1.18654,-3.19974 3.55286,-5.94734 6.57634,-7.54114 1.01396,-0.50976 2.46484,-0.80227 2.70164,-2.11822 0.035,-17.13209 0.005,-34.26908 0.015,-51.40306 -0.0117,-16.14633 0.0238,-32.29392 -0.0176,-48.43942 0.0264,-1.18816 0.27018,-2.73142 -0.90795,-3.47886 -3.24309,-1.20343 -6.03742,-3.59681 -7.63675,-6.67401 -0.44484,-1.02809 -0.83748,-2.43065 -2.1487,-2.59364 H 592.2238 c -12.45802,-0.0154 -24.91613,0.0312 -37.37394,-0.0232 z m -239.42363,0.0129 v 1.59835 h 80.45039 c 1.52316,4.21902 4.90444,7.6003 9.12347,9.12347 V 775.8772 c -4.21895,1.52316 -7.60029,4.90405 -9.12347,9.12296 h -80.45039 v 1.58543 c 26.09688,0.002 52.19416,0.0128 78.29031,-0.009 1.217,-0.006 2.80463,0.30299 3.57653,-0.91416 1.20357,-3.24504 3.60867,-6.02452 6.67969,-7.63054 1.03358,-0.44346 2.44958,-0.83769 2.61535,-2.15439 v -99.05338 c -0.12389,-1.33796 0.41807,-2.99756 -0.7581,-4.00906 -0.7927,-0.38614 -1.74011,-0.75123 -2.42776,-1.18184 -2.22546,-1.2986 -4.08216,-3.20796 -5.2989,-5.48029 -0.51585,-1.01682 -0.79974,-2.48782 -2.12752,-2.72541 -21.24835,-0.035 -42.50194,-0.005 -63.75218,-0.015 -5.59916,-0.007 -11.19827,-0.0137 -16.79742,-0.0103 z m 108.69724,1.59835 h 101.75348 c 1.52316,4.21894 4.90405,7.60028 9.12296,9.12347 V 775.8772 c -4.21883,1.52318 -7.59978,4.90413 -9.12296,9.12296 H 424.12349 c -1.52319,-4.21891 -4.90453,-7.5998 -9.12347,-9.12296 V 674.12374 c 4.21902,-1.52317 7.6003,-4.90445 9.12347,-9.12347 z m 129.99982,0 h 101.75348 c 1.52192,4.2155 4.90968,7.57206 9.12347,9.09712 v 101.80567 c -4.21374,1.5251 -7.60153,4.88172 -9.12347,9.09712 H 554.12331 c -1.52319,-4.21891 -4.90455,-7.5998 -9.12348,-9.12296 V 674.12374 c 4.21901,-1.52317 7.60032,-4.90445 9.12348,-9.12347 z M 424.84954,793.38881 c -0.74659,-0.0109 -1.58001,0.17284 -2.05258,0.80099 -0.36515,0.79481 -0.74343,1.72492 -1.16427,2.40812 -1.29873,2.22552 -3.20691,4.0833 -5.48029,5.2989 -1.01806,0.517 -2.4871,0.7987 -2.72541,2.12752 -0.035,17.11516 -0.005,34.23538 -0.015,51.35242 0.0117,16.14634 -0.0233,32.29444 0.0181,48.43994 -0.0264,1.1879 -0.27054,2.73311 0.9095,3.47834 3.20508,1.19042 5.96538,3.54998 7.5706,6.57634 0.50253,1.01433 0.79817,2.46604 2.11408,2.70165 17.11515,0.035 34.23538,0.005 51.35242,0.015 16.14634,-0.0117 32.29393,0.0238 48.43942,-0.0176 1.18791,0.0261 2.73388,0.27062 3.47886,-0.91002 1.20794,-3.25667 3.62625,-6.04816 6.7169,-7.64656 1.02208,-0.43547 2.42099,-0.8337 2.57607,-2.13682 -0.008,-33.19759 0.0162,-66.39587 -0.0119,-99.59289 -0.006,-1.21699 0.30299,-2.80514 -0.91416,-3.57704 -3.2007,-1.19318 -5.96132,-3.54445 -7.56801,-6.56808 -0.50239,-1.04594 -0.841,-2.55234 -2.21692,-2.72645 h -63.65296 c -12.45802,-0.0154 -24.91666,0.0308 -37.37447,-0.0238 z m 130.00034,0 c -0.7466,-0.0109 -1.58054,0.17284 -2.05311,0.80099 -0.36515,0.79481 -0.74291,1.72492 -1.16375,2.40812 -1.32973,2.28457 -3.30963,4.17005 -5.65237,5.39244 -1.02155,0.43313 -2.41331,0.83339 -2.56832,2.1332 v 99.05338 c 0.12355,1.33801 -0.41798,2.99726 0.75758,4.00906 0.79269,0.38613 1.74011,0.75072 2.42776,1.18132 2.23389,1.30277 4.0932,3.2229 5.31234,5.50406 0.50253,1.01433 0.79818,2.46604 2.11408,2.70165 17.11516,0.035 34.23537,0.005 51.35242,0.015 16.14633,-0.0117 32.29444,0.0238 48.43994,-0.0176 1.18791,0.0261 2.73336,0.27062 3.47834,-0.91002 1.18572,-3.20036 3.55244,-5.9479 6.57634,-7.54114 1.01396,-0.50977 2.46484,-0.80175 2.70164,-2.1177 0.035,-17.13209 0.005,-34.26909 0.015,-51.40307 -0.0117,-16.14634 0.0238,-32.29444 -0.0176,-48.43993 0.0268,-1.18722 0.26882,-2.73015 -0.90795,-3.47679 -3.2405,-1.21007 -6.03765,-3.59689 -7.63675,-6.67557 -0.44564,-1.02729 -0.83803,-2.43064 -2.1487,-2.59364 H 592.2238 c -12.45802,-0.0154 -24.91613,0.0308 -37.37394,-0.0238 z m -239.42363,0.0129 v 1.59835 h 80.45039 c 1.52315,4.21899 4.90446,7.6003 9.12347,9.12348 v 101.75348 c -4.21903,1.52317 -7.60031,4.90445 -9.12347,9.12347 h -80.45039 v 1.5875 h 77.75029 c 1.33796,-0.12389 2.99756,0.41859 4.00906,-0.75757 0.38613,-0.7927 0.75123,-1.74011 1.18184,-2.42776 1.32824,-2.28235 3.30456,-4.16622 5.6441,-5.38882 1.02207,-0.43547 2.42151,-0.8337 2.57659,-2.13682 v -99.05339 c -0.12389,-1.33796 0.41807,-2.99756 -0.7581,-4.00906 -0.7927,-0.38614 -1.74011,-0.75071 -2.42776,-1.18132 -2.22633,-1.29744 -4.08108,-3.20926 -5.2989,-5.4808 -0.51585,-1.01682 -0.79974,-2.48731 -2.12752,-2.7249 -21.24835,-0.035 -42.50194,-0.005 -63.75218,-0.015 -5.59916,-0.007 -11.19827,-0.0141 -16.79742,-0.0109 z m 108.69724,1.59835 h 101.75348 c 1.52316,4.21891 4.90408,7.60028 9.12296,9.12348 v 101.75348 c -4.21891,1.52319 -7.5998,4.90453 -9.12296,9.12347 H 424.12349 c -1.52317,-4.21902 -4.90445,-7.6003 -9.12347,-9.12347 V 804.12356 c 4.21899,-1.52318 7.60031,-4.90449 9.12347,-9.12348 z m 129.99982,0 h 101.75348 c 1.52192,4.21549 4.90968,7.57244 9.12347,9.09764 v 101.80516 c -4.21379,1.5252 -7.60155,4.88213 -9.12347,9.09763 H 554.12331 c -1.52316,-4.21902 -4.90447,-7.6003 -9.12348,-9.12347 V 804.12356 c 4.21898,-1.52318 7.60032,-4.90449 9.12348,-9.12348 z" /><path
       id="path6267"
       style="font-size:50.8px;-inkscape-font-specification:'josefin sans';fill:#333333;stroke-width:0.264583"
       inkscape:label="header"
       d="m 347.44497,812.98555 c -0.10349,-0.004 -0.9123,0.7385 -1.79731,1.64951 -0.88501,0.911 -4.10506,4.10474 -7.15615,7.09724 -12.8587,12.61183 -19.34587,18.84113 -20.11712,19.31717 -0.45164,0.27877 -0.82489,0.60627 -0.82889,0.72812 -0.004,0.12184 0.56005,0.98682 1.25315,1.92185 1.44192,1.94522 1.83613,2.08924 3.00912,1.09916 0.41474,-0.35007 0.84771,-0.63342 0.96273,-0.62942 0.12732,0.005 0.18378,2.2325 0.14418,5.69939 -0.0358,3.13057 0.0326,7.08884 0.15193,8.79585 0.4461,6.38307 0.67386,24.13683 0.3576,27.87581 -0.82036,9.69865 -0.99892,12.90808 -0.73846,13.25553 0.17754,0.23671 0.4645,0.32776 0.82476,0.26096 0.30393,-0.0564 2.82608,-0.27615 5.60483,-0.48834 2.77873,-0.21217 6.36005,-0.52965 7.95817,-0.70538 4.29788,-0.47263 9.10303,-0.96632 11.29698,-1.16066 1.17183,-0.10386 5.21904,-0.0318 10.25571,0.18242 l 8.3199,0.35398 0.41961,-0.52451 c 0.58608,-0.7323 0.75897,-1.70555 0.54984,-3.0949 -0.0985,-0.65448 -0.21553,-1.83818 -0.25993,-2.63033 -0.0444,-0.79215 -0.25396,-3.28727 -0.4656,-5.54488 -0.74451,-7.9406 -0.83242,-16.40481 -0.32867,-31.60479 l 0.33228,-10.02058 0.47646,0.17673 c 1.36907,0.50683 1.7353,0.45638 2.60863,-0.35967 1.33859,-1.25079 2.14994,-2.44588 2.17454,-3.20393 0.0284,-0.87748 -0.40032,-1.63085 -2.14974,-3.77962 -0.77953,-0.95747 -2.8629,-3.51964 -4.63021,-5.69371 -5.83435,-7.17715 -17.12976,-18.9337 -18.22834,-18.973 z m 0.0356,2.16266 0.72864,0.4377 c 1.27374,0.76541 12.42547,12.75877 15.92203,17.1235 1.20361,1.50246 3.0392,3.75718 4.07933,5.01055 1.04016,1.25339 2.12595,2.59385 2.41278,2.97863 l 0.52141,0.6997 -1.00717,1.10742 c -0.55389,0.60908 -1.15785,1.10203 -1.34255,1.09503 -0.18473,-0.007 -0.81138,-0.52964 -1.39217,-1.16221 -0.58077,-0.63256 -1.3846,-1.38555 -1.78645,-1.6738 -0.93987,-0.67418 -3.85137,-4.4753 -7.1975,-9.39632 -3.62912,-5.33723 -4.4963,-6.41481 -7.38559,-9.1798 -2.89816,-2.77351 -3.28595,-3.05133 -3.85661,-2.76211 -0.90303,0.45766 -8.98229,7.58293 -12.4902,11.01535 -1.1393,1.11477 -3.43298,3.52065 -5.09684,5.34644 -3.77307,4.1402 -6.06344,6.41766 -6.44095,6.40426 -0.15983,-0.006 -0.71402,0.32297 -1.23145,0.73019 -0.51743,0.40721 -0.98405,0.73891 -1.03715,0.73691 -0.0531,-0.002 -0.38862,-0.33717 -0.74517,-0.74518 l -0.64803,-0.74207 13.99657,-13.51235 z m 0.0367,6.24303 c 0.40331,0.0144 2.76583,2.3031 4.7656,4.61625 0.91082,1.05355 2.89258,3.75076 4.40387,5.99395 3.92285,5.82268 5.7083,8.23581 7.24865,9.79579 l 1.35031,1.36736 -0.21549,10.26449 c -0.23226,11.06103 -0.25698,20.35738 -0.0667,25.30801 0.0978,2.54341 1.06132,13.77484 1.46089,17.03152 l 0.10283,0.83974 -2.53472,-0.15296 -2.53422,-0.15296 -0.0584,-2.2133 c -0.0321,-1.2174 -0.14189,-2.86346 -0.24391,-3.65766 -0.37717,-2.9362 -0.53034,-5.53867 -0.55914,-9.51157 l -0.0295,-4.0752 -0.59686,-0.56741 c -0.59347,-0.56443 -0.61378,-0.56712 -3.81992,-0.54622 -3.92248,0.0256 -5.82964,0.33721 -6.43269,1.05059 -0.4033,0.47709 -0.434,0.79119 -0.4625,4.71134 -0.0224,3.07596 0.10594,5.44086 0.47956,8.83357 0.28061,2.54813 0.50302,4.84885 0.49402,5.11286 -0.0156,0.4646 -0.26663,0.50525 -7.81554,1.25522 -4.2897,0.42618 -9.92792,0.94112 -12.52947,1.14464 -2.60153,0.20352 -4.89894,0.36563 -5.10511,0.35863 -0.45956,-0.0142 -0.46644,0.38385 0.14418,-8.17521 0.41414,-5.80506 0.4667,-7.83449 0.3824,-14.8022 -0.0537,-4.44122 -0.18643,-9.47152 -0.29455,-11.17813 -0.41443,-6.54041 -0.57821,-12.56435 -0.45269,-16.64136 l 0.13022,-4.23695 1.31207,-1.24023 c 0.72156,-0.68194 2.52914,-2.63916 4.01681,-4.34961 1.48766,-1.71047 4.38373,-4.69734 6.43526,-6.63784 4.53291,-4.28753 10.62196,-9.55955 11.02465,-9.54515 z m 3.49953,10.7518 c -0.64493,-0.003 -1.2955,0.0913 -1.69912,0.28318 -0.38357,0.18238 -1.1436,0.68437 -1.68878,1.11518 -1.43372,1.13293 -1.47691,1.1454 -2.15078,0.6134 -1.12674,-0.8895 -2.40699,-1.41336 -3.56774,-1.45986 -1.21444,-0.0485 -2.27758,0.33665 -2.51354,0.91054 -0.21867,0.53284 -0.22039,1.87184 -0.003,2.80241 0.31027,1.32881 1.10622,2.14723 4.55114,4.68085 l -5.1e-4,5.2e-4 c 1.78404,1.31211 3.40252,2.39519 3.59668,2.40709 0.38138,0.0235 2.02012,-1.61374 3.64422,-3.64112 2.42895,-3.03209 3.14247,-6.56959 1.49551,-7.41557 -0.37968,-0.19504 -1.01904,-0.29405 -1.66398,-0.29662 z m 0.0661,1.0976 c 0.99644,0.0316 1.33462,0.51023 1.13481,1.60559 -0.24814,1.36023 -1.14984,2.90984 -3.07578,5.28495 -0.9122,1.12493 -1.66638,2.03885 -1.67638,2.02985 -0.88985,-0.78548 -2.00523,-1.59824 -3.22875,-2.35283 -1.67521,-1.03316 -2.8409,-2.05613 -3.19877,-2.80706 -0.64428,-1.35185 -0.44748,-3.09879 0.37569,-3.33623 1.04147,-0.30039 3.80387,1.14959 4.31705,2.26601 0.35588,0.77425 0.84109,0.88206 1.06402,0.23616 0.4414,-1.27895 2.91909,-2.97034 4.28811,-2.92644 z m 4.04109,19.25258 c -0.38564,0.007 -0.79959,0.0223 -1.24488,0.0439 -1.72705,0.0838 -3.69846,0.13165 -4.38113,0.10645 -1.04903,-0.0388 -1.3298,0.039 -1.81177,0.50282 -0.47864,0.46053 -0.55326,0.68025 -0.46406,1.3658 0.0584,0.44923 0.2112,3.35769 0.33952,6.46369 0.12832,3.10602 0.27162,6.12416 0.31832,6.70657 0.0803,1.00185 0.0492,1.07789 -0.57722,1.41645 -0.36415,0.19682 -0.66205,0.40791 -0.66405,0.46871 -0.007,0.425 0.50303,0.74872 1.48984,0.94619 1.85331,0.37088 5.83647,0.25904 8.77517,-0.24598 1.48283,-0.25483 2.91634,-0.55166 3.18534,-0.65991 0.59977,-0.24132 0.62663,-0.65403 0.32866,-5.00951 -0.1249,-1.82739 -0.14128,-4.68566 -0.0388,-6.81767 l 0.17673,-3.6711 -0.56379,-0.53898 c -0.86181,-0.82389 -2.16833,-1.12967 -4.86792,-1.07745 z m -15.5484,1.39939 c -0.24572,-3.4e-4 -0.50517,0.006 -0.77876,0.0202 -1.0042,0.0504 -2.7939,0.12735 -3.97702,0.17105 -1.18313,0.0437 -2.26825,0.14834 -2.41122,0.23254 -0.14297,0.0842 -0.26644,0.42324 -0.27544,0.75344 -0.009,0.3302 -0.0801,2.09501 -0.15916,3.92173 -0.18876,4.35763 0.0702,8.81368 0.6227,10.70632 0.0718,0.24583 0.86638,0.31147 4.21318,0.34727 4.78417,0.0513 6.5447,-0.18732 6.74791,-0.91468 0.074,-0.26461 0.063,-1.47032 -0.0243,-2.6789 -0.0873,-1.20857 -0.22461,-4.16507 -0.30541,-6.57014 -0.10914,-3.25057 -0.23081,-4.51535 -0.47387,-4.92839 -0.4173,-0.70912 -1.45857,-1.05798 -3.17862,-1.0604 z m 16.27032,0.15555 c 0.74871,0.008 1.33514,0.0382 1.57769,0.0894 1.47873,0.31225 1.51739,0.43547 1.24591,3.92483 -0.15442,1.98521 -0.17329,4.26833 -0.0537,6.4549 0.10172,1.86083 0.18235,3.47908 0.18035,3.59564 -0.007,0.32559 -2.19428,0.85469 -4.33307,1.048 -2.61848,0.23668 -4.59183,0.15245 -4.70048,-0.2005 -0.0473,-0.15372 -0.23027,-3.3199 -0.40618,-7.03575 -0.17591,-3.71582 -0.33465,-6.95564 -0.35295,-7.19956 -0.0247,-0.32973 0.10418,-0.44899 0.50333,-0.46509 0.29525,-0.0119 1.99899,-0.0864 3.78581,-0.16536 0.89342,-0.0395 1.80464,-0.0542 2.55333,-0.0465 z m -16.1649,1.38183 c 0.9335,-0.008 1.15664,0.0736 1.33739,0.27337 0.25313,0.27975 0.36951,1.66428 0.54415,6.48642 0.1221,3.37185 0.15918,6.19114 0.0827,6.26474 -0.0765,0.0736 -1.86727,0.11391 -3.9796,0.0899 l -3.84059,-0.0434 -0.0842,-0.52761 c -0.20491,-1.27965 -0.42144,-7.39861 -0.34364,-9.71414 l 0.0853,-2.54041 3.60702,-0.18552 c 1.21561,-0.0625 2.03147,-0.0988 2.59157,-0.10335 z m 11.8923,1.156 c -0.57209,-0.0204 -1.00113,0.52267 -0.82631,1.04593 0.15614,0.46733 1.06439,0.50735 1.44746,0.0636 0.39134,-0.45339 0.0372,-1.08599 -0.62115,-1.10949 z m 4.90409,0.53072 c -0.1701,-0.0132 -0.35885,0.04 -0.5426,0.18655 -0.39228,0.31278 -0.441,1.0042 -0.0827,1.16892 h 5.1e-4 c 0.47077,0.2156 0.74047,0.17887 1.01441,-0.13849 0.46328,-0.53673 0.12067,-1.17737 -0.38964,-1.21698 z m -17.30489,1.56993 c -0.61445,-0.0219 -1.23769,0.96104 -0.86816,1.36942 0.30148,0.33321 1.3424,0.18549 1.57251,-0.22324 0.25796,-0.45821 -0.15281,-1.12648 -0.70435,-1.14618 z m -3.28972,0.11989 c -0.22732,-0.005 -0.47484,0.10216 -0.72915,0.32349 -0.49173,0.4279 -0.50715,0.59199 -0.0992,1.04283 0.6205,0.68577 1.98744,-0.27602 1.4366,-1.01079 -0.1736,-0.23157 -0.38091,-0.35009 -0.60823,-0.35553 z m 20.71502,2.1456 c -0.14514,-0.003 -0.30047,0.0298 -0.45682,0.10904 -0.42412,0.21495 -0.60413,0.86002 -0.32556,1.16789 0.22466,0.2483 1.03109,0.205 1.31774,-0.0708 0.52829,-0.50834 0.0936,-1.19366 -0.53536,-1.20613 z m -4.34186,0.85473 c -0.48592,-0.0174 -0.7733,0.45066 -0.59841,0.9741 0.14356,0.42935 0.63635,0.44871 0.99064,0.0382 0.37073,-0.42949 0.15271,-0.99284 -0.39223,-1.01234 z m -13.00747,0.73277 c -0.0632,0.002 -0.1247,0.0134 -0.18294,0.0341 -0.46174,0.16404 -0.67809,0.90559 -0.38033,1.30276 0.48413,0.6458 1.48311,0.28461 1.51101,-0.54622 0.0137,-0.40857 -0.50565,-0.80803 -0.94774,-0.79065 z m -2.99517,0.2682 c -0.0405,-7.1e-4 -0.0817,10e-4 -0.12402,0.006 -0.53095,0.0584 -0.79079,0.57506 -0.59066,1.17408 0.15557,0.46558 1.13517,0.43563 1.40456,-0.0429 0.30055,-0.53384 -0.0832,-1.12623 -0.68988,-1.13688 z m 19.8975,2.50166 c -0.10273,-0.007 -0.22052,0.008 -0.35089,0.046 -0.52771,0.15222 -0.76233,0.7223 -0.46198,1.12293 0.43769,0.58387 1.25662,0.22232 1.28312,-0.56637 0.0124,-0.36956 -0.16209,-0.58258 -0.47025,-0.60255 z m -20.21169,0.8847 c -0.4988,0.0211 -0.86764,0.49854 -0.67076,1.08779 0.1504,0.45029 1.26503,0.47605 1.44694,0.0336 0.22531,-0.548 0.18182,-0.71912 -0.25011,-0.97772 -0.1789,-0.1071 -0.3598,-0.15068 -0.52607,-0.14366 z m 16.96796,0.16278 c -0.1268,0.008 -0.26114,0.0441 -0.3943,0.11162 -0.44822,0.22717 -0.50323,0.39429 -0.31522,0.95705 0.23706,0.70951 1.36041,0.30035 1.38751,-0.5054 0.0123,-0.36541 -0.29759,-0.58846 -0.67799,-0.56327 z m -13.46947,0.41031 c -0.60275,-0.0215 -0.85083,0.57531 -0.45733,1.10019 0.13603,0.18145 0.31986,0.33238 0.40876,0.33538 0.30502,0.0109 0.69952,-0.61722 0.63872,-1.01699 -0.039,-0.25626 -0.25068,-0.40648 -0.59015,-0.41858 z m -2.26136,8.97775 c -2.07154,0.0152 -4.56183,0.18796 -4.80849,0.42529 -0.18523,0.17823 -0.0187,10.55841 0.20361,12.68398 0.19105,1.82696 0.3169,2.29332 0.71416,2.65049 0.4325,0.3888 0.75755,0.43123 3.16312,0.41393 2.77519,-0.02 4.67228,-0.38185 5.19865,-0.99167 0.24666,-0.28574 0.24972,-0.86298 0.0202,-3.46801 -0.15147,-1.71897 -0.32404,-4.67554 -0.38344,-6.57014 -0.11996,-3.82518 -0.34423,-4.61943 -1.40663,-4.98058 -0.36608,-0.12444 -1.45819,-0.1724 -2.70113,-0.16329 z m 19.20245,1.49293 c 1.28783,-6.1e-4 2.21953,0.0989 2.3213,0.28267 0.07,0.12632 0.15492,1.99541 0.18862,4.15323 0.0337,2.15785 0.2787,6.15037 0.54467,8.87233 0.26596,2.72195 0.47884,5.09299 0.47284,5.26893 -0.009,0.26741 -0.6439,0.29715 -3.87263,0.1819 -2.89861,-0.10348 -3.88201,-0.20739 -3.94291,-0.41703 -0.40334,-1.38809 -1.36959,-13.60691 -1.28209,-16.214 0.0638,-1.90031 -0.14311,-1.75978 2.96984,-2.01538 0.92688,-0.0762 1.82766,-0.11228 2.60036,-0.11265 z m -18.83709,0.017 c 1.22503,0.0211 1.74592,0.24939 1.82934,0.74208 0.0457,0.26996 0.13526,1.98552 0.19896,3.81217 0.0637,1.82663 0.19368,4.39373 0.28938,5.70456 0.13409,1.83638 0.11389,2.44036 -0.0884,2.6355 -0.15886,0.15286 -1.23033,0.25599 -2.70992,0.26199 -2.24961,0.009 -2.45548,-0.0241 -2.55488,-0.40824 -0.17089,-0.66044 -0.4047,-3.96139 -0.4718,-6.65851 l -0.0615,-2.47065 0.7245,0.0615 c 0.63918,0.0545 0.7262,-0.003 0.7426,-0.49041 0.0163,-0.48418 -0.0687,-0.55164 -0.68885,-0.54364 l -0.70745,0.009 0.10593,-1.24643 0.10542,-1.24644 1.81695,-0.11679 c 0.57478,-0.037 1.06133,-0.053 1.46968,-0.046 z m -0.14987,1.74822 c -0.40842,0.0323 -0.62813,0.45047 -0.45837,0.95859 0.0704,0.21084 0.3115,0.32976 0.60255,0.29766 0.35573,-0.0392 0.49025,-0.20085 0.50385,-0.60565 0.0136,-0.4048 -0.10974,-0.57577 -0.46199,-0.64027 -0.0655,-0.012 -0.12769,-0.015 -0.18604,-0.0103 z m -1.85725,3.48299 c -0.32895,-0.002 -0.4928,0.23941 -0.50953,0.73639 -0.0159,0.47375 0.0671,0.54719 0.57309,0.50539 0.75084,-0.062 0.9868,-0.91523 0.32092,-1.15962 -0.14703,-0.054 -0.27483,-0.0816 -0.38448,-0.0822 z m 2.42466,0.26096 c -0.50905,-0.0182 -0.90193,0.48698 -0.68419,0.88005 0.0625,0.11289 0.34909,0.21346 0.63665,0.22376 0.41488,0.0148 0.52635,-0.0956 0.54105,-0.53382 0.0146,-0.43517 -0.0896,-0.55549 -0.49351,-0.56999 z m 15.44557,2.32286 c -0.11915,-0.004 -0.23973,0.0371 -0.37931,0.12196 -0.3044,0.18511 -0.39311,0.54528 -0.43201,1.75286 -0.027,0.83576 0.0134,1.69594 0.0899,1.91151 0.16708,0.47106 0.85558,0.53867 1.21749,0.11937 0.16106,-0.18662 0.25663,-0.91382 0.25063,-1.90324 -0.007,-1.23656 -0.093,-1.65878 -0.3762,-1.85673 -0.13358,-0.0934 -0.25137,-0.14201 -0.37052,-0.14573 z m -17.95601,0.71882 c -0.40843,0.0323 -0.62865,0.45048 -0.45889,0.9586 0.0704,0.21083 0.31202,0.33027 0.60307,0.29817 0.35573,-0.0392 0.49024,-0.20085 0.50384,-0.60565 0.0136,-0.40479 -0.10975,-0.57577 -0.46198,-0.64027 -0.0655,-0.012 -0.12769,-0.0155 -0.18604,-0.0109 z m 2.51613,0.74 c -0.0912,0.004 -0.18096,0.0289 -0.26355,0.0775 -0.25357,0.14935 -0.31798,0.83585 -0.10077,1.0759 0.29823,0.3296 1.02622,0.0593 1.10742,-0.41134 0.0692,-0.40127 -0.34796,-0.76072 -0.7431,-0.74208 z" /><path
       id="circle6017"
       style="fill:none;fill-opacity:1;stroke:#000000;stroke-width:1;stroke-linecap:round;stroke-linejoin:round;stroke-dasharray:none;stroke-opacity:1"
       inkscape:label="led"
       d="m 344.99757,642.00012 c -0.9881,5.1e-4 -1.95396,0.29379 -2.77554,0.84284 -1.3883,0.92767 -2.22189,2.48713 -2.22209,4.15686 v 5.1e-4 c 0,0.32741 0.0321,0.65402 0.0961,0.97514 v 5.1e-4 c 0.064,0.32104 0.15934,0.63501 0.28474,0.93741 v 5.2e-4 c 0.3783,0.91354 1.01913,1.69437 1.84123,2.24379 h 5.2e-4 c 0.2722,0.18191 0.56153,0.33665 0.86403,0.46199 h 5.1e-4 c 0.3024,0.12519 0.61641,0.22039 0.93741,0.28422 h 5.2e-4 c 0.3211,0.0639 0.64774,0.0961 0.97514,0.0961 0.31818,-9.5e-4 0.63554,-0.0323 0.94774,-0.0935 0.015,-0.003 0.031,-0.005 0.046,-0.008 0.3044,-0.0623 0.60227,-0.15272 0.88987,-0.27026 0.019,-0.008 0.0378,-0.0154 0.0558,-0.0233 0.2866,-0.12042 0.56132,-0.2673 0.82062,-0.43873 0.012,-0.009 0.0252,-0.0172 0.0372,-0.0258 0.5285,-0.35736 0.9836,-0.81254 1.341,-1.341 0.01,-0.0129 0.0179,-0.0258 0.0269,-0.0388 0.1707,-0.25821 0.31708,-0.53172 0.43718,-0.817 0.01,-0.021 0.0173,-0.042 0.0263,-0.063 0.1168,-0.28597 0.20662,-0.58213 0.26872,-0.8847 0,-0.0162 0.01,-0.0324 0.01,-0.0486 0.061,-0.31188 0.092,-0.6289 0.093,-0.94671 v -5.1e-4 -5.2e-4 c 0,-0.31783 -0.032,-0.63483 -0.094,-0.94671 0,-0.0155 -0.01,-0.031 -0.01,-0.0465 -0.062,-0.3029 -0.1516,-0.59942 -0.2682,-0.88574 -0.01,-0.0216 -0.0179,-0.0431 -0.0269,-0.0646 -0.1199,-0.28471 -0.26584,-0.5577 -0.43614,-0.81546 -0.01,-0.0135 -0.0194,-0.0269 -0.0284,-0.0403 -0.3573,-0.52804 -0.81228,-0.98286 -1.34048,-1.33997 -0.012,-0.009 -0.0247,-0.0173 -0.0367,-0.0258 -0.2585,-0.17094 -0.53244,-0.31747 -0.81804,-0.4377 -0.02,-0.008 -0.04,-0.0167 -0.061,-0.0248 -0.2868,-0.11721 -0.58378,-0.20751 -0.88728,-0.26975 -0.017,-0.003 -0.0331,-0.006 -0.0501,-0.009 -0.31076,-0.0608 -0.62647,-0.092 -0.94309,-0.093 z m 129.99982,0 c -0.9881,5.1e-4 -1.95396,0.29379 -2.77554,0.84284 -1.3883,0.92767 -2.22189,2.48713 -2.22209,4.15686 v 5.1e-4 c 0,0.32741 0.0321,0.65402 0.0961,0.97514 v 5.1e-4 c 0.064,0.32104 0.15934,0.63501 0.28474,0.93741 v 5.2e-4 c 0.3783,0.91354 1.01913,1.69437 1.84123,2.24379 h 5.1e-4 c 0.2722,0.18191 0.56153,0.33665 0.86403,0.46199 h 5.2e-4 c 0.3024,0.12519 0.61641,0.22039 0.93741,0.28422 h 5.2e-4 c 0.3211,0.0639 0.64773,0.0961 0.97513,0.0961 0.3182,-9.5e-4 0.63555,-0.0323 0.94775,-0.0935 0.015,-0.003 0.031,-0.005 0.046,-0.008 0.3044,-0.0623 0.60227,-0.15272 0.88987,-0.27026 0.019,-0.008 0.0383,-0.0154 0.0563,-0.0233 0.28658,-0.12042 0.56132,-0.2673 0.82062,-0.43873 0.012,-0.009 0.0247,-0.0172 0.0367,-0.0258 0.5285,-0.35736 0.98412,-0.81254 1.34152,-1.341 0.01,-0.0129 0.0179,-0.0258 0.0269,-0.0388 0.1707,-0.25821 0.31708,-0.53172 0.43718,-0.817 0.01,-0.021 0.0168,-0.042 0.0258,-0.063 0.1168,-0.28597 0.20662,-0.58213 0.26872,-0.8847 0,-0.0162 0.0103,-0.0324 0.0103,-0.0486 0.061,-0.31188 0.092,-0.6289 0.093,-0.94671 v -5.1e-4 -5.2e-4 c 0,-0.31783 -0.032,-0.63483 -0.094,-0.94671 0,-0.0155 -0.0103,-0.031 -0.0103,-0.0465 -0.062,-0.3029 -0.1516,-0.59942 -0.2682,-0.88574 -0.01,-0.0216 -0.0179,-0.0431 -0.0269,-0.0646 -0.1199,-0.28471 -0.26585,-0.5577 -0.43615,-0.81546 -0.01,-0.0135 -0.0189,-0.0269 -0.0279,-0.0403 -0.3573,-0.52804 -0.81229,-0.98286 -1.34049,-1.33997 -0.012,-0.009 -0.0252,-0.0173 -0.0372,-0.0258 -0.2585,-0.17094 -0.53243,-0.31747 -0.81803,-0.4377 -0.02,-0.008 -0.04,-0.0167 -0.061,-0.0248 -0.2868,-0.11721 -0.58379,-0.20751 -0.88729,-0.26975 -0.017,-0.003 -0.0331,-0.006 -0.0501,-0.009 -0.31076,-0.0608 -0.62646,-0.092 -0.9431,-0.093 z m 130.00033,0 c -0.98809,5.1e-4 -1.95396,0.29379 -2.77554,0.84284 -1.3883,0.92767 -2.22189,2.48713 -2.22209,4.15686 v 5.1e-4 c 0,0.32741 0.0321,0.65402 0.0961,0.97514 v 5.1e-4 c 0.064,0.32104 0.15934,0.63501 0.28474,0.93741 v 5.2e-4 c 0.3783,0.91354 1.01913,1.69437 1.84123,2.24379 h 5.2e-4 c 0.2722,0.18191 0.56153,0.33665 0.86403,0.46199 h 5.1e-4 c 0.3024,0.12519 0.61641,0.22039 0.93741,0.28422 h 5.2e-4 c 0.3211,0.0639 0.64774,0.0961 0.97514,0.0961 0.3182,-9.5e-4 0.63554,-0.0323 0.94774,-0.0935 0.015,-0.003 0.031,-0.005 0.046,-0.008 0.3044,-0.0623 0.60227,-0.15272 0.88987,-0.27026 0.019,-0.008 0.0378,-0.0154 0.0558,-0.0233 0.2866,-0.12042 0.56132,-0.2673 0.82062,-0.43873 0.012,-0.009 0.0252,-0.0172 0.0372,-0.0258 0.5285,-0.35736 0.9836,-0.81254 1.341,-1.341 0.01,-0.0129 0.0179,-0.0258 0.0269,-0.0388 0.1707,-0.25821 0.31708,-0.53172 0.43718,-0.817 0.01,-0.021 0.0168,-0.042 0.0258,-0.063 0.1168,-0.28597 0.20713,-0.58213 0.26923,-0.8847 0,-0.0162 0.01,-0.0324 0.01,-0.0486 0.061,-0.31188 0.092,-0.6289 0.093,-0.94671 v -5.1e-4 -5.2e-4 c 0,-0.31783 -0.0321,-0.63483 -0.0941,-0.94671 0,-0.0155 -0.01,-0.031 -0.01,-0.0465 -0.062,-0.3029 -0.1516,-0.59942 -0.2682,-0.88574 -0.01,-0.0216 -0.0184,-0.0431 -0.0274,-0.0646 -0.1199,-0.28471 -0.26585,-0.5577 -0.43615,-0.81546 -0.01,-0.0135 -0.0189,-0.0269 -0.0279,-0.0403 -0.3573,-0.52804 -0.81228,-0.98286 -1.34048,-1.33997 -0.012,-0.009 -0.0247,-0.0173 -0.0367,-0.0258 -0.2585,-0.17094 -0.53244,-0.31747 -0.81804,-0.4377 -0.02,-0.008 -0.04,-0.0167 -0.061,-0.0248 -0.2868,-0.11721 -0.58378,-0.20751 -0.88728,-0.26975 -0.017,-0.003 -0.0331,-0.006 -0.0501,-0.009 -0.31076,-0.0608 -0.62646,-0.092 -0.94309,-0.093 z m -259.9976,33.33337 c -2.7616,-1.2e-4 -5.00032,2.23862 -5.00022,5.00021 2e-4,2.76139 2.23882,4.99981 5.00022,4.99969 2.76118,-1.7e-4 4.99949,-2.23851 4.99969,-4.99969 10e-5,-2.76139 -2.23831,-5.00004 -4.99969,-5.00021 z m 129.99981,0 c -2.7616,-1.2e-4 -5.00031,2.23862 -5.00021,5.00021 2e-4,2.76139 2.23881,4.99981 5.00021,4.99969 2.7612,-1.7e-4 5.00001,-2.23851 5.00021,-4.99969 1e-4,-2.76139 -2.23881,-5.00004 -5.00021,-5.00021 z m 130.00034,0 c -2.7616,-1.2e-4 -5.00032,2.23862 -5.00022,5.00021 2e-4,2.76139 2.23882,4.99981 5.00022,4.99969 2.76118,-1.7e-4 4.99949,-2.23851 4.99969,-4.99969 10e-5,-2.76139 -2.23831,-5.00004 -4.99969,-5.00021 z m -260.00015,33.33336 c -2.7614,-1.2e-4 -5.00002,2.23831 -5.00022,4.9997 -1e-4,2.76157 2.23862,5.00033 5.00022,5.00021 2.76138,-1.7e-4 4.99979,-2.23884 4.99969,-5.00021 -2e-4,-2.76119 -2.23851,-4.99953 -4.99969,-4.9997 z m 129.99981,0 c -2.7614,-1.2e-4 -5.00001,2.23831 -5.00021,4.9997 -1e-4,2.76157 2.23861,5.00033 5.00021,5.00021 2.7614,-1.7e-4 5.00031,-2.23884 5.00021,-5.00021 -2e-4,-2.76119 -2.23901,-4.99953 -5.00021,-4.9997 z m 130.00034,0 c -2.7614,-1.2e-4 -5.00002,2.23831 -5.00022,4.9997 -10e-5,2.76157 2.23862,5.00033 5.00022,5.00021 2.76138,-1.7e-4 4.99979,-2.23884 4.99969,-5.00021 -2e-4,-2.76119 -2.23851,-4.99953 -4.99969,-4.9997 z m -260.00015,33.33337 c -0.9889,-1.5e-4 -1.95573,0.29299 -2.77813,0.84232 -0.8221,0.54942 -1.46293,1.33026 -1.84123,2.2438 v 5.1e-4 c -0.1254,0.3024 -0.22074,0.61637 -0.28474,0.93741 v 5.2e-4 c -0.064,0.32111 -0.0961,0.64772 -0.0961,0.97513 v 5.2e-4 c 2e-4,1.66972 0.83379,3.22918 2.22209,4.15685 0.1308,0.0779 0.26516,0.14983 0.40256,0.21549 0.1495,0.0904 0.30379,0.17281 0.46199,0.24702 h 5.1e-4 c 0.3024,0.12519 0.61641,0.22039 0.93741,0.28422 h 5.2e-4 c 0.3211,0.0639 0.64774,0.0961 0.97514,0.0961 0.31748,-9.1e-4 0.63417,-0.0321 0.94567,-0.093 0.017,-0.003 0.0331,-0.006 0.0501,-0.009 0.3035,-0.0622 0.60058,-0.15255 0.88728,-0.26976 0.02,-0.008 0.04,-0.0164 0.061,-0.0248 0.2856,-0.12023 0.55954,-0.26676 0.81804,-0.4377 0.012,-0.009 0.0252,-0.0172 0.0372,-0.0258 0.5282,-0.35711 0.98318,-0.81193 1.34048,-1.33997 0.01,-0.0134 0.0189,-0.0268 0.0279,-0.0403 0.1703,-0.25776 0.31625,-0.53075 0.43615,-0.81546 0.01,-0.0215 0.0179,-0.043 0.0269,-0.0646 0.1165,-0.28632 0.2063,-0.58284 0.2682,-0.88574 0,-0.0155 0.0103,-0.031 0.0103,-0.0465 0.061,-0.31205 0.092,-0.62923 0.093,-0.94723 v -5.1e-4 -5.2e-4 c 0,-0.31783 -0.032,-0.63483 -0.093,-0.94671 0,-0.0155 -0.0103,-0.031 -0.0103,-0.0465 -0.062,-0.30309 -0.15192,-0.59978 -0.26872,-0.88625 -0.01,-0.0211 -0.0168,-0.0416 -0.0258,-0.0625 -0.1201,-0.28528 -0.26649,-0.55879 -0.43719,-0.817 -0.01,-0.013 -0.0184,-0.0264 -0.0274,-0.0393 -0.3573,-0.52846 -0.8125,-0.98364 -1.341,-1.341 -0.012,-0.009 -0.0247,-0.0168 -0.0367,-0.0253 -0.2593,-0.17144 -0.53402,-0.31832 -0.82062,-0.43874 -0.019,-0.008 -0.0368,-0.0161 -0.0558,-0.0238 -0.2876,-0.11754 -0.58599,-0.20802 -0.89039,-0.27027 -0.015,-0.003 -0.031,-0.006 -0.046,-0.008 -0.3122,-0.0613 -0.62954,-0.0926 -0.94774,-0.0935 z m 129.99981,0 c -0.9889,-1.5e-4 -1.95572,0.29299 -2.77812,0.84232 -0.8221,0.54942 -1.46242,1.33026 -1.84072,2.2438 v 5.1e-4 c -0.1254,0.3024 -0.22125,0.61637 -0.28525,0.93741 v 5.2e-4 c -0.064,0.32111 -0.0956,0.64772 -0.0956,0.97513 v 5.2e-4 c 2e-4,1.66972 0.8338,3.22918 2.22208,4.15685 0.1308,0.0779 0.26516,0.14983 0.40256,0.21549 0.1495,0.0904 0.30379,0.17281 0.46199,0.24702 h 5.2e-4 c 0.3024,0.12519 0.61641,0.22039 0.93741,0.28422 h 5.1e-4 c 0.3211,0.0639 0.64774,0.0961 0.97514,0.0961 0.3175,-9.1e-4 0.63418,-0.0321 0.94568,-0.093 0.017,-0.003 0.0326,-0.006 0.0496,-0.009 0.3035,-0.0622 0.60058,-0.15255 0.88728,-0.26976 0.02,-0.008 0.0405,-0.0164 0.0615,-0.0248 0.2856,-0.12023 0.55902,-0.26676 0.81752,-0.4377 0.012,-0.009 0.0252,-0.0172 0.0372,-0.0258 0.5282,-0.35711 0.98319,-0.81193 1.34049,-1.33997 0.01,-0.0134 0.0189,-0.0268 0.0279,-0.0403 0.1703,-0.25776 0.31625,-0.53075 0.43615,-0.81546 0.01,-0.0215 0.0184,-0.043 0.0274,-0.0646 0.1165,-0.28632 0.2063,-0.58284 0.2682,-0.88574 0,-0.0155 0.01,-0.031 0.01,-0.0465 0.061,-0.31205 0.092,-0.62923 0.093,-0.94723 v -5.1e-4 -5.2e-4 c 0,-0.31783 -0.032,-0.63483 -0.093,-0.94671 0,-0.0155 -0.01,-0.031 -0.01,-0.0465 -0.062,-0.30309 -0.15243,-0.59978 -0.26923,-0.88625 -0.01,-0.0211 -0.0168,-0.0416 -0.0258,-0.0625 -0.1201,-0.28528 -0.26648,-0.55879 -0.43718,-0.817 -0.01,-0.013 -0.0179,-0.0264 -0.0269,-0.0393 -0.3573,-0.52846 -0.81251,-0.98364 -1.34101,-1.341 -0.012,-0.009 -0.0252,-0.0168 -0.0372,-0.0253 -0.2593,-0.17144 -0.53402,-0.31832 -0.82062,-0.43874 -0.019,-0.008 -0.0368,-0.0161 -0.0558,-0.0238 -0.28758,-0.11754 -0.58546,-0.20802 -0.88986,-0.27027 -0.015,-0.003 -0.031,-0.006 -0.046,-0.008 -0.31218,-0.0613 -0.62954,-0.0926 -0.94774,-0.0935 z m 130.00034,0 c -0.9889,-1.5e-4 -1.95573,0.29299 -2.77813,0.84232 -0.8221,0.54942 -1.46293,1.33026 -1.84123,2.2438 v 5.1e-4 c -0.1254,0.3024 -0.22074,0.61637 -0.28474,0.93741 v 5.2e-4 c -0.064,0.32111 -0.0961,0.64772 -0.0961,0.97513 v 5.2e-4 c 2e-4,1.66972 0.83379,3.22918 2.22209,4.15685 0.1308,0.0779 0.26516,0.14983 0.40256,0.21549 0.1495,0.0904 0.30379,0.17281 0.46199,0.24702 h 5.1e-4 c 0.3024,0.12519 0.61641,0.22039 0.93741,0.28422 h 5.2e-4 c 0.3211,0.0639 0.64774,0.0961 0.97514,0.0961 0.3175,-9.1e-4 0.63417,-0.0321 0.94567,-0.093 0.017,-0.003 0.0331,-0.006 0.0501,-0.009 0.3035,-0.0622 0.6006,-0.15255 0.88728,-0.26976 0.02,-0.008 0.04,-0.0164 0.061,-0.0248 0.2856,-0.12023 0.55954,-0.26676 0.81804,-0.4377 0.012,-0.009 0.0247,-0.0172 0.0367,-0.0258 0.5282,-0.35711 0.98319,-0.81193 1.34049,-1.33997 0.01,-0.0134 0.0194,-0.0268 0.0284,-0.0403 0.1703,-0.25776 0.31625,-0.53075 0.43615,-0.81546 0.01,-0.0215 0.0179,-0.043 0.0269,-0.0646 0.1165,-0.28632 0.2063,-0.58284 0.2682,-0.88574 0,-0.0155 0.01,-0.031 0.01,-0.0465 0.061,-0.31205 0.092,-0.62923 0.093,-0.94723 v -5.1e-4 -5.2e-4 c 0,-0.31783 -0.032,-0.63483 -0.093,-0.94671 0,-0.0155 -0.01,-0.031 -0.01,-0.0465 -0.062,-0.30309 -0.15192,-0.59978 -0.26872,-0.88625 -0.01,-0.0211 -0.0173,-0.0416 -0.0263,-0.0625 -0.1201,-0.28528 -0.26648,-0.55879 -0.43718,-0.817 -0.01,-0.013 -0.0179,-0.0264 -0.0269,-0.0393 -0.3573,-0.52846 -0.8125,-0.98364 -1.341,-1.341 -0.012,-0.009 -0.0247,-0.0168 -0.0367,-0.0253 -0.2593,-0.17144 -0.53402,-0.31832 -0.82062,-0.43874 -0.019,-0.008 -0.0373,-0.0161 -0.0563,-0.0238 -0.2876,-0.11754 -0.58547,-0.20802 -0.88987,-0.27027 -0.015,-0.003 -0.031,-0.006 -0.046,-0.008 -0.3122,-0.0613 -0.62954,-0.0926 -0.94774,-0.0935 z m -260.00015,33.33336 c -2.7616,-1.2e-4 -5.00032,2.23863 -5.00022,5.00022 2e-4,2.76137 2.23882,4.99981 5.00022,4.99969 2.76118,-1.7e-4 4.99949,-2.23853 4.99969,-4.99969 10e-5,-2.76139 -2.23831,-5.00005 -4.99969,-5.00022 z m 129.99981,0 c -2.7616,-1.2e-4 -5.00031,2.23863 -5.00021,5.00022 2e-4,2.76137 2.23881,4.99981 5.00021,4.99969 2.7612,-1.7e-4 5.00001,-2.23853 5.00021,-4.99969 1e-4,-2.76139 -2.23881,-5.00005 -5.00021,-5.00022 z m 130.00034,0 c -2.7616,-1.2e-4 -5.00032,2.23863 -5.00022,5.00022 2e-4,2.76137 2.23882,4.99981 5.00022,4.99969 2.76118,-1.7e-4 4.99949,-2.23853 4.99969,-4.99969 10e-5,-2.76139 -2.23831,-5.00005 -4.99969,-5.00022 z m -260.00015,33.33337 c -2.7614,-1.2e-4 -5.00002,2.23831 -5.00022,4.9997 -1e-4,2.76157 2.23862,5.00033 5.00022,5.00021 2.76138,-1.7e-4 4.99979,-2.23884 4.99969,-5.00021 -2e-4,-2.76119 -2.23851,-4.99953 -4.99969,-4.9997 z m 129.99981,0 c -2.7614,-1.2e-4 -5.00001,2.23831 -5.00021,4.9997 -1e-4,2.76157 2.23861,5.00033 5.00021,5.00021 2.7614,-1.7e-4 5.00031,-2.23884 5.00021,-5.00021 -2e-4,-2.76119 -2.23901,-4.99953 -5.00021,-4.9997 z m 130.00034,0 c -2.7614,-1.2e-4 -5.00002,2.23831 -5.00022,4.9997 -10e-5,2.76157 2.23862,5.00033 5.00022,5.00021 2.76138,-1.7e-4 4.99979,-2.23884 4.99969,-5.00021 -2e-4,-2.76119 -2.23851,-4.99953 -4.99969,-4.9997 z m -260.00015,33.33337 c -1.1373,0.008 -2.23771,0.40435 -3.11971,1.12241 -0.1447,0.10648 -0.2836,0.22068 -0.416,0.3421 -0.4641,0.46416 -0.83245,1.01517 -1.08365,1.6216 v 5.2e-4 c -0.1254,0.3024 -0.22074,0.61637 -0.28474,0.93741 v 5.2e-4 c -0.064,0.32111 -0.0961,0.64772 -0.0961,0.97513 v 5.2e-4 c 0.35613,2.21572 1.21371,3.83431 3.08664,4.61884 h 5.1e-4 c 0.3024,0.12537 0.61631,0.22073 0.93741,0.28473 h 5.2e-4 c 0.3211,0.0639 0.64774,0.0961 0.97514,0.0961 0.31748,-9.1e-4 0.63417,-0.0321 0.94567,-0.093 0.017,-0.003 0.0331,-0.006 0.0501,-0.009 0.3035,-0.0622 0.60058,-0.15254 0.88728,-0.26975 0.02,-0.008 0.04,-0.0164 0.061,-0.0248 0.2856,-0.12023 0.55954,-0.26676 0.81804,-0.4377 0.012,-0.009 0.0252,-0.0172 0.0372,-0.0258 0.2644,-0.17761 0.5111,-0.38006 0.7369,-0.60461 0.2242,-0.22538 0.42628,-0.47162 0.60358,-0.73536 0.01,-0.0134 0.0189,-0.0268 0.0279,-0.0403 0.1703,-0.25776 0.31625,-0.53074 0.43615,-0.81545 0.01,-0.0215 0.0179,-0.043 0.0269,-0.0646 0.1165,-0.28632 0.2063,-0.58283 0.2682,-0.88573 0,-0.0155 0.0103,-0.031 0.0103,-0.0465 0.061,-0.31188 0.092,-0.62888 0.093,-0.94671 v -5.2e-4 -5.2e-4 -5.1e-4 c -9e-4,-0.31764 -0.032,-0.63447 -0.093,-0.9462 0,-0.0162 -0.0103,-0.0324 -0.0103,-0.0486 -0.062,-0.30255 -0.1517,-0.59872 -0.2682,-0.8847 -0.01,-0.0216 -0.0179,-0.0431 -0.0269,-0.0646 -0.12,-0.28473 -0.26617,-0.55771 -0.43667,-0.81545 -0.01,-0.013 -0.0179,-0.0259 -0.0269,-0.0388 -0.1775,-0.26413 -0.3798,-0.51071 -0.6041,-0.73639 -0.2259,-0.22455 -0.4726,-0.427 -0.7369,-0.60461 -0.012,-0.009 -0.0252,-0.0173 -0.0372,-0.0258 -0.258,-0.17067 -0.53139,-0.31704 -0.81649,-0.43719 -0.021,-0.009 -0.0431,-0.0181 -0.0651,-0.0269 -0.2864,-0.11659 -0.58283,-0.20637 -0.88573,-0.2682 -0.015,-0.003 -0.031,-0.006 -0.046,-0.008 -0.3122,-0.0613 -0.62964,-0.0926 -0.94774,-0.0935 z m 129.99981,0 c -1.1373,0.008 -2.23772,0.40435 -3.1197,1.12241 -0.1447,0.10648 -0.2836,0.22068 -0.416,0.3421 -0.4641,0.46416 -0.83194,1.01517 -1.08314,1.6216 v 5.2e-4 c -0.1254,0.3024 -0.22125,0.61637 -0.28525,0.93741 v 5.2e-4 c -0.064,0.32111 -0.0956,0.64772 -0.0956,0.97513 v 5.2e-4 c 2e-4,1.66972 0.8338,3.22918 2.22208,4.15685 h 5.2e-4 c 0.2722,0.18191 0.56163,0.33665 0.86403,0.46199 h 5.2e-4 c 0.3024,0.12537 0.61631,0.22073 0.93741,0.28473 h 5.1e-4 c 0.3211,0.0639 0.64774,0.0961 0.97514,0.0961 0.3175,-9.1e-4 0.63418,-0.0321 0.94568,-0.093 0.017,-0.003 0.0326,-0.006 0.0496,-0.009 0.3035,-0.0622 0.60058,-0.15254 0.88728,-0.26975 0.02,-0.008 0.0405,-0.0164 0.0615,-0.0248 0.2856,-0.12023 0.55902,-0.26676 0.81752,-0.4377 0.012,-0.009 0.0252,-0.0172 0.0372,-0.0258 0.2644,-0.17761 0.51111,-0.38006 0.73691,-0.60461 0.2242,-0.22538 0.42628,-0.47162 0.60358,-0.73536 0.01,-0.0134 0.0189,-0.0268 0.0279,-0.0403 0.1703,-0.25776 0.31625,-0.53074 0.43615,-0.81545 0.01,-0.0215 0.0184,-0.043 0.0274,-0.0646 0.1165,-0.28632 0.2063,-0.58283 0.2682,-0.88573 0,-0.0155 0.01,-0.031 0.01,-0.0465 0.061,-0.31188 0.092,-0.62888 0.093,-0.94671 v -5.2e-4 -5.2e-4 -5.1e-4 c -9e-4,-0.31764 -0.032,-0.63447 -0.093,-0.9462 0,-0.0162 -0.01,-0.0324 -0.01,-0.0486 -0.062,-0.30255 -0.1517,-0.59872 -0.2682,-0.8847 -0.01,-0.0216 -0.0184,-0.0431 -0.0274,-0.0646 -0.12,-0.28473 -0.26617,-0.55771 -0.43667,-0.81545 -0.01,-0.013 -0.0179,-0.0259 -0.0269,-0.0388 -0.1775,-0.26413 -0.3798,-0.51071 -0.6041,-0.73639 -0.2259,-0.22455 -0.47261,-0.427 -0.73691,-0.60461 -0.012,-0.009 -0.0252,-0.0173 -0.0372,-0.0258 -0.258,-0.17067 -0.53087,-0.31704 -0.81597,-0.43719 -0.021,-0.009 -0.0431,-0.0181 -0.0651,-0.0269 -0.2864,-0.11659 -0.58283,-0.20637 -0.88573,-0.2682 -0.015,-0.003 -0.031,-0.006 -0.046,-0.008 -0.3122,-0.0613 -0.62965,-0.0926 -0.94775,-0.0935 z m 130.00034,0 c -1.1373,0.008 -2.23771,0.40435 -3.11971,1.12241 -0.1447,0.10648 -0.2836,0.22068 -0.416,0.3421 -0.4641,0.46416 -0.83245,1.01517 -1.08365,1.6216 v 5.2e-4 c -0.1254,0.3024 -0.22074,0.61637 -0.28474,0.93741 v 5.2e-4 c -0.064,0.32111 -0.0961,0.64772 -0.0961,0.97513 v 5.2e-4 c 2e-4,1.66972 0.83379,3.22918 2.22209,4.15685 h 5.2e-4 c 0.2722,0.18191 0.56163,0.33665 0.86403,0.46199 h 5.1e-4 c 0.3024,0.12537 0.61631,0.22073 0.93741,0.28473 h 5.2e-4 c 0.3211,0.0639 0.64774,0.0961 0.97514,0.0961 0.3175,-9.1e-4 0.63417,-0.0321 0.94567,-0.093 0.017,-0.003 0.0331,-0.006 0.0501,-0.009 0.3035,-0.0622 0.6006,-0.15254 0.88728,-0.26975 0.02,-0.008 0.04,-0.0164 0.061,-0.0248 0.2856,-0.12023 0.55954,-0.26676 0.81804,-0.4377 0.012,-0.009 0.0247,-0.0172 0.0367,-0.0258 0.2644,-0.17761 0.51111,-0.38006 0.73691,-0.60461 0.2242,-0.22538 0.42628,-0.47162 0.60358,-0.73536 0.01,-0.0134 0.0194,-0.0268 0.0284,-0.0403 0.1703,-0.25776 0.31625,-0.53074 0.43615,-0.81545 0.01,-0.0215 0.0179,-0.043 0.0269,-0.0646 0.1165,-0.28632 0.2063,-0.58283 0.2682,-0.88573 0,-0.0155 0.01,-0.031 0.01,-0.0465 0.061,-0.31188 0.092,-0.62888 0.093,-0.94671 v -5.2e-4 -5.2e-4 -5.1e-4 c -9e-4,-0.31764 -0.032,-0.63447 -0.093,-0.9462 0,-0.0162 -0.01,-0.0324 -0.01,-0.0486 -0.062,-0.30255 -0.1517,-0.59872 -0.2682,-0.8847 -0.01,-0.0216 -0.0179,-0.0431 -0.0269,-0.0646 -0.12,-0.28473 -0.26617,-0.55771 -0.43667,-0.81545 -0.01,-0.013 -0.0184,-0.0259 -0.0274,-0.0388 -0.1775,-0.26413 -0.37979,-0.51071 -0.60409,-0.73639 -0.2259,-0.22455 -0.47261,-0.427 -0.73691,-0.60461 -0.012,-0.009 -0.0247,-0.0173 -0.0367,-0.0258 -0.258,-0.17067 -0.53139,-0.31704 -0.81649,-0.43719 -0.021,-0.009 -0.0431,-0.0181 -0.0651,-0.0269 -0.2864,-0.11659 -0.58283,-0.20637 -0.88573,-0.2682 -0.015,-0.003 -0.031,-0.006 -0.046,-0.008 -0.31218,-0.0613 -0.62964,-0.0926 -0.94774,-0.0935 z m -260.00015,33.33336 c -2.7616,-1.2e-4 -5.00032,2.23864 -5.00022,5.00021 2e-4,2.76139 2.23882,4.99982 5.00022,4.9997 2.76118,-1.7e-4 4.99949,-2.23851 4.99969,-4.9997 10e-5,-2.76137 -2.23831,-5.00004 -4.99969,-5.00021 z m 129.99981,0 c -2.7616,-1.2e-4 -5.00031,2.23864 -5.00021,5.00021 2e-4,2.76139 2.23881,4.99982 5.00021,4.9997 2.7612,-1.7e-4 5.00001,-2.23851 5.00021,-4.9997 1e-4,-2.76137 -2.23881,-5.00004 -5.00021,-5.00021 z m 130.00034,0 c -2.7616,-1.2e-4 -5.00032,2.23864 -5.00022,5.00021 2e-4,2.76139 2.23882,4.99982 5.00022,4.9997 2.76118,-1.7e-4 4.99949,-2.23851 4.99969,-4.9997 10e-5,-2.76137 -2.23831,-5.00004 -4.99969,-5.00021 z m -260.00015,33.33337 c -2.7614,-1.2e-4 -5.00002,2.23832 -5.00022,4.99969 -1e-4,2.76159 2.23862,5.00033 5.00022,5.00021 2.76138,-1.7e-4 4.99979,-2.23882 4.99969,-5.00021 -2e-4,-2.76116 -2.23851,-4.99952 -4.99969,-4.99969 z m 129.99981,0 c -2.7614,-1.2e-4 -5.00001,2.23832 -5.00021,4.99969 -1e-4,2.76159 2.23861,5.00033 5.00021,5.00021 2.7614,-1.7e-4 5.00031,-2.23882 5.00021,-5.00021 -2e-4,-2.76116 -2.23901,-4.99952 -5.00021,-4.99969 z m 130.00034,0 c -2.7614,-1.2e-4 -5.00002,2.23832 -5.00022,4.99969 -10e-5,2.76159 2.23862,5.00033 5.00022,5.00021 2.76138,-1.7e-4 4.99979,-2.23882 4.99969,-5.00021 -2e-4,-2.76116 -2.23851,-4.99952 -4.99969,-4.99969 z"
       sodipodi:nodetypes="ccsscccccccccccccccccccccccscsccccccccccccccccsscccccccccccccccccccccccscsccccccccccccccccsscccccccccccccccccccccccscsccccccccccccccccccccccccscscsccccccccccscscsccccccsscccccccccccccccccccscsccccccccscccccccccccsscccccccccccccccccccscsccccccccscccccccccccsscccccccccccccccccccscsccccccccscccccccccccccccscscsccccccccccscscscccccccscccccccccccccccccccsccsccccccccccccccccccccccssccccccccccccccccccccsccsccccccccccccccccccccccssccccccccccccccccccccsccscccccccccccscccccsccscscsscscsscscsscscsscscs" /><rect
       style="display:inline;fill:none;fill-opacity:1;stroke:#000400;stroke-width:0.851686;stroke-linecap:round;stroke-linejoin:miter;stroke-dasharray:none;stroke-opacity:1"
       id="rect3530"
       width="394.14832"
       height="329.14832"
       x="315.42606"
       y="631.42554"
       inkscape:label="cut6" /></g></svg>
