<?xml version="1.0" encoding="UTF-8" standalone="no"?>
<!-- Created with Inkscape (http://www.inkscape.org/) -->

<svg
   width="395mm"
   height="327mm"
   viewBox="0 0 395 327"
   version="1.1"
   id="svg5"
   xml:space="preserve"
   inkscape:version="1.2.1 (9c6d41e, 2022-07-14)"
   sodipodi:docname="QuizCube Board v1_cutter_2.svg"
   inkscape:export-filename="QuizCube Board v1_cutter.png"
   inkscape:export-xdpi="96"
   inkscape:export-ydpi="96"
   xmlns:inkscape="http://www.inkscape.org/namespaces/inkscape"
   xmlns:sodipodi="http://sodipodi.sourceforge.net/DTD/sodipodi-0.dtd"
   xmlns="http://www.w3.org/2000/svg"
   xmlns:svg="http://www.w3.org/2000/svg"><sodipodi:namedview
     id="namedview7"
     pagecolor="#505050"
     bordercolor="#eeeeee"
     borderopacity="1"
     inkscape:showpageshadow="0"
     inkscape:pageopacity="0"
     inkscape:pagecheckerboard="0"
     inkscape:deskcolor="#505050"
     inkscape:document-units="mm"
     showgrid="false"
     inkscape:zoom="0.20941921"
     inkscape:cx="-678.06578"
     inkscape:cy="1879.0062"
     inkscape:window-width="1800"
     inkscape:window-height="1097"
     inkscape:window-x="0"
     inkscape:window-y="44"
     inkscape:window-maximized="1"
     inkscape:current-layer="layer1" /><defs
     id="defs2" /><g
     inkscape:label="Layer 1"
     inkscape:groupmode="layer"
     id="layer1"
     transform="translate(-315.00023,21.000304)"><path
       id="rect111"
       style="color:#000000;fill:#666666;fill-opacity:1;stroke-linecap:round;stroke-linejoin:round;-inkscape-stroke:none"
       inkscape:label="grid"
       d="m 409.99981,125.00015 c -6.44773,0 -12.0336,4.21258 -14.12317,9.99991 h -80.45246 v 1.58905 h 77.15188 c 1.19866,-0.0889 2.42006,0.14702 3.60133,-0.10077 0.88172,-0.18973 1.25921,-1.03717 1.53014,-1.80196 1.81866,-4.11724 5.74591,-7.23694 10.2123,-7.92561 0.67377,-0.11889 1.35212,-0.17762 2.02933,-0.18035 v -5.2e-4 c 4.74046,-0.0191 9.40269,2.71311 11.70781,6.87348 0.73304,1.02786 0.80576,2.70334 2.22364,3.08612 1.94251,0.11585 3.90892,0.0155 5.86063,0.0491 31.78559,-0.008 63.57195,0.0163 95.35748,-0.0124 0.95532,0.15434 1.96538,-0.28551 2.34095,-1.21233 0.81812,-2.15164 2.18864,-4.09218 3.90467,-5.53971 3.66082,-3.20634 9.1475,-4.17558 13.63999,-2.24328 2.92665,1.19152 5.54135,3.54629 7.00216,6.43165 0.43565,1.02389 0.82958,2.42789 2.13682,2.57607 33.66008,0.008 67.32032,-0.0183 100.9804,0.0129 1.05472,0.17347 2.09305,-0.47771 2.43912,-1.48156 1.32047,-3.47503 4.27365,-6.30728 7.77731,-7.66413 2.18285,-0.86892 4.75871,-1.10089 7.20576,-0.61392 5.76241,1.04426 10.42584,6.26888 10.8412,12.10366 0.48473,5.24102 -2.54711,10.50326 -7.18148,12.92427 -1.01337,0.54989 -2.51524,0.81094 -2.75848,2.15491 -0.0346,19.64842 -0.005,39.3017 -0.015,58.95196 0.0135,13.67768 -0.026,27.35675 0.0196,41.03367 -0.0753,1.16361 -0.19339,2.68459 0.99994,3.34966 5.11666,1.79582 8.92661,6.90716 8.97051,12.36152 0.16715,5.03044 -2.87,9.89562 -7.30085,12.20288 -1.03622,0.49462 -2.52262,0.8419 -2.68924,2.19934 v 21.45192 h 1.58802 v -21.45192 c 5.78749,-2.08949 9.9999,-7.67584 9.9999,-14.12368 0,-6.44783 -4.21241,-12.03367 -9.9999,-14.12317 V 154.12344 c 5.78746,-2.08951 9.9999,-7.67535 9.9999,-14.12317 0,-8.19541 -6.80471,-15.00012 -15.00011,-15.00012 -6.44771,0 -12.03358,4.21261 -14.12317,9.99991 H 554.12331 c -2.08958,-5.78733 -7.67544,-9.99991 -14.12317,-9.99991 -6.44769,0 -12.03357,4.21261 -14.12317,9.99991 H 424.12349 c -2.08958,-5.78733 -7.67596,-9.99991 -14.12368,-9.99991 z m 14.84973,18.38906 c -0.76491,-0.008 -1.64412,0.18234 -2.09082,0.86352 -1.2269,3.23916 -3.58153,6.06646 -6.66885,7.6786 -1.03852,0.48319 -2.50858,0.8388 -2.67787,2.19211 4.1e-4,33.13113 -4.8e-4,66.26231 5.2e-4,99.39342 0.0732,1.25316 -0.35403,2.85847 0.84336,3.72432 3.21284,1.22238 6.02581,3.54856 7.64036,6.60683 0.51536,1.01704 0.80036,2.48776 2.12803,2.72541 17.11515,0.035 34.23538,0.005 51.35242,0.015 16.14634,-0.0117 32.29393,0.0233 48.43942,-0.0181 1.18791,0.0261 2.73388,0.27061 3.47886,-0.91002 1.20794,-3.25667 3.62625,-6.04816 6.7169,-7.64656 1.02208,-0.43547 2.42099,-0.83318 2.57607,-2.1363 -0.008,-33.19759 0.0162,-66.3964 -0.0119,-99.59341 -0.006,-1.217 0.30299,-2.80462 -0.91416,-3.57652 -3.24273,-1.2081 -6.02607,-3.60636 -7.63054,-6.6797 -0.44347,-1.03359 -0.83769,-2.44957 -2.15439,-2.61534 h -63.65296 c -12.45802,-0.0157 -24.91666,0.0313 -37.37447,-0.0233 z m 130.00034,0 c -0.79437,-0.0106 -1.72432,0.20314 -2.14302,0.94878 -1.20357,3.24505 -3.60868,6.02504 -6.6797,7.63106 -1.03358,0.44346 -2.44906,0.83769 -2.61483,2.15439 v 99.05339 c 0.12389,1.33795 -0.41859,2.99755 0.75758,4.00905 0.79269,0.38614 1.74011,0.75123 2.42776,1.18184 2.28235,1.32825 4.16622,3.30457 5.38882,5.6441 0.43547,1.02208 0.8337,2.42151 2.13682,2.57659 h 99.05338 c 1.33796,-0.12389 2.99756,0.41808 4.00906,-0.75809 0.38614,-0.7927 0.75071,-1.74011 1.18132,-2.42776 1.32825,-2.28235 3.30508,-4.16622 5.64462,-5.38882 1.02207,-0.43547 2.42099,-0.83318 2.57607,-2.1363 v -99.05391 c -0.12389,-1.33794 0.41859,-2.99705 -0.75758,-4.00854 -0.79269,-0.38614 -1.74011,-0.75123 -2.42775,-1.18184 -2.22552,-1.29873 -4.0833,-3.2069 -5.29891,-5.48028 -0.51536,-1.01704 -0.79985,-2.48777 -2.12751,-2.72542 -21.24836,-0.035 -42.50195,-0.005 -63.75219,-0.015 -12.45802,-0.0157 -24.91613,0.0313 -37.37394,-0.0233 z m -239.4257,0.0129 v 1.59835 h 80.45246 c 1.52318,4.21893 4.90452,7.5998 9.12347,9.12296 V 255.8769 c -4.21903,1.52317 -7.60031,4.90445 -9.12347,9.12347 h -80.45246 v 1.58802 h 77.75236 c 1.33796,-0.12389 2.99756,0.41808 4.00906,-0.75809 0.38613,-0.7927 0.75123,-1.74011 1.18184,-2.42776 1.32824,-2.28235 3.30456,-4.16622 5.6441,-5.38882 1.02207,-0.43547 2.42151,-0.83318 2.57659,-2.1363 v -99.05391 c -0.12389,-1.33794 0.41807,-2.99705 -0.7581,-4.00854 -0.7927,-0.38614 -1.74011,-0.75123 -2.42776,-1.18184 -2.22551,-1.29873 -4.08329,-3.2069 -5.2989,-5.48028 -0.51536,-1.01704 -0.79985,-2.48777 -2.12752,-2.72542 -21.24835,-0.035 -42.50194,-0.005 -63.75218,-0.015 -5.59985,-0.007 -11.19965,-0.0137 -16.79949,-0.0103 z m 108.69931,1.59835 h 101.75348 c 1.52318,4.21885 4.90412,7.59978 9.12296,9.12296 V 255.8769 c -4.21892,1.52319 -7.5998,4.90453 -9.12296,9.12347 H 424.12349 c -1.52317,-4.21902 -4.90445,-7.6003 -9.12347,-9.12347 V 154.12344 c 4.21894,-1.52316 7.60028,-4.90403 9.12347,-9.12296 z m 129.99982,0 h 101.75348 c 1.5232,4.2189 4.90455,7.59981 9.12347,9.12296 V 255.8769 c -4.219,1.52316 -7.60029,4.90448 -9.12347,9.12347 H 554.12331 c -1.52316,-4.21902 -4.90446,-7.6003 -9.12348,-9.12347 V 154.12344 c 4.21894,-1.52316 7.60029,-4.90403 9.12348,-9.12296 z M 424.84954,273.38903 c -0.79444,-0.0128 -1.7237,0.20484 -2.1425,0.9493 -1.21179,3.25872 -3.62875,6.05713 -6.72672,7.65224 -1.02155,0.43313 -2.41332,0.83288 -2.56832,2.13269 0.002,7.15076 0.003,14.30159 0.003,21.45243 h 1.58544 v -21.45192 c 4.21902,-1.52316 7.6003,-4.90444 9.12347,-9.12347 h 101.75348 c 1.52316,4.21895 4.90404,7.60029 9.12296,9.12347 v 21.45192 h 1.5782 c -0.002,-6.43056 0.003,-12.86138 -0.002,-19.29184 -0.006,-1.217 0.30299,-2.80463 -0.91416,-3.57653 -3.2007,-1.19318 -5.96132,-3.54496 -7.56801,-6.56859 -0.50239,-1.04594 -0.841,-2.55234 -2.21692,-2.72645 H 462.2245 c -12.45802,-0.0154 -24.91666,0.0313 -37.37447,-0.0233 z m 130.00034,0 c -0.79584,-0.0131 -1.72493,0.20546 -2.14457,0.95085 -1.20829,3.2601 -3.63138,6.0519 -6.72466,7.65069 -1.02155,0.43313 -2.41331,0.83288 -2.56832,2.13269 v 21.45243 h 1.5875 v -21.45192 c 4.21902,-1.52316 7.60032,-4.90444 9.12348,-9.12347 h 101.75348 c 1.52318,4.219 4.90447,7.60032 9.12347,9.12347 v 21.45192 h 1.5875 v -18.75182 c -0.12389,-1.33796 0.41859,-2.99756 -0.75758,-4.00906 -0.79269,-0.38614 -1.74011,-0.75123 -2.42775,-1.18184 -2.22552,-1.29872 -4.0833,-3.2069 -5.29891,-5.48029 -0.51585,-1.01681 -0.79974,-2.48782 -2.12751,-2.72541 -21.24836,-0.035 -42.50195,-0.005 -63.75219,-0.015 -12.45802,-0.0154 -24.91613,0.0313 -37.37394,-0.0233 z m -239.4257,0.0129 v 1.59835 h 80.45246 c 1.52316,4.21903 4.90444,7.60031 9.12347,9.12347 v 21.45192 h 1.58802 v -18.75182 c -0.12389,-1.33796 0.41807,-2.99756 -0.7581,-4.00906 -0.7927,-0.38614 -1.74011,-0.75123 -2.42776,-1.18184 -2.22551,-1.29872 -4.08329,-3.2069 -5.2989,-5.48029 -0.51585,-1.01681 -0.79974,-2.48782 -2.12752,-2.72541 -21.24835,-0.035 -42.50194,-0.005 -63.75218,-0.015 -5.59985,-0.007 -11.19965,-0.0137 -16.79949,-0.0103 z" /><path
       id="path6267"
       style="font-size:50.8px;-inkscape-font-specification:'josefin sans';fill:#333333;stroke-width:0.264583"
       inkscape:label="header"
       d="m 521.51961,-0.79268488 c -3.81549,-0.0406999 -7.3978,2.04940408 -15.10605,6.06732988 -2.08585,1.0872298 -5.6169,2.8888397 -7.84655,4.0028565 -16.35233,8.1702805 -16.0414,7.9404615 -16.0414,11.8473385 0,4.023613 0.0276,4.049854 8.45685,8.163326 11.84826,5.78188 27.9152,13.985796 29.39562,15.009937 0.44705,0.309294 1.04875,0.615473 1.33635,0.679545 1.62715,0.36313 2.82844,-0.04815 7.05435,-2.414323 2.01764,-1.129758 7.90536,-4.287783 13.08396,-7.018176 21.67805,-11.429702 19.66243,-9.876404 19.49183,-15.020789 -0.11043,-3.327177 0.22008,-3.068783 -10.59935,-8.290967 -4.45935,-2.152345 -9.40201,-4.5851273 -10.98434,-5.4069047 -9.853,-5.1171748 -14.17967,-7.57582826 -18.24127,-7.61917318 z m 0.34675,3.05821128 c 0.88256,0.01719 1.76337,0.1185476 2.60759,0.390157 0.20446,0.08275 1.06136,0.2797382 0.4346,0.2583822 -1.54464,0.1079328 -3.37605,0.2979142 -4.32841,1.6918864 -0.66687,1.0807628 -0.71931,2.4033111 -0.9493,3.6230347 -0.97728,-0.2948054 -2.05403,-0.4380423 -3.09542,-0.4599203 -2.75155,-0.01328 -5.51316,0.1499729 -8.23309,0.5746419 -1.32894,0.1387188 -2.50086,1.1038501 -2.86597,2.3931357 -0.59058,1.988468 -0.592,4.088912 -0.81391,6.13761 -1.36532,0.09194 -2.73966,0.227694 -4.05711,0.615983 -2.15588,0.772827 -4.21611,2.352157 -4.91805,4.610054 -0.55274,1.680183 0.10059,3.64754 1.56941,4.642094 2.06647,1.440405 4.808,1.42938 7.15409,0.779281 1.89046,-0.58155 3.82759,-1.478734 5.0338,-3.108854 -0.1443,1.282955 0.1592,2.70569 1.14412,3.605464 1.44506,1.298638 3.53091,1.339583 5.36763,1.290878 2.86444,-0.191176 5.80639,-0.987343 8.07289,-2.815332 0.82446,0.905686 2.08894,1.182466 3.26233,1.266072 1.91283,0.07397 3.90931,0.18651 5.72989,-0.515214 2.14578,-0.79494 4.37418,-2.107564 5.23999,-4.343404 0.56893,-1.869532 0.68359,-3.841487 0.92035,-5.772774 1.84961,-0.247434 3.72239,-0.141458 5.58054,-0.255799 1.55575,-0.01563 3.06765,-1.031841 3.59203,-2.506306 0.18753,-0.184169 0.66027,0.269665 0.9586,0.342098 3.03625,1.512315 6.08927,3.009382 9.00048,4.753715 0.22086,0.965018 0.2345,1.962185 0.25012,2.947623 0.0933,0.631192 -0.61123,0.916071 -1.01906,1.246436 -3.4334,2.186666 -7.05561,4.054782 -10.63398,5.989298 -6.89806,3.627226 -13.77328,7.299112 -20.6406,10.984343 -1.08734,0.50966 -2.1176,1.254461 -3.33106,1.4149 -0.8524,-0.0349 -1.58931,-0.572848 -2.35128,-0.908471 -7.68341,-4.130244 -15.48757,-8.029618 -23.27558,-11.95741 -3.81844,-1.955118 -7.62206,-3.840417 -11.3466,-5.945373 -0.44273,-0.452571 -0.50151,-1.168048 -0.5612,-1.774052 -0.002,-0.778299 -0.026,-1.786563 0.70125,-2.269113 2.34271,-1.540235 4.89373,-2.729862 7.3613,-4.052465 7.75346,-3.988507 15.51625,-7.9612473 23.3655,-11.7584557 1.28676,-0.6989086 2.72629,-1.0892025 4.19251,-1.1063925 0.29346,-0.0099 0.58741,-0.013511 0.8816,-0.00775 z m 5.58571,3.4618042 c 5.96452,0.0086 7.73131,0.2803864 7.73131,1.1870076 0,0.08551 -0.0275,0.154288 -0.0966,0.214974 -0.16591,0.07363 -0.33441,0.1384693 -0.50746,0.1901693 -0.47372,0.09546 -1.29847,0.1745662 -2.72955,0.289388 -4.0803,0.3273714 -6.80755,1.0362888 -6.97477,1.8128092 -0.0631,0.2923964 -0.36297,2.9640013 -0.66507,5.9371053 -0.80758,7.942703 -0.74507,7.618608 -1.65003,8.565369 -0.95851,1.002836 -2.66961,1.835489 -4.82555,2.348694 -0.3532,0.08413 -0.69586,0.150215 -1.02939,0.203088 -1.0079,0.118508 -2.02901,0.117302 -3.03237,-0.0078 -0.0378,-0.0052 -0.0783,-0.01288 -0.11731,-0.01809 -0.86388,-0.222691 -1.38751,-0.661628 -1.38751,-1.289327 0,-1.969105 3.61463,-4.109625 7.50238,-4.44314 0.90858,-0.07788 1.65311,-0.207903 1.6552,-0.287838 0.0104,-0.383468 1.03199,-11.1550643 1.19269,-12.5754595 0.0263,-0.2338374 0.0499,-0.4311222 0.0754,-0.6164998 0.0271,-0.1666146 0.0586,-0.3312716 0.0941,-0.4950602 0.27436,-1.032957 1.03698,-1.020233 4.76457,-1.0149252 z m 4.58318,4.7588824 c 0.061,0.0055 0.0934,0.02683 0.0739,0.07441 -0.74084,2.145805 -0.59044,4.459415 -0.87747,6.684864 -1.55469,0.423137 -3.09975,1.021785 -4.55734,1.740462 0.1534,-1.392689 0.30728,-2.715832 0.49247,-4.118612 0.16408,-1.230586 0.34515,-2.576294 0.54674,-3.72432 1.1788,-0.287621 2.38728,-0.425001 3.58945,-0.575676 0.10627,0.02659 0.54972,-0.09782 0.73225,-0.08113 z m -16.41657,0.181901 c 1.43143,0.0044 2.63281,0.06983 3.14555,0.207223 0.0867,0.03287 0.17113,0.07364 0.25579,0.113171 0.32312,0.304313 0.26572,0.51487 -0.31367,0.671277 -0.0735,0.01667 -0.14747,0.03176 -0.22066,0.04754 -0.66997,0.140386 -1.82301,0.235184 -3.63957,0.313676 -6.33691,0.273819 -6.17342,0.138611 -6.57996,5.46685 -0.37621,4.930108 -0.8515,5.822959 -3.72432,6.989754 -4.14854,1.685079 -7.88358,-0.07535 -5.5547,-2.617928 1.37597,-1.502104 2.8337,-2.051492 5.54798,-2.091862 3.01526,-0.0448 2.71284,0.382095 3.06183,-4.316015 0.21619,-2.908041 0.39313,-4.032065 0.65939,-4.183208 0.65581,-0.372311 4.45717,-0.609688 7.36234,-0.60048 z m 20.43441,0.466638 v 5.17e-4 c 2.60139,-0.0409 8.0561,1.000413 9.15345,1.857251 0.92703,0.72387 -0.0155,1.247749 -1.91513,1.063501 -1.83985,-0.178517 -5.64945,0.224467 -6.40116,0.676961 -0.52529,0.316037 -0.5936,0.610213 -0.74311,3.189987 -0.25784,4.443702 -0.68343,5.205675 -3.58686,6.425447 -0.8467,0.355706 -1.90847,0.593978 -2.92902,0.706417 -0.71457,0.01563 -1.43432,-0.02338 -2.13992,-0.04031 -0.20368,-0.02605 -0.44001,-0.04182 -0.67179,-0.07803 -0.0703,-0.02084 -0.13955,-0.04424 -0.20154,-0.07028 -2.40993,-1.006196 0.80485,-3.946763 5.16558,-4.725293 2.25127,-0.401912 2.26388,-0.423305 2.466,-4.247803 0.21123,-3.994476 0.31479,-4.539845 0.88418,-4.670516 0.23415,-0.05374 0.54768,-0.08201 0.91932,-0.08785 z m -17.04133,3.291272 c -0.112,1.142845 -0.22014,2.329169 -0.33383,3.437517 -0.10886,0.309265 -0.70404,0.145878 -1.00924,0.28267 -2.71188,0.529741 -5.41606,1.760919 -7.20473,3.925858 0.54131,-1.970927 0.58573,-4.026962 0.85989,-6.041491 0.10862,-0.340972 0.0235,-1.007841 0.53175,-0.96945 2.31721,-0.06628 4.64695,-0.148931 6.93033,-0.588078 0.0753,-0.01563 0.15056,-0.0314 0.22583,-0.04703 z m 46.0654,12.579078 c -0.88821,0.0435 -2.20725,1.084405 -4.16047,2.219502 -2.00097,1.162758 -5.72122,3.309205 -8.26823,4.768702 -2.54701,1.45952 -5.92155,3.419776 -7.49825,4.355806 -1.57674,0.936029 -4.15677,2.423826 -5.7335,3.306775 -1.5767,0.882973 -3.75931,2.127289 -4.85086,2.765723 -1.09158,0.63843 -2.97706,1.742221 -4.18993,2.452563 -2.59303,1.518674 -3.66576,2.432151 -4.47828,3.814237 -0.95867,1.628898 -0.93697,55.5559 0.0232,56.38054 h 10e-4 c 1.39481,1.19982 1.99574,1.00008 8.53333,-2.83859 2.48638,-1.45994 6.80315,-3.99293 9.59269,-5.628595 21.04226,-12.338196 21.93937,-12.943853 22.60793,-15.275037 0.13492,-0.470647 0.21549,-10.867606 0.21549,-27.839644 0,-23.092303 0.30948,-28.585044 -1.79421,-28.481982 z m -86.06451,1.755448 c -0.43684,0.01823 -0.71285,0.195937 -1.07797,0.435632 -1.29884,0.852553 -1.22618,-0.793661 -1.27176,28.974459 -0.0508,33.130883 -0.69316,29.838565 6.5195,33.489946 1.8193,0.920998 4.79736,2.468168 6.61665,3.437516 3.94604,2.102526 13.80107,7.202397 22.09012,11.431347 7.20592,3.67632 8.63313,3.92845 9.57771,1.6893 0.59556,-1.41197 0.44032,-56.230878 -0.16278,-57.535507 -0.75452,-1.631555 1.68067,-0.291874 -27.31616,-15.031641 -10.91209,-5.546893 -13.66425,-6.943795 -14.9748,-6.891052 z m -72.64621,0.750859 v 39.319563 h 4.72425 V 65.60843 c 0.79736,0.961459 1.77939,1.781698 2.94659,2.460315 1.49014,0.846664 3.20004,1.270207 5.13044,1.270207 1.96427,0 3.7764,-0.440319 5.43584,-1.32085 1.65947,-0.914397 2.98042,-2.218578 3.96255,-3.911906 1.016,-1.693327 1.52394,-3.725092 1.52394,-6.095752 0,-2.26906 -0.47438,-4.216426 -1.42265,-5.84202 -0.9144,-1.659463 -2.15044,-2.94635 -3.7083,-3.860747 -1.55787,-0.914397 -3.28507,-1.371492 -5.1816,-1.371492 -1.9304,0 -3.69166,0.37218 -5.2834,1.117244 -1.46662,0.669557 -2.61775,1.534385 -3.45405,2.594157 V 29.511409 Z m 157.34853,1.437638 c 0.22973,5.428645 0.24488,10.915808 0.27595,16.379879 -2.06209,-3.649782 -5.52778,-6.458466 -9.49192,-7.798491 -1.8437,-0.596965 -4.07866,-0.842852 -5.7335,0.371554 -1.21633,0.83104 -1.35688,2.422781 -1.53841,3.75791 -0.40968,3.946544 -0.41369,7.922518 -0.47646,11.886096 0.0104,3.149964 -0.0855,6.326383 0.41186,9.447485 0.17007,1.241311 0.8536,2.436948 1.99885,3.01222 -3.3887,0.661716 -6.78153,1.931781 -9.32347,4.343404 -1.59866,1.536381 -2.87581,3.48366 -3.41632,5.647717 -0.22894,1.488197 -0.22163,3.021556 -0.0103,4.511353 0.4495,1.964524 1.66789,3.731161 3.24941,4.964038 0.0852,1.535654 0.15953,3.072246 0.26097,4.606954 0.15602,1.632196 0.15319,3.459723 1.25419,4.787821 -0.32593,0.28651 -0.86409,0.536149 -1.27434,0.803569 -3.58103,2.078906 -7.08024,4.304664 -10.7487,6.229074 -0.29495,0.10315 -0.83698,0.60353 -0.72967,0.0129 -0.16045,-6.754132 -0.1349,-13.511804 -0.16537,-20.267495 -0.008,-9.629236 -0.0368,-19.259596 0.0966,-28.888159 0.0617,-0.962153 -0.0784,-2.004231 0.3421,-2.898014 0.87188,-1.069905 2.13654,-1.717177 3.2675,-2.473751 5.11271,-3.116834 10.34416,-6.035742 15.51119,-9.060946 5.36613,-3.074693 10.66494,-6.266667 16.06362,-9.284188 l 10e-4,0.0016 z m -203.27183,0.746724 c -2.6416,0 -5.08012,0.474387 -7.31532,1.422653 -2.20131,0.948263 -4.11464,2.285997 -5.74021,4.013191 -1.6256,1.69333 -2.89571,3.708318 -3.81011,6.045109 -0.88053,2.302927 -1.32085,4.825856 -1.32085,7.569047 0,2.506127 0.42354,4.877034 1.27021,7.112228 0.88053,2.201327 2.11657,4.148693 3.7083,5.84202 1.59173,1.69333 3.52231,3.031062 5.79138,4.013192 2.30293,0.98213 4.87669,1.490071 7.72149,1.523938 1.65947,0 3.1833,-0.169315 4.57181,-0.507979 1.4224,-0.338667 2.65896,-0.762207 3.70882,-1.270207 1.04987,-0.507997 1.87914,-0.965095 2.48874,-1.371492 l -2.08256,-4.368726 c -0.94827,0.711197 -2.15075,1.354901 -3.60702,1.930631 -1.45624,0.575733 -3.11532,0.863514 -4.97799,0.863514 -2.06584,0 -3.92882,-0.355919 -5.58829,-1.067119 -1.65944,-0.711197 -3.08159,-1.69301 -4.26692,-2.946073 -1.15146,-1.253063 -2.04887,-2.726558 -2.69234,-4.419885 -0.6096,-1.727197 -0.91467,-3.589646 -0.91467,-5.587773 0,-1.964261 0.33864,-3.793157 1.01595,-5.486487 0.7112,-1.727194 1.67624,-3.234241 2.89544,-4.521171 1.21917,-1.28693 2.62506,-2.286036 4.21679,-2.997233 1.59173,-0.711197 3.28486,-1.066601 5.0798,-1.066601 1.76104,0 3.35304,0.304556 4.77541,0.914156 1.45627,0.609597 2.69231,1.2533 3.70831,1.930631 l 1.98127,-4.572331 c -1.28693,-0.812797 -2.82806,-1.506827 -4.62297,-2.08256 -1.79494,-0.609597 -3.79314,-0.914673 -5.99447,-0.914673 z m 119.38599,0.274919 c 2.31384,0.984458 4.55866,2.12083 6.81819,3.222026 8.73374,4.353245 17.43444,8.776673 26.09247,13.279292 1.9253,1.054173 3.92739,1.999303 5.71489,3.281454 0.11772,2.336503 0.14355,4.676305 0.19121,7.015075 0.18649,12.69844 0.26125,25.398689 0.22324,38.09845 -0.0372,3.171673 0.005,6.410093 -0.23151,9.531723 -0.39954,-0.17268 -0.79516,-0.35278 -1.18959,-0.53692 -6.17303,-2.88522 -12.18863,-6.033932 -18.24695,-9.117276 -5.94444,-3.069234 -11.91072,-6.100562 -17.78961,-9.294006 -1.11788,-0.53162 -1.30742,-1.872369 -1.50482,-2.958476 -0.16748,-2.980381 -0.14714,-5.968658 -0.19689,-8.952942 -0.0935,-12.960145 -0.11558,-25.921928 0.0186,-38.881864 0.0104,-1.0181 0.038,-2.134355 0.0512,-3.089218 0.0156,-0.532555 0.0329,-1.064763 0.0496,-1.597318 z m 9.60252,7.8481 c -1.55079,-0.05365 -3.07859,0.671599 -4.06745,1.857251 -1.01928,1.046099 -0.97272,2.591079 -1.02113,3.947562 -0.0946,5.230831 -0.0521,10.463686 -0.0351,15.695166 0.0602,2.894794 -0.0458,5.828771 0.56534,8.675957 0.5787,2.174498 1.60833,4.214563 2.81688,6.10402 2.08012,3.226073 5.13773,5.708492 8.49561,7.511686 1.33573,0.737587 2.95661,1.30605 4.45812,0.721403 0.58994,0.4096 1.30489,0.60189 2.01487,0.65164 2.85096,0.11304 5.77001,-0.966948 7.7649,-3.029789 1.82852,-1.791547 2.47252,-4.500304 2.12648,-6.98407 -0.35737,-2.950141 -2.35816,-5.546338 -4.97334,-6.891569 -4.05612,-2.161244 -8.72462,-2.602579 -12.97905,-4.224549 -0.21253,-3.221248 -0.12559,-6.455014 -0.15606,-9.681579 -0.031,-3.242688 0.0648,-6.491599 -0.15916,-9.728605 -0.11434,-2.485696 -2.37806,-4.597958 -4.85087,-4.624524 z m 62.47732,2.030884 h 5.2e-4 c 2.79799,0.04246 7.39121,3.112371 9.59115,6.696232 0.23412,0.397612 0.44992,0.805824 0.6475,1.223181 3.49672,7.706133 0.85765,19.758426 -5.25859,23.687443 -0.69256,0.444884 -1.09,0.871458 -1.16944,1.255737 -1.0785,5.209264 -4.57322,9.504607 -8.90385,10.943001 -1.3001,0.43187 -1.33116,0.553046 -1.33377,5.317505 -10e-5,0.14065 -0.003,0.210016 -0.003,0.339514 -0.026,0.74712 -0.0457,1.493541 -0.0486,2.240691 -0.0511,0.695078 -0.15132,0.92959 -0.35399,1.11311 -1.20456,1.090078 -1.91134,0.799529 -2.23966,-1.092957 -0.0284,-0.265488 -0.0544,-0.529844 -0.0956,-0.781864 -0.0401,-0.44935 -0.0699,-0.900209 -0.0982,-1.351339 -0.0182,-0.479508 -0.031,-0.992781 -0.031,-1.566829 0,-4.250066 -0.002,-4.276508 -0.49557,-4.402315 -1.51839,-0.38774 -2.77184,-2.297287 -3.06855,-4.291211 -0.0278,-0.5026 -0.0477,-1.008179 -0.03,-1.511536 0.0183,-0.15913 0.0464,-0.316172 0.0811,-0.470772 1.00444,-4.482024 4.84531,-7.520791 10.50788,-8.314222 4.07176,-0.570607 5.77918,-1.846377 7.67292,-5.731949 3.37111,-6.916558 2.27865,-12.680363 -2.40347,-12.680363 -0.55651,0 -0.77557,2.20834 -0.79272,7.943701 -0.0342,0.752562 -0.08,1.503967 -0.15761,2.253092 -0.34264,1.785976 -1.22312,2.985891 -2.15904,3.173967 -0.22347,0.01823 -0.45266,0.0024 -0.67438,-0.04599 -0.42903,-0.147159 -0.84401,-0.526095 -1.19631,-1.184424 -0.0104,-0.01823 -0.0183,-0.05303 -0.0269,-0.08061 -0.0516,-0.296478 -0.0754,-0.603027 -0.12247,-0.889869 -0.29223,-3.490145 -0.14576,-15.320361 0.21394,-19.621024 0.0708,-0.548107 0.16343,-1.092594 0.29352,-1.631425 0.40653,-0.379513 0.97713,-0.548756 1.65416,-0.538468 z m -62.66801,0.829406 h 0.001 c 0.48083,-0.01562 0.96826,0.09005 1.36736,0.329696 l 10e-4,0.001 c 0.30472,0.224774 0.5549,0.523074 0.7214,0.862997 0.2253,0.797336 0.22762,2.897767 0.22893,10.662398 0.002,8.950336 0.0527,10.719443 0.31936,11.041187 0.62827,0.757928 2.83013,1.639778 5.53816,2.219502 8.63296,1.848046 11.14632,3.30662 12.25248,7.111711 0.7833,2.694423 -0.79892,5.62323 -3.60598,6.673494 -1.13413,0.42437 -2.95124,0.68278 -3.71347,0.54622 -0.15575,-0.10106 -0.31792,-0.195912 -0.4873,-0.275952 -0.2417,-0.341737 -0.29799,-1.04311 -0.2341,-2.437577 0.0838,-1.831602 -0.0507,-2.012459 -1.264,-1.707906 -0.51302,0.128665 -0.53434,0.208761 -0.53434,2.01073 0,2.297614 -0.18797,2.443257 -1.96474,1.51567 -5.97002,-3.116937 -9.29824,-7.307835 -10.51718,-13.245704 -0.12293,-0.598502 -0.2093,-2.854997 -0.26665,-5.686474 -0.0539,-4.755705 -0.0475,-9.51244 -0.0181,-14.26838 0.0479,-2.337026 0.12444,-4.024901 0.23513,-4.267956 0.30861,-0.677346 1.11562,-1.059269 1.94096,-1.084689 z m -171.26655,3.139344 v 1.981274 c 0,1.28693 0.3727,2.251966 1.11777,2.89543 0.74504,0.643466 1.64247,0.965316 2.69234,0.965316 h 7.31118 l -11.93416,17.170528 h 19.4567 v -3.911906 h -11.74037 l 11.89281,-17.119368 h -13.46222 c -0.6096,0 -1.04992,-0.08492 -1.32085,-0.254248 -0.27094,-0.169333 -0.40618,-0.524736 -0.40618,-1.066602 v -0.660424 z m 128.3715,1.117761 c -2.16747,0 -4.1316,0.507941 -5.89267,1.523938 -1.76104,1.015997 -3.16693,2.370507 -4.21679,4.063834 -1.04987,1.69333 -1.57458,3.573072 -1.57458,5.638933 0,2.167458 0.45709,4.097531 1.37149,5.790861 0.94826,1.659461 2.28599,2.980418 4.01319,3.962548 1.7272,0.948266 3.79304,1.422653 6.19755,1.422653 1.25307,0 2.52318,-0.220161 3.81011,-0.660425 1.3208,-0.440266 2.50599,-1.016346 3.55585,-1.727543 l -2.18436,-3.505213 c -0.74507,0.541866 -1.55756,0.982184 -2.43809,1.32085 -0.84667,0.338666 -1.7273,0.507979 -2.6417,0.507979 -1.35467,0 -2.57393,-0.304556 -3.65766,-0.914156 -0.99288,-0.608536 -1.78886,-1.414085 -2.38797,-2.41639 l 16.66255,-5.864241 c -0.64347,-2.844791 -1.8795,-5.07994 -3.7083,-6.705534 -1.8288,-1.625597 -4.13158,-2.438094 -6.90862,-2.438094 z m -67.71628,0.863513 v 15.544788 c 0.0677,1.86266 0.71091,3.386485 1.93011,4.571813 1.25307,1.151464 2.82825,1.727027 4.72478,1.727027 1.3208,0 2.54006,-0.220159 3.65766,-0.660425 1.11757,-0.440266 2.08263,-1.032605 2.89543,-1.777669 0.7458,-0.686137 1.32025,-1.451146 1.72444,-2.294951 l 0.30747,3.920691 h 4.31809 V 47.799698 h -4.72426 v 9.804053 c 0,1.523994 -0.2883,2.895797 -0.86403,4.114994 -0.57574,1.18533 -1.33739,2.133588 -2.28565,2.844788 -0.9144,0.67733 -1.96435,1.015958 -3.14968,1.015958 -1.28693,-0.03387 -2.23519,-0.406564 -2.84479,-1.117761 -0.57573,-0.711197 -0.89758,-1.642164 -0.96531,-2.793628 V 47.799698 Z m 39.57329,2.89543 c 1.35467,0 2.55663,0.321852 3.6065,0.965316 1.08373,0.643466 1.9303,1.524105 2.5399,2.641699 0.64346,1.083731 0.96531,2.302478 0.96531,3.657142 0,1.422394 -0.30455,2.692506 -0.91415,3.810103 -0.6096,1.08373 -1.45617,1.947592 -2.5399,2.591056 -1.08373,0.643466 -2.30299,0.965316 -3.65766,0.965316 -1.2192,0 -2.31999,-0.220159 -3.30212,-0.660425 -0.98213,-0.474131 -1.79515,-1.101058 -2.43861,-1.879988 -0.64347,-0.8128 -1.10056,-1.726991 -1.3715,-2.742985 v -4.216281 c 0.27094,-1.015997 0.74532,-1.896635 1.42266,-2.641699 0.67733,-0.77893 1.5066,-1.388563 2.48873,-1.828829 0.98214,-0.440264 2.04938,-0.660425 3.20084,-0.660425 z m 27.78745,0 c 1.524,0 2.76004,0.423543 3.7083,1.270207 0.87548,0.750404 1.5191,1.630978 1.9327,2.641183 l -12.27573,4.472078 c -0.0467,-0.377182 -0.0708,-0.766821 -0.0708,-1.169954 0,-1.38853 0.28778,-2.624571 0.86351,-3.708301 0.57574,-1.08373 1.37145,-1.930297 2.38745,-2.539897 1.016,-0.643464 2.16764,-0.965316 3.45457,-0.965316 z m 117.90082,18.672246 c -0.026,2.107402 -0.0463,4.21485 -0.0822,6.322094 -0.013,1.215578 -0.0504,2.523139 -0.0739,3.679879 -0.0209,0.60109 -0.0448,1.32471 -0.0656,1.8495 -0.0346,0.638667 -0.0493,1.181892 -0.14677,1.849499 -0.70365,0.69701 -1.52466,1.262534 -2.34197,1.816944 -4.27846,2.729321 -8.63442,5.336397 -12.98164,7.954553 0.0302,-1.312808 0.063,-2.627745 0.13591,-3.962549 -0.0594,-0.43634 0.0915,-0.781196 0.52503,-0.928626 1.63434,-0.806337 3.19746,-1.787658 4.48035,-3.095935 2.23973,-2.162331 3.6699,-4.988953 4.76612,-7.865669 0.15444,-0.521488 0.30273,-1.068466 0.78755,-1.389063 2.09495,-1.549404 3.70825,-3.667383 4.87515,-5.98258 0.0405,-0.08273 0.0812,-0.165309 0.12196,-0.248047 z" /><path
       id="circle6017"
       style="fill:none;fill-opacity:1;stroke:#000000;stroke-width:1;stroke-linecap:round;stroke-linejoin:round;stroke-dasharray:none;stroke-opacity:1"
       inkscape:label="led"
       d="m 345.00016,142.00015 c -2.7616,-1.2e-4 -5.00032,2.23862 -5.00022,5.00021 2e-4,2.76139 2.23882,4.99981 5.00022,4.9997 2.76118,-1.7e-4 4.99949,-2.23851 4.99969,-4.9997 1e-4,-2.76139 -2.23831,-5.00004 -4.99969,-5.00021 z m 129.99981,0 c -2.7616,-1.2e-4 -5.00031,2.23862 -5.00021,5.00021 2e-4,2.76139 2.23881,4.99981 5.00021,4.9997 2.7612,-1.7e-4 5.00001,-2.23851 5.00021,-4.9997 10e-5,-2.76139 -2.23881,-5.00004 -5.00021,-5.00021 z m 130.00034,0 c -2.7616,-1.2e-4 -5.00032,2.23862 -5.00022,5.00021 2e-4,2.76139 2.23882,4.99981 5.00022,4.9997 2.76118,-1.7e-4 4.99949,-2.23851 4.99969,-4.9997 10e-5,-2.76139 -2.23831,-5.00004 -4.99969,-5.00021 z m -259.89784,1.0573 c 1.1909,0.0353 2.35568,0.64967 3.06648,1.60507 1.4609,1.8246 0.71133,4.77117 -1.33997,5.8136 -2.04588,1.17488 -4.90353,-0.034 -5.56813,-2.27325 -0.8111,-2.27057 0.95773,-4.93715 3.34863,-5.1263 0.085,-0.009 0.16945,-0.0155 0.25425,-0.0186 0.079,-0.003 0.15934,-0.003 0.23874,-5.2e-4 z m 130.00034,0 c 1.1909,0.0353 2.35568,0.64967 3.06648,1.60507 1.4609,1.8246 0.71133,4.77117 -1.33997,5.8136 -2.0459,1.17488 -4.90407,-0.034 -5.56865,-2.27325 -0.8111,-2.27057 0.95826,-4.93715 3.34914,-5.1263 0.085,-0.009 0.16894,-0.0155 0.25374,-0.0186 0.079,-0.003 0.15986,-0.003 0.23926,-5.2e-4 z m 129.99981,0 c 1.1909,0.0353 2.3557,0.64967 3.06648,1.60507 1.4609,1.8246 0.71133,4.77117 -1.33997,5.8136 -2.04588,1.17488 -4.90353,-0.034 -5.56813,-2.27325 -0.8111,-2.27057 0.95773,-4.93715 3.34863,-5.1263 0.085,-0.009 0.16945,-0.0155 0.25425,-0.0186 0.079,-0.003 0.15936,-0.003 0.23874,-5.2e-4 z m -260.10246,32.27607 c -2.7616,-1.2e-4 -5.00032,2.23862 -5.00022,5.00021 2e-4,2.76136 2.23882,4.99981 5.00022,4.99969 2.76118,-1.7e-4 4.99949,-2.23853 4.99969,-4.99969 1e-4,-2.76139 -2.23831,-5.00005 -4.99969,-5.00021 z m 129.99981,0 c -2.7616,-1.2e-4 -5.00031,2.23862 -5.00021,5.00021 2e-4,2.76136 2.23881,4.99981 5.00021,4.99969 2.7612,-1.7e-4 5.00001,-2.23853 5.00021,-4.99969 10e-5,-2.76139 -2.23881,-5.00005 -5.00021,-5.00021 z m 130.00034,0 c -2.7616,-1.2e-4 -5.00032,2.23862 -5.00022,5.00021 2e-4,2.76136 2.23882,4.99981 5.00022,4.99969 2.76118,-1.7e-4 4.99949,-2.23853 4.99969,-4.99969 10e-5,-2.76139 -2.23831,-5.00005 -4.99969,-5.00021 z m -259.87768,1.05885 c 1.1683,0.0392 2.3057,0.63326 3.01428,1.56321 1.5044,1.81652 0.75861,4.79613 -1.30017,5.85029 -2.0464,1.17951 -4.90849,-0.0262 -5.57589,-2.26912 -0.8127,-2.27469 0.9636,-4.94535 3.36,-5.1263 0.167,-0.0177 0.33488,-0.0237 0.50178,-0.0181 z m 129.99982,0 c 1.16828,0.0392 2.3062,0.63326 3.0148,1.56321 1.5044,1.81652 0.7581,4.79613 -1.3007,5.85029 -2.0464,1.17951 -4.9085,-0.0262 -5.57588,-2.26912 -0.8127,-2.27469 0.9636,-4.94535 3.36,-5.1263 0.167,-0.0177 0.33488,-0.0237 0.50178,-0.0181 z m 130.00033,0 c 1.1683,0.0392 2.30569,0.63326 3.01429,1.56321 1.50438,1.81652 0.7586,4.79613 -1.30018,5.85029 -2.0464,1.17951 -4.90849,-0.0262 -5.57589,-2.26912 -0.8127,-2.27469 0.9636,-4.94535 3.36,-5.1263 0.167,-0.0177 0.33488,-0.0237 0.50178,-0.0181 z m -260.12262,32.27451 c -2.7614,-1.1e-4 -5.00002,2.23831 -5.00022,4.9997 -10e-5,2.76157 2.23862,5.00033 5.00022,5.00021 2.76138,-1.7e-4 4.99979,-2.23885 4.99969,-5.00021 -2e-4,-2.76119 -2.23851,-4.99953 -4.99969,-4.9997 z m 129.99981,0 c -2.7614,-1.1e-4 -5.00001,2.23831 -5.00021,4.9997 -10e-5,2.76157 2.23861,5.00033 5.00021,5.00021 2.7614,-1.7e-4 5.00031,-2.23885 5.00021,-5.00021 -2e-4,-2.76119 -2.23901,-4.99953 -5.00021,-4.9997 z m 130.00034,0 c -2.7614,-1.1e-4 -5.00002,2.23831 -5.00022,4.9997 -10e-5,2.76157 2.23862,5.00033 5.00022,5.00021 2.76138,-1.7e-4 4.99979,-2.23885 4.99969,-5.00021 -2e-4,-2.76119 -2.23851,-4.99953 -4.99969,-4.9997 z m -260.11953,1.06764 c 1.4273,-0.0316 2.84676,0.7649 3.54656,2.01331 1.04838,1.74867 0.40216,4.17581 -1.31104,5.24464 -1.98988,1.3728 -5.00251,0.30006 -5.80171,-1.94717 -0.9311,-2.28672 0.82194,-5.10941 3.28094,-5.29321 0.095,-0.01 0.19005,-0.0155 0.28525,-0.0176 z m 130.00034,0 c 1.42728,-0.0316 2.84623,0.7649 3.54603,2.01331 1.0484,1.74867 0.40269,4.17581 -1.31051,5.24464 -1.9899,1.3728 -5.00253,0.30006 -5.80171,-1.94717 -0.9311,-2.28672 0.82142,-5.10941 3.28042,-5.29321 0.095,-0.01 0.19057,-0.0155 0.28577,-0.0176 z m 129.99981,0 c 1.4273,-0.0316 2.84676,0.7649 3.54656,2.01331 1.0484,1.74867 0.40215,4.17581 -1.31103,5.24464 -1.9899,1.3728 -5.00252,0.30006 -5.80172,-1.94717 -0.9311,-2.28672 0.82194,-5.10941 3.28094,-5.29321 0.095,-0.01 0.19005,-0.0155 0.28525,-0.0176 z m -259.88077,32.26573 c -0.9889,-1.5e-4 -1.95573,0.29298 -2.77813,0.84232 -0.8221,0.54942 -1.46293,1.33025 -1.84123,2.24379 v 5.2e-4 c -0.1254,0.3024 -0.22074,0.61637 -0.28474,0.93741 v 5.2e-4 c -0.064,0.32111 -0.0961,0.64772 -0.0961,0.97513 0,1.66991 0.83359,3.2296 2.22209,4.15737 h 5.2e-4 c 0.5458,0.36479 1.15805,0.61853 1.80195,0.74673 h 5.2e-4 c 0.3211,0.0639 0.64774,0.0961 0.97514,0.0961 0.31748,-9.1e-4 0.63417,-0.032 0.94567,-0.093 0.017,-0.003 0.0331,-0.006 0.0501,-0.009 0.3035,-0.0622 0.60058,-0.15254 0.88728,-0.26975 0.02,-0.008 0.04,-0.0164 0.061,-0.0248 0.2856,-0.12023 0.55954,-0.26676 0.81804,-0.4377 0.012,-0.009 0.0252,-0.0172 0.0372,-0.0258 0.5282,-0.35711 0.98318,-0.81193 1.34048,-1.33997 0.01,-0.0134 0.0189,-0.0268 0.0279,-0.0403 0.1703,-0.25776 0.31625,-0.53074 0.43615,-0.81545 0.01,-0.0215 0.0179,-0.043 0.0269,-0.0646 0.1165,-0.28632 0.2063,-0.58283 0.2682,-0.88573 0,-0.0155 0.0103,-0.031 0.0103,-0.0465 0.061,-0.31205 0.092,-0.62923 0.093,-0.94723 v -5.1e-4 -5.2e-4 c 0,-0.31783 -0.032,-0.63483 -0.093,-0.94671 0,-0.0155 -0.0103,-0.031 -0.0103,-0.0465 -0.062,-0.30309 -0.15192,-0.59978 -0.26872,-0.88625 -0.01,-0.0211 -0.0168,-0.0416 -0.0258,-0.0625 -0.1201,-0.28528 -0.26649,-0.55879 -0.43719,-0.81701 -0.01,-0.013 -0.0184,-0.0264 -0.0274,-0.0393 -0.3573,-0.52846 -0.8125,-0.98364 -1.341,-1.341 -0.012,-0.009 -0.0247,-0.0173 -0.0367,-0.0258 -0.2593,-0.17144 -0.53402,-0.31831 -0.82062,-0.43873 -0.019,-0.008 -0.0368,-0.0156 -0.0558,-0.0233 -0.2876,-0.11754 -0.58599,-0.20802 -0.89039,-0.27027 -0.015,-0.003 -0.031,-0.006 -0.046,-0.008 -0.3122,-0.0613 -0.62954,-0.0926 -0.94774,-0.0935 z m 129.99981,0 c -0.9889,-1.5e-4 -1.95572,0.29298 -2.77812,0.84232 -0.8221,0.54942 -1.46242,1.33025 -1.84072,2.24379 v 5.2e-4 c -0.1254,0.3024 -0.22125,0.61637 -0.28525,0.93741 v 5.2e-4 c -0.064,0.32111 -0.0956,0.64772 -0.0956,0.97513 0,1.66991 0.8336,3.2296 2.22208,4.15737 h 5.2e-4 c 0.5458,0.36479 1.15806,0.61853 1.80196,0.74673 h 5.1e-4 c 0.3211,0.0639 0.64774,0.0961 0.97514,0.0961 0.3175,-9.1e-4 0.63418,-0.032 0.94568,-0.093 0.017,-0.003 0.0326,-0.006 0.0496,-0.009 0.3035,-0.0622 0.60058,-0.15254 0.88728,-0.26975 0.02,-0.008 0.0405,-0.0164 0.0615,-0.0248 0.2856,-0.12023 0.55902,-0.26676 0.81752,-0.4377 0.012,-0.009 0.0252,-0.0172 0.0372,-0.0258 0.5282,-0.35711 0.98319,-0.81193 1.34049,-1.33997 0.01,-0.0134 0.0189,-0.0268 0.0279,-0.0403 0.1703,-0.25776 0.31625,-0.53074 0.43615,-0.81545 0.01,-0.0215 0.0184,-0.043 0.0274,-0.0646 0.1165,-0.28632 0.2063,-0.58283 0.2682,-0.88573 0,-0.0155 0.01,-0.031 0.01,-0.0465 0.061,-0.31205 0.092,-0.62923 0.093,-0.94723 v -5.1e-4 -5.2e-4 c 0,-0.31783 -0.032,-0.63483 -0.093,-0.94671 0,-0.0155 -0.01,-0.031 -0.01,-0.0465 -0.062,-0.30309 -0.15243,-0.59978 -0.26923,-0.88625 -0.01,-0.0211 -0.0168,-0.0416 -0.0258,-0.0625 -0.1201,-0.28528 -0.26648,-0.55879 -0.43718,-0.81701 -0.01,-0.013 -0.0179,-0.0264 -0.0269,-0.0393 -0.3573,-0.52846 -0.81251,-0.98364 -1.34101,-1.341 -0.012,-0.009 -0.0252,-0.0173 -0.0372,-0.0258 -0.2593,-0.17144 -0.53402,-0.31831 -0.82062,-0.43873 -0.019,-0.008 -0.0368,-0.0156 -0.0558,-0.0233 -0.28758,-0.11754 -0.58546,-0.20802 -0.88986,-0.27027 -0.015,-0.003 -0.031,-0.006 -0.046,-0.008 -0.31218,-0.0613 -0.62954,-0.0926 -0.94774,-0.0935 z m 130.00034,0 c -0.9889,-1.5e-4 -1.95573,0.29298 -2.77813,0.84232 -0.8221,0.54942 -1.46293,1.33025 -1.84123,2.24379 v 5.2e-4 c -0.1254,0.3024 -0.22074,0.61637 -0.28474,0.93741 v 5.2e-4 c -0.064,0.32111 -0.0961,0.64772 -0.0961,0.97513 0,1.66991 0.83359,3.2296 2.22209,4.15737 h 5.2e-4 c 0.5458,0.36479 1.15807,0.61853 1.80195,0.74673 h 5.2e-4 c 0.3211,0.0639 0.64774,0.0961 0.97514,0.0961 0.3175,-9.1e-4 0.63417,-0.032 0.94567,-0.093 0.017,-0.003 0.0331,-0.006 0.0501,-0.009 0.3035,-0.0622 0.6006,-0.15254 0.88728,-0.26975 0.02,-0.008 0.04,-0.0164 0.061,-0.0248 0.2856,-0.12023 0.55954,-0.26676 0.81804,-0.4377 0.012,-0.009 0.0247,-0.0172 0.0367,-0.0258 0.5282,-0.35711 0.98319,-0.81193 1.34049,-1.33997 0.01,-0.0134 0.0194,-0.0268 0.0284,-0.0403 0.1703,-0.25776 0.31625,-0.53074 0.43615,-0.81545 0.01,-0.0215 0.0179,-0.043 0.0269,-0.0646 0.1165,-0.28632 0.2063,-0.58283 0.2682,-0.88573 0,-0.0155 0.01,-0.031 0.01,-0.0465 0.061,-0.31205 0.092,-0.62923 0.093,-0.94723 v -5.1e-4 -5.2e-4 c 0,-0.31783 -0.032,-0.63483 -0.093,-0.94671 0,-0.0155 -0.01,-0.031 -0.01,-0.0465 -0.062,-0.30309 -0.15192,-0.59978 -0.26872,-0.88625 -0.01,-0.0211 -0.0173,-0.0416 -0.0263,-0.0625 -0.1201,-0.28528 -0.26648,-0.55879 -0.43718,-0.81701 -0.01,-0.013 -0.0179,-0.0264 -0.0269,-0.0393 -0.3573,-0.52846 -0.8125,-0.98364 -1.341,-1.341 -0.012,-0.009 -0.0247,-0.0173 -0.0367,-0.0258 -0.2593,-0.17144 -0.53402,-0.31831 -0.82062,-0.43873 -0.019,-0.008 -0.0373,-0.0156 -0.0563,-0.0233 -0.2876,-0.11754 -0.58547,-0.20802 -0.88987,-0.27027 -0.015,-0.003 -0.031,-0.006 -0.046,-0.008 -0.3122,-0.0613 -0.62954,-0.0926 -0.94774,-0.0935 z m -259.96708,1.06867 c 1.276,0.008 2.51036,0.70387 3.22926,1.75234 0.3942,0.5424 0.60542,1.17253 0.65732,1.81643 0.1037,1.52488 -0.68871,3.12627 -2.09031,3.83853 -0.5115,0.29372 -1.07369,0.43837 -1.63969,0.45527 0,4e-5 1.8e-4,-5e-5 -0.01,0 -0.1295,0.004 -0.25889,-9.2e-4 -0.38809,-0.0103 -0.034,-0.003 -0.068,-0.007 -0.10232,-0.0103 -0.102,-0.0101 -0.20389,-0.0228 -0.30489,-0.0408 -0.054,-0.01 -0.10785,-0.0231 -0.16175,-0.0351 -0.083,-0.0183 -0.16646,-0.037 -0.24856,-0.0605 -0.065,-0.0188 -0.12939,-0.0416 -0.19379,-0.0636 -0.07,-0.0236 -0.13944,-0.0462 -0.20774,-0.0734 -0.069,-0.0276 -0.13642,-0.0598 -0.20412,-0.0909 -0.065,-0.0302 -0.13112,-0.0591 -0.19482,-0.0925 -0.056,-0.0292 -0.109,-0.0624 -0.1633,-0.0941 -0.074,-0.0429 -0.14779,-0.085 -0.21859,-0.13229 -0.038,-0.0253 -0.073,-0.0541 -0.11059,-0.0806 -0.081,-0.0584 -0.16288,-0.11671 -0.23978,-0.18087 -0.021,-0.0178 -0.041,-0.0376 -0.062,-0.0558 -0.5181,-0.45105 -0.92109,-1.03105 -1.12189,-1.70739 -0.1471,-0.41193 -0.20686,-0.83699 -0.19586,-1.2578 4e-4,-0.0155 -4.3e-4,-0.031 -10e-4,-0.0465 0,-0.11108 0.018,-0.22115 0.032,-0.33125 0,-0.0361 0.0104,-0.0726 0.0124,-0.10852 0.015,-0.0937 0.0379,-0.18609 0.0589,-0.27854 0.012,-0.0518 0.0217,-0.10422 0.0357,-0.15554 0.022,-0.0785 0.05,-0.15494 0.077,-0.23203 0.022,-0.063 0.0411,-0.1267 0.0661,-0.18862 0.027,-0.0674 0.0589,-0.1325 0.0899,-0.19844 0.032,-0.0691 0.0622,-0.13888 0.0982,-0.20618 0.029,-0.054 0.062,-0.10544 0.093,-0.15813 0.045,-0.0771 0.0901,-0.15478 0.14056,-0.22893 0.028,-0.0416 0.0589,-0.0809 0.0889,-0.12144 0.057,-0.0785 0.11475,-0.15667 0.17725,-0.23099 0.034,-0.0402 0.07,-0.0779 0.10542,-0.11679 0.064,-0.0709 0.12902,-0.14147 0.19792,-0.20774 0.035,-0.0342 0.073,-0.0658 0.11007,-0.0987 0.073,-0.0658 0.14782,-0.13047 0.22582,-0.19069 0.037,-0.0283 0.0751,-0.0541 0.11266,-0.0811 0.083,-0.0593 0.16621,-0.11743 0.25321,-0.17002 0.038,-0.023 0.0771,-0.0434 0.11628,-0.0651 0.09,-0.0503 0.18175,-0.0984 0.27595,-0.14108 0.036,-0.0163 0.073,-0.0303 0.10904,-0.0455 0.1049,-0.0434 0.21087,-0.084 0.31987,-0.11731 0.054,-0.0168 0.10945,-0.0318 0.16485,-0.046 0.092,-0.0231 0.18434,-0.0439 0.27854,-0.0594 0.022,-0.004 0.0431,-0.006 0.0651,-0.009 0.134,-0.0194 0.26983,-0.0321 0.40773,-0.0351 0.085,-0.006 0.17018,-0.008 0.25528,-0.007 z m 129.99981,0 c 1.276,0.008 2.51037,0.70387 3.22927,1.75234 0.39418,0.5424 0.60542,1.17253 0.65732,1.81643 0.1037,1.52488 -0.68871,3.12627 -2.09031,3.83853 -0.5115,0.29372 -1.0737,0.43837 -1.6397,0.45527 0,4e-5 1.9e-4,-5e-5 -0.01,0 -0.1295,0.004 -0.25889,-9.2e-4 -0.38809,-0.0103 -0.034,-0.003 -0.068,-0.007 -0.10232,-0.0103 -0.102,-0.0101 -0.20389,-0.0228 -0.30489,-0.0408 -0.054,-0.01 -0.10785,-0.0231 -0.16175,-0.0351 -0.083,-0.0183 -0.16647,-0.037 -0.24857,-0.0605 -0.065,-0.0188 -0.12938,-0.0416 -0.19378,-0.0636 -0.07,-0.0236 -0.13944,-0.0462 -0.20774,-0.0734 -0.069,-0.0276 -0.13642,-0.0598 -0.20412,-0.0909 -0.065,-0.0302 -0.13112,-0.0591 -0.19482,-0.0925 -0.056,-0.0292 -0.109,-0.0624 -0.1633,-0.0941 -0.074,-0.0429 -0.14779,-0.085 -0.21859,-0.13229 -0.038,-0.0253 -0.073,-0.0541 -0.11059,-0.0806 -0.081,-0.0584 -0.16288,-0.11671 -0.23978,-0.18087 -0.021,-0.0178 -0.041,-0.0376 -0.062,-0.0558 -0.5181,-0.45105 -0.9211,-1.03105 -1.1219,-1.70739 -0.1471,-0.41193 -0.20685,-0.83699 -0.19585,-1.2578 4e-4,-0.0155 8e-5,-0.031 -5.2e-4,-0.0465 0,-0.11108 0.018,-0.22115 0.032,-0.33125 0,-0.0361 0.01,-0.0726 0.0119,-0.10852 0.015,-0.0937 0.0379,-0.18609 0.0589,-0.27854 0.012,-0.0518 0.0222,-0.10422 0.0362,-0.15554 0.022,-0.0785 0.05,-0.15494 0.077,-0.23203 0.022,-0.063 0.0412,-0.1267 0.0661,-0.18862 0.027,-0.0674 0.0589,-0.1325 0.0899,-0.19844 0.032,-0.0691 0.0617,-0.13888 0.0977,-0.20618 0.029,-0.054 0.062,-0.10544 0.093,-0.15813 0.045,-0.0771 0.0901,-0.15478 0.14056,-0.22893 0.028,-0.0416 0.0589,-0.0809 0.0889,-0.12144 0.057,-0.0785 0.11475,-0.15667 0.17725,-0.23099 0.034,-0.0402 0.07,-0.0779 0.10542,-0.11679 0.064,-0.0709 0.12902,-0.14147 0.19792,-0.20774 0.035,-0.0342 0.073,-0.0658 0.11008,-0.0987 0.073,-0.0658 0.14782,-0.13047 0.22582,-0.19069 0.037,-0.0283 0.0751,-0.0541 0.11266,-0.0811 0.083,-0.0593 0.16621,-0.11743 0.25321,-0.17002 0.038,-0.023 0.0771,-0.0434 0.11627,-0.0651 0.09,-0.0503 0.18175,-0.0984 0.27595,-0.14108 0.036,-0.0163 0.073,-0.0303 0.10904,-0.0455 0.1049,-0.0434 0.21088,-0.084 0.31988,-0.11731 0.054,-0.0168 0.10996,-0.0318 0.16536,-0.046 0.092,-0.0231 0.18382,-0.0439 0.27802,-0.0594 0.022,-0.004 0.0431,-0.006 0.0651,-0.009 0.134,-0.0194 0.26982,-0.0321 0.40772,-0.0351 0.085,-0.006 0.17018,-0.008 0.25528,-0.007 z m 130.00034,0 c 1.276,0.008 2.51036,0.70387 3.22926,1.75234 0.3942,0.5424 0.60542,1.17253 0.65732,1.81643 0.1037,1.52488 -0.68871,3.12627 -2.09031,3.83853 -0.5115,0.29372 -1.07369,0.43837 -1.63969,0.45527 0,4e-5 -3.4e-4,-5e-5 -0.0103,0 -0.1295,0.004 -0.25889,-9.2e-4 -0.38809,-0.0103 -0.034,-0.003 -0.068,-0.007 -0.10232,-0.0103 -0.102,-0.0101 -0.20389,-0.0228 -0.30489,-0.0408 -0.054,-0.01 -0.10784,-0.0231 -0.16174,-0.0351 -0.083,-0.0183 -0.16647,-0.037 -0.24857,-0.0605 -0.065,-0.0188 -0.1294,-0.0416 -0.19378,-0.0636 -0.07,-0.0236 -0.13944,-0.0462 -0.20774,-0.0734 -0.069,-0.0276 -0.13643,-0.0598 -0.20413,-0.0909 -0.065,-0.0302 -0.13112,-0.0591 -0.19482,-0.0925 -0.056,-0.0292 -0.10899,-0.0624 -0.16329,-0.0941 -0.074,-0.0429 -0.1478,-0.085 -0.2186,-0.13229 -0.038,-0.0253 -0.073,-0.0541 -0.11058,-0.0806 -0.081,-0.0584 -0.16288,-0.11671 -0.23978,-0.18087 -0.021,-0.0178 -0.041,-0.0376 -0.062,-0.0558 -0.5181,-0.45105 -0.9211,-1.03105 -1.1219,-1.70739 -0.1471,-0.41193 -0.20685,-0.83699 -0.19585,-1.2578 4e-4,-0.0155 8e-5,-0.031 -5.2e-4,-0.0465 0,-0.11108 0.018,-0.22115 0.032,-0.33125 0,-0.0361 0.01,-0.0726 0.0119,-0.10852 0.015,-0.0937 0.0379,-0.18609 0.0589,-0.27854 0.012,-0.0518 0.0222,-0.10422 0.0362,-0.15554 0.022,-0.0785 0.05,-0.15494 0.077,-0.23203 0.022,-0.063 0.0411,-0.1267 0.0661,-0.18862 0.027,-0.0674 0.0589,-0.1325 0.0899,-0.19844 0.032,-0.0691 0.0622,-0.13888 0.0982,-0.20618 0.029,-0.054 0.062,-0.10544 0.093,-0.15813 0.045,-0.0771 0.0901,-0.15478 0.14056,-0.22893 0.028,-0.0416 0.0589,-0.0809 0.0889,-0.12144 0.057,-0.0785 0.11475,-0.15667 0.17725,-0.23099 0.034,-0.0402 0.07,-0.0779 0.10542,-0.11679 0.064,-0.0709 0.12902,-0.14147 0.19792,-0.20774 0.035,-0.0342 0.073,-0.0658 0.11007,-0.0987 0.073,-0.0658 0.14783,-0.13047 0.22583,-0.19069 0.037,-0.0283 0.0751,-0.0541 0.11265,-0.0811 0.083,-0.0593 0.16621,-0.11743 0.25321,-0.17002 0.038,-0.023 0.0771,-0.0434 0.11628,-0.0651 0.09,-0.0503 0.18175,-0.0984 0.27595,-0.14108 0.036,-0.0163 0.073,-0.0303 0.10904,-0.0455 0.1049,-0.0434 0.21087,-0.084 0.31987,-0.11731 0.054,-0.0168 0.10945,-0.0318 0.16485,-0.046 0.092,-0.0231 0.18434,-0.0439 0.27854,-0.0594 0.022,-0.004 0.0431,-0.006 0.0651,-0.009 0.134,-0.0194 0.26983,-0.0321 0.40773,-0.0351 0.085,-0.006 0.17018,-0.008 0.25528,-0.007 z m -260.03322,32.26469 c -2.7616,-1.2e-4 -5.00032,2.23864 -5.00022,5.00021 2e-4,2.76139 2.23882,4.99982 5.00022,4.9997 2.76118,-1.7e-4 4.99949,-2.23852 4.99969,-4.9997 1e-4,-2.76137 -2.23831,-5.00004 -4.99969,-5.00021 z m 129.99981,0 c -2.7616,-1.2e-4 -5.00031,2.23864 -5.00021,5.00021 2e-4,2.76139 2.23881,4.99982 5.00021,4.9997 2.7612,-1.7e-4 5.00001,-2.23852 5.00021,-4.9997 10e-5,-2.76137 -2.23881,-5.00004 -5.00021,-5.00021 z m 130.00034,0 c -2.7616,-1.2e-4 -5.00032,2.23864 -5.00022,5.00021 2e-4,2.76139 2.23882,4.99982 5.00022,4.9997 2.76118,-1.7e-4 4.99949,-2.23852 4.99969,-4.9997 10e-5,-2.76137 -2.23831,-5.00004 -4.99969,-5.00021 z M 344.872,276.39246 c 0.084,-0.003 0.16723,-0.003 0.25063,0 1.1683,0.0392 2.3057,0.63327 3.01428,1.56322 1.5044,1.81649 0.75861,4.79615 -1.30017,5.85028 -2.0464,1.17951 -4.90849,-0.0262 -5.57589,-2.26911 -0.8127,-2.27471 0.9636,-4.94535 3.36,-5.1263 0.084,-0.009 0.16745,-0.0151 0.25115,-0.0181 z m 130.00033,0 c 0.084,-0.003 0.16672,-0.003 0.25012,0 1.16828,0.0392 2.3062,0.63327 3.0148,1.56322 1.5044,1.81649 0.7581,4.79615 -1.3007,5.85028 -2.0464,1.17951 -4.9085,-0.0262 -5.57588,-2.26911 -0.8127,-2.27471 0.9636,-4.94535 3.36,-5.1263 0.084,-0.009 0.16796,-0.0151 0.25166,-0.0181 z m 129.99982,0 c 0.084,-0.003 0.16723,-0.003 0.25063,0 1.1683,0.0392 2.30569,0.63327 3.01429,1.56322 1.50438,1.81649 0.7586,4.79615 -1.30018,5.85028 -2.0464,1.17951 -4.90849,-0.0262 -5.57589,-2.26911 -0.8127,-2.27471 0.9636,-4.94535 3.36,-5.1263 0.084,-0.009 0.16745,-0.0151 0.25115,-0.0181 z" /><rect
       style="display:inline;fill:none;fill-opacity:1;stroke:#000400;stroke-width:0.847807;stroke-linecap:round;stroke-linejoin:miter;stroke-dasharray:none;stroke-opacity:1"
       id="rect3455"
       width="394.15219"
       height="326.15219"
       x="315.42413"
       y="-20.576401"
       inkscape:label="cut2" /></g></svg>
