<?xml version="1.0" encoding="UTF-8" standalone="no"?>
<!-- Created with Inkscape (http://www.inkscape.org/) -->

<svg
   width="395mm"
   height="327mm"
   viewBox="0 0 395 327"
   version="1.1"
   id="svg5"
   xml:space="preserve"
   inkscape:version="1.2.1 (9c6d41e, 2022-07-14)"
   sodipodi:docname="QuizCube Board v1_cutter_4_V3.svg"
   inkscape:export-filename="QuizCube Board v1_cutter.png"
   inkscape:export-xdpi="96"
   inkscape:export-ydpi="96"
   xmlns:inkscape="http://www.inkscape.org/namespaces/inkscape"
   xmlns:sodipodi="http://sodipodi.sourceforge.net/DTD/sodipodi-0.dtd"
   xmlns="http://www.w3.org/2000/svg"
   xmlns:svg="http://www.w3.org/2000/svg"><sodipodi:namedview
     id="namedview7"
     pagecolor="#505050"
     bordercolor="#eeeeee"
     borderopacity="1"
     inkscape:showpageshadow="0"
     inkscape:pageopacity="0"
     inkscape:pagecheckerboard="0"
     inkscape:deskcolor="#505050"
     inkscape:document-units="mm"
     showgrid="false"
     inkscape:zoom="0.6391827"
     inkscape:cx="731.40277"
     inkscape:cy="676.64535"
     inkscape:window-width="1800"
     inkscape:window-height="1097"
     inkscape:window-x="0"
     inkscape:window-y="44"
     inkscape:window-maximized="1"
     inkscape:current-layer="layer1" /><defs
     id="defs2" /><g
     inkscape:label="Layer 1"
     inkscape:groupmode="layer"
     id="layer1"
     transform="translate(-315.00023,-304.99971)"><path
       id="rect111"
       style="color:#000000;fill:none;fill-opacity:1;stroke-linecap:round;stroke-linejoin:round;-inkscape-stroke:none;stroke:#666666;stroke-opacity:1"
       inkscape:label="grid"
       d="m 405.00011,305.42377 v 80.45348 c -4.21895,1.52315 -7.60029,4.90404 -9.12347,9.12296 h -80.45246 v 1.58543 c 26.09757,10e-4 52.19554,0.0128 78.29238,-0.009 1.217,-0.006 2.80463,0.30299 3.57653,-0.91415 1.20357,-3.24505 3.60867,-6.02453 6.67969,-7.63055 1.03358,-0.44347 2.44958,-0.83769 2.61535,-2.15439 v -80.45348 z m 8.41447,0 c -0.002,26.09773 -0.0128,52.19588 0.009,78.29289 0.006,1.217 -0.3024,2.80437 0.91415,3.57653 3.25045,1.20791 6.03891,3.61601 7.64036,6.69933 0.43927,1.02716 0.83326,2.43816 2.14457,2.59571 33.19759,-0.008 66.3964,0.0162 99.59341,-0.0119 1.217,-0.006 2.80462,0.30299 3.57652,-0.91415 1.20599,-3.24334 3.60754,-6.02539 6.6797,-7.63055 1.03358,-0.44347 2.44957,-0.83769 2.61534,-2.15439 -0.006,-26.81765 -8.3e-4,-53.63585 -0.01,-80.45348 h -1.5782 v 80.45348 c -4.21884,1.52318 -7.59978,4.90412 -9.12296,9.12296 H 424.12349 c -1.52319,-4.21892 -4.90453,-7.59981 -9.12347,-9.12296 v -80.45348 z m 129.99775,0 v 77.65314 c 0.13849,1.3186 -0.40329,2.89023 0.61289,3.97081 0.78379,0.56097 1.78582,0.77788 2.59209,1.33326 2.19215,1.26379 4.16072,3.29169 5.36143,5.61154 0.43927,1.02716 0.83325,2.43816 2.14457,2.59571 33.19758,-0.008 66.39587,0.0162 99.59289,-0.0119 1.21699,-0.006 2.80514,0.30299 3.57704,-0.91415 1.20599,-3.24334 3.60753,-6.02539 6.67969,-7.63055 1.03358,-0.44347 2.44906,-0.83769 2.61483,-2.15439 v -80.45348 h -1.5875 v 80.45348 c -4.21892,1.52315 -7.60027,4.90407 -9.12347,9.12296 H 554.12331 c -1.52319,-4.21892 -4.90454,-7.59981 -9.12348,-9.12296 v -80.45348 z m 129.99982,0 v 78.77555 c -0.067,1.08543 -0.13899,2.47975 0.95291,3.10782 1.14784,0.4594 2.38053,1.05762 3.3166,1.75183 3.40483,2.42353 5.68088,6.45304 5.72058,10.6624 0.16738,5.03052 -2.87008,9.89555 -7.30085,12.20287 -1.03622,0.49463 -2.52262,0.84191 -2.68924,2.19935 v 100.1758 c -0.0883,1.0735 -0.0923,2.45639 1.00562,3.03651 4.85013,1.74833 8.57504,6.4061 8.94364,11.58585 0.50201,5.24862 -2.53543,10.52361 -7.17579,12.94805 -1.01337,0.54989 -2.51524,0.81095 -2.75848,2.15491 -0.0346,17.62147 -0.005,35.24788 -0.015,52.87119 0.009,11.55981 0.007,23.1202 0.0145,34.68005 h 1.57355 v -87.45254 c 5.78746,-2.08951 9.9999,-7.67535 9.9999,-14.12317 0,-6.4478 -4.21244,-12.03365 -9.9999,-14.12317 V 414.12359 c 5.78746,-2.0895 9.9999,-7.67536 9.9999,-14.12317 0,-6.44782 -4.21244,-12.03367 -9.9999,-14.12317 v -80.45348 z m -248.56261,97.96508 c -0.74659,-0.0109 -1.58001,0.17283 -2.05258,0.80098 -0.36515,0.79481 -0.74343,1.72492 -1.16427,2.40812 -1.29873,2.22551 -3.20691,4.08329 -5.48029,5.2989 -1.01806,0.517 -2.4871,0.7987 -2.72541,2.12752 -0.035,17.11516 -0.005,34.23537 -0.015,51.35242 0.0117,16.14634 -0.0233,32.29392 0.0181,48.43942 -0.0264,1.1879 -0.27054,2.73363 0.9095,3.47886 3.20508,1.19041 5.96538,3.54999 7.5706,6.57634 0.50253,1.01434 0.79817,2.46604 2.11408,2.70165 17.11515,0.035 34.23538,0.005 51.35242,0.015 16.14634,-0.0117 32.29393,0.0238 48.43942,-0.0176 1.18791,0.0261 2.73388,0.27061 3.47886,-0.91002 1.20794,-3.25667 3.62625,-6.04816 6.7169,-7.64656 1.02208,-0.43547 2.42099,-0.8337 2.57607,-2.13682 -0.008,-33.19758 0.0162,-66.39588 -0.0119,-99.59289 -0.006,-1.217 0.30299,-2.80514 -0.91416,-3.57704 -3.2007,-1.19318 -5.96132,-3.54444 -7.56801,-6.56807 -0.50239,-1.04594 -0.841,-2.55234 -2.21692,-2.72645 h -63.65296 c -12.45802,-0.0154 -24.91666,0.0308 -37.37447,-0.0238 z m 130.00034,0 c -0.7466,-0.0109 -1.58054,0.17283 -2.05311,0.80098 -0.36515,0.79481 -0.74291,1.72492 -1.16375,2.40812 -1.32973,2.28456 -3.30963,4.17005 -5.65237,5.39244 -1.02155,0.43313 -2.41331,0.83288 -2.56832,2.13268 v 98.95365 c 0.13849,1.3186 -0.40329,2.89024 0.61289,3.97082 0.78379,0.56097 1.78582,0.77839 2.59209,1.33377 2.19166,1.2637 4.15924,3.2925 5.36143,5.61103 0.43927,1.02716 0.83325,2.43815 2.14457,2.5957 h 99.05338 c 1.33796,-0.12389 2.99756,0.4186 4.00906,-0.75757 0.38614,-0.7927 0.75071,-1.74011 1.18132,-2.42776 1.32825,-2.28235 3.30508,-4.16622 5.64462,-5.38882 1.02207,-0.43547 2.42099,-0.8337 2.57607,-2.13682 v -99.05339 c -0.12389,-1.33795 0.41859,-2.99755 -0.75758,-4.00905 -0.79269,-0.38614 -1.74011,-0.75072 -2.42775,-1.18133 -2.22634,-1.29744 -4.08109,-3.20927 -5.29891,-5.4808 -0.51585,-1.01682 -0.79974,-2.48731 -2.12751,-2.7249 -21.24836,-0.035 -42.50195,-0.005 -63.75219,-0.015 -12.45802,-0.0154 -24.91613,0.0308 -37.37394,-0.0238 z m -239.4257,0.0129 v 1.59836 h 80.45246 c 1.52315,4.219 4.90446,7.60031 9.12347,9.12347 v 101.75348 c -4.21901,1.52318 -7.60032,4.90447 -9.12347,9.12347 h -80.45246 v 1.5875 h 77.75236 c 1.33796,-0.12389 2.99756,0.4186 4.00906,-0.75757 0.38613,-0.7927 0.75123,-1.74011 1.18184,-2.42776 1.32824,-2.28235 3.30456,-4.16622 5.6441,-5.38882 1.02207,-0.43547 2.42151,-0.8337 2.57659,-2.13682 v -99.05339 c -0.12389,-1.33795 0.41807,-2.99755 -0.7581,-4.00905 -0.7927,-0.38614 -1.74011,-0.75072 -2.42776,-1.18133 -2.22633,-1.29744 -4.08108,-3.20927 -5.2989,-5.4808 -0.51585,-1.01682 -0.79974,-2.48731 -2.12752,-2.7249 -21.24835,-0.035 -42.50194,-0.005 -63.75218,-0.015 -5.59985,-0.007 -11.19965,-0.0141 -16.79949,-0.0109 z m 108.69931,1.59836 h 101.75348 c 1.52316,4.21892 4.90407,7.60029 9.12296,9.12347 v 101.75348 c -4.21889,1.5232 -7.5998,4.90455 -9.12296,9.12347 H 424.12349 c -1.52316,-4.219 -4.90448,-7.60029 -9.12347,-9.12347 V 414.12359 c 4.21899,-1.52316 7.60031,-4.90447 9.12347,-9.12347 z m 129.99982,0 h 101.75348 c 1.52317,4.21897 4.90449,7.60031 9.12347,9.12347 v 101.75348 c -4.21898,1.52317 -7.6003,4.9045 -9.12347,9.12347 H 554.12331 c -1.52316,-4.219 -4.90449,-7.60029 -9.12348,-9.12347 V 414.12359 c 4.21899,-1.52316 7.60032,-4.90447 9.12348,-9.12347 z m 0.72657,128.38854 c -0.79445,-0.0128 -1.72422,0.20484 -2.14302,0.9493 -1.20357,3.24505 -3.60868,6.02504 -6.6797,7.63106 -1.03358,0.44347 -2.44906,0.83769 -2.61483,2.15439 v 87.45254 h 1.5875 V 544.1234 c 4.21894,-1.52316 7.60029,-4.90402 9.12348,-9.12296 h 101.75348 c 1.5232,4.21891 4.90455,7.59981 9.12347,9.12296 v 87.45254 h 1.5875 v -84.75297 c -0.12389,-1.33795 0.41859,-2.99704 -0.75758,-4.00854 -0.79269,-0.38614 -1.74011,-0.75123 -2.42775,-1.18184 -2.22552,-1.29871 -4.0833,-3.20689 -5.29891,-5.48028 -0.51585,-1.01682 -0.79974,-2.48783 -2.12751,-2.72542 -21.24836,-0.035 -42.50195,-0.005 -63.75219,-0.015 -12.45802,-0.0154 -24.91613,0.0313 -37.37394,-0.0233 z m -130.00034,5.2e-4 c -0.76508,-0.0106 -1.64395,0.18345 -2.09082,0.86351 -1.2269,3.23917 -3.58153,6.06647 -6.66885,7.6786 -1.03852,0.48319 -2.50858,0.83881 -2.67787,2.19212 0.007,29.15066 -0.004,58.30206 0.0103,87.45254 h 1.57768 V 544.1234 c 4.21894,-1.52316 7.60028,-4.90402 9.12347,-9.12296 h 101.75348 c 1.52318,4.21886 4.90412,7.59978 9.12296,9.12296 v 87.45254 h 1.58646 c -4.2e-4,-28.43069 0.0137,-56.86197 -0.0103,-85.29195 -0.006,-1.217 0.30299,-2.80463 -0.91416,-3.57653 -3.20072,-1.1947 -5.96159,-3.54418 -7.56801,-6.56859 -0.50239,-1.04594 -0.841,-2.55234 -2.21692,-2.72645 H 462.224 c -12.45802,-0.0154 -24.91666,0.0313 -37.37447,-0.0232 z m -109.42536,0.0129 v 1.59835 h 80.45246 c 1.52318,4.21894 4.90452,7.5998 9.12347,9.12296 v 87.45254 h 1.58802 V 546.8235 c -0.12389,-1.33796 0.41807,-2.99704 -0.7581,-4.00854 -0.7927,-0.38614 -1.74011,-0.75123 -2.42776,-1.18184 -2.22551,-1.29872 -4.08329,-3.2069 -5.2989,-5.48028 -0.51585,-1.01682 -0.79974,-2.48783 -2.12752,-2.72542 -21.24835,-0.035 -42.50194,-0.005 -63.75218,-0.015 -5.59985,-0.007 -11.19965,-0.0137 -16.79949,-0.0103 z" /><path
       id="circle6017"
       style="display:inline;fill:none;fill-opacity:1;stroke:#000000;stroke-width:1;stroke-linecap:round;stroke-linejoin:round;stroke-dasharray:none;stroke-opacity:1"
       inkscape:label="led"
       d="m 345.00016,308.66698 c -2.7614,-1.2e-4 -5.00002,2.23832 -5.00022,4.99969 -10e-5,2.76159 2.23862,5.00034 5.00022,5.00022 2.76138,-1.7e-4 4.99979,-2.23883 4.99969,-5.00022 -2e-4,-2.76116 -2.23851,-4.99952 -4.99969,-4.99969 z m 129.99981,0 c -2.7614,-1.2e-4 -5.00001,2.23832 -5.00021,4.99969 -10e-5,2.76159 2.23861,5.00034 5.00021,5.00022 2.7614,-1.7e-4 5.00031,-2.23883 5.00021,-5.00022 -2e-4,-2.76116 -2.23901,-4.99952 -5.00021,-4.99969 z m 130.00034,0 c -2.7614,-1.2e-4 -5.00002,2.23832 -5.00022,4.99969 -10e-5,2.76159 2.23862,5.00034 5.00022,5.00022 2.76138,-1.7e-4 4.99979,-2.23883 4.99969,-5.00022 -2e-4,-2.76116 -2.23851,-4.99952 -4.99969,-4.99969 z m -260.00015,33.33336 c -1.1373,0.008 -2.23771,0.40436 -3.11971,1.12242 -0.3996,0.31168 -0.74946,0.68231 -1.03766,1.09915 v 5.2e-4 c -0.1819,0.27219 -0.33669,0.56159 -0.46199,0.86403 v 5.2e-4 c -0.1254,0.3024 -0.22074,0.61637 -0.28474,0.93741 v 5.2e-4 c -0.064,0.32111 -0.0961,0.64772 -0.0961,0.97513 0,1.66991 0.83359,3.2296 2.22209,4.15737 h 5.2e-4 c 0.2722,0.18191 0.56163,0.33665 0.86403,0.46199 h 5.1e-4 c 0.3024,0.12537 0.61631,0.22074 0.93741,0.28473 h 5.2e-4 c 0.3211,0.0639 0.64774,0.0961 0.97514,0.0961 0.31748,-9.1e-4 0.63417,-0.0321 0.94567,-0.093 0.017,-0.003 0.0331,-0.006 0.0501,-0.009 0.3035,-0.0622 0.60058,-0.15254 0.88728,-0.26975 0.02,-0.008 0.04,-0.0164 0.061,-0.0248 0.2856,-0.12023 0.55954,-0.26676 0.81804,-0.4377 0.012,-0.009 0.0252,-0.0172 0.0372,-0.0258 0.5282,-0.35711 0.98318,-0.81193 1.34048,-1.33997 0.01,-0.0134 0.0189,-0.0268 0.0279,-0.0403 0.1703,-0.25776 0.31625,-0.53074 0.43615,-0.81545 0.01,-0.0215 0.0179,-0.043 0.0269,-0.0646 0.1165,-0.28615 0.2063,-0.58249 0.2682,-0.88522 0,-0.0158 0.0103,-0.0317 0.0103,-0.0475 0.061,-0.31188 0.092,-0.62888 0.093,-0.94671 v -5.2e-4 -5.1e-4 c -9e-4,-0.31764 -0.032,-0.63447 -0.093,-0.9462 0,-0.0162 -0.0103,-0.0324 -0.0103,-0.0486 -0.062,-0.30253 -0.1517,-0.59872 -0.2682,-0.8847 -0.01,-0.0216 -0.0179,-0.0431 -0.0269,-0.0646 -0.12,-0.28473 -0.26617,-0.55772 -0.43667,-0.81546 -0.01,-0.013 -0.0179,-0.0258 -0.0269,-0.0387 -0.3574,-0.52846 -0.8126,-0.98365 -1.341,-1.34101 -0.012,-0.009 -0.0252,-0.0173 -0.0372,-0.0258 -0.258,-0.17067 -0.53139,-0.31704 -0.81649,-0.43719 -0.021,-0.009 -0.0431,-0.0181 -0.0651,-0.0269 -0.2864,-0.11659 -0.58283,-0.20637 -0.88573,-0.2682 -0.015,-0.003 -0.031,-0.006 -0.046,-0.008 -0.3122,-0.0613 -0.62964,-0.0926 -0.94774,-0.0935 z m 129.99981,0 c -1.1373,0.008 -2.23772,0.40436 -3.1197,1.12242 -0.3996,0.31168 -0.74947,0.68231 -1.03767,1.09915 v 5.2e-4 c -0.1819,0.27219 -0.33617,0.56159 -0.46147,0.86403 v 5.2e-4 c -0.1254,0.3024 -0.22125,0.61637 -0.28525,0.93741 v 5.2e-4 c -0.064,0.32111 -0.0956,0.64772 -0.0956,0.97513 0,1.66991 0.8336,3.2296 2.22208,4.15737 h 5.2e-4 c 0.2722,0.18191 0.56163,0.33665 0.86403,0.46199 h 5.2e-4 c 0.3024,0.12537 0.61631,0.22074 0.93741,0.28473 h 5.1e-4 c 0.3211,0.0639 0.64774,0.0961 0.97514,0.0961 0.3175,-9.1e-4 0.63418,-0.0321 0.94568,-0.093 0.017,-0.003 0.0326,-0.006 0.0496,-0.009 0.3035,-0.0622 0.60058,-0.15254 0.88728,-0.26975 0.02,-0.008 0.0405,-0.0164 0.0615,-0.0248 0.2856,-0.12023 0.55902,-0.26676 0.81752,-0.4377 0.012,-0.009 0.0252,-0.0172 0.0372,-0.0258 0.5282,-0.35711 0.98319,-0.81193 1.34049,-1.33997 0.01,-0.0134 0.0189,-0.0268 0.0279,-0.0403 0.1703,-0.25776 0.31625,-0.53074 0.43615,-0.81545 0.01,-0.0215 0.0184,-0.043 0.0274,-0.0646 0.1165,-0.28615 0.2063,-0.58249 0.2682,-0.88522 0,-0.0158 0.01,-0.0317 0.01,-0.0475 0.061,-0.31188 0.092,-0.62888 0.093,-0.94671 v -5.2e-4 -5.1e-4 c -9e-4,-0.31764 -0.032,-0.63447 -0.093,-0.9462 0,-0.0162 -0.01,-0.0324 -0.01,-0.0486 -0.062,-0.30253 -0.1517,-0.59872 -0.2682,-0.8847 -0.01,-0.0216 -0.0184,-0.0431 -0.0274,-0.0646 -0.12,-0.28473 -0.26617,-0.55772 -0.43667,-0.81546 -0.01,-0.013 -0.0179,-0.0258 -0.0269,-0.0387 -0.3574,-0.52846 -0.81261,-0.98365 -1.34101,-1.34101 -0.012,-0.009 -0.0252,-0.0173 -0.0372,-0.0258 -0.258,-0.17067 -0.53087,-0.31704 -0.81597,-0.43719 -0.021,-0.009 -0.0431,-0.0181 -0.0651,-0.0269 -0.2864,-0.11659 -0.58283,-0.20637 -0.88573,-0.2682 -0.015,-0.003 -0.031,-0.006 -0.046,-0.008 -0.3122,-0.0613 -0.62965,-0.0926 -0.94775,-0.0935 z m 130.00034,0 c -1.1373,0.008 -2.23771,0.40436 -3.11971,1.12242 -0.3996,0.31168 -0.74946,0.68231 -1.03766,1.09915 v 5.2e-4 c -0.1819,0.27219 -0.33669,0.56159 -0.46199,0.86403 v 5.2e-4 c -0.1254,0.3024 -0.22074,0.61637 -0.28474,0.93741 v 5.2e-4 c -0.064,0.32111 -0.0961,0.64772 -0.0961,0.97513 0,1.66991 0.83359,3.2296 2.22209,4.15737 h 5.2e-4 c 0.2722,0.18191 0.56163,0.33665 0.86403,0.46199 h 5.1e-4 c 0.3024,0.12537 0.61631,0.22074 0.93741,0.28473 h 5.2e-4 c 0.3211,0.0639 0.64774,0.0961 0.97514,0.0961 0.3175,-9.1e-4 0.63417,-0.0321 0.94567,-0.093 0.017,-0.003 0.0331,-0.006 0.0501,-0.009 0.3035,-0.0622 0.6006,-0.15254 0.88728,-0.26975 0.02,-0.008 0.04,-0.0164 0.061,-0.0248 0.2856,-0.12023 0.55954,-0.26676 0.81804,-0.4377 0.012,-0.009 0.0247,-0.0172 0.0367,-0.0258 0.5282,-0.35711 0.98319,-0.81193 1.34049,-1.33997 0.01,-0.0134 0.0194,-0.0268 0.0284,-0.0403 0.1703,-0.25776 0.31625,-0.53074 0.43615,-0.81545 0.01,-0.0215 0.0179,-0.043 0.0269,-0.0646 0.1165,-0.28615 0.2063,-0.58249 0.2682,-0.88522 0,-0.0158 0.01,-0.0317 0.01,-0.0475 0.061,-0.31188 0.092,-0.62888 0.093,-0.94671 v -5.2e-4 -5.1e-4 c -9e-4,-0.31764 -0.032,-0.63447 -0.093,-0.9462 0,-0.0162 -0.01,-0.0324 -0.01,-0.0486 -0.062,-0.30253 -0.1517,-0.59872 -0.2682,-0.8847 -0.01,-0.0216 -0.0179,-0.0431 -0.0269,-0.0646 -0.12,-0.28473 -0.26617,-0.55772 -0.43667,-0.81546 -0.01,-0.013 -0.0184,-0.0258 -0.0274,-0.0387 -0.3574,-0.52846 -0.8126,-0.98365 -1.341,-1.34101 -0.012,-0.009 -0.0247,-0.0173 -0.0367,-0.0258 -0.258,-0.17067 -0.53139,-0.31704 -0.81649,-0.43719 -0.021,-0.009 -0.0431,-0.0181 -0.0651,-0.0269 -0.2864,-0.11659 -0.58283,-0.20637 -0.88573,-0.2682 -0.015,-0.003 -0.031,-0.006 -0.046,-0.008 -0.31218,-0.0613 -0.62964,-0.0926 -0.94774,-0.0935 z m -260.00015,33.33337 c -2.7616,-1.2e-4 -5.00032,2.23864 -5.00022,5.00021 2e-4,2.76139 2.23882,4.99982 5.00022,4.9997 2.76118,-1.7e-4 4.99949,-2.23851 4.99969,-4.9997 1e-4,-2.76137 -2.23831,-5.00004 -4.99969,-5.00021 z m 129.99981,0 c -2.7616,-1.2e-4 -5.00031,2.23864 -5.00021,5.00021 2e-4,2.76139 2.23881,4.99982 5.00021,4.9997 2.7612,-1.7e-4 5.00001,-2.23851 5.00021,-4.9997 10e-5,-2.76137 -2.23881,-5.00004 -5.00021,-5.00021 z m 130.00034,0 c -2.7616,-1.2e-4 -5.00032,2.23864 -5.00022,5.00021 2e-4,2.76139 2.23882,4.99982 5.00022,4.9997 2.76118,-1.7e-4 4.99949,-2.23851 4.99969,-4.9997 10e-5,-2.76137 -2.23831,-5.00004 -4.99969,-5.00021 z m -260.00015,33.33337 c -2.7614,-1.2e-4 -5.00002,2.2383 -5.00022,4.99969 -10e-5,2.76159 2.23862,5.00033 5.00022,5.00021 2.76138,-1.7e-4 4.99979,-2.23882 4.99969,-5.00021 -2e-4,-2.76118 -2.23851,-4.99952 -4.99969,-4.99969 z m 129.99981,0 c -2.7614,-1.2e-4 -5.00001,2.2383 -5.00021,4.99969 -10e-5,2.76159 2.23861,5.00033 5.00021,5.00021 2.7614,-1.7e-4 5.00031,-2.23882 5.00021,-5.00021 -2e-4,-2.76118 -2.23901,-4.99952 -5.00021,-4.99969 z m 130.00034,0 c -2.7614,-1.2e-4 -5.00002,2.2383 -5.00022,4.99969 -10e-5,2.76159 2.23862,5.00033 5.00022,5.00021 2.76138,-1.7e-4 4.99979,-2.23882 4.99969,-5.00021 -2e-4,-2.76118 -2.23851,-4.99952 -4.99969,-4.99969 z m -260.00015,33.33285 c -0.989,0 -1.95583,0.29331 -2.77813,0.84284 -0.5458,0.36474 -1.01444,0.83341 -1.37924,1.37924 v 5.2e-4 c -0.1819,0.27219 -0.33669,0.56159 -0.46199,0.86403 v 5.2e-4 c -0.1254,0.3024 -0.22074,0.61637 -0.28474,0.93741 v 5.1e-4 c -0.064,0.32112 -0.0961,0.64773 -0.0961,0.97514 0,0.32741 0.0321,0.65402 0.0961,0.97513 v 5.2e-4 c 0.1282,0.64385 0.38203,1.25615 0.74673,1.80196 v 5.1e-4 c 0.3648,0.54584 0.83344,1.0145 1.37924,1.37925 h 5.2e-4 c 0.2722,0.18191 0.56153,0.33664 0.86403,0.46198 h 5.1e-4 c 0.3024,0.12537 0.61631,0.22074 0.93741,0.28474 h 5.2e-4 c 0.3211,0.0639 0.64774,0.0961 0.97514,0.0961 0.31818,-0.001 0.63554,-0.0327 0.94774,-0.0941 0.015,-0.003 0.031,-0.005 0.046,-0.008 0.3029,-0.0618 0.59944,-0.15161 0.88574,-0.2682 0.022,-0.009 0.0431,-0.0178 0.0651,-0.0269 0.284,-0.11967 0.55629,-0.26533 0.81339,-0.43512 0.015,-0.0102 0.0299,-0.0206 0.0439,-0.031 0.2627,-0.17668 0.50817,-0.37792 0.73277,-0.601 l 5.2e-4,-5.2e-4 c 0.2247,-0.22612 0.42743,-0.47323 0.60513,-0.73794 0.01,-0.0117 0.0158,-0.0234 0.0238,-0.0351 0.1709,-0.25836 0.31792,-0.53204 0.43822,-0.81752 0.01,-0.0215 0.0179,-0.043 0.0269,-0.0646 0.1165,-0.28615 0.2063,-0.58249 0.2682,-0.88522 0,-0.0158 0.01,-0.0317 0.01,-0.0475 0.061,-0.31205 0.092,-0.62923 0.093,-0.94723 0,-0.318 -0.032,-0.63518 -0.093,-0.94723 0,-0.0159 -0.01,-0.0317 -0.01,-0.0475 -0.062,-0.30273 -0.1517,-0.59907 -0.2682,-0.88522 -0.01,-0.0216 -0.0179,-0.0431 -0.0269,-0.0646 -0.1203,-0.28548 -0.26732,-0.55916 -0.43822,-0.81752 -0.01,-0.0118 -0.0158,-0.023 -0.0238,-0.0346 -0.3567,-0.52784 -0.81102,-0.98266 -1.33842,-1.33997 -0.015,-0.0102 -0.0299,-0.0209 -0.0439,-0.031 -0.2571,-0.16979 -0.52939,-0.31494 -0.81339,-0.4346 -0.021,-0.009 -0.0431,-0.0186 -0.0651,-0.0274 -0.2863,-0.11659 -0.58284,-0.20637 -0.88574,-0.2682 -0.015,-0.003 -0.031,-0.006 -0.046,-0.008 -0.3122,-0.0614 -0.62956,-0.0928 -0.94774,-0.094 z m 129.99981,0 c -0.989,0 -1.95582,0.29331 -2.77812,0.84284 -0.5458,0.36474 -1.01445,0.83341 -1.37925,1.37924 v 5.2e-4 c -0.1819,0.27219 -0.33617,0.56159 -0.46147,0.86403 v 5.2e-4 c -0.1254,0.3024 -0.22125,0.61637 -0.28525,0.93741 v 5.1e-4 c -0.064,0.32112 -0.0956,0.64773 -0.0956,0.97514 0,0.32741 0.0316,0.65402 0.0956,0.97513 v 5.2e-4 c 0.1282,0.64385 0.38202,1.25615 0.74672,1.80196 v 5.1e-4 c 0.3648,0.54584 0.83345,1.0145 1.37925,1.37925 h 5.1e-4 c 0.2722,0.18191 0.56205,0.33664 0.86455,0.46198 h 5.2e-4 c 0.3024,0.12537 0.61631,0.22074 0.93741,0.28474 h 5.1e-4 c 0.3211,0.0639 0.64722,0.0961 0.97462,0.0961 0.3182,-0.001 0.63606,-0.0327 0.94826,-0.0941 0.015,-0.003 0.031,-0.005 0.046,-0.008 0.3029,-0.0618 0.59891,-0.15161 0.88521,-0.2682 0.022,-0.009 0.0431,-0.0178 0.0651,-0.0269 0.284,-0.11967 0.55628,-0.26533 0.81338,-0.43512 0.015,-0.0102 0.0299,-0.0206 0.0439,-0.031 0.2627,-0.17668 0.50817,-0.37792 0.73277,-0.601 l 5.2e-4,-5.2e-4 c 0.2247,-0.22612 0.42743,-0.47323 0.60513,-0.73794 0.01,-0.0117 0.0163,-0.0234 0.0243,-0.0351 0.1709,-0.25836 0.31741,-0.53204 0.43769,-0.81752 0.01,-0.0215 0.0179,-0.043 0.0269,-0.0646 0.1165,-0.28615 0.2063,-0.58249 0.2682,-0.88522 0,-0.0158 0.01,-0.0317 0.01,-0.0475 0.061,-0.31205 0.092,-0.62923 0.093,-0.94723 0,-0.318 -0.032,-0.63518 -0.093,-0.94723 0,-0.0159 -0.01,-0.0317 -0.01,-0.0475 -0.062,-0.30273 -0.1517,-0.59907 -0.2682,-0.88522 -0.01,-0.0216 -0.0179,-0.0431 -0.0269,-0.0646 -0.12028,-0.28548 -0.26679,-0.55916 -0.43769,-0.81752 -0.01,-0.0118 -0.0163,-0.023 -0.0243,-0.0346 -0.3567,-0.52784 -0.81102,-0.98266 -1.33842,-1.33997 -0.015,-0.0102 -0.0299,-0.0209 -0.0439,-0.031 -0.2571,-0.16979 -0.52938,-0.31494 -0.81338,-0.4346 -0.021,-0.009 -0.0431,-0.0186 -0.0651,-0.0274 -0.2863,-0.11659 -0.58231,-0.20637 -0.88521,-0.2682 -0.015,-0.003 -0.031,-0.006 -0.046,-0.008 -0.3122,-0.0614 -0.63006,-0.0928 -0.94826,-0.094 z m 130.00034,0 c -0.989,0 -1.95583,0.29331 -2.77813,0.84284 -0.5458,0.36474 -1.01444,0.83341 -1.37924,1.37924 v 5.2e-4 c -0.1819,0.27219 -0.33669,0.56159 -0.46199,0.86403 v 5.2e-4 c -0.1254,0.3024 -0.22074,0.61637 -0.28474,0.93741 v 5.1e-4 c -0.064,0.32112 -0.0961,0.64773 -0.0961,0.97514 0,0.32741 0.0321,0.65402 0.0961,0.97513 v 5.2e-4 c 0.1282,0.64385 0.38203,1.25615 0.74673,1.80196 v 5.1e-4 c 0.3648,0.54584 0.83344,1.0145 1.37924,1.37925 h 5.2e-4 c 0.2722,0.18191 0.56153,0.33664 0.86403,0.46198 h 5.1e-4 c 0.3024,0.12537 0.61631,0.22074 0.93741,0.28474 h 5.2e-4 c 0.3211,0.0639 0.64774,0.0961 0.97514,0.0961 0.3182,-0.001 0.63554,-0.0327 0.94774,-0.0941 0.015,-0.003 0.031,-0.005 0.046,-0.008 0.3029,-0.0618 0.59944,-0.15161 0.88574,-0.2682 0.022,-0.009 0.0431,-0.0178 0.0651,-0.0269 0.284,-0.11967 0.55629,-0.26533 0.81339,-0.43512 0.015,-0.0102 0.0299,-0.0206 0.0439,-0.031 0.2627,-0.17668 0.50817,-0.37792 0.73277,-0.601 l 5.2e-4,-5.2e-4 c 0.2247,-0.22612 0.42743,-0.47323 0.60513,-0.73794 0.01,-0.0117 0.0158,-0.0234 0.0238,-0.0351 0.1709,-0.25836 0.3174,-0.53204 0.4377,-0.81752 0.01,-0.0215 0.0179,-0.043 0.0269,-0.0646 0.1165,-0.28615 0.2063,-0.58249 0.2682,-0.88522 0,-0.0158 0.0103,-0.0317 0.0103,-0.0475 0.061,-0.31205 0.092,-0.62923 0.093,-0.94723 0,-0.318 -0.032,-0.63518 -0.093,-0.94723 0,-0.0159 -0.0103,-0.0317 -0.0103,-0.0475 -0.062,-0.30273 -0.1517,-0.59907 -0.2682,-0.88522 -0.01,-0.0216 -0.0179,-0.0431 -0.0269,-0.0646 -0.1203,-0.28548 -0.2668,-0.55916 -0.4377,-0.81752 -0.01,-0.0118 -0.0158,-0.023 -0.0238,-0.0346 -0.3567,-0.52784 -0.81102,-0.98266 -1.33842,-1.33997 -0.015,-0.0102 -0.0299,-0.0209 -0.0439,-0.031 -0.2571,-0.16979 -0.52939,-0.31494 -0.81339,-0.4346 -0.021,-0.009 -0.0431,-0.0186 -0.0651,-0.0274 -0.2863,-0.11659 -0.58284,-0.20637 -0.88574,-0.2682 -0.015,-0.003 -0.031,-0.006 -0.046,-0.008 -0.3122,-0.0614 -0.62954,-0.0928 -0.94774,-0.094 z m -260.00015,33.33336 c -2.7616,-1.2e-4 -5.00032,2.23864 -5.00022,5.00021 2e-4,2.76139 2.23882,4.99982 5.00022,4.9997 2.76118,-1.7e-4 4.99949,-2.23851 4.99969,-4.9997 1e-4,-2.76137 -2.23831,-5.00004 -4.99969,-5.00021 z m 129.99981,0 c -2.7616,-1.2e-4 -5.00031,2.23864 -5.00021,5.00021 2e-4,2.76139 2.23881,4.99982 5.00021,4.9997 2.7612,-1.7e-4 5.00001,-2.23851 5.00021,-4.9997 10e-5,-2.76137 -2.23881,-5.00004 -5.00021,-5.00021 z m 130.00034,0 c -2.7616,-1.2e-4 -5.00032,2.23864 -5.00022,5.00021 2e-4,2.76139 2.23882,4.99982 5.00022,4.9997 2.76118,-1.7e-4 4.99949,-2.23851 4.99969,-4.9997 10e-5,-2.76137 -2.23831,-5.00004 -4.99969,-5.00021 z m -260.00015,33.33337 c -2.7614,-1.2e-4 -5.00002,2.23832 -5.00022,4.99969 -10e-5,2.76159 2.23862,5.00033 5.00022,5.00021 2.76138,-1.7e-4 4.99979,-2.23882 4.99969,-5.00021 -2e-4,-2.76116 -2.23851,-4.99952 -4.99969,-4.99969 z m 129.99981,0 c -2.7614,-1.2e-4 -5.00001,2.23832 -5.00021,4.99969 -10e-5,2.76159 2.23861,5.00033 5.00021,5.00021 2.7614,-1.7e-4 5.00031,-2.23882 5.00021,-5.00021 -2e-4,-2.76116 -2.23901,-4.99952 -5.00021,-4.99969 z m 130.00034,0 c -2.7614,-1.2e-4 -5.00002,2.23832 -5.00022,4.99969 -10e-5,2.76159 2.23862,5.00033 5.00022,5.00021 2.76138,-1.7e-4 4.99979,-2.23882 4.99969,-5.00021 -2e-4,-2.76116 -2.23851,-4.99952 -4.99969,-4.99969 z m -260.00222,33.33336 c -0.98828,4.1e-4 -1.95434,0.2937 -2.77606,0.84285 -1.1025,0.73671 -1.86727,1.88121 -2.12597,3.18171 v 5.2e-4 c -0.064,0.32095 -0.0961,0.64738 -0.0961,0.97462 0,0.32758 0.0321,0.65437 0.0961,0.97565 v 5.2e-4 c 0.064,0.32104 0.15934,0.63501 0.28474,0.93741 v 5.1e-4 c 0.1253,0.30244 0.28009,0.59184 0.46199,0.86403 v 5.2e-4 c 0.3648,0.54583 0.83344,1.0145 1.37924,1.37924 h 5.2e-4 c 0.2722,0.18191 0.56153,0.33665 0.86403,0.46199 h 5.1e-4 c 0.6065,0.25114 1.25667,0.38038 1.91307,0.38034 0.31818,-9.5e-4 0.63554,-0.0323 0.94774,-0.0935 0.015,-0.003 0.031,-0.005 0.046,-0.008 0.3029,-0.0618 0.59944,-0.15161 0.88574,-0.2682 0.022,-0.009 0.0431,-0.0178 0.0651,-0.0269 0.284,-0.11967 0.55629,-0.26532 0.81339,-0.43511 0.015,-0.0101 0.0299,-0.0203 0.0439,-0.0305 0.5267,-0.35701 0.98047,-0.81128 1.33687,-1.33842 0.01,-0.0129 0.0179,-0.0258 0.0269,-0.0388 0.1705,-0.25774 0.31657,-0.53072 0.43667,-0.81545 0.01,-0.0215 0.0184,-0.043 0.0274,-0.0646 0.1165,-0.28598 0.2063,-0.58215 0.2682,-0.8847 0,-0.0162 0.01,-0.0324 0.01,-0.0486 0.061,-0.3119 0.092,-0.62892 0.093,-0.94671 v -5.2e-4 -5.2e-4 c 0,-0.31765 -0.032,-0.63448 -0.094,-0.94619 0,-0.0159 -0.01,-0.0317 -0.01,-0.0476 -0.062,-0.30272 -0.1516,-0.59906 -0.2682,-0.88521 -0.01,-0.0216 -0.0184,-0.0431 -0.0274,-0.0646 -0.1199,-0.28471 -0.26584,-0.55769 -0.43614,-0.81545 -0.01,-0.0135 -0.0189,-0.0269 -0.0279,-0.0403 -0.1774,-0.26375 -0.37948,-0.50998 -0.60358,-0.73536 l -5.2e-4,-5.1e-4 c -0.2257,-0.22434 -0.47229,-0.42663 -0.73639,-0.6041 -0.012,-0.009 -0.0252,-0.0173 -0.0372,-0.0258 -0.2585,-0.17094 -0.53192,-0.31747 -0.81752,-0.4377 -0.02,-0.008 -0.0405,-0.0167 -0.0615,-0.0248 -0.2868,-0.11721 -0.58378,-0.20752 -0.88728,-0.26975 -0.017,-0.003 -0.0326,-0.006 -0.0496,-0.009 -0.31093,-0.0609 -0.62682,-0.092 -0.94361,-0.093 z m 129.99981,0 c -0.98826,4.1e-4 -1.95433,0.2937 -2.77605,0.84285 -1.1025,0.73671 -1.86727,1.88121 -2.12597,3.18171 v 5.2e-4 c -0.064,0.32095 -0.0956,0.64738 -0.0956,0.97462 0,0.32758 0.0316,0.65437 0.0956,0.97565 v 5.2e-4 c 0.064,0.32104 0.15985,0.63501 0.28525,0.93741 v 5.1e-4 c 0.1253,0.30244 0.27957,0.59184 0.46147,0.86403 v 5.2e-4 c 0.3648,0.54583 0.83345,1.0145 1.37925,1.37924 h 5.1e-4 c 0.2722,0.18191 0.56205,0.33665 0.86455,0.46199 h 5.2e-4 c 0.6065,0.25114 1.25614,0.38038 1.91254,0.38034 0.3182,-9.5e-4 0.63606,-0.0323 0.94826,-0.0935 0.015,-0.003 0.031,-0.005 0.046,-0.008 0.3029,-0.0618 0.59891,-0.15161 0.88521,-0.2682 0.022,-0.009 0.0431,-0.0178 0.0651,-0.0269 0.284,-0.11967 0.55628,-0.26532 0.81338,-0.43511 0.015,-0.0101 0.0299,-0.0203 0.0439,-0.0305 0.5267,-0.35701 0.98047,-0.81128 1.33687,-1.33842 0.01,-0.0129 0.0184,-0.0258 0.0274,-0.0388 0.1705,-0.25774 0.31656,-0.53072 0.43666,-0.81545 0.01,-0.0215 0.0179,-0.043 0.0269,-0.0646 0.1165,-0.28598 0.2063,-0.58215 0.2682,-0.8847 0,-0.0162 0.01,-0.0324 0.01,-0.0486 0.061,-0.3119 0.092,-0.62892 0.093,-0.94671 v -5.2e-4 -5.2e-4 c 0,-0.31765 -0.032,-0.63448 -0.094,-0.94619 0,-0.0159 -0.01,-0.0317 -0.01,-0.0476 -0.062,-0.30272 -0.1516,-0.59906 -0.2682,-0.88521 -0.01,-0.0216 -0.0179,-0.0431 -0.0269,-0.0646 -0.1199,-0.28471 -0.26585,-0.55769 -0.43615,-0.81545 -0.01,-0.0135 -0.0194,-0.0269 -0.0284,-0.0403 -0.1774,-0.26375 -0.37948,-0.50998 -0.60358,-0.73536 l -5.2e-4,-5.1e-4 c -0.2257,-0.22434 -0.47229,-0.42663 -0.73639,-0.6041 -0.012,-0.009 -0.0247,-0.0173 -0.0367,-0.0258 -0.2585,-0.17094 -0.53244,-0.31747 -0.81804,-0.4377 -0.02,-0.008 -0.04,-0.0167 -0.061,-0.0248 -0.2868,-0.11721 -0.58378,-0.20752 -0.88728,-0.26975 -0.017,-0.003 -0.0331,-0.006 -0.0501,-0.009 -0.31092,-0.0609 -0.6268,-0.092 -0.94361,-0.093 z m 129.99982,0 c -0.98809,5.2e-4 -1.95396,0.2938 -2.77554,0.84285 -1.1025,0.73671 -1.86727,1.88121 -2.12597,3.18171 v 5.2e-4 c -0.064,0.32095 -0.0961,0.64738 -0.0961,0.97462 0,0.32758 0.0321,0.65437 0.0961,0.97565 v 5.2e-4 c 0.064,0.32104 0.15934,0.63501 0.28474,0.93741 v 5.1e-4 c 0.1253,0.30244 0.28009,0.59184 0.46199,0.86403 v 5.2e-4 c 0.3648,0.54583 0.83344,1.0145 1.37924,1.37924 h 5.2e-4 c 0.2722,0.18191 0.56153,0.33665 0.86403,0.46199 h 5.1e-4 c 0.6065,0.25114 1.25667,0.38038 1.91307,0.38034 0.3182,-9.5e-4 0.63554,-0.0323 0.94774,-0.0935 0.015,-0.003 0.031,-0.005 0.046,-0.008 0.3029,-0.0618 0.59944,-0.15161 0.88574,-0.2682 0.022,-0.009 0.0431,-0.0178 0.0651,-0.0269 0.284,-0.11967 0.55629,-0.26532 0.81339,-0.43511 0.015,-0.0101 0.0299,-0.0203 0.0439,-0.0305 0.5267,-0.35701 0.98047,-0.81128 1.33687,-1.33842 0.01,-0.0129 0.0179,-0.0258 0.0269,-0.0388 0.1705,-0.25774 0.31657,-0.53072 0.43667,-0.81545 0.01,-0.0215 0.0179,-0.043 0.0269,-0.0646 0.1165,-0.28598 0.2063,-0.58215 0.2682,-0.8847 0,-0.0162 0.0103,-0.0324 0.0103,-0.0486 0.061,-0.3119 0.092,-0.62892 0.093,-0.94671 v -5.2e-4 -5.2e-4 c 0,-0.31765 -0.0321,-0.63448 -0.0941,-0.94619 0,-0.0159 -0.0103,-0.0317 -0.0103,-0.0476 -0.062,-0.30272 -0.1516,-0.59906 -0.2682,-0.88521 -0.01,-0.0216 -0.0179,-0.0431 -0.0269,-0.0646 -0.1199,-0.28471 -0.26585,-0.55769 -0.43615,-0.81545 -0.01,-0.0135 -0.0189,-0.0269 -0.0279,-0.0403 -0.1774,-0.26375 -0.37948,-0.50998 -0.60358,-0.73536 l -5.2e-4,-5.1e-4 c -0.2257,-0.22434 -0.47229,-0.42663 -0.73639,-0.6041 -0.012,-0.009 -0.0252,-0.0173 -0.0372,-0.0258 -0.2585,-0.17094 -0.53244,-0.31747 -0.81804,-0.4377 -0.02,-0.008 -0.04,-0.0167 -0.061,-0.0248 -0.2868,-0.11721 -0.58378,-0.20752 -0.88728,-0.26975 -0.017,-0.003 -0.0331,-0.006 -0.0501,-0.009 -0.31076,-0.0608 -0.62646,-0.092 -0.94309,-0.093 z m -259.99756,33.33337 c -2.7616,-1.2e-4 -5.00032,2.23862 -5.00022,5.00021 2e-4,2.76139 2.23882,4.99982 5.00022,4.9997 2.76118,-1.7e-4 4.99949,-2.23851 4.99969,-4.9997 1e-4,-2.76139 -2.23831,-5.00004 -4.99969,-5.00021 z m 129.99981,0 c -2.7616,-1.2e-4 -5.00031,2.23862 -5.00021,5.00021 2e-4,2.76139 2.23881,4.99982 5.00021,4.9997 2.7612,-1.7e-4 5.00001,-2.23851 5.00021,-4.9997 10e-5,-2.76139 -2.23881,-5.00004 -5.00021,-5.00021 z m 130.00034,0 c -2.7616,-1.2e-4 -5.00032,2.23862 -5.00022,5.00021 2e-4,2.76139 2.23882,4.99982 5.00022,4.9997 2.76118,-1.7e-4 4.99949,-2.23851 4.99969,-4.9997 10e-5,-2.76139 -2.23831,-5.00004 -4.99969,-5.00021 z m -260.00015,33.33337 c -2.7614,-1.2e-4 -5.00002,2.2383 -5.00022,4.99969 -10e-5,2.76159 2.23862,5.00033 5.00022,5.00021 2.76138,-1.7e-4 4.99979,-2.23882 4.99969,-5.00021 -2e-4,-2.76118 -2.23851,-4.99952 -4.99969,-4.99969 z m 129.99981,0 c -2.7614,-1.2e-4 -5.00001,2.2383 -5.00021,4.99969 -10e-5,2.76159 2.23861,5.00033 5.00021,5.00021 2.7614,-1.7e-4 5.00031,-2.23882 5.00021,-5.00021 -2e-4,-2.76118 -2.23901,-4.99952 -5.00021,-4.99969 z m 130.00034,0 c -2.7614,-1.2e-4 -5.00002,2.2383 -5.00022,4.99969 -10e-5,2.76159 2.23862,5.00033 5.00022,5.00021 2.76138,-1.7e-4 4.99979,-2.23882 4.99969,-5.00021 -2e-4,-2.76118 -2.23851,-4.99952 -4.99969,-4.99969 z"
       sodipodi:nodetypes="ccccccccccscscsccccccccscccccccccccccccccccscsccccccccccccccccccccccscccccccccccccccccccscsccccccccccccccccccccccscccccccccccccccccccscsccccccccccccccccccccccccscscsccccccccccscscscsccccccscccccccccccccccccssccccccccccccccccccccccsccccccscccccccccccccscccsscccccccccccccsccccccccsccccccscccccccccccscscccsscccccccccccccscccscccccccccccccscscscccccscscsscscsscccscccccccccccccscccccccccscsccccccssccccccssscccscccccccccccscscccccccccscsccccccssccccccssssccscccccccccccscscccccccccscsccccccssccccccssscscsscscsscscsscscsscscsscscs" /><rect
       style="display:inline;fill:none;fill-opacity:1;stroke:#000400;stroke-width:0.847805;stroke-linecap:round;stroke-linejoin:miter;stroke-dasharray:none;stroke-opacity:1"
       id="rect17565"
       width="394.15219"
       height="326.15219"
       x="315.42413"
       y="305.42361"
       inkscape:label="cut4" /></g></svg>
