<?xml version="1.0" encoding="UTF-8" standalone="no"?>
<!-- Created with Inkscape (http://www.inkscape.org/) -->

<svg
   width="337mm"
   height="327mm"
   viewBox="0 0 337 327"
   version="1.1"
   id="svg5"
   xml:space="preserve"
   inkscape:version="1.2.1 (9c6d41e, 2022-07-14)"
   sodipodi:docname="QuizCube Board v1_cutter_1_V3.svg"
   inkscape:export-filename="QuizCube Board v1_cutter.png"
   inkscape:export-xdpi="96"
   inkscape:export-ydpi="96"
   xmlns:inkscape="http://www.inkscape.org/namespaces/inkscape"
   xmlns:sodipodi="http://sodipodi.sourceforge.net/DTD/sodipodi-0.dtd"
   xmlns="http://www.w3.org/2000/svg"
   xmlns:svg="http://www.w3.org/2000/svg"><sodipodi:namedview
     id="namedview7"
     pagecolor="#505050"
     bordercolor="#eeeeee"
     borderopacity="1"
     inkscape:showpageshadow="0"
     inkscape:pageopacity="0"
     inkscape:pagecheckerboard="0"
     inkscape:deskcolor="#505050"
     inkscape:document-units="mm"
     showgrid="false"
     inkscape:zoom="0.71818531"
     inkscape:cx="502.65578"
     inkscape:cy="765.12286"
     inkscape:window-width="1800"
     inkscape:window-height="1097"
     inkscape:window-x="0"
     inkscape:window-y="44"
     inkscape:window-maximized="1"
     inkscape:current-layer="layer1" /><defs
     id="defs2" /><g
     inkscape:label="Layer 1"
     inkscape:groupmode="layer"
     id="layer1"
     transform="translate(20.999998,20.999998)"><path
       id="rect111"
       style="color:#000000;fill:none;stroke-linecap:round;stroke-linejoin:round;-inkscape-stroke:none;fill-opacity:1;stroke:#666666;stroke-opacity:1"
       inkscape:label="grid"
       d="m 19.999838,125.00015 c -8.1954,0 -14.9996016,6.80471 -14.9996016,15.00012 0,6.44788 4.2123705,12.0337 9.9999066,14.12317 v 101.75348 c -5.7875659,2.08945 -9.9999066,7.67528 -9.9999066,14.12317 0,6.4479 4.2123407,12.03424 9.9999066,14.12368 v 21.48448 h 1.577681 c 0.0019,-6.53943 0.0125,-13.07908 -0.0093,-19.61792 0.0737,-1.16356 0.193741,-2.68424 -0.999939,-3.34915 -5.025651,-1.76531 -8.7994017,-6.72297 -8.9565597,-12.07678 -0.3039633,-5.15665 2.8147209,-10.18614 7.3587237,-12.53464 1.036094,-0.44266 2.447395,-0.83583 2.617412,-2.15232 v -99.25338 c -0.09706,-1.28363 0.382201,-2.89878 -0.7922,-3.83335 -0.954455,-0.47129 -2.067898,-0.86864 -2.904216,-1.46038 C 8.652122,148.66328 6.0307609,143.52875 6.6776544,138.51767 7.2977385,131.97323 13.39329,126.48339 19.974,126.59541 c 4.990695,-0.0689 9.756849,3.00777 12.012187,7.4166 0.435762,1.02416 0.829598,2.42785 2.136821,2.57607 32.837174,0.003 65.674637,7.6e-4 98.511812,-0.007 1.1606,-0.0868 2.34404,0.17258 3.48351,-0.0899 0.87091,-0.15652 1.3602,-1.0456 1.56528,-1.75649 2.02839,-4.70431 6.88817,-8.0786 12.03699,-8.14834 v 5.2e-4 c 1.80078,-0.049 3.59914,0.31274 5.26376,0.99374 2.92666,1.19151 5.54136,3.54628 7.00216,6.43165 0.43565,1.02389 0.82958,2.4284 2.13682,2.57658 h 88.01737 c 4.54321,-0.0106 9.09341,0.0183 13.63224,-0.009 0.98831,-0.0484 1.64062,-0.8852 1.88826,-1.7725 1.99108,-4.73551 6.84933,-8.1082 11.99875,-8.21552 5.09284,-0.17611 10.0308,2.91076 12.32638,7.42125 0.43565,1.02389 0.82958,2.42789 2.13682,2.57607 h 21.48551 v -1.58905 h -21.48551 c -2.0896,-5.7873 -7.67547,-9.99991 -14.12317,-9.99991 -6.4477,0 -12.03357,4.21261 -14.12317,9.99991 H 164.12334 c -2.08959,-5.78733 -7.67546,-9.99991 -14.12317,-9.99991 -6.4477,0 -12.03357,4.21261 -14.12317,9.99991 H 34.123523 c -2.089578,-5.78733 -7.675965,-9.99991 -14.123685,-9.99991 z m 14.849739,18.38906 c -0.746302,-0.009 -1.580298,0.17127 -2.052588,0.80047 -0.710379,1.7174 -1.615325,3.38036 -2.883545,4.75785 -1.124888,1.27672 -2.437934,2.21937 -3.886067,3.02152 -1.033586,0.44346 -2.449578,0.83769 -2.615345,2.15439 4.12e-4,33.13113 -8.83e-4,66.26231 5.17e-4,99.39342 0.07319,1.25316 -0.35402,2.85847 0.84336,3.72432 3.212848,1.22238 6.025811,3.54856 7.64036,6.60683 0.515356,1.01704 0.80037,2.48776 2.128036,2.72541 17.115157,0.035 34.235373,0.005 51.352421,0.015 16.146334,-0.0117 32.293924,0.0233 48.439424,-0.0181 1.18791,0.0261 2.73387,0.27061 3.47885,-0.91002 1.20794,-3.25667 3.62625,-6.04816 6.71691,-7.64656 1.02208,-0.43547 2.42099,-0.83318 2.57607,-2.1363 -0.008,-33.19759 0.0162,-66.3964 -0.0119,-99.59341 -0.006,-1.217 0.30299,-2.80462 -0.91416,-3.57652 -3.24273,-1.2081 -6.02606,-3.60636 -7.63054,-6.6797 -0.44347,-1.03359 -0.83769,-2.44957 -2.15439,-2.61534 H 72.22404 c -12.458019,-0.0157 -24.916652,0.0313 -37.374463,-0.0233 z m 129.999813,0 c -0.79437,-0.0106 -1.7238,0.20314 -2.1425,0.94878 -1.20356,3.24505 -3.60867,6.02504 -6.6797,7.63106 -1.03358,0.44346 -2.44905,0.83769 -2.61482,2.15439 v 99.05339 c 0.12389,1.33795 -0.4186,2.99755 0.75757,4.00905 0.7927,0.38614 1.74011,0.75123 2.42776,1.18184 2.28234,1.32825 4.16623,3.30457 5.38882,5.6441 0.43547,1.02208 0.83318,2.42151 2.1363,2.57659 h 98.95365 c 1.31853,-0.13888 2.89108,0.40341 3.97134,-0.6134 0.56097,-0.78378 0.77787,-1.78582 1.33325,-2.59209 1.2678,-2.19723 3.30059,-4.17268 5.63066,-5.36918 1.02208,-0.43547 2.42099,-0.83318 2.57607,-2.1363 -4.1e-4,-33.13114 4.9e-4,-66.26284 -5.1e-4,-99.39394 -0.0732,-1.25316 0.35454,-2.85796 -0.84285,-3.7238 -3.21284,-1.22239 -6.02632,-3.54857 -7.64087,-6.60683 -0.51536,-1.01704 -0.79985,-2.48777 -2.12752,-2.72542 -21.24836,-0.035 -42.50194,-0.005 -63.75218,-0.015 -12.45803,-0.0157 -24.91666,0.0313 -37.37447,-0.0233 z m 130.00034,0 c -0.79437,-0.0106 -1.72381,0.20314 -2.14251,0.94878 -1.20547,3.24358 -3.60635,6.0271 -6.67969,7.63106 -1.03358,0.44346 -2.44958,0.83769 -2.61535,2.15439 0.008,33.19758 -0.0162,66.39639 0.0119,99.5934 0.006,1.217 -0.30351,2.80463 0.91364,3.57653 3.24504,1.20357 6.02504,3.60867 7.63106,6.6797 0.44347,1.03358 0.83769,2.44957 2.15439,2.61534 h 21.48551 v -1.58802 h -21.48551 c -1.52316,-4.21894 -4.90402,-7.60028 -9.12296,-9.12347 V 154.12344 c 4.21886,-1.52318 7.59978,-4.90411 9.12296,-9.12296 h 21.48551 v -1.59835 c -6.91966,0.004 -13.83939,0.0174 -20.75894,-0.0129 z M 34.123523,145.00048 H 135.877 c 1.52318,4.21885 4.90412,7.59978 9.12296,9.12296 v 101.75348 c -4.21892,1.52319 -7.5998,4.90453 -9.12296,9.12347 H 34.123523 c -1.523166,-4.21902 -4.904454,-7.6003 -9.123474,-9.12347 V 154.12344 c 4.218939,-1.52316 7.600287,-4.90403 9.123474,-9.12296 z m 129.999817,0 h 101.75348 c 1.52315,4.21875 4.90426,7.59973 9.12296,9.12296 v 101.75348 c -4.21878,1.52324 -7.59983,4.90463 -9.12296,9.12347 H 164.12334 c -1.52317,-4.21902 -4.90445,-7.6003 -9.12347,-9.12347 V 154.12344 c 4.21894,-1.52316 7.60028,-4.90403 9.12347,-9.12296 z M 34.849577,273.38903 c -0.765085,-0.0105 -1.643962,0.18345 -2.090828,0.86351 -1.220665,3.21468 -3.54462,6.03233 -6.606315,7.64398 -1.018063,0.517 -2.487104,0.79922 -2.725415,2.12804 -0.01473,7.19359 -0.0067,14.38893 -0.0062,21.58369 h 1.579232 v -21.48448 c 4.21902,-1.52316 7.600308,-4.90444 9.123474,-9.12347 H 135.877 c 1.52316,4.21895 4.90404,7.60029 9.12296,9.12347 v 21.48448 h 1.5782 c -0.002,-6.44142 0.003,-12.88309 -0.002,-19.3244 -0.006,-1.217 0.30299,-2.80463 -0.91416,-3.57653 -3.20072,-1.19471 -5.9616,-3.54418 -7.56801,-6.56859 -0.50239,-1.04594 -0.841,-2.55234 -2.21692,-2.72645 H 72.22404 c -12.458019,-0.0154 -24.916652,0.0313 -37.374463,-0.0233 z m 129.999813,0 c -0.79584,-0.0131 -1.72441,0.20546 -2.14405,0.95085 -1.20828,3.2601 -3.63137,6.0519 -6.72466,7.65069 -1.02154,0.43313 -2.4133,0.83288 -2.56831,2.13269 v 21.48499 h 1.5875 v -21.48448 c 4.21902,-1.52316 7.6003,-4.90444 9.12347,-9.12347 h 101.75348 c 1.52313,4.21885 4.90418,7.60024 9.12296,9.12347 v 21.48448 h 1.5875 c -8e-5,-6.3748 1.9e-4,-12.74961 0,-19.12441 -0.0732,-1.25316 0.35454,-2.85847 -0.84285,-3.72432 -3.21276,-1.22279 -6.02631,-3.54782 -7.64087,-6.60684 -0.51585,-1.01681 -0.79974,-2.48782 -2.12752,-2.72541 -21.24836,-0.035 -42.50194,-0.005 -63.75218,-0.015 -12.45803,-0.0154 -24.91666,0.0313 -37.37447,-0.0233 z m 130.00034,0 c -0.67497,-0.007 -1.40701,0.13282 -1.90221,0.62683 -0.54783,0.79737 -0.77518,1.79091 -1.32809,2.6014 -1.26924,2.19974 -3.3054,4.17717 -5.63893,5.37331 -1.02155,0.43313 -2.41331,0.83288 -2.56832,2.13269 0.002,7.16162 0.003,14.3233 0.003,21.48499 h 1.58543 v -21.48448 c 4.21894,-1.52318 7.5998,-4.90452 9.12296,-9.12347 h 21.48551 v -1.59835 c -6.91966,0.004 -13.83939,0.0174 -20.75894,-0.0129 z" /><path
       id="path6267"
       style="font-size:50.8px;-inkscape-font-specification:'josefin sans';fill:#333333;stroke-width:0.264583"
       inkscape:label="header"
       d="m 168.00476,-0.79268488 c -3.81552,-0.0406999 -7.39729,2.04940408 -15.10554,6.06732988 -2.08585,1.0872298 -5.61742,2.8888397 -7.84707,4.0028565 -16.35233,8.1702805 -16.04088,7.9404615 -16.04088,11.8473385 0,4.023613 0.0276,4.049854 8.45685,8.163326 11.84826,5.78188 27.9152,13.985796 29.39562,15.009937 0.44705,0.309294 1.04875,0.615473 1.33635,0.679545 1.62715,0.36313 2.82844,-0.04815 7.05435,-2.414323 2.01764,-1.129758 7.90536,-4.287783 13.08396,-7.018176 21.67805,-11.429702 19.66243,-9.876404 19.49183,-15.020789 -0.11043,-3.327177 0.22008,-3.068783 -10.59935,-8.290967 -4.45935,-2.152345 -9.40201,-4.5851273 -10.98434,-5.4069047 -9.853,-5.1171748 -14.18021,-7.57582826 -18.24178,-7.61917318 z m 0.34726,3.05821128 c 0.88256,0.01719 1.76283,0.1185476 2.60708,0.390157 0.20446,0.08275 1.06187,0.2797382 0.43511,0.2583822 -1.54464,0.1079328 -3.37654,0.2979142 -4.32893,1.6918864 -0.66687,1.0807628 -0.71879,2.4033111 -0.94878,3.6230347 -0.97728,-0.2948054 -2.05403,-0.4380423 -3.09542,-0.4599203 -2.75155,-0.01328 -5.5137,0.1499729 -8.2336,0.5746419 -1.32894,0.1387188 -2.50035,1.1038501 -2.86546,2.3931357 -0.59058,1.988468 -0.59251,4.088912 -0.81442,6.13761 -1.36532,0.09194 -2.73915,0.227694 -4.0566,0.615983 -2.15588,0.772827 -4.21611,2.352157 -4.91805,4.610054 -0.55274,1.680183 0.10059,3.64754 1.56941,4.642094 2.06647,1.440405 4.80751,1.42938 7.15357,0.779281 1.89046,-0.58155 3.82811,-1.478734 5.03432,-3.108854 -0.1443,1.282955 0.15868,2.70569 1.1436,3.605464 1.44506,1.298638 3.53091,1.339583 5.36763,1.290878 2.86447,-0.191176 5.80691,-0.987343 8.07341,-2.815332 0.82446,0.905686 2.08894,1.182466 3.26233,1.266072 1.91283,0.07397 3.90931,0.18651 5.72989,-0.515214 2.14578,-0.79494 4.37366,-2.107564 5.23947,-4.343404 0.56893,-1.869532 0.68411,-3.841487 0.92087,-5.772774 1.84961,-0.247434 3.72239,-0.141458 5.58054,-0.255799 1.55575,-0.01563 3.06765,-1.031841 3.59203,-2.506306 0.18753,-0.184169 0.66027,0.269665 0.9586,0.342098 3.03628,1.512315 6.08876,3.009382 8.99997,4.753715 0.22086,0.965018 0.23501,1.962185 0.25063,2.947623 0.0933,0.631192 -0.61123,0.916071 -1.01906,1.246436 -3.4334,2.186666 -7.05613,4.054782 -10.6345,5.989298 -6.89806,3.627226 -13.77276,7.299112 -20.64008,10.984343 -1.08734,0.50966 -2.1176,1.254461 -3.33106,1.4149 -0.8524,-0.0349 -1.58931,-0.572848 -2.35128,-0.908471 -7.68341,-4.130244 -15.48757,-8.029618 -23.27558,-11.95741 -3.81844,-1.955118 -7.62206,-3.840417 -11.3466,-5.945373 -0.44273,-0.452571 -0.50151,-1.168048 -0.5612,-1.774052 -0.002,-0.778299 -0.026,-1.786563 0.70125,-2.269113 2.34271,-1.540235 4.89373,-2.729862 7.3613,-4.052465 7.75346,-3.988507 15.51625,-7.9612473 23.3655,-11.7584557 1.28676,-0.6989086 2.72629,-1.0892025 4.19251,-1.1063925 0.29346,-0.0099 0.58741,-0.013511 0.8816,-0.00775 z m 5.58571,3.4618042 c 5.96452,0.0086 7.73131,0.2803864 7.73131,1.1870076 0,0.08551 -0.0281,0.154288 -0.0971,0.214974 -0.16591,0.07363 -0.3339,0.1384693 -0.50695,0.1901693 -0.47372,0.09546 -1.29901,0.1745662 -2.73006,0.289388 -4.08033,0.3273714 -6.80704,1.0362888 -6.97426,1.8128092 -0.0631,0.2923964 -0.36297,2.9640013 -0.66507,5.9371053 -0.80758,7.942703 -0.74507,7.618608 -1.65003,8.565369 -0.95851,1.002836 -2.66963,1.835489 -4.82554,2.348694 -0.3532,0.08413 -0.69587,0.150215 -1.0294,0.203088 -1.0079,0.118508 -2.02901,0.117302 -3.03237,-0.0078 -0.0378,-0.0052 -0.0783,-0.01288 -0.11731,-0.01809 -0.86388,-0.222691 -1.38751,-0.661628 -1.38751,-1.289327 0,-1.969105 3.61409,-4.109625 7.50187,-4.44314 0.90858,-0.07788 1.65362,-0.207903 1.65571,-0.287838 0.0104,-0.383468 1.03199,-11.1550643 1.19269,-12.5754595 0.0263,-0.2338374 0.0494,-0.4311222 0.0749,-0.6164998 0.0271,-0.1666146 0.0591,-0.3312716 0.0946,-0.4950602 0.27436,-1.032957 1.03698,-1.020233 4.76457,-1.0149252 z m 4.58318,4.7588824 c 0.061,0.0055 0.0934,0.02683 0.0739,0.07441 -0.74084,2.145805 -0.59044,4.459415 -0.87747,6.684864 -1.55469,0.423137 -3.09975,1.021785 -4.55734,1.740462 0.1534,-1.392689 0.30728,-2.715832 0.49247,-4.118612 0.16408,-1.230586 0.34515,-2.576294 0.54674,-3.72432 1.1788,-0.287621 2.38728,-0.425001 3.58945,-0.575676 0.10627,0.02659 0.54972,-0.09782 0.73225,-0.08113 z m -16.41657,0.181901 c 1.43143,0.0044 2.63281,0.06983 3.14555,0.207223 0.0867,0.03287 0.17113,0.07364 0.25579,0.113171 0.32312,0.304313 0.26572,0.51487 -0.31367,0.671277 -0.0735,0.01667 -0.14747,0.03176 -0.22066,0.04754 -0.66997,0.140386 -1.82301,0.235184 -3.63957,0.313676 -6.33688,0.273819 -6.17394,0.138611 -6.58048,5.46685 -0.37621,4.930108 -0.8515,5.822959 -3.72432,6.989754 -4.14851,1.685079 -7.88358,-0.07535 -5.5547,-2.617928 1.37597,-1.502104 2.83373,-2.051492 5.54798,-2.091862 3.01526,-0.0448 2.71336,0.382095 3.06235,-4.316015 0.21619,-2.908041 0.39313,-4.032065 0.65939,-4.183208 0.65581,-0.372311 4.45717,-0.609688 7.36234,-0.60048 z m 20.43441,0.466638 v 5.17e-4 c 2.60139,-0.0409 8.0561,1.000413 9.15345,1.857251 0.92703,0.72387 -0.0155,1.247749 -1.91513,1.063501 -1.83985,-0.178517 -5.64945,0.224467 -6.40116,0.676961 -0.52529,0.316037 -0.5936,0.610213 -0.74311,3.189987 -0.25781,4.443702 -0.68343,5.205675 -3.58686,6.425447 -0.8467,0.355706 -1.90847,0.593978 -2.92902,0.706417 -0.71457,0.01563 -1.43432,-0.02338 -2.13992,-0.04031 -0.20368,-0.02605 -0.44001,-0.04182 -0.67179,-0.07803 -0.0703,-0.02084 -0.14007,-0.04424 -0.20206,-0.07028 -2.4099,-1.006196 0.80537,-3.946763 5.1661,-4.725293 2.25127,-0.401912 2.26336,-0.423305 2.46548,-4.247803 0.21123,-3.994476 0.31531,-4.539845 0.8847,-4.670516 0.23415,-0.05374 0.54768,-0.08201 0.91932,-0.08785 z m -17.04133,3.291272 c -0.112,1.142845 -0.22014,2.329169 -0.33383,3.437517 -0.10886,0.309265 -0.70404,0.145878 -1.00924,0.28267 -2.71188,0.529741 -5.41658,1.760919 -7.20525,3.925858 0.54131,-1.970927 0.58625,-4.026962 0.86041,-6.041491 0.10862,-0.340972 0.023,-1.007841 0.53124,-0.96945 2.31721,-0.06628 4.64697,-0.148931 6.93032,-0.588078 0.0753,-0.01563 0.15108,-0.0314 0.22635,-0.04703 z m 46.0654,12.579078 c -0.88821,0.0435 -2.20725,1.084405 -4.16047,2.219502 -2.00097,1.162758 -5.72122,3.309205 -8.26823,4.768702 -2.54698,1.45952 -5.92155,3.419776 -7.49825,4.355806 -1.57674,0.936029 -4.15731,2.423826 -5.73401,3.306775 -1.5767,0.882973 -3.75929,2.127289 -4.85087,2.765723 -1.09158,0.63843 -2.97706,1.742221 -4.18993,2.452563 -2.593,1.518674 -3.66524,2.432151 -4.47776,3.814237 -0.95867,1.628898 -0.93708,55.5559 0.0233,56.38054 h 0.001 c 1.39481,1.19982 1.99574,1.00008 8.53333,-2.83859 2.48638,-1.45994 6.80315,-3.99293 9.59269,-5.628595 21.04226,-12.338197 21.93937,-12.943853 22.60793,-15.275037 0.13492,-0.470647 0.21549,-10.867606 0.21549,-27.839644 0,-23.092303 0.30948,-28.585044 -1.79421,-28.481982 z m -86.06451,1.755448 c -0.43684,0.01823 -0.71285,0.195937 -1.07797,0.435632 -1.29884,0.852553 -1.22618,-0.793661 -1.27176,28.974459 -0.0508,33.130873 -0.69316,29.838574 6.5195,33.489946 1.8193,0.920998 4.79736,2.468168 6.61665,3.437516 3.94607,2.102536 13.80107,7.202397 22.09012,11.431347 7.20592,3.67632 8.63313,3.92845 9.57771,1.6893 0.59556,-1.41197 0.44032,-56.230878 -0.16278,-57.535507 -0.75452,-1.631555 1.68067,-0.291874 -27.31616,-15.031641 -10.91209,-5.546893 -13.66476,-6.943795 -14.97531,-6.891052 z m 84.70232,2.188497 c 0.22973,5.428645 0.24488,10.915808 0.27595,16.379879 -2.06206,-3.649782 -5.52778,-6.458466 -9.49192,-7.798491 -1.8437,-0.596965 -4.07866,-0.842852 -5.7335,0.371554 -1.21633,0.83104 -1.35688,2.422781 -1.53841,3.75791 -0.40968,3.946544 -0.41369,7.922518 -0.47646,11.886096 0.0104,3.149964 -0.0855,6.326383 0.41186,9.447485 0.17007,1.241311 0.85308,2.436948 1.99833,3.01222 -3.3887,0.661716 -6.78103,1.931781 -9.32294,4.343404 -1.59869,1.536381 -2.87582,3.48366 -3.41633,5.647717 -0.22894,1.488197 -0.22163,3.021556 -0.0103,4.511353 0.4495,1.964524 1.66735,3.731161 3.2489,4.964038 0.0852,1.535654 0.16004,3.072246 0.26148,4.606954 0.15602,1.632196 0.15319,3.459723 1.25419,4.787821 -0.32593,0.28651 -0.86409,0.536149 -1.27434,0.803569 -3.58103,2.078906 -7.08024,4.304664 -10.7487,6.229074 -0.29495,0.10315 -0.83698,0.60353 -0.72967,0.0129 -0.16045,-6.754132 -0.13541,-13.511814 -0.16588,-20.267495 -0.008,-9.629236 -0.0361,-19.259596 0.0971,-28.888159 0.0617,-0.962153 -0.079,-2.004231 0.34158,-2.898014 0.87188,-1.069905 2.13706,-1.717177 3.26802,-2.473751 5.11271,-3.116834 10.34362,-6.035742 15.51068,-9.060946 5.3661,-3.074693 10.66545,-6.266667 16.06413,-9.284188 l 10e-4,0.0016 z m 41.58144,0.746724 c -2.60773,0 -5.04627,0.507941 -7.31531,1.523938 -2.2352,0.982131 -4.21611,2.353932 -5.94331,4.114995 -1.7272,1.727194 -3.08222,3.725405 -4.06435,5.994466 -0.94827,2.235194 -1.42214,4.622879 -1.42214,7.16287 0,2.675458 0.47387,5.147541 1.42214,7.416602 0.98213,2.269058 2.33715,4.250495 4.06435,5.943823 1.7272,1.693327 3.70811,3.013768 5.94331,3.962032 2.26904,0.948264 4.70758,1.422652 7.31531,1.422652 1.37302,0 2.69728,-0.136335 3.97392,-0.406177 h 16.34629 v -4.775419 h -7.37733 c 0.0889,-0.08395 0.17761,-0.168472 0.2651,-0.254248 1.76107,-1.727194 3.13286,-3.724889 4.115,-5.993949 0.98213,-2.269061 1.47329,-4.707591 1.47329,-7.315316 0,-2.539991 -0.49116,-4.927676 -1.47329,-7.16287 -0.98214,-2.269061 -2.35393,-4.267272 -4.115,-5.994466 -1.7272,-1.761063 -3.72542,-3.132864 -5.99446,-4.114995 -2.2352,-1.015997 -4.63965,-1.523938 -7.21352,-1.523938 z M 126.3148,31.970173 c 2.31381,0.984459 4.55811,2.121347 6.81767,3.222543 8.73374,4.353245 17.43495,8.776673 26.09298,13.279292 1.9253,1.054173 3.92739,1.999303 5.71489,3.281454 0.11772,2.336503 0.14355,4.676305 0.19121,7.015075 0.18649,12.69844 0.26125,25.398688 0.22324,38.09845 -0.0372,3.171673 0.005,6.410093 -0.23151,9.531723 -0.39954,-0.17268 -0.79516,-0.35278 -1.18959,-0.53692 -6.17303,-2.88522 -12.18912,-6.033932 -18.24747,-9.117276 -5.94441,-3.069244 -11.9102,-6.100572 -17.78909,-9.294006 -1.11788,-0.53162 -1.30742,-1.872369 -1.50482,-2.958476 -0.16748,-2.980381 -0.14714,-5.968658 -0.19689,-8.952942 -0.0935,-12.960145 -0.11558,-25.921928 0.0186,-38.881864 0.0104,-1.0181 0.0374,-2.134355 0.0506,-3.089218 0.0156,-0.532555 0.0334,-1.065277 0.0501,-1.597835 z m 125.46727,4.60282 c 1.89653,0 3.6746,0.372181 5.33404,1.117244 1.65947,0.7112 3.11566,1.710304 4.36873,2.997234 1.25306,1.253061 2.23539,2.726557 2.94659,4.419885 0.7112,1.693327 1.0666,3.488157 1.0666,5.384684 0,1.964261 -0.3554,3.793159 -1.0666,5.486487 -0.7112,1.659461 -1.67623,3.13244 -2.89543,4.419368 -1.2192,1.28693 -2.65864,2.286036 -4.31808,2.997233 -1.65947,0.7112 -3.43751,1.066602 -5.33405,1.066602 -1.93037,0 -3.72521,-0.355402 -5.38468,-1.066602 -1.65946,-0.711197 -3.11618,-1.710303 -4.36924,-2.997233 -1.25307,-1.286928 -2.23488,-2.759907 -2.94608,-4.419368 -0.71117,-1.693328 -1.06711,-3.50545 -1.06711,-5.435844 0,-1.896527 0.33862,-3.691357 1.01596,-5.384684 0.67731,-1.69333 1.64288,-3.1836 2.89594,-4.470528 1.25307,-1.28693 2.70926,-2.286034 4.36873,-2.997234 1.65946,-0.745063 3.45428,-1.117244 5.38468,-1.117244 z m 57.65798,0.964799 c -0.7112,0 -1.37167,0.25423 -1.98127,0.762227 -0.57574,0.508 -0.86352,1.134408 -0.86352,1.879472 0,0.745064 0.28778,1.371475 0.86352,1.879472 0.6096,0.508 1.27007,0.762227 1.98127,0.762227 0.7112,0 1.33761,-0.236936 1.87947,-0.711067 0.57574,-0.508 0.86352,-1.151701 0.86352,-1.930632 0,-0.745064 -0.28778,-1.371472 -0.86352,-1.879472 -0.54186,-0.507997 -1.16827,-0.762227 -1.87947,-0.762227 z M 135.91731,39.81879 c -1.55079,-0.05365 -3.07859,0.671599 -4.06745,1.857251 -1.01928,1.046099 -0.97324,2.591079 -1.02165,3.947562 -0.0946,5.230831 -0.0516,10.463686 -0.0346,15.695166 0.0602,2.894794 -0.0458,5.828771 0.56534,8.675957 0.5787,2.174498 1.60836,4.214563 2.81688,6.10402 2.08012,3.226073 5.13773,5.708492 8.49561,7.511686 1.33573,0.737587 2.95659,1.30605 4.45813,0.721403 0.58991,0.4096 1.30488,0.60189 2.01486,0.65164 2.85096,0.11304 5.76952,-0.966948 7.76438,-3.029789 1.82852,-1.791547 2.47305,-4.500304 2.12701,-6.98407 -0.3574,-2.950141 -2.35819,-5.546338 -4.97334,-6.891569 -4.05615,-2.161244 -8.72463,-2.602579 -12.97906,-4.224549 -0.21253,-3.221248 -0.12611,-6.455014 -0.15658,-9.681579 -0.031,-3.242688 0.0653,-6.491599 -0.15864,-9.728605 -0.11434,-2.485696 -2.37806,-4.597958 -4.85087,-4.624524 z m 62.47784,2.030884 c 2.79799,0.04246 7.39121,3.112371 9.59115,6.696232 0.23415,0.397612 0.44992,0.805824 0.6475,1.223181 3.49672,7.706133 0.85765,19.758426 -5.25859,23.687443 -0.69256,0.444884 -1.09,0.871458 -1.16944,1.255737 -1.0785,5.209264 -4.57322,9.504607 -8.90385,10.943001 -1.3001,0.43187 -1.33116,0.553055 -1.33377,5.317505 -1e-4,0.14065 -0.003,0.210016 -0.003,0.339514 -0.026,0.74712 -0.0452,1.493541 -0.0481,2.240691 -0.0511,0.695078 -0.15131,0.92959 -0.35398,1.11311 -1.20456,1.090088 -1.91134,0.799539 -2.23966,-1.092957 -0.0284,-0.265488 -0.0544,-0.529844 -0.0956,-0.781864 -0.0401,-0.44935 -0.0699,-0.900209 -0.0982,-1.351339 -0.0182,-0.479508 -0.031,-0.992781 -0.031,-1.566829 0,-4.250057 -0.002,-4.276508 -0.49558,-4.402315 -1.51839,-0.38774 -2.77183,-2.297287 -3.06854,-4.291211 -0.0278,-0.5026 -0.0477,-1.008179 -0.03,-1.511536 0.0183,-0.15913 0.0464,-0.316172 0.0811,-0.470772 1.00445,-4.482024 4.84531,-7.520791 10.50788,-8.314222 4.07176,-0.570607 5.77918,-1.846377 7.67292,-5.731949 3.37112,-6.916558 2.27814,-12.680363 -2.40399,-12.680363 -0.55651,0 -0.77557,2.20834 -0.79272,7.943701 -0.0342,0.752562 -0.08,1.503967 -0.15761,2.253092 -0.34264,1.785976 -1.22259,2.985891 -2.15852,3.173967 -0.22347,0.01823 -0.45266,0.0024 -0.67438,-0.04599 -0.42903,-0.147159 -0.84453,-0.526095 -1.19683,-1.184424 -0.0104,-0.01823 -0.0178,-0.05303 -0.0264,-0.08061 -0.0516,-0.296478 -0.0754,-0.603027 -0.12248,-0.889869 -0.2922,-3.490145 -0.14575,-15.320361 0.21395,-19.621024 0.0708,-0.548107 0.16343,-1.092594 0.29352,-1.631425 0.40653,-0.379513 0.97713,-0.548756 1.65416,-0.538468 z m -62.66853,0.829406 h 0.001 c 0.48083,-0.01562 0.96826,0.09005 1.36736,0.329696 l 0.001,0.001 c 0.30472,0.224774 0.5549,0.523074 0.7214,0.862997 0.2253,0.797336 0.22762,2.897767 0.22893,10.662398 0.002,8.950336 0.0522,10.719443 0.31884,11.041187 0.62827,0.757928 2.83068,1.639778 5.53868,2.219502 8.63296,1.848046 11.14635,3.30662 12.25248,7.111711 0.7833,2.694423 -0.79892,5.62323 -3.60598,6.673494 -1.13413,0.42437 -2.95124,0.68278 -3.71347,0.54622 -0.15575,-0.10106 -0.31792,-0.195912 -0.4873,-0.275952 -0.2417,-0.341737 -0.29799,-1.04311 -0.2341,-2.437577 0.0838,-1.831602 -0.0507,-2.012459 -1.264,-1.707906 -0.51302,0.128665 -0.53434,0.208761 -0.53434,2.01073 0,2.297614 -0.18797,2.443257 -1.96474,1.51567 -5.97002,-3.116937 -9.29873,-7.307835 -10.5177,-13.245704 -0.12293,-0.598502 -0.20878,-2.854997 -0.26613,-5.686474 -0.0539,-4.755705 -0.0475,-9.51244 -0.0181,-14.26838 0.0479,-2.337026 0.12444,-4.024901 0.23513,-4.267956 0.30861,-0.677346 1.11562,-1.059269 1.94096,-1.084689 z m 143.48737,5.120618 v 15.544788 c 0.0677,1.86266 0.71143,3.386485 1.93063,4.571813 1.25307,1.151464 2.82773,1.727027 4.72426,1.727027 1.3208,0 2.54006,-0.220159 3.65766,-0.660425 1.1176,-0.440266 2.08263,-1.032605 2.89543,-1.777669 0.7455,-0.68586 1.32028,-1.450519 1.72444,-2.293917 l 0.30748,3.919657 h 4.31808 V 47.799698 h -4.72426 v 9.804053 c 0,1.523994 -0.28778,2.895797 -0.86351,4.114994 -0.57574,1.18533 -1.3379,2.133588 -2.28617,2.844788 -0.9144,0.67733 -1.96435,1.015958 -3.14968,1.015958 -1.28693,-0.03387 -2.23519,-0.406564 -2.84479,-1.117761 -0.57571,-0.711197 -0.89758,-1.642164 -0.96531,-2.793628 V 47.799698 Z m 27.73681,0 v 21.031274 h 4.72426 V 47.799698 Z M 210.37685,69.36634 c -0.026,2.107747 -0.0463,4.21554 -0.0822,6.323128 -0.013,1.215578 -0.0504,2.523139 -0.0739,3.679879 -0.0209,0.60109 -0.0448,1.32471 -0.0656,1.8495 -0.0346,0.638667 -0.0493,1.181892 -0.14677,1.849499 -0.70362,0.69701 -1.52466,1.262534 -2.34197,1.816944 -4.27846,2.729321 -8.63442,5.336397 -12.98164,7.954553 0.0302,-1.312808 0.0631,-2.627755 0.13591,-3.962549 -0.0594,-0.43634 0.0915,-0.781196 0.52503,-0.928626 1.63434,-0.806337 3.19746,-1.787658 4.48035,-3.095935 2.23973,-2.162331 3.6699,-4.988953 4.76612,-7.865669 0.15444,-0.521488 0.30273,-1.068466 0.78755,-1.389063 2.09495,-1.549404 3.70776,-3.667383 4.87463,-5.98258 0.0407,-0.08308 0.0816,-0.165995 0.12248,-0.249081 z" /><path
       id="circle6017"
       style="fill:none;fill-opacity:1;stroke:#000000;stroke-width:1;stroke-linecap:round;stroke-linejoin:round;stroke-dasharray:none;stroke-opacity:1"
       inkscape:label="led"
       d="m 85.000004,142.00015 c -2.761597,-1.2e-4 -5.000328,2.23862 -5.000211,5.00021 1.69e-4,2.76139 2.238816,4.99981 5.000211,4.9997 2.761194,-1.7e-4 5.000043,-2.23851 5.000212,-4.9997 1.17e-4,-2.76139 -2.238816,-5.00004 -5.000212,-5.00021 z m 130.000336,0 c -2.7616,-1.2e-4 -5.00031,2.23862 -5.00021,5.00021 2e-4,2.76139 2.23881,4.99981 5.00021,4.9997 2.7612,-1.7e-4 4.99949,-2.23851 4.99969,-4.9997 1e-4,-2.76139 -2.23829,-5.00004 -4.99969,-5.00021 z M 85.000004,175.33352 c -2.761597,-1.2e-4 -5.000328,2.23862 -5.000211,5.00021 1.68e-4,2.76136 2.238816,4.99981 5.000211,4.99969 2.761195,-1.7e-4 5.000044,-2.23853 5.000212,-4.99969 1.17e-4,-2.76139 -2.238816,-5.00005 -5.000212,-5.00021 z m 130.000336,0 c -2.7616,-1.2e-4 -5.00031,2.23862 -5.00021,5.00021 2e-4,2.76136 2.23881,4.99981 5.00021,4.99969 2.7612,-1.7e-4 4.99949,-2.23853 4.99969,-4.99969 1e-4,-2.76139 -2.23829,-5.00005 -4.99969,-5.00021 z M 85.000004,208.66688 c -2.761395,-1.1e-4 -5.000043,2.23831 -5.000211,4.9997 -1.17e-4,2.76157 2.238614,5.00033 5.000211,5.00021 2.761396,-1.7e-4 5.000329,-2.23885 5.000212,-5.00021 -1.68e-4,-2.76119 -2.239017,-4.99953 -5.000212,-4.9997 z m 130.000336,0 c -2.7614,-1.1e-4 -5.00001,2.23831 -5.00021,4.9997 -1e-4,2.76157 2.23861,5.00033 5.00021,5.00021 2.7614,-1.7e-4 4.99979,-2.23885 4.99969,-5.00021 -2e-4,-2.76119 -2.23849,-4.99953 -4.99969,-4.9997 z M 85.000004,242.00025 c -0.988969,-1.5e-4 -1.955761,0.29298 -2.778125,0.84232 -0.822109,0.54942 -1.462852,1.33025 -1.841231,2.24379 v 5.2e-4 c -0.125371,0.3024 -0.220739,0.61637 -0.284737,0.93741 v 5.2e-4 c -0.06389,0.32111 -0.09608,0.64772 -0.09612,0.97513 -2.1e-5,1.66991 0.833618,3.2296 2.222086,4.15737 h 5.17e-4 c 0.545809,0.36479 1.158106,0.61853 1.801957,0.74673 h 5.17e-4 c 0.321115,0.0639 0.647727,0.0961 0.975134,0.0961 0.317465,-9.1e-4 0.634121,-0.032 0.945679,-0.093 0.01655,-0.003 0.03309,-0.006 0.04961,-0.009 0.303479,-0.0622 0.600516,-0.15254 0.887284,-0.26975 0.02021,-0.008 0.04036,-0.0164 0.06046,-0.0248 0.285657,-0.12023 0.559514,-0.26676 0.818038,-0.4377 0.01244,-0.009 0.02484,-0.0172 0.03721,-0.0258 0.528177,-0.35711 0.983175,-0.81193 1.340487,-1.33997 0.0094,-0.0134 0.01918,-0.0268 0.02842,-0.0403 0.170262,-0.25776 0.316268,-0.53074 0.436149,-0.81545 0.0091,-0.0215 0.01806,-0.043 0.02687,-0.0646 0.116591,-0.28632 0.206375,-0.58283 0.2682,-0.88573 0.0028,-0.0155 0.0056,-0.031 0.0083,-0.0465 0.06123,-0.31205 0.09254,-0.62923 0.09353,-0.94723 v -5.1e-4 -5.2e-4 c -10e-4,-0.31783 -0.03233,-0.63483 -0.09353,-0.94671 -0.0027,-0.0155 -0.0054,-0.031 -0.0083,-0.0465 -0.06196,-0.30309 -0.151919,-0.59978 -0.268717,-0.88625 -0.0085,-0.0211 -0.0176,-0.0416 -0.02635,-0.0625 -0.120124,-0.28528 -0.266479,-0.55879 -0.437183,-0.81701 -0.0089,-0.013 -0.01785,-0.0264 -0.02687,-0.0393 -0.357361,-0.52846 -0.812544,-0.98364 -1.341004,-1.341 -0.01236,-0.009 -0.02477,-0.0173 -0.03721,-0.0258 -0.259306,-0.17144 -0.534038,-0.31831 -0.820621,-0.43873 -0.01873,-0.008 -0.0375,-0.0156 -0.05633,-0.0233 -0.287584,-0.11754 -0.585491,-0.20802 -0.889868,-0.27027 -0.01549,-0.003 -0.03099,-0.006 -0.04651,-0.008 -0.312219,-0.0613 -0.629573,-0.0926 -0.947746,-0.0935 z m 130.000336,0 c -0.9889,-1.5e-4 -1.95573,0.29298 -2.77813,0.84232 -0.8221,0.54942 -1.46293,1.33025 -1.84123,2.24379 v 5.2e-4 c -0.1254,0.3024 -0.22074,0.61637 -0.28474,0.93741 v 5.2e-4 c -0.064,0.32111 -0.0961,0.64772 -0.0961,0.97513 0,1.66991 0.83358,3.2296 2.22208,4.15737 h 5.2e-4 c 0.5458,0.36479 1.15806,0.61853 1.80196,0.74673 h 5.1e-4 c 0.3211,0.0639 0.64774,0.0961 0.97514,0.0961 0.3175,-9.1e-4 0.63418,-0.032 0.94568,-0.093 0.017,-0.003 0.0331,-0.006 0.0501,-0.009 0.3035,-0.0622 0.60059,-0.15254 0.88729,-0.26975 0.02,-0.008 0.04,-0.0164 0.061,-0.0248 0.2856,-0.12023 0.55953,-0.26676 0.81803,-0.4377 0.012,-0.009 0.0247,-0.0172 0.0367,-0.0258 0.5282,-0.35711 0.98319,-0.81193 1.34049,-1.33997 0.01,-0.0134 0.0194,-0.0268 0.0284,-0.0403 0.1703,-0.25776 0.31625,-0.53074 0.43615,-0.81545 0.01,-0.0215 0.0179,-0.043 0.0269,-0.0646 0.1165,-0.28632 0.2063,-0.58283 0.2682,-0.88573 0,-0.0155 0.01,-0.031 0.01,-0.0465 0.061,-0.31205 0.092,-0.62923 0.093,-0.94723 v -5.1e-4 -5.2e-4 c 0,-0.31783 -0.032,-0.63483 -0.093,-0.94671 0,-0.0155 -0.01,-0.031 -0.01,-0.0465 -0.062,-0.30309 -0.15191,-0.59978 -0.26871,-0.88625 -0.01,-0.0211 -0.0174,-0.0416 -0.0264,-0.0625 -0.1201,-0.28528 -0.26648,-0.55879 -0.43718,-0.81701 -0.01,-0.013 -0.0179,-0.0264 -0.0269,-0.0393 -0.3573,-0.52846 -0.81251,-0.98364 -1.34101,-1.341 -0.012,-0.009 -0.0247,-0.0173 -0.0367,-0.0258 -0.2593,-0.17144 -0.53402,-0.31831 -0.82062,-0.43873 -0.019,-0.008 -0.0373,-0.0156 -0.0563,-0.0233 -0.2876,-0.11754 -0.58546,-0.20802 -0.88986,-0.27027 -0.015,-0.003 -0.031,-0.006 -0.046,-0.008 -0.3122,-0.0613 -0.62954,-0.0926 -0.94774,-0.0935 z M 85.000004,275.33361 c -2.7616,-1.2e-4 -5.000333,2.23864 -5.000211,5.00021 1.71e-4,2.76139 2.238818,4.99982 5.000211,4.9997 2.761193,-1.7e-4 5.000041,-2.23852 5.000212,-4.9997 1.22e-4,-2.76137 -2.238812,-5.00004 -5.000212,-5.00021 z m 130.000336,0 c -2.7616,-1.2e-4 -5.00031,2.23864 -5.00021,5.00021 2e-4,2.76139 2.23881,4.99982 5.00021,4.9997 2.7612,-1.7e-4 4.99949,-2.23852 4.99969,-4.9997 1e-4,-2.76137 -2.23829,-5.00004 -4.99969,-5.00021 z"
       sodipodi:nodetypes="cccccscccsscccsscscscssscscscsccccccccccccccccccccscccscscccccccccsccccccccccscccccccccccccccccscsccccccccscscccsssssscscs" /><rect
       style="display:inline;fill:none;fill-opacity:1;stroke:#000400;stroke-width:0.7831;stroke-linecap:round;stroke-linejoin:miter;stroke-dasharray:none;stroke-opacity:1"
       id="rect2069"
       width="336.21689"
       height="326.21689"
       x="-20.608448"
       y="-20.608448"
       inkscape:label="cut1" /></g></svg>
