<?xml version="1.0" encoding="UTF-8" standalone="no"?>
<!-- Created with Inkscape (http://www.inkscape.org/) -->

<svg
   width="395mm"
   height="327mm"
   viewBox="0 0 395 327"
   version="1.1"
   id="svg5"
   xml:space="preserve"
   inkscape:version="1.2.1 (9c6d41e, 2022-07-14)"
   sodipodi:docname="QuizCube Board v1_cutter_2_V2.svg"
   inkscape:export-filename="QuizCube Board v1_cutter.png"
   inkscape:export-xdpi="96"
   inkscape:export-ydpi="96"
   xmlns:inkscape="http://www.inkscape.org/namespaces/inkscape"
   xmlns:sodipodi="http://sodipodi.sourceforge.net/DTD/sodipodi-0.dtd"
   xmlns="http://www.w3.org/2000/svg"
   xmlns:svg="http://www.w3.org/2000/svg"><sodipodi:namedview
     id="namedview7"
     pagecolor="#505050"
     bordercolor="#eeeeee"
     borderopacity="1"
     inkscape:showpageshadow="0"
     inkscape:pageopacity="0"
     inkscape:pagecheckerboard="0"
     inkscape:deskcolor="#505050"
     inkscape:document-units="mm"
     showgrid="false"
     inkscape:zoom="0.65748447"
     inkscape:cx="712.56436"
     inkscape:cy="674.54065"
     inkscape:window-width="1800"
     inkscape:window-height="1097"
     inkscape:window-x="0"
     inkscape:window-y="44"
     inkscape:window-maximized="1"
     inkscape:current-layer="layer1" /><defs
     id="defs2" /><g
     inkscape:label="Layer 1"
     inkscape:groupmode="layer"
     id="layer1"
     transform="translate(-315.00023,21.000304)"><path
       id="rect111"
       style="color:#000000;fill:#666666;fill-opacity:1;stroke-linecap:round;stroke-linejoin:round;-inkscape-stroke:none"
       inkscape:label="grid"
       d="M 319.62424 143.40155 C 318.22428 143.40129 316.82394 143.40121 315.42398 143.40206 L 315.42398 145.00042 L 342.71533 145.00042 L 342.71533 143.41447 C 339.21807 143.41452 335.72059 143.41405 332.22347 143.4124 C 328.02358 143.40715 323.82407 143.40233 319.62424 143.40155 z " /><path
       id="path10243"
       style="color:#000000;fill:#666666;fill-opacity:1;stroke-linecap:round;stroke-linejoin:round;-inkscape-stroke:none"
       inkscape:label="grid"
       d="M 665.00006 154.45359 L 665.00006 255.49858 L 666.58756 255.49858 L 666.58756 156.82347 C 666.51846 156.07728 666.65637 155.23151 666.58807 154.45359 L 665.00006 154.45359 z " /><path
       id="path10264"
       style="color:#000000;fill:#666666;fill-opacity:1;stroke-linecap:round;stroke-linejoin:round;-inkscape-stroke:none"
       inkscape:label="grid"
       d="M 665.00006 154.45359 L 666.58807 154.45359 C 666.53391 153.83667 666.35018 153.26229 665.82998 152.81493 C 665.03729 152.42879 664.08986 152.0637 663.40222 151.63309 C 661.1767 150.33436 659.31893 148.42618 658.10332 146.1528 C 657.58796 145.13576 657.30346 143.66504 655.9758 143.42739 C 640.15501 143.40133 624.33097 143.41335 608.5079 143.41602 L 608.5079 145.00042 L 655.87658 145.00042 C 657.39978 149.21927 660.78114 152.60027 665.00006 154.12337 L 665.00006 154.45359 z " /><path
       id="path10241"
       style="color:#000000;fill:#666666;fill-opacity:1;stroke-linecap:round;stroke-linejoin:round;-inkscape-stroke:none"
       inkscape:label="grid"
       d="M 543.41471 255.49858 C 543.4637 256.13318 543.63651 256.72726 544.1697 257.18582 C 544.96239 257.57196 545.90981 257.93705 546.59746 258.36766 C 548.87981 259.69591 550.76368 261.67223 551.98628 264.01176 C 552.42175 265.03384 552.81998 266.43326 554.1231 266.58834 L 653.17649 266.58834 C 654.51445 266.46445 656.17408 267.00642 657.18554 265.83025 C 657.57168 265.03755 657.93626 264.09014 658.36687 263.40249 C 659.69512 261.12014 661.67198 259.23627 664.01148 258.01367 C 665.03355 257.5782 666.43248 257.18049 666.58756 255.87737 L 666.58756 255.49858 L 665.00006 255.49858 L 665.00006 255.87685 C 660.78106 257.40001 657.39976 260.78134 655.87658 265.00033 L 554.1231 265.00033 C 552.59994 260.78131 549.21861 257.40002 544.99963 255.87685 L 544.99963 255.49858 L 543.41471 255.49858 z " /><path
       id="path10239"
       style="color:#000000;fill:#666666;fill-opacity:1;stroke-linecap:round;stroke-linejoin:round;-inkscape-stroke:none"
       inkscape:label="grid"
       d="M 543.41213 154.45359 L 543.41213 253.17676 C 543.47985 253.90816 543.35563 254.73335 543.41471 255.49858 L 544.99963 255.49858 L 544.99963 154.45359 L 543.41213 154.45359 z " /><path
       id="path10267"
       style="color:#000000;fill:#666666;fill-opacity:1;stroke-linecap:round;stroke-linejoin:round;-inkscape-stroke:none"
       inkscape:label="grid"
       d="M 543.41213 154.45359 L 544.99963 154.45359 L 544.99963 154.12337 C 549.21852 152.60026 552.59991 149.2193 554.1231 145.00042 L 601.23857 145.00042 L 601.23857 143.41447 C 598.23357 143.41436 595.22853 143.41381 592.22362 143.4124 C 579.76565 143.3967 567.30743 143.44375 554.84967 143.38915 C 554.0553 143.37855 553.12535 143.59233 552.70665 144.33792 C 551.50308 147.58297 549.09793 150.36296 546.02696 151.96898 C 544.99338 152.41244 543.5779 152.80667 543.41213 154.12337 L 543.41213 154.45359 z " /><path
       id="path10237"
       style="color:#000000;fill:#666666;fill-opacity:1;stroke-linecap:round;stroke-linejoin:round;-inkscape-stroke:none"
       inkscape:label="grid"
       d="M 534.99972 154.45359 L 534.99972 255.49858 L 536.58774 255.49858 C 536.58001 222.42739 536.60385 189.35452 536.57585 156.28397 C 536.57304 155.71398 536.63479 155.06429 536.58102 154.45359 L 534.99972 154.45359 z " /><path
       id="path10270"
       style="color:#000000;fill:#666666;fill-opacity:1;stroke-linecap:round;stroke-linejoin:round;-inkscape-stroke:none"
       inkscape:label="grid"
       d="M 534.99972 154.45359 L 536.58102 154.45359 C 536.51999 153.76035 536.30879 153.11782 535.6617 152.70744 C 532.41897 151.49934 529.63562 149.10108 528.03115 146.02774 C 527.58768 144.99415 527.19346 143.57817 525.87676 143.4124 L 479.01916 143.4124 L 479.01916 145.00042 L 525.87676 145.00042 C 527.39994 149.21922 530.78093 152.60024 534.99972 154.12337 L 534.99972 154.45359 z " /><path
       id="path10235"
       style="color:#000000;fill:#666666;fill-opacity:1;stroke-linecap:round;stroke-linejoin:round;-inkscape-stroke:none"
       inkscape:label="grid"
       d="M 413.41231 255.49858 C 413.46142 256.17446 413.64938 256.80269 414.25567 257.24111 C 417.46851 258.46349 420.28148 260.78971 421.89603 263.84794 C 422.41139 264.86498 422.6964 266.33571 424.02407 266.57336 C 441.13914 266.60836 458.25949 266.57834 475.37649 266.58834 C 491.52275 266.57664 507.67046 266.61166 523.81591 266.57026 C 525.00382 266.59636 526.54979 266.84086 527.29477 265.66023 C 528.50267 262.4036 530.92102 259.61207 534.01167 258.01367 C 535.03375 257.5782 536.43266 257.18049 536.58774 255.87737 C 536.58771 255.75111 536.58777 255.62484 536.58774 255.49858 L 534.99972 255.49858 L 534.99972 255.87685 C 530.78084 257.40004 527.39992 260.78139 525.87676 265.00033 L 424.12329 265.00033 C 422.60012 260.78131 419.21883 257.40002 414.99981 255.87685 L 414.99981 255.49858 L 413.41231 255.49858 z " /><path
       id="path10233"
       style="color:#000000;fill:#666666;fill-opacity:1;stroke-linecap:round;stroke-linejoin:round;-inkscape-stroke:none"
       inkscape:label="grid"
       d="M 413.41179 154.45359 C 413.41219 187.4745 413.41131 220.4959 413.41231 253.51679 C 413.44845 254.13542 413.36443 254.83964 413.41231 255.49858 L 414.99981 255.49858 L 414.99981 154.45359 L 413.41179 154.45359 z " /><path
       id="path10273"
       style="color:#000000;fill:#666666;fill-opacity:1;stroke-linecap:round;stroke-linejoin:round;-inkscape-stroke:none"
       inkscape:label="grid"
       d="M 413.41179 154.45359 L 414.99981 154.45359 L 414.99981 154.12337 C 419.21875 152.60026 422.6001 149.2193 424.12329 145.00042 L 470.84085 145.00042 L 470.84085 143.4124 L 462.2238 143.4124 C 449.76583 143.3967 437.3071 143.44375 424.84934 143.38915 C 424.08443 143.38115 423.20521 143.57148 422.75851 144.25266 C 421.53161 147.49182 419.17694 150.31912 416.08967 151.93126 C 415.05115 152.41445 413.58108 152.77006 413.41179 154.12337 C 413.4118 154.23344 413.41179 154.34352 413.41179 154.45359 z " /><path
       id="path10231"
       style="color:#000000;fill:#666666;fill-opacity:1;stroke-linecap:round;stroke-linejoin:round;-inkscape-stroke:none"
       inkscape:label="grid"
       d="M 404.9999 255.49858 L 404.9999 255.87685 C 400.78091 257.40002 397.39959 260.78131 395.87643 265.00033 L 315.42398 265.00033 L 315.42398 266.58834 L 393.17634 266.58834 C 394.5143 266.46445 396.17393 267.00642 397.18539 265.83025 C 397.57152 265.03755 397.93662 264.09014 398.36723 263.40249 C 399.69547 261.12014 401.67183 259.23627 404.01133 258.01367 C 405.0334 257.5782 406.43284 257.18049 406.58792 255.87737 L 406.58792 255.49858 L 404.9999 255.49858 z " /><path
       id="path10229"
       style="color:#000000;fill:#666666;fill-opacity:1;stroke-linecap:round;stroke-linejoin:round;-inkscape-stroke:none"
       inkscape:label="grid"
       d="M 404.9999 154.45359 L 404.9999 255.49858 L 406.58792 255.49858 L 406.58792 156.82347 C 406.51883 156.07728 406.65636 155.23151 406.58792 154.45359 L 404.9999 154.45359 z " /><path
       id="path10276"
       style="color:#000000;fill:#666666;fill-opacity:1;stroke-linecap:round;stroke-linejoin:round;-inkscape-stroke:none"
       inkscape:label="grid"
       d="M 404.9999 154.45359 L 406.58792 154.45359 C 406.53365 153.83667 406.35003 153.26229 405.82983 152.81493 C 405.03713 152.42879 404.08972 152.0637 403.40207 151.63309 C 401.17656 150.33436 399.31878 148.42618 398.10317 146.1528 C 397.58781 145.13576 397.30332 143.66504 395.97565 143.42739 C 388.00757 143.41426 380.03876 143.4102 372.06961 143.40982 C 363.79942 143.40942 355.52902 143.41277 347.25873 143.41395 L 347.25873 145.00042 L 395.87643 145.00042 C 397.39961 149.2193 400.781 152.60026 404.9999 154.12337 L 404.9999 154.45359 z " /><path
       id="path10227"
       style="color:#000000;fill:#666666;fill-opacity:1;stroke-linecap:round;stroke-linejoin:round;-inkscape-stroke:none"
       inkscape:label="grid"
       d="M 406.56415 284.28287 C 406.49128 283.73157 406.30132 283.22022 405.82983 282.81474 C 405.03713 282.4286 404.08972 282.06351 403.40207 281.6329 C 401.17656 280.33418 399.31878 278.42601 398.10317 276.15262 C 397.58732 275.13581 397.30343 273.66479 395.97565 273.4272 C 374.72738 273.3922 353.47363 273.42222 332.22347 273.41222 C 328.02358 273.40697 323.82407 273.40214 319.62424 273.40136 C 318.22428 273.4011 316.82394 273.40103 315.42398 273.40188 L 315.42398 275.00023 L 395.87643 275.00023 C 397.39959 279.21926 400.78091 282.60055 404.9999 284.12371 L 404.9999 284.28287 L 406.56415 284.28287 z " /><path
       id="path10225"
       style="color:#000000;fill:#666666;fill-opacity:1;stroke-linecap:round;stroke-linejoin:round;-inkscape-stroke:none"
       inkscape:label="grid"
       d="M 406.56415 284.28287 L 404.9999 284.28287 L 404.9999 305.57563 L 406.58792 305.57563 L 406.58792 286.8238 C 406.51369 286.02219 406.67306 285.10684 406.56415 284.28287 z " /><path
       id="path10223"
       style="color:#000000;fill:#666666;fill-opacity:1;stroke-linecap:round;stroke-linejoin:round;-inkscape-stroke:none"
       inkscape:label="grid"
       d="M 415.00033 284.28287 L 413.41179 284.28287 C 413.41377 291.38037 413.41489 298.47802 413.41489 305.57563 L 415.00033 305.57563 L 415.00033 284.28287 z " /><path
       id="path10221"
       style="color:#000000;fill:#666666;fill-opacity:1;stroke-linecap:round;stroke-linejoin:round;-inkscape-stroke:none"
       inkscape:label="grid"
       d="M 536.56448 284.28287 C 536.48334 283.65583 536.25595 283.08379 535.66221 282.70726 C 532.46155 281.51408 529.70089 279.16229 528.0942 276.13866 C 527.59181 275.09276 527.2532 273.58633 525.87728 273.41222 L 462.22432 273.41222 C 449.76634 273.39682 437.30759 273.44356 424.84986 273.38896 L 424.84934 273.38896 C 424.0549 273.37616 423.12563 273.5938 422.70683 274.33826 C 421.49508 277.59694 419.07808 280.39543 415.98011 281.9905 C 414.95856 282.42363 413.56679 282.82338 413.41179 284.12319 C 413.41181 284.17642 413.41178 284.22964 413.41179 284.28287 L 415.00033 284.28287 L 415.00033 284.12371 C 419.21931 282.60055 422.60063 279.21926 424.1238 275.00023 L 525.87728 275.00023 C 527.40044 279.21918 530.78132 282.60053 535.00024 284.12371 L 535.00024 284.28287 L 536.56448 284.28287 z " /><path
       id="path10219"
       style="color:#000000;fill:#666666;fill-opacity:1;stroke-linecap:round;stroke-linejoin:round;-inkscape-stroke:none"
       inkscape:label="grid"
       d="M 536.56448 284.28287 L 535.00024 284.28287 L 535.00024 305.57563 L 536.57844 305.57563 C 536.57644 299.14507 536.58137 292.71424 536.57637 286.28378 C 536.5733 285.66044 536.64968 284.94126 536.56448 284.28287 z " /><path
       id="path10217"
       style="color:#000000;fill:#666666;fill-opacity:1;stroke-linecap:round;stroke-linejoin:round;-inkscape-stroke:none"
       inkscape:label="grid"
       d="M 544.99963 284.28287 L 543.41213 284.28287 L 543.41213 305.57563 L 544.99963 305.57563 L 544.99963 284.28287 z " /><path
       id="path10215"
       style="color:#000000;fill:#666666;fill-opacity:1;stroke-linecap:round;stroke-linejoin:round;-inkscape-stroke:none"
       inkscape:label="grid"
       d="M 666.5643 284.28287 C 666.49153 283.73157 666.30147 283.22022 665.82998 282.81474 C 665.03729 282.4286 664.08986 282.06351 663.40222 281.6329 C 661.1767 280.33418 659.31893 278.42601 658.10332 276.15262 C 657.58747 275.13581 657.30357 273.66479 655.9758 273.4272 C 634.72752 273.3922 613.47378 273.42222 592.22362 273.41222 C 579.76564 273.39682 567.30744 273.44356 554.84967 273.38896 C 554.05383 273.37586 553.12474 273.59442 552.7051 274.33981 C 551.49681 277.59991 549.07369 280.39175 545.98045 281.9905 C 544.9589 282.42363 543.56714 282.82338 543.41213 284.12319 L 543.41213 284.28287 L 544.99963 284.28287 L 544.99963 284.12371 C 549.21861 282.60055 552.59994 279.21926 554.1231 275.00023 L 655.87658 275.00023 C 657.39976 279.21923 660.78106 282.60056 665.00006 284.12371 L 665.00006 284.28287 L 666.5643 284.28287 z " /><path
       id="path10213"
       style="color:#000000;fill:#666666;fill-opacity:1;stroke-linecap:round;stroke-linejoin:round;-inkscape-stroke:none"
       inkscape:label="grid"
       d="M 666.5643 284.28287 L 665.00006 284.28287 L 665.00006 305.57563 L 666.58756 305.57563 L 666.58756 286.8238 C 666.51333 286.02219 666.67306 285.10684 666.5643 284.28287 z " /><path
       id="path10211"
       style="color:#000000;fill:#666666;fill-opacity:1;stroke-linecap:round;stroke-linejoin:round;-inkscape-stroke:none"
       inkscape:label="grid"
       d="M 674.99996 284.28287 L 673.41194 284.28287 L 673.41194 305.57563 L 674.99996 305.57563 L 674.99996 284.28287 z " /><path
       id="path10209"
       style="color:#000000;fill:#666666;fill-opacity:1;stroke-linecap:round;stroke-linejoin:round;-inkscape-stroke:none"
       inkscape:label="grid"
       d="M 674.99996 255.49858 L 673.429 255.49858 C 673.49365 256.25077 673.71641 256.96142 674.43152 257.35997 C 679.54818 259.15575 683.35813 264.26713 683.40203 269.72149 C 683.56918 274.75189 680.532 279.6171 676.10119 281.92436 C 675.06497 282.41898 673.57856 282.76627 673.41194 284.12371 L 673.41194 284.28287 L 674.99996 284.28287 L 674.99996 284.12371 C 680.78745 282.03422 684.99987 276.44786 684.99987 270.00002 C 684.99987 263.55223 680.78745 257.96635 674.99996 255.87685 L 674.99996 255.49858 z " /><path
       id="path10207"
       style="color:#000000;fill:#666666;fill-opacity:1;stroke-linecap:round;stroke-linejoin:round;-inkscape-stroke:none"
       inkscape:label="grid"
       d="M 673.42693 154.45359 C 673.3935 173.95903 673.42187 193.46944 673.41194 212.97663 C 673.42544 226.65426 673.38598 240.33343 673.43158 254.0103 C 673.40141 254.47661 673.38577 254.99557 673.429 255.49858 L 674.99996 255.49858 L 674.99996 154.45359 L 673.42693 154.45359 z " /><path
       id="path10253"
       style="color:#000000;fill:#666666;fill-opacity:1;stroke-linecap:round;stroke-linejoin:round;-inkscape-stroke:none"
       inkscape:label="grid"
       d="M 673.42693 154.45359 L 674.99996 154.45359 L 674.99996 154.12337 C 680.78742 152.03391 684.99987 146.44802 684.99987 140.0002 C 684.99987 131.80484 678.1951 125.00009 669.99975 125.00009 C 663.55209 125.00009 657.96617 129.21274 655.87658 134.99999 L 554.1231 134.99999 C 552.03352 129.21271 546.44766 125.00009 539.99993 125.00009 C 533.55229 125.00009 527.96636 129.21274 525.87676 134.99999 L 424.12329 134.99999 C 422.03371 129.21271 416.44727 125.00009 409.9996 125.00009 C 403.55192 125.00009 397.966 129.21271 395.87643 134.99999 L 315.42398 134.99999 L 315.42398 136.58904 L 392.57586 136.58904 C 393.77452 136.50014 394.99592 136.73606 396.17719 136.48827 C 397.05891 136.29854 397.4364 135.45111 397.70733 134.68632 C 399.52594 130.56908 403.45328 127.44937 407.91962 126.7607 C 408.59339 126.64181 409.27175 126.58308 409.94896 126.58035 L 409.94896 126.57984 C 414.68937 126.56074 419.35165 129.29295 421.65677 133.45332 C 422.38981 134.48118 422.46253 136.15665 423.88041 136.53943 C 425.82287 136.65528 427.78932 136.55493 429.74103 136.58853 C 461.52647 136.58053 493.31314 136.60482 525.09852 136.57612 C 526.05384 136.73046 527.06389 136.29057 527.43946 135.3638 C 528.25758 133.21216 529.6281 131.27161 531.34413 129.82408 C 535.00495 126.61774 540.49168 125.64851 544.98412 127.58081 C 547.91077 128.77233 550.52547 131.1271 551.98628 134.01246 C 552.42193 135.03635 552.81586 136.44035 554.1231 136.58853 C 587.78303 136.59653 621.44362 136.57025 655.1035 136.60145 C 656.15822 136.77492 657.19656 136.12373 657.54263 135.11988 C 658.8631 131.6449 661.81632 128.8126 665.31993 127.45575 C 667.50278 126.58683 670.07869 126.35491 672.52569 126.84183 C 678.2881 127.88609 682.95153 133.11071 683.36689 138.94549 C 683.85162 144.18646 680.81974 149.4488 676.18542 151.86976 C 675.17205 152.41965 673.67017 152.6807 673.42693 154.02467 C 673.42668 154.16763 673.42718 154.31063 673.42693 154.45359 z " /><path
       id="path6267"
       style="font-size:50.8px;-inkscape-font-specification:'josefin sans';fill:#333333;stroke-width:0.264583"
       inkscape:label="header"
       d="M 406.36623 29.511342 L 406.36623 68.830905 L 411.09049 68.830905 L 411.09049 65.608363 C 411.88785 66.569821 412.86988 67.390062 414.03708 68.068678 C 415.52722 68.915341 417.23712 69.338885 419.16752 69.338885 C 421.13178 69.338885 422.94392 68.898565 424.60336 68.018035 C 426.26283 67.103639 427.58378 65.799455 428.56591 64.106129 C 429.58191 62.412804 430.08985 60.381035 430.08985 58.010377 C 430.08985 55.741319 429.61546 53.793949 428.66719 52.168356 C 427.75279 50.508895 426.51675 49.222006 424.95889 48.30761 C 423.40102 47.393214 421.67383 46.936118 419.7773 46.936118 C 417.8469 46.936118 416.08564 47.308299 414.4939 48.053362 C 413.02728 48.722919 411.87615 49.587748 411.03985 50.647519 L 411.03985 29.511342 L 406.36623 29.511342 z M 360.44293 31.695704 C 357.80134 31.695704 355.36282 32.170091 353.12762 33.118356 C 350.92631 34.066619 349.01297 35.404356 347.3874 37.131548 C 345.7618 38.824877 344.4917 40.839869 343.5773 43.176657 C 342.69677 45.479582 342.25645 48.002516 342.25645 50.745704 C 342.25645 53.251829 342.67999 55.62274 343.52665 57.857932 C 344.40718 60.059256 345.64323 62.006627 347.23495 63.699952 C 348.82668 65.393281 350.75726 66.731015 353.02633 67.713144 C 355.32926 68.695273 357.90303 69.203215 360.74783 69.237082 C 362.40729 69.237082 363.93113 69.067766 365.31964 68.729103 C 366.74204 68.390436 367.9786 67.966896 369.02846 67.458896 C 370.07833 66.9509 370.90759 66.4938 371.51719 66.087404 L 369.43463 61.718678 C 368.48636 62.429874 367.28389 63.07358 365.82762 63.649309 C 364.37138 64.225042 362.7123 64.512823 360.84963 64.512823 C 358.78379 64.512823 356.92081 64.156904 355.26134 63.445704 C 353.6019 62.734508 352.17974 61.752693 350.99442 60.499631 C 349.84296 59.246569 348.94554 57.773071 348.30207 56.079746 C 347.69247 54.35255 347.3874 52.490098 347.3874 50.491973 C 347.3874 48.527714 347.72605 46.698815 348.40336 45.005486 C 349.11456 43.278294 350.07959 41.771244 351.29879 40.484315 C 352.51796 39.197386 353.92386 38.198278 355.51559 37.487082 C 357.10731 36.775886 358.80044 36.420481 360.59538 36.420481 C 362.35642 36.420481 363.94843 36.725037 365.3708 37.334637 C 366.82707 37.944233 368.0631 38.587938 369.0791 39.265268 L 371.06037 34.692937 C 369.77345 33.880141 368.23231 33.18611 366.4374 32.610377 C 364.64246 32.000781 362.64426 31.695704 360.44293 31.695704 z M 317.97421 45.818356 L 317.97421 47.799631 C 317.97421 49.08656 318.3469 50.051598 319.09197 50.695061 C 319.83701 51.338527 320.73444 51.660377 321.78431 51.660377 L 329.09549 51.660377 L 317.16134 68.830905 L 336.61803 68.830905 L 336.61803 64.918999 L 324.87766 64.918999 L 336.77048 47.799631 L 323.30825 47.799631 C 322.69865 47.799631 322.25833 47.714711 321.9874 47.545383 C 321.71646 47.37605 321.58122 47.020647 321.58122 46.478781 L 321.58122 45.818356 L 317.97421 45.818356 z M 446.3457 46.936118 C 444.17823 46.936118 442.21411 47.44406 440.45304 48.460056 C 438.692 49.476052 437.2861 50.830565 436.23624 52.52389 C 435.18637 54.217219 434.66166 56.096964 434.66166 58.162823 C 434.66166 60.330278 435.11875 62.260355 436.03315 63.953684 C 436.98141 65.613143 438.31915 66.934103 440.04634 67.916232 C 441.77354 68.864498 443.83939 69.338885 446.2439 69.338885 C 447.49697 69.338885 448.76707 69.118723 450.054 68.67846 C 451.3748 68.238194 452.56 67.662113 453.60986 66.950917 L 451.42549 63.445704 C 450.68043 63.98757 449.86793 64.427888 448.9874 64.766554 C 448.14073 65.10522 447.2601 65.274533 446.3457 65.274533 C 444.99103 65.274533 443.77177 64.969977 442.68804 64.360377 C 441.69516 63.751842 440.89918 62.946291 440.30008 61.943987 L 456.96262 56.079746 C 456.31915 53.234957 455.08312 50.999804 453.25432 49.374212 C 451.42553 47.748616 449.12274 46.936118 446.3457 46.936118 z M 378.62942 47.799631 L 378.62942 63.344418 C 378.69712 65.207077 379.34034 66.730906 380.55954 67.916232 C 381.8126 69.067695 383.38778 69.643259 385.28431 69.643259 C 386.60511 69.643259 387.82437 69.4231 388.94197 68.982834 C 390.05954 68.542568 391.0246 67.950228 391.8374 67.205165 C 392.5832 66.519028 393.15765 65.754019 393.56184 64.910214 L 393.86932 68.830905 L 398.1874 68.830905 L 398.1874 47.799631 L 393.46314 47.799631 L 393.46314 57.603684 C 393.46314 59.127676 393.17484 60.499482 392.59911 61.718678 C 392.02337 62.904007 391.26172 63.852266 390.31346 64.563466 C 389.39906 65.240795 388.34911 65.579424 387.16378 65.579424 C 385.87686 65.545554 384.9286 65.172859 384.319 64.461663 C 383.74327 63.750467 383.42141 62.819498 383.35368 61.668035 L 383.35368 47.799631 L 378.62942 47.799631 z M 418.20272 50.695061 C 419.55738 50.695061 420.75935 51.016914 421.80921 51.660377 C 422.89294 52.303843 423.73951 53.184483 424.34911 54.302076 C 424.99257 55.385806 425.31443 56.604555 425.31443 57.959217 C 425.31443 59.38161 425.00987 60.651725 424.40027 61.769321 C 423.79067 62.85305 422.9441 63.716914 421.86037 64.360377 C 420.77665 65.003843 419.55738 65.325693 418.20272 65.325693 C 416.98352 65.325693 415.88272 65.105534 414.90059 64.665268 C 413.91846 64.191138 413.10544 63.564209 412.46198 62.785279 C 411.81851 61.97248 411.36143 61.058287 411.09049 60.042294 L 411.09049 55.826014 C 411.36143 54.810018 411.8358 53.929378 412.51314 53.184315 C 413.19047 52.405386 414.01975 51.795752 415.00188 51.355486 C 415.98402 50.915223 417.05126 50.695061 418.20272 50.695061 z M 445.99017 50.695061 C 447.51417 50.695061 448.75021 51.118605 449.69847 51.965268 C 450.57395 52.715671 451.21757 53.596247 451.63117 54.606451 L 439.35543 59.078529 C 439.30873 58.701347 439.28463 58.311707 439.28463 57.908575 C 439.28463 56.520046 439.57242 55.284003 440.14815 54.200274 C 440.72389 53.116545 441.5196 52.269977 442.5356 51.660377 C 443.5516 51.016914 444.70324 50.695061 445.99017 50.695061 z " /><path
       id="circle6017"
       style="fill:none;fill-opacity:1;stroke:#000000;stroke-width:1;stroke-linecap:round;stroke-linejoin:round;stroke-dasharray:none;stroke-opacity:1"
       inkscape:label="led"
       d="m 345.00016,142.00015 c -2.7616,-1.2e-4 -5.00032,2.23862 -5.00022,5.00021 2e-4,2.76139 2.23882,4.99981 5.00022,4.9997 2.76118,-1.7e-4 4.99949,-2.23851 4.99969,-4.9997 1e-4,-2.76139 -2.23831,-5.00004 -4.99969,-5.00021 z m 129.99981,0 c -2.7616,-1.2e-4 -5.00031,2.23862 -5.00021,5.00021 2e-4,2.76139 2.23881,4.99981 5.00021,4.9997 2.7612,-1.7e-4 5.00001,-2.23851 5.00021,-4.9997 10e-5,-2.76139 -2.23881,-5.00004 -5.00021,-5.00021 z m 130.00034,0 c -2.7616,-1.2e-4 -5.00032,2.23862 -5.00022,5.00021 2e-4,2.76139 2.23882,4.99981 5.00022,4.9997 2.76118,-1.7e-4 4.99949,-2.23851 4.99969,-4.9997 10e-5,-2.76139 -2.23831,-5.00004 -4.99969,-5.00021 z m -259.89784,1.0573 c 1.1909,0.0353 2.35568,0.64967 3.06648,1.60507 1.4609,1.8246 0.71133,4.77117 -1.33997,5.8136 -2.04588,1.17488 -4.90353,-0.034 -5.56813,-2.27325 -0.8111,-2.27057 0.95773,-4.93715 3.34863,-5.1263 0.085,-0.009 0.16945,-0.0155 0.25425,-0.0186 0.079,-0.003 0.15934,-0.003 0.23874,-5.2e-4 z m 130.00034,0 c 1.1909,0.0353 2.35568,0.64967 3.06648,1.60507 1.4609,1.8246 0.71133,4.77117 -1.33997,5.8136 -2.0459,1.17488 -4.90407,-0.034 -5.56865,-2.27325 -0.8111,-2.27057 0.95826,-4.93715 3.34914,-5.1263 0.085,-0.009 0.16894,-0.0155 0.25374,-0.0186 0.079,-0.003 0.15986,-0.003 0.23926,-5.2e-4 z m 129.99981,0 c 1.1909,0.0353 2.3557,0.64967 3.06648,1.60507 1.4609,1.8246 0.71133,4.77117 -1.33997,5.8136 -2.04588,1.17488 -4.90353,-0.034 -5.56813,-2.27325 -0.8111,-2.27057 0.95773,-4.93715 3.34863,-5.1263 0.085,-0.009 0.16945,-0.0155 0.25425,-0.0186 0.079,-0.003 0.15936,-0.003 0.23874,-5.2e-4 z m -260.10246,32.27607 c -2.7616,-1.2e-4 -5.00032,2.23862 -5.00022,5.00021 2e-4,2.76136 2.23882,4.99981 5.00022,4.99969 2.76118,-1.7e-4 4.99949,-2.23853 4.99969,-4.99969 1e-4,-2.76139 -2.23831,-5.00005 -4.99969,-5.00021 z m 129.99981,0 c -2.7616,-1.2e-4 -5.00031,2.23862 -5.00021,5.00021 2e-4,2.76136 2.23881,4.99981 5.00021,4.99969 2.7612,-1.7e-4 5.00001,-2.23853 5.00021,-4.99969 10e-5,-2.76139 -2.23881,-5.00005 -5.00021,-5.00021 z m 130.00034,0 c -2.7616,-1.2e-4 -5.00032,2.23862 -5.00022,5.00021 2e-4,2.76136 2.23882,4.99981 5.00022,4.99969 2.76118,-1.7e-4 4.99949,-2.23853 4.99969,-4.99969 10e-5,-2.76139 -2.23831,-5.00005 -4.99969,-5.00021 z m -259.87768,1.05885 c 1.1683,0.0392 2.3057,0.63326 3.01428,1.56321 1.5044,1.81652 0.75861,4.79613 -1.30017,5.85029 -2.0464,1.17951 -4.90849,-0.0262 -5.57589,-2.26912 -0.8127,-2.27469 0.9636,-4.94535 3.36,-5.1263 0.167,-0.0177 0.33488,-0.0237 0.50178,-0.0181 z m 129.99982,0 c 1.16828,0.0392 2.3062,0.63326 3.0148,1.56321 1.5044,1.81652 0.7581,4.79613 -1.3007,5.85029 -2.0464,1.17951 -4.9085,-0.0262 -5.57588,-2.26912 -0.8127,-2.27469 0.9636,-4.94535 3.36,-5.1263 0.167,-0.0177 0.33488,-0.0237 0.50178,-0.0181 z m 130.00033,0 c 1.1683,0.0392 2.30569,0.63326 3.01429,1.56321 1.50438,1.81652 0.7586,4.79613 -1.30018,5.85029 -2.0464,1.17951 -4.90849,-0.0262 -5.57589,-2.26912 -0.8127,-2.27469 0.9636,-4.94535 3.36,-5.1263 0.167,-0.0177 0.33488,-0.0237 0.50178,-0.0181 z m -260.12262,32.27451 c -2.7614,-1.1e-4 -5.00002,2.23831 -5.00022,4.9997 -10e-5,2.76157 2.23862,5.00033 5.00022,5.00021 2.76138,-1.7e-4 4.99979,-2.23885 4.99969,-5.00021 -2e-4,-2.76119 -2.23851,-4.99953 -4.99969,-4.9997 z m 129.99981,0 c -2.7614,-1.1e-4 -5.00001,2.23831 -5.00021,4.9997 -10e-5,2.76157 2.23861,5.00033 5.00021,5.00021 2.7614,-1.7e-4 5.00031,-2.23885 5.00021,-5.00021 -2e-4,-2.76119 -2.23901,-4.99953 -5.00021,-4.9997 z m 130.00034,0 c -2.7614,-1.1e-4 -5.00002,2.23831 -5.00022,4.9997 -10e-5,2.76157 2.23862,5.00033 5.00022,5.00021 2.76138,-1.7e-4 4.99979,-2.23885 4.99969,-5.00021 -2e-4,-2.76119 -2.23851,-4.99953 -4.99969,-4.9997 z m -260.11953,1.06764 c 1.4273,-0.0316 2.84676,0.7649 3.54656,2.01331 1.04838,1.74867 0.40216,4.17581 -1.31104,5.24464 -1.98988,1.3728 -5.00251,0.30006 -5.80171,-1.94717 -0.9311,-2.28672 0.82194,-5.10941 3.28094,-5.29321 0.095,-0.01 0.19005,-0.0155 0.28525,-0.0176 z m 130.00034,0 c 1.42728,-0.0316 2.84623,0.7649 3.54603,2.01331 1.0484,1.74867 0.40269,4.17581 -1.31051,5.24464 -1.9899,1.3728 -5.00253,0.30006 -5.80171,-1.94717 -0.9311,-2.28672 0.82142,-5.10941 3.28042,-5.29321 0.095,-0.01 0.19057,-0.0155 0.28577,-0.0176 z m 129.99981,0 c 1.4273,-0.0316 2.84676,0.7649 3.54656,2.01331 1.0484,1.74867 0.40215,4.17581 -1.31103,5.24464 -1.9899,1.3728 -5.00252,0.30006 -5.80172,-1.94717 -0.9311,-2.28672 0.82194,-5.10941 3.28094,-5.29321 0.095,-0.01 0.19005,-0.0155 0.28525,-0.0176 z m -259.88077,32.26573 c -0.9889,-1.5e-4 -1.95573,0.29298 -2.77813,0.84232 -0.8221,0.54942 -1.46293,1.33025 -1.84123,2.24379 v 5.2e-4 c -0.1254,0.3024 -0.22074,0.61637 -0.28474,0.93741 v 5.2e-4 c -0.064,0.32111 -0.0961,0.64772 -0.0961,0.97513 0,1.66991 0.83359,3.2296 2.22209,4.15737 h 5.2e-4 c 0.5458,0.36479 1.15805,0.61853 1.80195,0.74673 h 5.2e-4 c 0.3211,0.0639 0.64774,0.0961 0.97514,0.0961 0.31748,-9.1e-4 0.63417,-0.032 0.94567,-0.093 0.017,-0.003 0.0331,-0.006 0.0501,-0.009 0.3035,-0.0622 0.60058,-0.15254 0.88728,-0.26975 0.02,-0.008 0.04,-0.0164 0.061,-0.0248 0.2856,-0.12023 0.55954,-0.26676 0.81804,-0.4377 0.012,-0.009 0.0252,-0.0172 0.0372,-0.0258 0.5282,-0.35711 0.98318,-0.81193 1.34048,-1.33997 0.01,-0.0134 0.0189,-0.0268 0.0279,-0.0403 0.1703,-0.25776 0.31625,-0.53074 0.43615,-0.81545 0.01,-0.0215 0.0179,-0.043 0.0269,-0.0646 0.1165,-0.28632 0.2063,-0.58283 0.2682,-0.88573 0,-0.0155 0.0103,-0.031 0.0103,-0.0465 0.061,-0.31205 0.092,-0.62923 0.093,-0.94723 v -5.1e-4 -5.2e-4 c 0,-0.31783 -0.032,-0.63483 -0.093,-0.94671 0,-0.0155 -0.0103,-0.031 -0.0103,-0.0465 -0.062,-0.30309 -0.15192,-0.59978 -0.26872,-0.88625 -0.01,-0.0211 -0.0168,-0.0416 -0.0258,-0.0625 -0.1201,-0.28528 -0.26649,-0.55879 -0.43719,-0.81701 -0.01,-0.013 -0.0184,-0.0264 -0.0274,-0.0393 -0.3573,-0.52846 -0.8125,-0.98364 -1.341,-1.341 -0.012,-0.009 -0.0247,-0.0173 -0.0367,-0.0258 -0.2593,-0.17144 -0.53402,-0.31831 -0.82062,-0.43873 -0.019,-0.008 -0.0368,-0.0156 -0.0558,-0.0233 -0.2876,-0.11754 -0.58599,-0.20802 -0.89039,-0.27027 -0.015,-0.003 -0.031,-0.006 -0.046,-0.008 -0.3122,-0.0613 -0.62954,-0.0926 -0.94774,-0.0935 z m 129.99981,0 c -0.9889,-1.5e-4 -1.95572,0.29298 -2.77812,0.84232 -0.8221,0.54942 -1.46242,1.33025 -1.84072,2.24379 v 5.2e-4 c -0.1254,0.3024 -0.22125,0.61637 -0.28525,0.93741 v 5.2e-4 c -0.064,0.32111 -0.0956,0.64772 -0.0956,0.97513 0,1.66991 0.8336,3.2296 2.22208,4.15737 h 5.2e-4 c 0.5458,0.36479 1.15806,0.61853 1.80196,0.74673 h 5.1e-4 c 0.3211,0.0639 0.64774,0.0961 0.97514,0.0961 0.3175,-9.1e-4 0.63418,-0.032 0.94568,-0.093 0.017,-0.003 0.0326,-0.006 0.0496,-0.009 0.3035,-0.0622 0.60058,-0.15254 0.88728,-0.26975 0.02,-0.008 0.0405,-0.0164 0.0615,-0.0248 0.2856,-0.12023 0.55902,-0.26676 0.81752,-0.4377 0.012,-0.009 0.0252,-0.0172 0.0372,-0.0258 0.5282,-0.35711 0.98319,-0.81193 1.34049,-1.33997 0.01,-0.0134 0.0189,-0.0268 0.0279,-0.0403 0.1703,-0.25776 0.31625,-0.53074 0.43615,-0.81545 0.01,-0.0215 0.0184,-0.043 0.0274,-0.0646 0.1165,-0.28632 0.2063,-0.58283 0.2682,-0.88573 0,-0.0155 0.01,-0.031 0.01,-0.0465 0.061,-0.31205 0.092,-0.62923 0.093,-0.94723 v -5.1e-4 -5.2e-4 c 0,-0.31783 -0.032,-0.63483 -0.093,-0.94671 0,-0.0155 -0.01,-0.031 -0.01,-0.0465 -0.062,-0.30309 -0.15243,-0.59978 -0.26923,-0.88625 -0.01,-0.0211 -0.0168,-0.0416 -0.0258,-0.0625 -0.1201,-0.28528 -0.26648,-0.55879 -0.43718,-0.81701 -0.01,-0.013 -0.0179,-0.0264 -0.0269,-0.0393 -0.3573,-0.52846 -0.81251,-0.98364 -1.34101,-1.341 -0.012,-0.009 -0.0252,-0.0173 -0.0372,-0.0258 -0.2593,-0.17144 -0.53402,-0.31831 -0.82062,-0.43873 -0.019,-0.008 -0.0368,-0.0156 -0.0558,-0.0233 -0.28758,-0.11754 -0.58546,-0.20802 -0.88986,-0.27027 -0.015,-0.003 -0.031,-0.006 -0.046,-0.008 -0.31218,-0.0613 -0.62954,-0.0926 -0.94774,-0.0935 z m 130.00034,0 c -0.9889,-1.5e-4 -1.95573,0.29298 -2.77813,0.84232 -0.8221,0.54942 -1.46293,1.33025 -1.84123,2.24379 v 5.2e-4 c -0.1254,0.3024 -0.22074,0.61637 -0.28474,0.93741 v 5.2e-4 c -0.064,0.32111 -0.0961,0.64772 -0.0961,0.97513 0,1.66991 0.83359,3.2296 2.22209,4.15737 h 5.2e-4 c 0.5458,0.36479 1.15807,0.61853 1.80195,0.74673 h 5.2e-4 c 0.3211,0.0639 0.64774,0.0961 0.97514,0.0961 0.3175,-9.1e-4 0.63417,-0.032 0.94567,-0.093 0.017,-0.003 0.0331,-0.006 0.0501,-0.009 0.3035,-0.0622 0.6006,-0.15254 0.88728,-0.26975 0.02,-0.008 0.04,-0.0164 0.061,-0.0248 0.2856,-0.12023 0.55954,-0.26676 0.81804,-0.4377 0.012,-0.009 0.0247,-0.0172 0.0367,-0.0258 0.5282,-0.35711 0.98319,-0.81193 1.34049,-1.33997 0.01,-0.0134 0.0194,-0.0268 0.0284,-0.0403 0.1703,-0.25776 0.31625,-0.53074 0.43615,-0.81545 0.01,-0.0215 0.0179,-0.043 0.0269,-0.0646 0.1165,-0.28632 0.2063,-0.58283 0.2682,-0.88573 0,-0.0155 0.01,-0.031 0.01,-0.0465 0.061,-0.31205 0.092,-0.62923 0.093,-0.94723 v -5.1e-4 -5.2e-4 c 0,-0.31783 -0.032,-0.63483 -0.093,-0.94671 0,-0.0155 -0.01,-0.031 -0.01,-0.0465 -0.062,-0.30309 -0.15192,-0.59978 -0.26872,-0.88625 -0.01,-0.0211 -0.0173,-0.0416 -0.0263,-0.0625 -0.1201,-0.28528 -0.26648,-0.55879 -0.43718,-0.81701 -0.01,-0.013 -0.0179,-0.0264 -0.0269,-0.0393 -0.3573,-0.52846 -0.8125,-0.98364 -1.341,-1.341 -0.012,-0.009 -0.0247,-0.0173 -0.0367,-0.0258 -0.2593,-0.17144 -0.53402,-0.31831 -0.82062,-0.43873 -0.019,-0.008 -0.0373,-0.0156 -0.0563,-0.0233 -0.2876,-0.11754 -0.58547,-0.20802 -0.88987,-0.27027 -0.015,-0.003 -0.031,-0.006 -0.046,-0.008 -0.3122,-0.0613 -0.62954,-0.0926 -0.94774,-0.0935 z m -259.96708,1.06867 c 1.276,0.008 2.51036,0.70387 3.22926,1.75234 0.3942,0.5424 0.60542,1.17253 0.65732,1.81643 0.1037,1.52488 -0.68871,3.12627 -2.09031,3.83853 -0.5115,0.29372 -1.07369,0.43837 -1.63969,0.45527 0,4e-5 1.8e-4,-5e-5 -0.01,0 -0.1295,0.004 -0.25889,-9.2e-4 -0.38809,-0.0103 -0.034,-0.003 -0.068,-0.007 -0.10232,-0.0103 -0.102,-0.0101 -0.20389,-0.0228 -0.30489,-0.0408 -0.054,-0.01 -0.10785,-0.0231 -0.16175,-0.0351 -0.083,-0.0183 -0.16646,-0.037 -0.24856,-0.0605 -0.065,-0.0188 -0.12939,-0.0416 -0.19379,-0.0636 -0.07,-0.0236 -0.13944,-0.0462 -0.20774,-0.0734 -0.069,-0.0276 -0.13642,-0.0598 -0.20412,-0.0909 -0.065,-0.0302 -0.13112,-0.0591 -0.19482,-0.0925 -0.056,-0.0292 -0.109,-0.0624 -0.1633,-0.0941 -0.074,-0.0429 -0.14779,-0.085 -0.21859,-0.13229 -0.038,-0.0253 -0.073,-0.0541 -0.11059,-0.0806 -0.081,-0.0584 -0.16288,-0.11671 -0.23978,-0.18087 -0.021,-0.0178 -0.041,-0.0376 -0.062,-0.0558 -0.5181,-0.45105 -0.92109,-1.03105 -1.12189,-1.70739 -0.1471,-0.41193 -0.20686,-0.83699 -0.19586,-1.2578 4e-4,-0.0155 -4.3e-4,-0.031 -10e-4,-0.0465 0,-0.11108 0.018,-0.22115 0.032,-0.33125 0,-0.0361 0.0104,-0.0726 0.0124,-0.10852 0.015,-0.0937 0.0379,-0.18609 0.0589,-0.27854 0.012,-0.0518 0.0217,-0.10422 0.0357,-0.15554 0.022,-0.0785 0.05,-0.15494 0.077,-0.23203 0.022,-0.063 0.0411,-0.1267 0.0661,-0.18862 0.027,-0.0674 0.0589,-0.1325 0.0899,-0.19844 0.032,-0.0691 0.0622,-0.13888 0.0982,-0.20618 0.029,-0.054 0.062,-0.10544 0.093,-0.15813 0.045,-0.0771 0.0901,-0.15478 0.14056,-0.22893 0.028,-0.0416 0.0589,-0.0809 0.0889,-0.12144 0.057,-0.0785 0.11475,-0.15667 0.17725,-0.23099 0.034,-0.0402 0.07,-0.0779 0.10542,-0.11679 0.064,-0.0709 0.12902,-0.14147 0.19792,-0.20774 0.035,-0.0342 0.073,-0.0658 0.11007,-0.0987 0.073,-0.0658 0.14782,-0.13047 0.22582,-0.19069 0.037,-0.0283 0.0751,-0.0541 0.11266,-0.0811 0.083,-0.0593 0.16621,-0.11743 0.25321,-0.17002 0.038,-0.023 0.0771,-0.0434 0.11628,-0.0651 0.09,-0.0503 0.18175,-0.0984 0.27595,-0.14108 0.036,-0.0163 0.073,-0.0303 0.10904,-0.0455 0.1049,-0.0434 0.21087,-0.084 0.31987,-0.11731 0.054,-0.0168 0.10945,-0.0318 0.16485,-0.046 0.092,-0.0231 0.18434,-0.0439 0.27854,-0.0594 0.022,-0.004 0.0431,-0.006 0.0651,-0.009 0.134,-0.0194 0.26983,-0.0321 0.40773,-0.0351 0.085,-0.006 0.17018,-0.008 0.25528,-0.007 z m 129.99981,0 c 1.276,0.008 2.51037,0.70387 3.22927,1.75234 0.39418,0.5424 0.60542,1.17253 0.65732,1.81643 0.1037,1.52488 -0.68871,3.12627 -2.09031,3.83853 -0.5115,0.29372 -1.0737,0.43837 -1.6397,0.45527 0,4e-5 1.9e-4,-5e-5 -0.01,0 -0.1295,0.004 -0.25889,-9.2e-4 -0.38809,-0.0103 -0.034,-0.003 -0.068,-0.007 -0.10232,-0.0103 -0.102,-0.0101 -0.20389,-0.0228 -0.30489,-0.0408 -0.054,-0.01 -0.10785,-0.0231 -0.16175,-0.0351 -0.083,-0.0183 -0.16647,-0.037 -0.24857,-0.0605 -0.065,-0.0188 -0.12938,-0.0416 -0.19378,-0.0636 -0.07,-0.0236 -0.13944,-0.0462 -0.20774,-0.0734 -0.069,-0.0276 -0.13642,-0.0598 -0.20412,-0.0909 -0.065,-0.0302 -0.13112,-0.0591 -0.19482,-0.0925 -0.056,-0.0292 -0.109,-0.0624 -0.1633,-0.0941 -0.074,-0.0429 -0.14779,-0.085 -0.21859,-0.13229 -0.038,-0.0253 -0.073,-0.0541 -0.11059,-0.0806 -0.081,-0.0584 -0.16288,-0.11671 -0.23978,-0.18087 -0.021,-0.0178 -0.041,-0.0376 -0.062,-0.0558 -0.5181,-0.45105 -0.9211,-1.03105 -1.1219,-1.70739 -0.1471,-0.41193 -0.20685,-0.83699 -0.19585,-1.2578 4e-4,-0.0155 8e-5,-0.031 -5.2e-4,-0.0465 0,-0.11108 0.018,-0.22115 0.032,-0.33125 0,-0.0361 0.01,-0.0726 0.0119,-0.10852 0.015,-0.0937 0.0379,-0.18609 0.0589,-0.27854 0.012,-0.0518 0.0222,-0.10422 0.0362,-0.15554 0.022,-0.0785 0.05,-0.15494 0.077,-0.23203 0.022,-0.063 0.0412,-0.1267 0.0661,-0.18862 0.027,-0.0674 0.0589,-0.1325 0.0899,-0.19844 0.032,-0.0691 0.0617,-0.13888 0.0977,-0.20618 0.029,-0.054 0.062,-0.10544 0.093,-0.15813 0.045,-0.0771 0.0901,-0.15478 0.14056,-0.22893 0.028,-0.0416 0.0589,-0.0809 0.0889,-0.12144 0.057,-0.0785 0.11475,-0.15667 0.17725,-0.23099 0.034,-0.0402 0.07,-0.0779 0.10542,-0.11679 0.064,-0.0709 0.12902,-0.14147 0.19792,-0.20774 0.035,-0.0342 0.073,-0.0658 0.11008,-0.0987 0.073,-0.0658 0.14782,-0.13047 0.22582,-0.19069 0.037,-0.0283 0.0751,-0.0541 0.11266,-0.0811 0.083,-0.0593 0.16621,-0.11743 0.25321,-0.17002 0.038,-0.023 0.0771,-0.0434 0.11627,-0.0651 0.09,-0.0503 0.18175,-0.0984 0.27595,-0.14108 0.036,-0.0163 0.073,-0.0303 0.10904,-0.0455 0.1049,-0.0434 0.21088,-0.084 0.31988,-0.11731 0.054,-0.0168 0.10996,-0.0318 0.16536,-0.046 0.092,-0.0231 0.18382,-0.0439 0.27802,-0.0594 0.022,-0.004 0.0431,-0.006 0.0651,-0.009 0.134,-0.0194 0.26982,-0.0321 0.40772,-0.0351 0.085,-0.006 0.17018,-0.008 0.25528,-0.007 z m 130.00034,0 c 1.276,0.008 2.51036,0.70387 3.22926,1.75234 0.3942,0.5424 0.60542,1.17253 0.65732,1.81643 0.1037,1.52488 -0.68871,3.12627 -2.09031,3.83853 -0.5115,0.29372 -1.07369,0.43837 -1.63969,0.45527 0,4e-5 -3.4e-4,-5e-5 -0.0103,0 -0.1295,0.004 -0.25889,-9.2e-4 -0.38809,-0.0103 -0.034,-0.003 -0.068,-0.007 -0.10232,-0.0103 -0.102,-0.0101 -0.20389,-0.0228 -0.30489,-0.0408 -0.054,-0.01 -0.10784,-0.0231 -0.16174,-0.0351 -0.083,-0.0183 -0.16647,-0.037 -0.24857,-0.0605 -0.065,-0.0188 -0.1294,-0.0416 -0.19378,-0.0636 -0.07,-0.0236 -0.13944,-0.0462 -0.20774,-0.0734 -0.069,-0.0276 -0.13643,-0.0598 -0.20413,-0.0909 -0.065,-0.0302 -0.13112,-0.0591 -0.19482,-0.0925 -0.056,-0.0292 -0.10899,-0.0624 -0.16329,-0.0941 -0.074,-0.0429 -0.1478,-0.085 -0.2186,-0.13229 -0.038,-0.0253 -0.073,-0.0541 -0.11058,-0.0806 -0.081,-0.0584 -0.16288,-0.11671 -0.23978,-0.18087 -0.021,-0.0178 -0.041,-0.0376 -0.062,-0.0558 -0.5181,-0.45105 -0.9211,-1.03105 -1.1219,-1.70739 -0.1471,-0.41193 -0.20685,-0.83699 -0.19585,-1.2578 4e-4,-0.0155 8e-5,-0.031 -5.2e-4,-0.0465 0,-0.11108 0.018,-0.22115 0.032,-0.33125 0,-0.0361 0.01,-0.0726 0.0119,-0.10852 0.015,-0.0937 0.0379,-0.18609 0.0589,-0.27854 0.012,-0.0518 0.0222,-0.10422 0.0362,-0.15554 0.022,-0.0785 0.05,-0.15494 0.077,-0.23203 0.022,-0.063 0.0411,-0.1267 0.0661,-0.18862 0.027,-0.0674 0.0589,-0.1325 0.0899,-0.19844 0.032,-0.0691 0.0622,-0.13888 0.0982,-0.20618 0.029,-0.054 0.062,-0.10544 0.093,-0.15813 0.045,-0.0771 0.0901,-0.15478 0.14056,-0.22893 0.028,-0.0416 0.0589,-0.0809 0.0889,-0.12144 0.057,-0.0785 0.11475,-0.15667 0.17725,-0.23099 0.034,-0.0402 0.07,-0.0779 0.10542,-0.11679 0.064,-0.0709 0.12902,-0.14147 0.19792,-0.20774 0.035,-0.0342 0.073,-0.0658 0.11007,-0.0987 0.073,-0.0658 0.14783,-0.13047 0.22583,-0.19069 0.037,-0.0283 0.0751,-0.0541 0.11265,-0.0811 0.083,-0.0593 0.16621,-0.11743 0.25321,-0.17002 0.038,-0.023 0.0771,-0.0434 0.11628,-0.0651 0.09,-0.0503 0.18175,-0.0984 0.27595,-0.14108 0.036,-0.0163 0.073,-0.0303 0.10904,-0.0455 0.1049,-0.0434 0.21087,-0.084 0.31987,-0.11731 0.054,-0.0168 0.10945,-0.0318 0.16485,-0.046 0.092,-0.0231 0.18434,-0.0439 0.27854,-0.0594 0.022,-0.004 0.0431,-0.006 0.0651,-0.009 0.134,-0.0194 0.26983,-0.0321 0.40773,-0.0351 0.085,-0.006 0.17018,-0.008 0.25528,-0.007 z m -260.03322,32.26469 c -2.7616,-1.2e-4 -5.00032,2.23864 -5.00022,5.00021 2e-4,2.76139 2.23882,4.99982 5.00022,4.9997 2.76118,-1.7e-4 4.99949,-2.23852 4.99969,-4.9997 1e-4,-2.76137 -2.23831,-5.00004 -4.99969,-5.00021 z m 129.99981,0 c -2.7616,-1.2e-4 -5.00031,2.23864 -5.00021,5.00021 2e-4,2.76139 2.23881,4.99982 5.00021,4.9997 2.7612,-1.7e-4 5.00001,-2.23852 5.00021,-4.9997 10e-5,-2.76137 -2.23881,-5.00004 -5.00021,-5.00021 z m 130.00034,0 c -2.7616,-1.2e-4 -5.00032,2.23864 -5.00022,5.00021 2e-4,2.76139 2.23882,4.99982 5.00022,4.9997 2.76118,-1.7e-4 4.99949,-2.23852 4.99969,-4.9997 10e-5,-2.76137 -2.23831,-5.00004 -4.99969,-5.00021 z M 344.872,276.39246 c 0.084,-0.003 0.16723,-0.003 0.25063,0 1.1683,0.0392 2.3057,0.63327 3.01428,1.56322 1.5044,1.81649 0.75861,4.79615 -1.30017,5.85028 -2.0464,1.17951 -4.90849,-0.0262 -5.57589,-2.26911 -0.8127,-2.27471 0.9636,-4.94535 3.36,-5.1263 0.084,-0.009 0.16745,-0.0151 0.25115,-0.0181 z m 130.00033,0 c 0.084,-0.003 0.16672,-0.003 0.25012,0 1.16828,0.0392 2.3062,0.63327 3.0148,1.56322 1.5044,1.81649 0.7581,4.79615 -1.3007,5.85028 -2.0464,1.17951 -4.9085,-0.0262 -5.57588,-2.26911 -0.8127,-2.27471 0.9636,-4.94535 3.36,-5.1263 0.084,-0.009 0.16796,-0.0151 0.25166,-0.0181 z m 129.99982,0 c 0.084,-0.003 0.16723,-0.003 0.25063,0 1.1683,0.0392 2.30569,0.63327 3.01429,1.56322 1.50438,1.81649 0.7586,4.79615 -1.30018,5.85028 -2.0464,1.17951 -4.90849,-0.0262 -5.57589,-2.26911 -0.8127,-2.27471 0.9636,-4.94535 3.36,-5.1263 0.084,-0.009 0.16745,-0.0151 0.25115,-0.0181 z" /><rect
       style="display:inline;fill:none;fill-opacity:1;stroke:#000400;stroke-width:0.847807;stroke-linecap:round;stroke-linejoin:miter;stroke-dasharray:none;stroke-opacity:1"
       id="rect3455"
       width="394.15219"
       height="326.15219"
       x="315.42413"
       y="-20.576401"
       inkscape:label="cut2" /><path
       id="path10331"
       style="font-size:50.8px;-inkscape-font-specification:'josefin sans';fill:#333333;stroke-width:0.264583"
       inkscape:label="header"
       d="M 503.7789 16.940533 L 503.7789 19.799273 C 504.02259 19.78504 504.26806 19.771719 504.53493 19.76775 C 507.55017 19.72295 507.24777 20.149835 507.59676 15.451735 C 507.69978 14.065964 507.79427 13.10851 507.89338 12.4452 L 505.06151 12.4452 C 504.83016 13.908154 504.7815 15.404227 504.62226 16.874387 C 504.34135 16.893303 504.06 16.916089 503.7789 16.940533 z "
       transform="translate(-1.3125e-5)" /><path
       id="path10425"
       style="font-size:50.8px;-inkscape-font-specification:'josefin sans';fill:#333333;stroke-width:0.264583"
       inkscape:label="header"
       d="M 503.7789 27.661842 L 503.7789 24.750909 C 499.95488 25.941922 496.80197 24.245081 498.98695 21.859612 C 500.22762 20.5052 501.54405 19.929794 503.7789 19.799273 L 503.7789 16.940533 C 502.69376 17.034893 501.61153 17.18197 500.56514 17.49037 C 498.40928 18.263195 496.34904 19.842533 495.6471 22.100424 C 495.09436 23.780605 495.74769 25.747966 497.21651 26.742518 C 499.11243 28.064039 501.57325 28.156423 503.7789 27.661842 z "
       transform="translate(-1.3125e-5)" /><path
       id="path10423"
       style="font-size:50.8px;-inkscape-font-specification:'josefin sans';fill:#333333;stroke-width:0.264583"
       inkscape:label="header"
       d="M 551.97906 70.378614 C 554.43613 69.619135 555.8041 68.179326 557.28003 65.151027 C 560.65112 58.234481 559.55866 52.470664 554.87656 52.470664 C 554.32005 52.470664 554.10099 54.679016 554.08384 60.414365 C 554.04964 61.166925 554.00384 61.918334 553.92623 62.667457 C 553.60961 64.317781 552.83354 65.465862 551.97906 65.779412 L 551.97906 70.378614 z "
       transform="translate(-1.3125e-5)" /><path
       id="path10421"
       style="font-size:50.8px;-inkscape-font-specification:'josefin sans';fill:#333333;stroke-width:0.264583"
       inkscape:label="header"
       d="M 551.97906 93.9379 C 565.23521 86.11224 566.08552 85.314745 566.65568 83.326661 C 566.7906 82.856016 566.87117 72.459021 566.87117 55.487017 C 566.87117 32.39476 567.18066 26.901973 565.07697 27.005035 C 564.18876 27.048533 562.86972 28.089442 560.9165 29.224537 C 558.91553 30.387293 555.19528 32.533745 552.64827 33.993238 C 552.44109 34.111957 552.19577 34.254737 551.97906 34.379261 L 551.97906 37.714975 C 555.82204 35.472047 559.65446 33.210899 563.53856 31.03993 L 563.53959 31.041481 L 563.71478 30.94898 C 563.94451 36.377613 563.95966 41.864798 563.99073 47.328859 C 561.92864 43.679083 558.46294 40.870391 554.4988 39.530368 C 553.70551 39.273513 552.83984 39.0826 551.97906 39.044093 L 551.97906 41.855291 C 554.78289 41.945344 559.31812 44.99068 561.50044 48.545839 C 561.73456 48.943449 561.95037 49.351663 562.14795 49.76902 C 565.64465 57.475137 563.00559 69.527454 556.88935 73.456463 C 556.19681 73.901345 555.79936 74.327921 555.71992 74.7122 C 555.12353 77.592788 553.7859 80.190969 551.97906 82.184095 L 551.97906 86.047425 C 552.45773 85.680395 552.91541 85.285879 553.34022 84.852666 C 555.57993 82.690341 557.01013 79.863707 558.10633 76.986997 C 558.26077 76.465509 558.40906 75.918531 558.89388 75.597934 C 560.98883 74.048534 562.60214 71.930545 563.76904 69.615354 C 563.80954 69.532624 563.85023 69.450045 563.89099 69.367307 C 563.86499 71.474705 563.84473 73.582163 563.80883 75.689401 C 563.79583 76.904977 563.75843 78.212542 563.73493 79.36928 C 563.71403 79.97037 563.6901 80.69399 563.6693 81.21878 C 563.6347 81.857445 563.62001 82.400674 563.52254 83.068279 C 562.81889 83.765287 561.99786 84.330813 561.18057 84.885223 C 558.14307 86.822907 555.06382 88.694546 551.97906 90.556711 L 551.97906 93.9379 z "
       transform="translate(-1.3125e-5)" /><path
       id="path10419"
       style="font-size:50.8px;-inkscape-font-specification:'josefin sans';fill:#333333;stroke-width:0.264583"
       inkscape:label="header1"
       d="M 535.52528 100.2662 L 535.52528 103.60243 C 538.05999 102.11445 541.56943 100.05488 544.04776 98.601698 C 547.14469 96.785807 549.69137 95.28842 551.97906 93.9379 L 551.97906 90.556711 C 550.71879 91.317488 549.45982 92.080388 548.19893 92.839776 C 548.22913 91.526971 548.26193 90.212028 548.33484 88.877227 C 548.27544 88.440887 548.42634 88.096031 548.85987 87.948601 C 549.95303 87.409271 551.01217 86.788804 551.97906 86.047425 L 551.97906 82.184095 C 550.51841 83.795337 548.75196 85.012206 546.81607 85.655201 C 545.51597 86.087071 545.48491 86.208262 545.4823 90.972706 C 545.4822 91.113356 545.47971 91.182725 545.47971 91.31222 C 545.45371 92.05934 545.43404 92.805761 545.43114 93.552911 C 545.38004 94.247986 545.27983 94.482501 545.07716 94.666021 C 543.8726 95.756096 543.1653 95.465544 542.83698 93.573064 C 542.80858 93.307579 542.7831 93.04322 542.7419 92.7912 C 542.7018 92.34185 542.6715 91.890991 542.6432 91.439861 C 542.625 90.960356 542.61219 90.447077 542.61219 89.873032 C 542.61219 85.622978 542.61018 85.596521 542.11661 85.470717 C 540.59822 85.082977 539.34478 83.173424 539.04807 81.179506 C 539.02027 80.676906 539.00039 80.171324 539.01809 79.66797 C 539.03639 79.50884 539.06453 79.351795 539.09923 79.197198 C 540.10364 74.715186 543.94457 71.676407 549.60711 70.882976 C 550.50546 70.757086 551.2835 70.593611 551.97906 70.378614 L 551.97906 65.779412 C 551.90883 65.805184 551.83827 65.827139 551.76719 65.841424 C 551.54372 65.859654 551.31453 65.843822 551.09281 65.795432 C 550.66378 65.648273 550.2488 65.269334 549.8965 64.611008 C 549.8861 64.592778 549.87823 64.557973 549.86963 64.530393 C 549.81803 64.233915 549.79422 63.927366 549.74715 63.640524 C 549.45495 60.150391 549.6014 48.320151 549.9611 44.0195 C 550.0319 43.471393 550.12453 42.926903 550.25462 42.388075 C 550.66115 42.008562 551.23175 41.839318 551.90878 41.849606 L 551.9093 41.849606 C 551.9317 41.849946 551.95643 41.854564 551.97906 41.855291 L 551.97906 39.044093 C 550.83928 38.993104 549.70811 39.21004 548.7653 39.901922 C 547.54897 40.732959 547.4084 42.324706 547.2269 43.659832 C 546.81722 47.606364 546.81321 51.582362 546.75044 55.545928 C 546.76084 58.695883 546.66494 61.872323 547.1623 64.993413 C 547.33237 66.234721 548.01592 67.430361 549.16114 68.005633 C 545.77247 68.667346 542.37962 69.93742 539.83768 72.349037 C 538.23902 73.885412 536.96186 75.832703 536.42135 77.996754 C 536.19241 79.484948 536.19969 81.018313 536.41102 82.508107 C 536.86052 84.472625 538.07891 86.239271 539.66043 87.472145 C 539.74563 89.007793 539.81996 90.544394 539.9214 92.079099 C 540.07742 93.711289 540.07461 95.538825 541.17558 96.86692 C 540.84968 97.15343 540.31149 97.403069 539.90124 97.670489 C 538.43489 98.521758 536.98145 99.39645 535.52528 100.2662 z "
       transform="translate(-1.3125e-5)" /><path
       id="path10453"
       style="font-size:50.8px;-inkscape-font-specification:'josefin sans';fill:#333333;stroke-width:0.264583"
       inkscape:label="header1"
       d="M 535.52528 43.869121 C 535.20859 44.051648 534.79912 44.284988 534.56565 44.421543 C 533.47407 45.05997 531.5886 46.163767 530.37573 46.874106 C 527.7827 48.392774 526.70997 49.306263 525.89745 50.688343 C 524.93878 52.317238 524.96053 106.24424 525.9207 107.06888 L 525.92174 107.06888 C 527.31652 108.2687 527.9175 108.06896 534.45506 104.23029 C 534.73245 104.06742 535.207 103.78927 535.52528 103.60243 L 535.52528 100.2662 C 533.42533 101.52047 531.31883 102.76317 529.15255 103.89957 C 528.8576 104.00272 528.31559 104.50311 528.42287 103.91248 C 528.26245 97.158384 528.28798 90.400658 528.25751 83.644988 C 528.24951 74.015782 528.22075 64.385362 528.35415 54.756829 C 528.41585 53.794679 528.27574 52.752595 528.69624 51.858815 C 529.56812 50.788913 530.83281 50.141635 531.96374 49.385064 C 533.14512 48.664871 534.33349 47.956223 535.52528 47.253411 L 535.52528 43.869121 z "
       transform="translate(-1.3125e-5)" /><path
       id="path10451"
       style="font-size:50.8px;-inkscape-font-specification:'josefin sans';fill:#333333;stroke-width:0.264583"
       inkscape:label="header1"
       d="M 535.52528 43.869121 L 535.52528 47.253411 C 539.4913 44.914617 543.50186 42.650293 547.47494 40.324118 C 548.98038 39.461533 550.48053 38.589581 551.97906 37.714975 L 551.97906 34.379261 C 549.53151 35.785625 546.59847 37.489156 545.15002 38.349045 C 543.57328 39.285071 540.99325 40.772874 539.41652 41.65582 C 538.17706 42.349932 536.68924 43.19828 535.52528 43.869121 z "
       transform="translate(-1.3125e-5)" /><path
       id="path10417"
       style="font-size:50.8px;-inkscape-font-specification:'josefin sans';fill:#333333;stroke-width:0.264583"
       inkscape:label="header"
       d="M 503.7789 66.517868 C 500.74978 65.546404 497.57271 64.987689 494.59755 63.853431 C 494.38502 60.632191 494.47196 57.398411 494.44149 54.171852 C 494.41049 50.92917 494.50628 47.680245 494.28232 44.443247 C 494.16798 41.957555 491.90425 39.845289 489.43146 39.818723 C 487.88067 39.765073 486.35286 40.490324 485.364 41.675974 C 484.34474 42.722071 484.39129 44.267057 484.34288 45.623536 C 484.24828 50.854357 484.29074 56.087234 484.30774 61.318702 C 484.36794 64.21349 484.26194 67.147477 484.87308 69.994659 C 485.45178 72.169151 486.48141 74.209226 487.68996 76.098679 C 489.77008 79.324746 492.82769 81.807175 496.18557 83.610365 C 497.52128 84.34795 499.14218 84.916413 500.64369 84.331768 C 501.23363 84.741368 501.94858 84.933658 502.65856 84.983408 C 503.03164 84.998201 503.4057 84.991436 503.7789 84.965838 L 503.7789 82.099863 C 503.20152 82.168401 502.67775 82.185777 502.35108 82.127251 C 502.19533 82.026191 502.03315 81.931339 501.86377 81.851299 C 501.62207 81.509564 501.56579 80.808185 501.62968 79.413722 C 501.71348 77.582124 501.57897 77.401263 500.36567 77.705816 C 499.85265 77.834481 499.83134 77.914581 499.83134 79.716546 C 499.83134 82.014154 499.64337 82.159801 497.8666 81.232216 C 491.8966 78.115285 488.56835 73.924369 487.34941 67.986512 C 487.22648 67.388012 487.14011 65.131509 487.08276 62.300038 C 487.02886 57.544343 487.03528 52.787588 487.06468 48.031658 C 487.11258 45.694636 487.18911 44.006755 487.2998 43.763702 C 487.60841 43.086356 488.41543 42.704433 489.24077 42.679013 L 489.2418 42.679013 C 489.72263 42.663393 490.21006 42.769063 490.60916 43.008709 L 490.6102 43.009742 C 490.91492 43.234516 491.1651 43.532816 491.3316 43.872739 C 491.5569 44.670073 491.55922 46.770522 491.56053 54.535137 C 491.56253 63.485455 491.61323 65.25458 491.87989 65.576324 C 492.50816 66.33425 494.71002 67.216104 497.41805 67.795826 C 500.07254 68.364071 502.14458 68.895488 503.7789 69.469626 L 503.7789 66.517868 z "
       transform="translate(-1.3125e-5)" /><path
       id="path10415"
       style="font-size:50.8px;-inkscape-font-specification:'josefin sans';fill:#333333;stroke-width:0.264583"
       inkscape:label="header"
       d="M 503.7789 66.517868 L 503.7789 69.469626 C 507.45971 70.762699 508.9045 72.272458 509.67053 74.907537 C 510.45383 77.601954 508.87161 80.530769 506.06455 81.581031 C 505.41648 81.823528 504.54874 82.008479 503.7789 82.099863 L 503.7789 84.965838 C 506.25748 84.795825 508.68963 83.746502 510.42346 81.953619 C 512.25198 80.162074 512.89598 77.453309 512.54994 74.969549 C 512.19257 72.019414 510.19178 69.423207 507.5766 68.07798 C 506.35697 67.428117 505.08136 66.935579 503.7789 66.517868 z "
       transform="translate(-1.3125e-5)" /><path
       id="path10413"
       style="font-size:50.8px;-inkscape-font-specification:'josefin sans';fill:#333333;stroke-width:0.264583"
       inkscape:label="header"
       d="M 503.7789 40.630559 C 500.73572 39.083347 498.31701 37.852189 493.98777 35.651535 C 483.0757 30.104654 480.32352 28.70774 479.01297 28.760483 L 479.01245 28.760483 C 478.57561 28.778713 478.2996 28.956422 477.93448 29.196115 C 476.63566 30.048666 476.70831 28.402514 476.66273 58.170574 C 476.61193 91.301391 475.96957 88.009145 483.18223 91.66052 C 485.00151 92.581516 487.97959 94.12869 489.79888 95.098036 C 492.48874 96.531248 497.96529 99.375946 503.7789 102.36943 L 503.7789 99.080222 C 502.25394 98.299933 500.72806 97.521695 499.20089 96.744447 C 493.25645 93.675219 487.29016 90.643877 481.41127 87.450441 C 480.29341 86.918821 480.10386 85.57807 479.90646 84.491965 C 479.73898 81.51159 479.75932 78.523301 479.70957 75.539023 C 479.61607 62.578904 479.59399 49.617069 479.72817 36.657159 C 479.73857 35.639061 479.76613 34.522802 479.77933 33.567941 C 479.79493 33.035388 479.81224 32.503176 479.82894 31.970623 C 482.14278 32.955079 484.3876 34.091456 486.64713 35.192648 C 492.37337 38.046835 498.08378 40.934482 503.7789 43.851551 L 503.7789 40.630559 z "
       transform="translate(-1.3125e-5)" /><path
       id="path10411"
       style="font-size:50.8px;-inkscape-font-specification:'josefin sans';fill:#333333;stroke-width:0.264583"
       inkscape:label="header"
       d="M 503.7789 40.630559 L 503.7789 43.851551 C 506.77004 45.383628 509.75818 46.921454 512.73959 48.471941 C 514.66489 49.526112 516.66699 50.471246 518.45449 51.753395 C 518.57221 54.089892 518.59803 56.429706 518.64569 58.76847 C 518.83218 71.466886 518.90695 84.167185 518.86894 96.86692 C 518.83174 100.03859 518.87394 103.27701 518.63743 106.39864 C 518.23789 106.22596 517.84226 106.04586 517.44783 105.86172 C 512.83091 103.70381 508.30344 101.39533 503.7789 99.080222 L 503.7789 102.36943 C 506.49385 103.76738 509.2503 105.18315 511.889 106.52938 C 519.0949 110.2057 520.52213 110.45783 521.46671 108.21868 C 522.06227 106.80671 521.90703 51.987803 521.30393 50.683176 C 520.66206 49.295215 521.11861 49.446404 503.7789 40.630559 z "
       transform="translate(-1.3125e-5)" /><path
       id="path10409"
       style="font-size:50.8px;-inkscape-font-specification:'josefin sans';fill:#333333;stroke-width:0.264583"
       inkscape:label="header"
       d="M 523.45264 45.013754 C 524.58619 44.795048 526.05107 44.084851 528.76859 42.563258 C 530.78623 41.433503 536.67395 38.275466 541.85255 35.545082 C 546.17255 33.267368 549.33882 31.609193 551.97906 30.206906 L 551.97906 26.888246 C 550.28262 27.819532 548.57195 28.725779 546.87033 29.6457 C 539.97227 33.272917 533.09702 36.944821 526.22973 40.630043 C 525.31162 41.060376 524.43399 41.657409 523.45264 41.929705 L 523.45264 45.013754 z "
       transform="translate(-1.3125e-5)" /><path
       id="path10446"
       style="font-size:50.8px;-inkscape-font-specification:'josefin sans';fill:#333333;stroke-width:0.264583"
       inkscape:label="header"
       d="M 523.45264 45.013754 L 523.45264 41.929705 C 523.27174 41.979898 523.08753 42.019973 522.89866 42.044943 C 522.04629 42.010043 521.30936 41.472092 520.54739 41.136472 C 515.00381 38.15651 509.39678 35.298018 503.7789 32.461032 L 503.7789 35.6443 C 512.05542 39.813849 519.40099 43.622231 520.37789 44.298036 C 520.82494 44.60733 521.42664 44.913509 521.71424 44.977581 C 522.29503 45.107196 522.82345 45.13515 523.45264 45.013754 z "
       transform="translate(-1.3125e-5)" /><path
       id="path10407"
       style="font-size:50.8px;-inkscape-font-specification:'josefin sans';fill:#333333;stroke-width:0.264583"
       inkscape:label="header"
       d="M 551.97906 12.829672 L 551.97906 16.062033 C 554.11008 17.134808 556.22727 18.236435 558.27325 19.462342 C 558.49411 20.42736 558.50774 21.42453 558.52336 22.409966 C 558.61666 23.041158 557.91213 23.326037 557.5043 23.656402 C 555.7036 24.803237 553.85008 25.86112 551.97906 26.888246 L 551.97906 30.206906 C 562.58767 24.572451 561.48098 24.643493 561.34438 20.524293 C 561.23874 17.341391 561.42517 17.387043 551.97906 12.829672 z "
       transform="translate(-1.3125e-5)" /><path
       id="path10405"
       style="font-size:50.8px;-inkscape-font-specification:'josefin sans';fill:#333333;stroke-width:0.264583"
       inkscape:label="header"
       d="M 523.45264 26.898064 C 523.63512 26.769168 523.81424 26.634929 523.98904 26.493955 C 524.8135 27.399638 526.07798 27.676421 527.25137 27.760027 C 529.1642 27.833997 531.16067 27.946534 532.98125 27.244813 C 535.12703 26.449876 537.35543 25.137243 538.22124 22.901409 C 538.79017 21.031883 538.90484 19.059916 539.1416 17.128635 C 540.99121 16.881201 542.86399 16.987177 544.72214 16.872836 C 546.27789 16.857206 547.78979 15.840991 548.31417 14.366529 C 548.5017 14.182363 548.97444 14.636197 549.27277 14.708627 C 550.17514 15.158093 551.07788 15.60837 551.97906 16.062033 L 551.97906 12.829672 C 551.70296 12.696467 551.47624 12.58656 551.18324 12.4452 L 544.01262 12.4452 C 544.55347 12.628086 544.97797 12.814129 545.20635 12.992453 C 546.13338 13.71632 545.19085 14.240202 543.29122 14.055954 C 541.45137 13.877437 537.64177 14.280424 536.89006 14.732915 C 536.36477 15.048952 536.29646 15.343134 536.14695 17.922902 C 535.88911 22.366589 535.46352 23.12858 532.56009 24.348349 C 531.71339 24.704055 530.65162 24.942327 529.63107 25.054766 C 528.9165 25.070396 528.19675 25.031388 527.49115 25.014458 C 527.28747 24.988408 527.05114 24.972637 526.81936 24.936427 C 526.74906 24.915587 526.67981 24.892187 526.61782 24.866147 C 524.20789 23.859954 527.42269 20.919381 531.78339 20.140854 C 534.03466 19.738942 534.04727 19.717537 534.24939 15.893051 C 534.33984 14.182688 534.4123 13.129053 534.50829 12.4452 L 531.66454 12.4452 C 531.4232 14.028484 531.4361 15.659019 531.23149 17.245424 C 529.6768 17.668558 528.13173 18.267209 526.67414 18.985886 C 526.82754 17.5932 526.98143 16.270051 527.16662 14.867274 C 527.27237 14.074192 527.38843 13.250182 527.50924 12.4452 L 524.51924 12.4452 C 524.42065 13.351696 524.32044 14.26884 524.2097 15.358717 C 523.82729 19.119781 523.63996 21.016372 523.45264 22.082854 L 523.45264 26.898064 z "
       transform="translate(-1.3125e-5)" /><path
       id="path10443"
       style="font-size:50.8px;-inkscape-font-specification:'josefin sans';fill:#333333;stroke-width:0.264583"
       inkscape:label="header"
       d="M 523.45264 26.898064 L 523.45264 22.082854 C 523.24437 23.268588 523.0361 23.425642 522.55967 23.924086 C 521.60116 24.926919 519.89006 25.759577 517.73412 26.272779 C 517.38092 26.356909 517.03826 26.422995 516.70473 26.475868 C 515.69683 26.594376 514.67571 26.593218 513.67235 26.468116 C 513.63455 26.462916 513.59406 26.45524 513.55505 26.45003 C 512.69117 26.227339 512.16754 25.788399 512.16754 25.160703 C 512.16754 23.191604 515.78217 21.051078 519.66992 20.717563 C 520.5785 20.639683 521.32303 20.50966 521.32512 20.429725 C 521.33194 20.178098 521.72057 16.065515 522.06926 12.4452 L 510.16818 12.4452 C 508.55887 12.926175 508.52414 14.104019 508.26597 17.487786 C 507.88976 22.417879 507.41444 23.310748 504.54165 24.47754 C 504.28531 24.58166 504.03075 24.67247 503.7789 24.750909 L 503.7789 27.661842 C 503.97732 27.61735 504.17696 27.575454 504.3706 27.521799 C 506.26103 26.940249 508.19819 26.043059 509.4044 24.412945 C 509.2601 25.695894 509.56359 27.118638 510.54851 28.018409 C 511.99357 29.317044 514.07945 29.357992 515.91614 29.309287 C 518.55968 29.132854 521.26892 28.440543 523.45264 26.898064 z M 519.01156 14.425957 C 518.89956 15.568799 518.79142 16.755129 518.67773 17.863474 C 518.56887 18.172736 517.97369 18.009352 517.66849 18.146144 C 514.95664 18.675882 512.25243 19.907069 510.46376 22.072002 C 511.00507 20.101081 511.0495 18.045034 511.32366 16.030511 C 511.43228 15.689539 511.34716 15.02267 511.85541 15.061061 C 514.17262 14.994781 516.50236 14.91213 518.78574 14.472983 C 518.86104 14.457353 518.93629 14.441587 519.01156 14.425957 z "
       transform="translate(-1.3125e-5)" /><path
       id="path10403"
       style="font-size:50.8px;-inkscape-font-specification:'josefin sans';display:inline;fill:#333333;stroke-width:0.264583"
       inkscape:label="header"
       d="M 523.45264 2.4080863 L 523.45264 -0.59638147 C 522.78873 -0.72074998 522.15076 -0.78601435 521.51942 -0.79275192 C 517.70393 -0.83345168 514.12159 1.2566642 506.41337 5.274578 C 504.32752 6.3618045 500.79644 8.1634212 498.56682 9.2774344 C 482.21452 17.447691 482.52542 17.217908 482.52542 21.124773 C 482.52542 25.148374 482.55302 25.174639 490.98227 29.288099 C 495.01211 31.254644 499.51291 33.495175 503.7789 35.6443 L 503.7789 32.461032 C 501.61039 31.365951 499.44076 30.272949 497.2718 29.179062 C 493.45339 27.22395 489.64975 25.338636 485.92521 23.233689 C 485.48248 22.781118 485.42369 22.065638 485.364 21.459637 C 485.362 20.681338 485.338 19.673074 486.06525 19.190524 C 488.40796 17.650295 490.95899 16.460656 493.42656 15.138059 C 501.17999 11.149564 508.94284 7.1768002 516.79206 3.3796032 C 518.07882 2.6806967 519.51835 2.2904008 520.98457 2.2732108 C 521.27803 2.2633108 521.57198 2.2596974 521.86617 2.2654593 C 522.39819 2.2758217 522.92952 2.3176975 523.45264 2.4080863 z "
       transform="translate(-1.3125e-5)" /><path
       id="path10440"
       style="font-size:50.8px;-inkscape-font-specification:'josefin sans';display:inline;fill:#333333;stroke-width:0.264583"
       inkscape:label="header"
       d="M 523.45264 5.9267346 C 524.09771 5.7208633 525.25997 5.7246592 527.45187 5.7277803 L 527.45187 5.7272635 C 533.41639 5.7358635 535.18319 6.0076527 535.18319 6.9142712 C 535.18319 6.9997811 535.15565 7.0685592 535.08655 7.1292452 C 534.92064 7.2028751 534.75214 7.2677147 534.57909 7.3194144 C 534.10537 7.4148743 533.28062 7.4939812 531.84954 7.6088024 C 527.76924 7.9361729 525.04199 8.6450937 524.87477 9.4216117 C 524.83477 9.6068208 524.68959 10.878848 524.51924 12.4452 L 527.50924 12.4452 C 527.57584 12.001134 527.64169 11.551101 527.71336 11.142954 C 528.89216 10.855333 530.10063 10.717953 531.3028 10.567278 C 531.40907 10.593868 531.85253 10.469456 532.03506 10.486146 C 532.09606 10.491646 532.12845 10.51298 532.10895 10.56056 C 531.89623 11.176729 531.76175 11.807418 531.66454 12.4452 L 534.50829 12.4452 C 534.63648 11.531949 534.80799 11.297255 535.13358 11.222535 C 535.36773 11.168795 535.68126 11.140525 536.0529 11.134685 L 536.0529 11.135202 C 538.11289 11.102812 541.95474 11.749328 544.01262 12.4452 L 551.18324 12.4452 C 551.02188 12.36735 550.91164 12.313744 550.74503 12.233326 C 546.28568 10.08099 541.34301 7.648196 539.76068 6.8264213 C 531.43927 2.5046792 527.05985 0.07935 523.45264 -0.59638147 L 523.45264 2.4080863 C 523.79731 2.4676431 524.13845 2.5477364 524.47376 2.6556164 C 524.67822 2.7383663 525.53512 2.9353546 524.90836 2.9139986 C 524.4387 2.9468165 523.94255 2.987949 523.45264 3.0674776 L 523.45264 5.9267346 z "
       transform="translate(-1.3125e-5)" /><path
       id="path10438"
       style="font-size:50.8px;-inkscape-font-specification:'josefin sans';display:inline;fill:#333333;stroke-width:0.264583"
       inkscape:label="header"
       d="M 523.45264 5.9267346 L 523.45264 3.0674776 C 522.3313 3.2495043 521.24273 3.635767 520.57994 4.605885 C 519.91307 5.6866445 519.86064 7.0091999 519.63065 8.2289196 C 518.65337 7.9341151 517.57662 7.7908774 516.53523 7.7689994 C 513.78368 7.7557194 511.02207 7.9189735 508.30214 8.3436413 C 506.9732 8.4823598 505.80127 9.4474945 505.43616 10.736777 C 505.26939 11.298302 505.15255 11.869501 505.06151 12.4452 L 507.89338 12.4452 C 508.00225 11.716556 508.11677 11.347646 508.25615 11.268527 C 508.91196 10.896219 512.71332 10.658839 515.61849 10.668047 C 517.04992 10.672447 518.25129 10.737877 518.76403 10.87527 C 518.85073 10.90814 518.93517 10.94891 519.01983 10.988441 C 519.34295 11.292754 519.28552 11.503311 518.70616 11.659718 C 518.63266 11.676388 518.55869 11.69148 518.4855 11.70726 C 517.81553 11.847646 516.66246 11.942444 514.84593 12.020936 C 512.53337 12.120866 511.09294 12.16881 510.16818 12.4452 L 522.06926 12.4452 C 522.25195 10.548371 522.46256 8.3426049 522.51781 7.8542655 C 522.54411 7.6204287 522.56776 7.4231427 522.59326 7.2377657 C 522.62036 7.0711514 522.65171 6.9064937 522.68731 6.7427054 C 522.80034 6.317156 523.0007 6.0709686 523.45264 5.9267346 z "
       transform="translate(-1.3125e-5)" /></g></svg>
