<?xml version="1.0" encoding="UTF-8" standalone="no"?>
<!-- Created with Inkscape (http://www.inkscape.org/) -->

<svg
   width="50mm"
   height="50mm"
   viewBox="0 0 50 50"
   version="1.1"
   id="svg4844"
   xml:space="preserve"
   xmlns="http://www.w3.org/2000/svg"
   xmlns:svg="http://www.w3.org/2000/svg"><defs
     id="defs4841" /><g
     id="layer1"><path
       style="fill:#333333;stroke-width:0.121604"
       d="M 24.201763,45.812336 C 21.251264,45.526233 20.61203,45.358257 18.130395,44.216928 16.422222,43.431326 15.502936,42.800878 14.369401,41.637637 11.972218,39.17764 9.866508,34.36716 9.379709,30.238736 c -0.4989,-4.231041 0.745701,-8.676301 3.076851,-10.98939 0.811611,-0.805322 3.107892,-2.350192 4.573855,-3.077151 1.113712,-0.552282 3.171212,-1.211874 3.780262,-1.211874 0.198823,0 0.21415,-0.03121 0.09045,-0.184163 -0.231191,-0.285868 0.148801,-0.769247 0.878969,-1.118124 0.956032,-0.456792 1.38979,-0.361329 1.411435,0.310632 0.0056,0.17277 0.109635,-0.18478 0.231267,-0.794555 0.510946,-2.561522 1.062237,-3.6117116 2.919651,-5.561838 1.58337,-1.662401 2.178478,-2.449564 2.383936,-3.153289 0.187836,-0.643372 0.481811,-0.572982 0.60107,0.14392 0.04964,0.298375 0.262991,1.038069 0.47412,1.643765 0.239708,0.687681 0.387323,1.3507 0.393063,1.765448 0.005,0.365301 0.03621,0.66421 0.06921,0.664242 0.03303,3.1e-5 0.624318,-0.224862 1.314018,-0.499764 1.501019,-0.598281 3.355302,-1.078037 4.507984,-1.166347 0.46216,-0.03541 1.123885,-0.09094 1.470507,-0.123399 l 0.630216,-0.05902 V 7.49183 c 0,0.572968 -0.113053,0.898225 -0.824604,2.3724264 -0.692444,1.4346176 -0.937741,1.8179596 -1.530527,2.3918736 -1.025846,0.993187 -2.424637,1.850448 -4.305198,2.638474 -0.601796,0.252175 -0.536032,0.299601 1.198451,0.864264 1.575317,0.512846 2.310428,0.928488 3.2927,1.86173 1.668521,1.585238 3.138321,3.843012 4.092922,6.287188 l 0.61905,1.585022 -0.06566,2.217364 c -0.07219,2.437961 -0.27892,3.739244 -0.919789,5.789789 -1.056561,3.380605 -3.43748,7.637663 -5.356583,9.577514 -1.387321,1.402325 -3.076703,2.394051 -4.667119,2.739774 -1.020665,0.221867 -3.199769,0.21993 -5.518453,-0.0049 z m 4.748907,-1.21553 c 2.537812,-0.464624 4.562614,-1.941653 6.262035,-4.567936 0.923555,-1.427266 2.919347,-5.531326 3.369367,-6.928627 0.690734,-2.144706 1.142315,-5.439389 0.945405,-6.897554 -0.127576,-0.94472 -0.977563,-3.161283 -1.599939,-4.172252 -0.588783,-0.956404 -1.928803,-2.630077 -2.763079,-3.451063 -0.801505,-0.788738 -1.511926,-1.219022 -2.619827,-1.586768 -0.363124,-0.120532 -0.795272,-0.314979 -0.960328,-0.432103 -0.539852,-0.383079 -1.30523,-0.737873 -1.591768,-0.737873 -0.154484,0 -0.337557,-0.05816 -0.406827,-0.129251 -0.08791,-0.09021 -0.720634,0.02538 -2.094721,0.382672 -1.187944,0.30889 -2.280951,0.518936 -2.755897,0.529608 l -0.787123,0.01769 0.05149,1.007824 c 0.02831,0.554301 -0.0063,1.177935 -0.07693,1.385853 -0.151965,0.447349 -0.146809,0.448418 0.919327,0.190495 1.206922,-0.291983 1.856846,-0.634122 2.346519,-1.23528 0.700866,-0.860428 1.395538,-0.674835 0.964352,0.257641 -0.378227,0.817938 -1.311228,1.327038 -3.530815,1.926623 -1.715424,0.463394 -3.648536,0.549774 -4.287994,0.191608 -0.944318,-0.528921 -1.130165,-1.201653 -0.508271,-1.839846 0.201031,-0.206299 0.396526,-0.343259 0.434435,-0.304356 0.03791,0.0389 -0.02037,0.162362 -0.129503,0.274357 -0.247778,0.254272 -0.154889,0.634931 0.246262,1.009178 0.250756,0.233938 0.431799,0.276908 1.160701,0.275489 1.270463,-0.0024 1.362414,-0.04693 1.523672,-0.736751 0.218473,-0.93456 -0.04865,-1.612366 -1.109908,-2.816385 -0.528543,-0.599638 -0.716912,-0.623707 -2.007956,-0.256564 -1.273218,0.362072 -1.88241,0.642807 -3.817872,1.759399 -1.934574,1.116077 -2.873079,1.840438 -3.540504,2.732641 -0.667229,0.891945 -1.368026,2.440317 -1.734126,3.831458 -0.292126,1.110044 -0.32063,1.420156 -0.326908,3.55663 -0.0066,2.262658 0.0064,2.393289 0.392073,3.925261 1.948447,7.739571 4.897697,11.093759 10.84013,12.328495 1.663357,0.34562 4.168543,0.652155 5.446655,0.666453 0.462161,0.0052 1.248703,-0.06537 1.747877,-0.156764 z M 23.604231,17.393264 c -0.06379,-0.516505 -0.631894,-2.884018 -0.724738,-3.020285 -0.01237,-0.01815 -0.179073,0.05084 -0.370459,0.153318 -0.191385,0.102475 -0.519521,0.219732 -0.729191,0.260571 l -0.381217,0.07425 0.889347,1.059523 c 0.489141,0.582736 0.9848,1.297775 1.101465,1.588975 0.116665,0.2912 0.230692,0.529662 0.253393,0.529915 0.02271,2.47e-4 0.0053,-0.290567 -0.0386,-0.646269 z m 2.998359,-3.81838 c 0.462156,-0.366873 1.03751,-0.788422 1.278566,-0.936778 0.305376,-0.187945 0.4214,-0.335962 0.382622,-0.488135 -0.06345,-0.248987 0.646468,-1.394021 0.919685,-1.483368 0.09903,-0.03238 9.38e-4,0.150535 -0.218111,0.406487 -0.381856,0.446305 -0.681829,1.033764 -0.580808,1.137434 0.02645,0.02714 0.797717,-0.328901 1.713945,-0.791189 0.916232,-0.462288 1.99674,-0.991083 2.401126,-1.175099 C 33.11083,9.9661044 33.24679,9.8484854 33.30554,9.5470424 33.34442,9.3476014 33.546894,9.0011364 33.7555,8.77712 34.021509,8.491469 34.075626,8.4618 33.936694,8.67779 33.67471,9.0850684 33.394047,9.7133854 33.448881,9.7698394 c 0.06064,0.06242 1.527933,-0.783249 2.396885,-1.3814464 0.396139,-0.272704 0.645151,-0.401111 0.553359,-0.285348 -0.373454,0.47099 -2.127497,1.5291624 -4.848467,2.924965 -3.172016,1.627179 -4.560432,2.533891 -5.983074,3.907283 -0.887486,0.856761 -1.144529,1.202001 -0.795626,1.068621 0.08253,-0.03155 1.284441,-0.329521 2.670919,-0.662157 3.55997,-0.854093 4.722258,-1.306254 6.558229,-2.551336 1.350009,-0.91552 1.953439,-1.64711 2.81486,-3.4126846 0.918777,-1.8831274 0.9456,-2.0551954 0.320243,-2.0545074 -1.404426,0.0015 -4.13042,0.685474 -6.205835,1.556994 -3.258918,1.368503 -4.55364,2.526718 -5.787539,5.177343 -0.352347,0.75691 -0.78363,1.560704 -0.958403,1.786209 -0.17477,0.225508 0.108751,-0.04265 0.630051,-0.595916 0.521297,-0.553261 1.325946,-1.306098 1.788107,-1.67297 z m -0.530184,1.094573 c 0.02749,-0.02447 0.455156,-0.07687 0.950328,-0.11645 0.556094,-0.04445 0.808519,-0.03075 0.660227,0.03583 -0.226055,0.101493 -1.717982,0.176174 -1.610555,0.08062 z m 1.640563,-0.653029 c 0.08253,-0.03417 0.217577,-0.03417 0.300104,0 0.08253,0.03417 0.01502,0.06214 -0.150052,0.06214 -0.165056,0 -0.232579,-0.02796 -0.150052,-0.06214 z m 0.93032,-0.168035 c 0.264094,-0.05469 0.636209,-0.161038 0.82693,-0.236325 0.190718,-0.07528 0.368518,-0.114555 0.395113,-0.08726 0.100323,0.102955 -0.943086,0.449454 -1.314502,0.436524 -0.373758,-0.01301 -0.370433,-0.01707 0.09246,-0.112935 z m -2.450961,-0.454585 c 0.118815,-0.320697 0.946104,-1.513161 1.049774,-1.513161 0.02749,0 -0.03807,0.124727 -0.145669,0.277171 -0.107623,0.152444 -0.362447,0.5682 -0.56629,0.923902 -0.409218,0.714095 -0.527103,0.823 -0.337815,0.312088 z m 3.471313,-0.40257 c 0.627216,-0.05365 1.372213,-0.193832 1.655549,-0.311521 0.651462,-0.270593 0.7843,-0.168416 0.179374,0.137967 -0.345555,0.175018 -0.756466,0.235074 -1.714884,0.250634 l -1.260431,0.02046 z m 1.690583,-1.28116 c 0.02749,-0.02606 0.485208,-0.10658 1.017117,-0.178934 0.531903,-0.07235 1.228286,-0.246445 1.547514,-0.386869 0.319232,-0.140423 0.605017,-0.230072 0.635079,-0.199219 0.130071,0.133475 -0.9867,0.575637 -1.733912,0.686509 -0.837143,0.124215 -1.55461,0.162646 -1.465798,0.07851 z m -0.478961,-1.153145 c 0.149085,-0.402407 0.709227,-1.1808946 0.790022,-1.0979806 0.03121,0.03202 -0.109292,0.293435 -0.312227,0.5809146 -0.202931,0.287479 -0.368962,0.597523 -0.368962,0.688987 0,0.09146 -0.05269,0.166297 -0.117072,0.166297 -0.07406,0 -0.07104,-0.124239 0.0082,-0.338218 z m 3.123325,-0.45578 c 0.0294,-0.03019 0.430048,-0.1158746 0.890307,-0.1904266 0.460256,-0.07455 1.039399,-0.242988 1.286987,-0.374301 0.247584,-0.131313 0.450156,-0.18563 0.450156,-0.120705 0,0.2101 -0.639625,0.463482 -1.523514,0.6035276 -0.936135,0.148325 -1.186782,0.166921 -1.103936,0.08191 z m -9.470679,4.458264 c 0.81121,-1.637509 1.461321,-2.677967 2.200306,-3.521433 0.630588,-0.719747 0.985485,-1.4940026 1.551892,-3.385656 0.350347,-1.17008 0.413035,-1.30102 0.417708,-0.872493 0.0032,0.277307 -0.182574,1.108819 -0.41244,1.847804 -0.229863,0.7389854 -0.418928,1.3612424 -0.420144,1.382795 -0.0014,0.02155 0.14634,-0.06835 0.327906,-0.1997786 0.181562,-0.131431 0.620801,-0.389281 0.976093,-0.573003 l 0.645982,-0.334039 -0.06289,-0.6980524 c -0.06186,-0.686626 -0.691628,-3.099862 -0.808936,-3.099769 -0.03303,2.6e-5 -0.249086,0.288752 -0.480164,0.641612 -0.231078,0.35286 -1.041358,1.310962 -1.800619,2.129116 -1.456661,1.5696444 -1.9548,2.354108 -2.456941,3.869157 -0.553034,1.668592 -0.823666,4.202012 -0.448622,4.199594 0.04653,-2.46e-4 0.393411,-0.623933 0.770862,-1.385854 z m -0.02604,-0.891405 c 0,-0.2445 -0.08241,-0.608092 -0.183144,-0.807987 -0.246881,-0.48992 -0.112586,-0.463046 0.18446,0.03691 0.25448,0.42832 0.315571,1.014633 0.118724,1.139479 -0.07155,0.04539 -0.12004,-0.103415 -0.12004,-0.368408 z m 0.702454,-1.787365 c -0.10882,-0.440393 -0.180659,-0.819384 -0.159643,-0.8422 0.02101,-0.02282 0.126876,0.09738 0.235248,0.267108 0.126754,0.198524 0.183698,0.498923 0.159643,0.842201 l -0.03738,0.533606 z m 1.118428,-1.554552 c -0.07761,-0.279105 -0.255133,-0.6562056 -0.394478,-0.8379996 -0.322784,-0.421108 -0.235025,-0.518804 0.171362,-0.190762 0.314314,0.253716 0.510893,0.8739236 0.414695,1.3083456 -0.03399,0.153507 -0.09652,0.06226 -0.191579,-0.279584 z m 1.084001,-1.771497 0.0077,-0.923902 0.121552,0.649179 c 0.08478,0.452776 0.08246,0.7322924 -0.0077,0.9239024 -0.104024,0.2212 -0.127703,0.09472 -0.121551,-0.6491794 z m -5.253504,5.792837 c 0.301765,-0.117737 0.435976,-0.495797 0.176009,-0.495797 -0.183983,0 -0.938459,0.376479 -1.017504,0.507728 -0.08756,0.145387 0.458116,0.13765 0.841495,-0.01193 z"
       id="path5340" /><circle
       style="fill:none;stroke:#000400;stroke-width:2;stroke-linecap:round"
       id="path5394"
       cx="25"
       cy="25"
       r="24" /></g></svg>
