<?xml version="1.0" encoding="UTF-8" standalone="no"?>
<!-- Created with Inkscape (http://www.inkscape.org/) -->

<svg
   width="50mm"
   height="50mm"
   viewBox="0 0 50 50"
   version="1.1"
   id="svg4844"
   xml:space="preserve"
   xmlns="http://www.w3.org/2000/svg"
   xmlns:svg="http://www.w3.org/2000/svg"><defs
     id="defs4841" /><g
     id="layer1"><circle
       style="fill:none;stroke:#000400;stroke-width:2;stroke-linecap:round"
       id="path5394"
       cx="25"
       cy="25"
       r="24" /><path
       style="fill:#333333;stroke-width:0.0220736"
       d="m 16.459456,43.841217 c -0.458308,-0.07469 -0.739796,-0.129789 -0.759381,-0.148646 -0.01714,-0.01651 -0.114421,-0.187397 -0.21623,-0.379806 l -0.185101,-0.349837 -0.351833,-0.308922 c -0.253602,-0.222674 -0.351832,-0.322488 -0.351832,-0.357505 0,-0.04584 0.196257,-0.722429 0.236069,-0.813794 0.01019,-0.02343 0.0044,-0.125942 -0.01352,-0.227808 -0.01767,-0.101866 -0.0323,-0.199101 -0.03249,-0.216079 -4.83e-4,-0.04334 0.612323,-0.94449 0.86944,-1.278384 l 0.213631,-0.277426 0.272727,-1.144807 0.272734,-1.14481 1.092227,-2.023243 c 0.914145,-1.693362 1.255863,-2.300055 2.095847,-3.720985 l 1.003623,-1.697741 0.465906,-2.057866 0.46591,-2.057869 -0.01043,-0.833436 -0.01043,-0.833438 -0.0836,-0.195492 c -0.282799,-0.661331 -0.547678,-1.177729 -0.807502,-1.574268 -0.631304,-0.963482 -1.06493,-1.36342 -1.816621,-1.675511 -0.602399,-0.250104 -1.249999,-0.372068 -1.975565,-0.372068 -0.652163,0 -1.362445,0.09893 -2.533918,0.352961 -0.525949,0.114049 -0.865027,0.216205 -1.834971,0.552854 -1.134031,0.393599 -1.910492,0.620092 -2.6755034,0.780436 -0.299306,0.06273 -1.2143093,0.186217 -1.3808025,0.186342 -0.080282,6.1e-5 -0.1261903,-0.02562 -0.4100063,-0.229347 C 7.4922525,21.431818 7.4584322,21.402583 7.4755591,21.34326 7.4945761,21.27739 8.64975,20.488523 9.0042955,20.29929 c 0.815981,-0.435518 2.1234295,-1.051712 2.8876965,-1.360955 0.930784,-0.376621 1.82755,-0.613242 2.963532,-0.781964 1.719545,-0.255392 3.262489,-0.225747 4.936661,0.09486 0.540908,0.103584 0.926854,0.204183 2.344023,0.611 1.302457,0.373886 2.159106,0.60281 2.181834,0.583056 0.0072,-0.0062 0.07184,-0.51905 0.143538,-1.139439 L 24.591942,17.17786 24.59146,16.385583 C 24.59052,15.04111 24.510041,14.077885 24.348545,13.46923 24.269582,13.171594 24.117794,12.812282 23.792232,12.152285 23.617544,11.798124 23.368741,11.26529 23.239345,10.968208 23.10995,10.671124 22.891031,10.168765 22.752866,9.8518533 22.401052,9.0449098 22.220363,8.5489504 22.018127,7.8351436 21.717035,6.7724087 21.651075,6.4359674 21.651075,5.9629196 c 0,-0.7204549 0.212212,-1.2336419 0.589943,-1.4266462 0.107885,-0.055125 0.110926,-0.05542 0.511037,-0.049491 0.221383,0.00328 0.582282,-0.00533 0.802006,-0.01919 0.35383,-0.022272 0.433664,-0.021068 0.69847,0.010554 1.053561,0.1257905 2.176588,0.5100944 2.950841,1.0097897 0.255085,0.1646308 0.866572,0.7014456 1.173478,1.0301815 0.137364,0.1471388 0.522014,0.5592263 0.854778,0.915751 1.244268,1.333125 1.702982,1.9185133 2.12857,2.7163844 0.581679,1.090503 1.380904,3.120587 1.656785,4.208339 0.121531,0.479208 0.16768,0.618479 0.335516,1.012648 l 0.194603,0.457024 0.119219,-0.06162 c 0.248954,-0.12867 0.673673,-0.305417 0.842917,-0.350779 0.245353,-0.06576 0.583988,-0.06677 0.815316,-0.0024 0.19192,0.05337 0.320262,0.129901 0.643073,0.383421 0.198074,0.155558 0.277309,0.201661 0.528936,0.307769 0.261581,0.110304 0.31823,0.144034 0.487595,0.290343 0.582467,0.503153 1.113445,1.363683 1.524296,2.470352 0.292012,0.786552 0.376721,1.262267 0.429499,2.4119 0.03611,0.786302 -0.0051,1.519246 -0.158726,2.825369 -0.03264,0.277298 -0.06542,0.564372 -0.0729,0.637939 l -0.01361,0.133761 0.436194,0.483601 c 0.239909,0.265976 0.683338,0.799894 0.985406,1.186477 0.452101,0.578596 0.580134,0.727781 0.724114,0.843723 0.149396,0.120313 0.243247,0.23236 0.643691,0.768496 0.537397,0.719504 0.481754,0.584906 0.552961,1.337615 0.166531,1.760329 0.186641,3.073303 0.05958,3.889367 -0.124143,0.797337 -0.446611,1.625797 -1.017263,2.613489 -0.49824,0.862366 -0.952242,1.374576 -1.414939,1.596353 -0.28788,0.137983 -0.69652,0.486364 -0.939637,0.801065 -0.425927,0.551352 -0.680604,0.808367 -0.957078,0.965877 -0.19901,0.113375 -0.362148,0.151288 -0.716785,0.166587 -0.479549,0.02069 -0.540387,0.04236 -1.013838,0.361011 -0.117053,0.07878 -0.269282,0.161601 -0.338283,0.184044 -0.163592,0.0532 -0.436392,0.05386 -0.67039,0.0018 -0.263975,-0.05891 -0.806187,-0.239916 -1.093387,-0.364996 -0.343153,-0.149459 -0.524988,-0.210342 -1.038196,-0.347617 -0.239381,-0.06403 -0.448856,-0.127712 -0.46549,-0.141504 -0.01666,-0.01381 -0.161905,-0.416168 -0.322813,-0.894156 l -0.292566,-0.86907 0.04369,-1.362412 0.04369,-1.362411 0.329888,-1.646296 0.329888,-1.646291 -0.04036,-1.321692 c -0.0222,-0.726937 -0.04746,-1.327874 -0.05615,-1.335416 -0.0086,-0.0076 -0.02043,-9.04e-4 -0.02612,0.01497 -0.0058,0.01576 -0.0549,0.161373 -0.109372,0.32357 -0.05447,0.162198 -0.171389,0.46779 -0.25981,0.679099 -0.08842,0.211304 -0.173646,0.43975 -0.189408,0.507661 -0.08742,0.37673 -1.814705,3.979742 -2.565469,5.351411 -0.857535,1.566748 -1.967446,3.174624 -2.875932,4.166222 -0.605391,0.66078 -1.773644,1.640348 -2.83939,2.380813 -0.843753,0.586222 -1.569236,0.930752 -2.416021,1.147352 -0.535401,0.136952 -0.726537,0.16231 -1.236858,0.164091 l -0.461703,0.0013 -0.497216,0.198501 -0.49722,0.198503 -0.390668,0.01275 c -0.214873,0.0071 -0.507875,0.01703 -0.65112,0.02219 -0.241818,0.0088 -0.312538,9.02e-4 -0.988706,-0.109268 z m 1.189956,-0.121418 c 0.166355,-0.009 0.240603,-0.01893 0.190848,-0.02562 -0.07847,-0.01061 -0.08302,-0.01622 -0.124955,-0.155042 -0.03915,-0.129654 -0.04103,-0.176235 -0.01878,-0.46603 0.02294,-0.298591 0.02105,-0.336421 -0.02558,-0.520813 -0.02766,-0.109357 -0.0465,-0.201822 -0.0418,-0.205474 0.0048,-0.0037 0.178962,-0.07405 0.387318,-0.156439 0.20836,-0.08239 0.852963,-0.380398 1.43246,-0.662246 0.895989,-0.435787 1.108042,-0.548124 1.417332,-0.750862 0.944517,-0.619105 1.792576,-1.246443 2.183332,-1.615079 1.262192,-1.19075 2.459601,-2.731072 3.724289,-4.790852 0.52855,-0.860835 1.703035,-2.911959 1.985519,-3.467508 0.429464,-0.844606 1.017825,-2.163678 1.782603,-3.99649 l 0.302304,-0.724485 -0.05358,-0.108952 c -0.167869,-0.341363 -0.590406,-1.120332 -0.684201,-1.261355 -0.143511,-0.215783 -0.41678,-0.457197 -0.603841,-0.533463 -0.251068,-0.102354 -0.920498,-0.217661 -1.263689,-0.217661 -0.128092,0 -0.259308,0.07697 -0.558894,0.327846 -0.302304,0.253143 -0.937002,0.92507 -1.274565,1.349314 -0.499088,0.627264 -1.237586,1.849119 -1.890556,3.12796 -0.817675,1.601434 -1.132574,2.067165 -2.511447,3.71445 -0.703452,0.840385 -0.927691,1.121076 -1.265861,1.584557 -0.128005,0.175434 -0.39987,0.531958 -0.604136,0.79228 -0.204272,0.260319 -0.459693,0.598323 -0.567597,0.751117 -0.350733,0.496651 -0.634186,1.065296 -0.710496,1.425367 -0.03422,0.161458 -0.0063,0.526764 0.06257,0.820899 0.007,0.03004 0.182506,0.247665 0.389919,0.483596 0.207415,0.235934 0.376587,0.438225 0.375935,0.449544 -4.82e-4,0.0113 -0.195191,0.158305 -0.432303,0.326639 l -0.431111,0.306063 -0.138596,0.671426 c -0.07623,0.369284 -0.139919,0.679653 -0.141542,0.689711 -0.0015,0.01008 0.209765,0.05776 0.469744,0.105974 l 0.472685,0.08768 1.184704,-0.716808 c 1.497537,-0.906083 1.871426,-1.178293 2.701025,-1.966486 0.296714,-0.281905 0.544513,-0.517185 0.550659,-0.522846 0.0651,-0.05994 -0.130182,0.174298 -0.557162,0.668284 l -0.515381,0.596258 -1.438934,0.957432 -1.438934,0.957432 -0.577962,0.221487 -0.577958,0.221489 -0.149554,-0.08974 c -0.299412,-0.179685 -0.635454,-0.347166 -0.672074,-0.334951 -0.02019,0.0066 -0.227998,0.114175 -0.461847,0.238778 -0.233843,0.124601 -0.4331,0.226548 -0.442788,0.226548 -0.0097,0 -0.159652,-0.04861 -0.333252,-0.108039 l -0.315637,-0.10804 -0.0683,-0.185207 c -0.116458,-0.315866 -0.1335,-0.26181 0.183291,-0.581488 0.175632,-0.177228 0.5536,-0.620116 1.012367,-1.186245 l 0.732092,-0.903423 0.04296,-0.218113 c 0.04957,-0.251635 0.05247,-0.330815 0.0062,-0.166666 -0.03171,0.112235 -0.0319,0.112407 -0.02201,0.0206 0.0055,-0.05092 0.03331,-0.365787 0.06184,-0.699676 l 0.05189,-0.607071 0.09335,-0.216075 c 0.259983,-0.601802 0.663462,-1.387684 0.882202,-1.71832 0.227442,-0.343785 0.815702,-1.068276 1.336562,-1.646091 0.154684,-0.1716 0.313391,-0.392776 0.600572,-0.83697 0.214675,-0.332054 0.407303,-0.636151 0.428051,-0.675762 0.02075,-0.03961 0.117724,-0.351969 0.215485,-0.694118 l 0.177756,-0.622092 -0.03548,-0.221631 C 22.03909,29.55067 21.995597,29.438113 21.58393,28.728604 l -0.349789,-0.60286 -0.192812,0.854016 -0.192813,0.854014 -0.987234,1.666873 c -0.831738,1.404323 -1.161528,1.989552 -2.093804,3.715539 l -1.10657,2.048667 -0.274779,1.150135 -0.274779,1.150139 -0.235726,0.309857 c -0.129687,0.170425 -0.36966,0.507862 -0.533311,0.749868 l -0.297549,0.440009 0.03596,0.194298 c 0.01979,0.106863 0.03118,0.201041 0.02535,0.209282 -0.006,0.0082 -0.0645,0.190158 -0.130303,0.404266 l -0.119649,0.389294 0.33779,0.299036 0.337784,0.299031 0.172417,0.32952 0.172415,0.329517 0.655649,0.105316 c 0.721438,0.115881 0.727338,0.116386 1.117348,0.09542 z m -0.639278,-0.12372 c -0.179135,-0.01031 -0.61293,-0.156255 -0.819288,-0.275721 -0.153652,-0.08896 -0.17693,-0.112141 -0.2696,-0.268553 -0.05579,-0.09415 -0.172812,-0.259166 -0.26005,-0.366688 -0.08724,-0.107525 -0.22696,-0.283473 -0.310487,-0.390996 l -0.151866,-0.195498 0.0039,-0.185207 c 0.0019,-0.101867 0.0075,-0.343925 0.01182,-0.537917 l 0.0079,-0.352704 0.106549,0.04637 c 0.05861,0.02549 0.232868,0.07292 0.387265,0.105389 l 0.28072,0.05903 0.166432,0.206161 c 0.165247,0.204686 0.169293,0.207833 0.56595,0.441132 l 0.399517,0.234979 0.214791,0.361807 0.214791,0.3618 -0.07475,0.216076 c -0.04113,0.118842 -0.101826,0.292474 -0.134927,0.385852 -0.06779,0.191205 -0.02698,0.172563 -0.338731,0.154696 z m -0.398121,-4.057913 0.604406,-0.584908 0.302478,-1.133412 0.302473,-1.133412 0.413729,-0.895173 c 0.401201,-0.868082 0.437556,-0.936269 1.201363,-2.253364 0.650165,-1.121126 0.865418,-1.515247 1.233257,-2.257993 0.245087,-0.494891 0.448818,-0.897021 0.452733,-0.893616 0.0039,0.0034 -0.249329,0.612041 -0.562762,1.352532 l -0.569885,1.346345 -0.717605,1.121539 -0.717606,1.121536 -0.428684,1.019932 -0.428683,1.019932 -0.06973,0.62636 c -0.06004,0.539283 -0.07986,0.654024 -0.142522,0.825327 l -0.07279,0.198962 -0.645921,0.511 c -0.355261,0.281049 -0.671288,0.529523 -0.702289,0.55216 -0.03099,0.02266 0.215616,-0.222051 0.548038,-0.543747 z m 4.51921,-2.270387 c 0.785517,-0.82754 0.831791,-0.881437 1.842028,-2.145322 l 1.03627,-1.296456 1.489346,-2.294522 1.489344,-2.294521 0.890336,-1.636006 c 0.928023,-1.705252 1.045071,-1.917988 1.035228,-1.88153 -0.0035,0.0121 -0.362269,0.743672 -0.797788,1.625714 l -0.79185,1.603719 -1.364829,2.121145 -1.36483,2.121145 -1.362151,1.753481 -1.362146,1.75348 -0.763983,0.709269 c -0.420187,0.390103 -0.767746,0.709275 -0.772356,0.709275 -0.0048,0 0.354212,-0.381988 0.797381,-0.848871 z m -4.82e-4,-6.919572 c 0,-0.0113 0.01033,-0.03445 0.02297,-0.05144 0.01265,-0.01697 0.02298,-0.02163 0.02298,-0.0103 0,0.0113 -0.01033,0.03445 -0.02298,0.05143 -0.01265,0.01697 -0.02297,0.02163 -0.02297,0.0103 z m -1.22009,12.943803 c 0.449157,-0.0018 0.52354,-0.0072 0.769505,-0.05647 1.412132,-0.28309 2.28775,-0.763547 4.224152,-2.317832 1.013108,-0.81319 1.798595,-1.676114 2.68646,-2.9513 1.126136,-1.617404 2.007381,-3.252697 3.57309,-6.630417 l 0.438796,-0.946621 4.82e-4,-0.576202 c 9.55e-4,-0.818439 -0.09946,-1.595137 -0.307146,-2.376835 -0.07853,-0.295568 -0.290017,-0.900034 -0.379168,-1.083711 l -0.03833,-0.07898 -0.183964,0.623816 c -0.345677,1.172197 -0.569197,1.800082 -0.995083,2.795278 -0.536415,1.253479 -1.134452,2.462731 -1.764251,3.567364 -0.347662,0.609786 -0.55186,0.925182 -0.951657,1.469916 -0.150115,0.204533 -0.560212,0.765439 -0.91133,1.246469 -1.996453,2.735104 -2.52507,3.29622 -4.470936,4.745833 -0.413994,0.30841 -0.499897,0.360807 -1.444299,0.880939 -0.552271,0.30416 -1.007634,0.555448 -1.01192,0.55841 -0.01936,0.01339 -0.119336,0.637135 -0.104077,0.649212 0.0306,0.02423 0.560304,0.186876 0.609084,0.187014 0.02607,0 0.255122,-0.03758 0.509057,-0.08366 0.34687,-0.06295 0.622905,-0.09696 1.109848,-0.136736 0.356482,-0.02911 0.65154,-0.04999 0.655687,-0.04641 0.01699,0.01474 -1.224333,0.251361 -1.742933,0.332223 l -0.557485,0.08693 -0.407356,0.191113 c -0.224044,0.105115 -0.40735,0.19446 -0.40735,0.198547 0,0.0042 0.135844,-0.04958 0.301879,-0.119283 l 0.301883,-0.12672 0.497216,-0.0018 z m 5.405073,-3.328422 c 0.595855,-0.658644 0.731653,-0.824821 1.475649,-1.805779 l 0.819404,-1.08038 1.173486,-1.944686 1.173486,-1.944681 0.680759,-1.383816 c 0.37442,-0.761097 0.683637,-1.381309 0.687151,-1.378253 0.0035,0.0034 -0.247514,0.584097 -0.557843,1.291209 l -0.564232,1.285648 -1.053338,1.759481 -1.053341,1.759473 -1.081149,1.471376 -1.081155,1.471371 -0.62915,0.61222 c -0.346036,0.336717 -0.632941,0.612213 -0.637564,0.612213 -0.0048,0 0.286899,-0.32643 0.647837,-0.725396 z m 10.351983,-0.129171 c 0.05861,-0.02561 0.198064,-0.110236 0.309917,-0.188067 0.111858,-0.07784 0.229056,-0.15704 0.260447,-0.176014 0.03139,-0.01897 -0.168409,0.03038 -0.444008,0.109659 l -0.501089,0.14415 -0.480036,-0.159525 c -0.264014,-0.08775 -0.564995,-0.199337 -0.66884,-0.247998 -0.18142,-0.08502 -0.203268,-0.08989 -0.557823,-0.124612 l -0.369003,-0.03613 -0.148496,-0.360127 c -0.08167,-0.198069 -0.28569,-0.767585 -0.453371,-1.265588 l -0.304882,-0.905464 0.09191,-0.689386 c 0.179966,-1.349697 0.24079,-1.73182 0.448769,-2.819277 0.21117,-1.104153 0.299823,-1.631495 0.358075,-2.129893 0.04094,-0.350435 0.04142,-1.616944 4.82e-4,-1.965258 -0.201188,-1.721938 -0.584184,-2.871836 -1.352279,-4.060038 -0.282561,-0.437103 -0.522733,-0.726958 -0.921674,-1.112323 -0.546147,-0.527556 -0.952797,-0.765957 -1.377024,-0.807288 -0.170125,-0.01656 -0.630422,0.03656 -0.978445,0.112955 -0.321396,0.07055 -0.616653,0.203914 -0.984188,0.444544 -0.290318,0.190074 -0.667157,0.529554 -0.835393,0.752577 -0.18639,0.247088 -0.658389,1.006566 -0.625557,1.006566 0.0056,0 0.08138,-0.09724 0.168548,-0.216074 0.08717,-0.118842 0.163283,-0.216075 0.169153,-0.216075 0.006,0 0.006,0.0068 2.66e-4,0.01544 -0.0058,0.0085 -0.05254,0.07563 -0.103998,0.149194 -0.138019,0.197271 -0.165892,0.250864 -0.08564,0.164638 0.56672,-0.608832 0.87333,-0.901851 1.165743,-1.114062 0.552335,-0.400845 0.993423,-0.543887 1.659662,-0.538223 0.341719,0.0029 0.566058,0.05096 0.887889,0.190173 0.286259,0.123828 0.485949,0.252572 0.756533,0.487749 0.505862,0.439666 0.760174,0.843356 1.145319,1.818078 0.07826,0.198073 0.216983,0.540985 0.308262,0.762028 0.181453,0.439418 0.264414,0.70247 0.321063,1.018029 0.02032,0.113183 0.07523,0.367842 0.122043,0.565911 l 0.0851,0.360127 0.04291,1.317038 0.04291,1.317032 -0.331258,1.656584 -0.331253,1.656582 -0.04399,1.327325 -0.04393,1.327323 0.275957,0.828288 c 0.160028,0.480347 0.287557,0.828295 0.303579,0.828295 0.105166,0 0.97894,0.274055 1.324468,0.415409 0.510694,0.208934 1.069516,0.386657 1.302241,0.414168 0.119913,0.01418 0.278895,-0.0097 0.390667,-0.05843 z m -0.0127,-0.493335 0.396678,-0.123474 0.30972,-0.452729 c 0.42943,-0.627716 1.459155,-2.195432 1.703107,-2.59291 0.443598,-0.72277 0.845288,-1.604611 1.167051,-2.562048 0.405897,-1.207794 0.496973,-1.826207 0.524297,-3.560108 l 0.0141,-0.89517 -0.100558,-0.812858 c -0.09828,-0.794451 -0.104772,-0.829136 -0.286659,-1.531855 -0.102353,-0.39545 -0.1832,-0.721518 -0.179657,-0.724597 0.0035,-0.0034 0.03466,0.05191 0.0691,0.122214 0.04244,0.08658 0.147943,0.49299 0.326972,1.259645 l 0.2643,1.131827 0.0029,1.234718 c 0.0029,1.240774 -0.01428,1.650501 -0.09199,2.212207 -0.04616,0.333341 -0.0926,0.499836 -0.279468,1.001266 -0.08461,0.227022 -0.203193,0.578466 -0.263531,0.780986 -0.395394,1.32717 -0.504707,1.571074 -1.184709,2.643297 -0.394269,0.621683 -1.413465,2.364652 -1.400239,2.39461 0.0064,0.01484 0.06119,0.06206 0.121417,0.104966 l 0.109512,0.07799 0.431111,-0.09676 0.431116,-0.09676 0.381602,-0.330467 0.381598,-0.330467 0.492996,-0.659382 c 0.271154,-0.362658 0.588183,-0.771449 0.704509,-0.908432 0.516971,-0.608741 0.664835,-0.860112 0.897029,-1.524929 0.270491,-0.774459 0.464312,-1.690832 0.634232,-2.998588 0.08078,-0.621733 0.08421,-0.741837 0.03606,-1.261193 -0.0502,-0.54139 -0.03963,-0.535809 0.03891,0.02056 l 0.06972,0.493887 -0.04982,0.524463 c -0.134965,1.420781 -0.367019,2.602453 -0.673509,3.429688 -0.234243,0.632242 -0.409083,0.934279 -0.702202,1.213042 -0.267639,0.254538 -0.389176,0.412342 -0.425134,0.552003 -0.02273,0.08838 -0.02186,0.119903 0.0048,0.168386 0.05435,0.09899 0.133832,0.08983 0.295909,-0.03407 0.07646,-0.05844 0.137543,-0.119049 0.135757,-0.134669 -0.0019,-0.01562 0.0053,-0.02386 0.01553,-0.01832 0.04466,0.02399 0.385493,-0.389121 0.628417,-0.76165 0.608513,-0.933177 1.083022,-2.045626 1.218799,-2.857363 0.142522,-0.852099 0.1177,-2.347661 -0.06883,-4.147956 L 41.71351,28.88079 41.278328,28.297445 c -0.357708,-0.479489 -0.473832,-0.618156 -0.65224,-0.778847 -0.169902,-0.153027 -0.326551,-0.336317 -0.721105,-0.843723 -0.418552,-0.538269 -0.822687,-1.025991 -0.929327,-1.121541 -0.01265,-0.0113 0.01501,0.04423 0.06147,0.123475 0.07545,0.128706 0.144235,0.297167 0.127334,0.311857 -0.0035,0.0034 -0.06445,-0.11163 -0.135497,-0.254784 -0.10537,-0.212301 -0.168004,-0.304013 -0.339797,-0.497506 -0.115841,-0.130472 -0.228245,-0.262409 -0.249779,-0.293196 -0.02154,-0.03078 -0.307065,-0.227291 -0.634505,-0.436683 l -0.59534,-0.380723 -0.486712,-0.04884 c -0.267693,-0.02688 -0.486712,-0.04549 -0.486712,-0.04134 0,0.0042 0.04104,0.06022 0.09119,0.124684 0.341163,0.438443 0.536679,0.768181 0.65264,1.100684 0.137892,0.395395 0.282599,1.063746 0.39283,1.81438 0.05004,0.340768 0.129502,1.364337 0.110734,1.426483 -0.006,0.01948 -0.01192,-0.0037 -0.01347,-0.05204 -0.01091,-0.347426 -0.196762,-1.60428 -0.312668,-2.114439 -0.19124,-0.841743 -0.351785,-1.167318 -0.995843,-2.019468 -0.243117,-0.321669 -0.262058,-0.336791 -0.421799,-0.336791 -0.0223,0 -0.311322,-0.126301 -0.642238,-0.280673 -0.64553,-0.301138 -0.846741,-0.387777 -0.864578,-0.372272 -0.0062,0.0054 0.04634,0.06884 0.116797,0.141014 0.300195,0.307621 0.7488,0.882656 1.019496,1.306825 l 0.27654,0.433323 0.08309,0.580829 0.0831,0.58083 0.129202,0.202831 c 0.07107,0.111555 0.12927,0.219749 0.129348,0.240423 0,0.02069 -0.02284,0.164588 -0.05094,0.319806 l -0.05106,0.282206 0.07461,0.324864 c 0.05199,0.226352 0.07425,0.381019 0.07337,0.510071 l -0.0015,0.185206 -0.132156,-0.390996 -0.132158,-0.390995 0.0054,-0.504177 0.0054,-0.504175 -0.160005,-0.658518 C 35.543338,25.334133 35.539615,25.322945 35.358674,24.954947 35.18422,24.600138 35.160271,24.564308 34.841526,24.181199 34.657708,23.96026 34.488714,23.76566 34.465992,23.748751 c -0.02274,-0.01692 -0.233106,-0.142689 -0.467508,-0.279513 l -0.426044,-0.248776 -0.352185,-0.04342 c -0.1937,-0.02386 -0.35581,-0.04028 -0.360246,-0.0364 -0.0044,0.0037 0.179941,0.159351 0.409716,0.345557 0.427274,0.346245 0.557122,0.479882 0.898837,0.925047 0.210605,0.274358 0.368819,0.514023 0.434723,0.658517 0.110848,0.243043 0.245703,0.720406 0.340078,1.20385 0.03987,0.204316 0.141747,1.350315 0.124949,1.405696 -0.0059,0.01916 -0.01192,-0.0022 -0.01356,-0.0475 -0.01796,-0.492706 -0.251671,-1.655643 -0.43027,-2.140969 -0.09096,-0.247177 -0.387145,-0.763046 -0.580145,-1.010454 -0.320638,-0.411034 -0.561785,-0.63115 -1.004666,-0.917055 -0.335728,-0.216731 -0.847224,-0.508968 -0.911316,-0.520668 -0.132195,-0.02412 -0.398879,-0.05125 -0.40989,-0.04168 -0.0069,0.0059 -9.53e-4,0.01094 0.01299,0.01094 0.01404,0 0.328936,0.377361 0.699774,0.838579 l 0.674242,0.838581 0.143544,0.349841 c 0.123134,0.30011 0.163896,0.440003 0.286765,0.984166 0.07878,0.348882 0.142406,0.645217 0.141392,0.658517 -9.54e-4,0.0133 -0.11784,-0.372642 -0.259611,-0.857656 l -0.257768,-0.881847 -0.415099,-0.571296 -0.415095,-0.571292 -0.509931,-0.421198 -0.50993,-0.421193 -0.36029,-0.0253 c -0.198161,-0.0139 -0.488146,-0.02999 -0.644415,-0.03571 l -0.284125,-0.01042 0.09767,0.04042 c 0.385754,0.159565 0.879388,0.553039 1.488921,1.186825 0.826119,0.85899 1.461752,2.05674 1.725492,3.251434 0.13822,0.626099 0.189302,1.135606 0.189819,1.893235 4.83e-4,0.841467 -0.05986,1.332909 -0.342825,2.788409 -0.09132,0.469707 -0.213723,1.122568 -0.272008,1.450799 -0.05829,0.328226 -0.201129,1.087578 -0.317433,1.687445 l -0.211461,1.090672 0.102667,0.432151 c 0.218595,0.920104 0.309294,1.140535 0.718707,1.746732 l 0.179021,0.265072 0.03118,-0.09016 c 0.142801,-0.412777 0.128532,-0.641376 -0.08719,-1.396897 -0.138374,-0.484647 -0.165369,-0.635991 -0.165369,-0.92726 0,-0.592785 0.162994,-1.290229 0.557596,-2.385905 0.407023,-1.130171 0.51388,-1.462814 0.6247,-1.944682 0.14899,-0.647829 0.196736,-1.358746 0.196258,-2.922174 l -3.57e-4,-1.172982 -0.310052,-1.202324 c -0.170524,-0.661278 -0.307103,-1.204883 -0.303503,-1.208013 0.0035,-0.0034 0.08881,0.167657 0.189371,0.37952 l 0.182824,0.385201 0.190094,1.100619 0.190099,1.100621 -0.03611,1.214143 c -0.05959,2.002647 -0.09649,2.251348 -0.592502,3.992259 -0.416533,1.461973 -0.600442,2.133948 -0.625163,2.284236 -0.06776,0.411999 -0.05261,0.618965 0.09142,1.248641 0.129715,0.567078 0.15441,0.807452 0.128222,1.248014 -0.02331,0.392414 -0.02794,0.376015 0.125621,0.443607 0.117371,0.05166 0.171765,0.04185 0.25898,-0.0467 0.07753,-0.07872 0.368762,-0.223694 0.600491,-0.298897 l 0.106543,-0.0346 0.246042,-0.539203 c 0.139431,-0.305575 0.336916,-0.691697 0.455783,-0.891143 l 0.209741,-0.351932 v -0.472307 -0.47231 l 0.224649,-0.269948 0.224647,-0.269954 0.259346,-1.2226 c 0.405806,-1.91304 0.435152,-2.126117 0.490993,-3.565178 l 0.01758,-0.452732 0.03056,0.553844 0.03055,0.553843 -0.131182,0.855795 c -0.175254,1.143346 -0.29334,1.837973 -0.442851,2.604979 -0.120995,0.620734 -0.123824,0.644487 -0.104916,0.880651 l 0.01941,0.242707 -0.191147,0.28417 -0.191151,0.284169 -0.09356,0.399161 c -0.09127,0.389415 -0.100554,0.413741 -0.38002,0.995946 -0.265631,0.553369 -0.733647,1.608456 -0.733647,1.653908 0,0.01819 0.538045,0.188853 0.57073,0.181022 0.0078,-0.0018 0.192821,-0.05899 0.410997,-0.126901 z m 1.720005,-8.832807 c -0.0035,-0.0321 0.113822,-1.792521 0.122879,-1.847521 0.0039,-0.02266 0.01415,0.130159 0.02312,0.339546 0.01525,0.354939 0.01096,0.419711 -0.06356,0.956911 -0.04394,0.316913 -0.08105,0.564888 -0.08244,0.551064 z m -2.29277,-2.660378 c 0,-0.05092 0.0048,-0.07177 0.01029,-0.04632 0.0057,0.02548 0.0057,0.06715 0,0.09261 -0.0057,0.02548 -0.01029,0.0047 -0.01029,-0.04631 z m -1.401527,-1.102675 c 9.54e-4,-0.02394 0.0067,-0.02883 0.01429,-0.01241 0.0068,0.01484 0.006,0.03259 -0.0019,0.03944 -0.0078,0.0067 -0.01347,-0.0053 -0.01246,-0.02701 z M 18.399148,37.88514 c -0.0064,-0.01413 -0.01192,-0.0029 -0.01192,0.02572 0,0.02828 0.0054,0.03986 0.01192,0.02572 0.0064,-0.01413 0.0064,-0.03729 0,-0.05143 z m 0.118878,-0.451444 c -0.0076,-0.01641 -0.01318,-0.01153 -0.01428,0.01241 -9.54e-4,0.02167 0.0044,0.03385 0.01246,0.02702 0.0078,-0.0067 0.0087,-0.02459 0.0019,-0.03944 z m 0.37653,-0.857065 c 0.204942,-0.417887 0.602731,-1.102761 0.934263,-1.608518 0.333972,-0.509479 0.701412,-0.987857 1.169654,-1.522822 0.832042,-0.950599 1.129451,-1.299799 1.331999,-1.563976 0.826849,-1.078409 2.083547,-3.200177 2.470092,-4.170411 0.115677,-0.290356 0.331157,-0.733958 0.478236,-0.984543 0.01375,-0.0234 0.01428,-0.03228 0.0015,-0.0206 -0.0126,0.0113 -0.310541,0.446558 -0.662064,0.967198 -0.627677,0.929675 -2.209562,3.45152 -2.201612,3.509826 0.0024,0.01632 -0.187482,0.321409 -0.421577,0.677936 -0.319117,0.486006 -0.500103,0.735776 -0.723215,0.998066 -0.713108,0.838339 -1.314781,1.60449 -1.701423,2.166536 -0.454703,0.660986 -0.660877,1.088282 -0.900797,1.866884 -0.155096,0.503326 -0.163457,0.559548 -0.03877,0.260609 0.05824,-0.139619 0.177031,-0.39891 0.26398,-0.576201 z m 4.213198,-6.765699 0.105099,-0.167578 -0.03529,-0.470719 C 23.015651,27.013897 22.739766,25.214606 22.394896,24.06822 22.09235,23.062519 21.545471,22.136369 20.626098,21.072729 19.758836,20.069385 19.008733,19.438626 18.325966,19.138552 17.796171,18.90571 16.835959,18.643508 15.660629,18.410734 l -0.248607,-0.04923 0.284122,0.01159 c 0.361911,0.01474 0.968948,0.07938 1.263428,0.134528 0.401485,0.07518 1.055714,0.301022 1.523411,0.525867 1.036415,0.498263 1.802342,1.277227 2.918079,2.967748 0.54995,0.833254 1.210609,2.144628 1.470547,2.918965 0.06336,0.188723 0.247285,0.96071 0.247285,1.03789 0,0.02455 0.0051,0.04022 0.01125,0.03483 0.0063,-0.0054 0.0861,-0.406118 0.177577,-0.890543 l 0.166338,-0.880776 -3.57e-4,-0.743747 c -3.6e-4,-0.829924 -0.02476,-1.291301 -0.09642,-1.824126 -0.131709,-0.979525 -0.279525,-1.313363 -0.897486,-2.026995 -0.127411,-0.147139 -0.300219,-0.337043 -0.384007,-0.422013 L 21.943447,19.05022 21.294046,18.860683 c -0.960249,-0.280258 -1.455544,-0.391526 -2.259438,-0.507597 -1.088666,-0.157183 -1.861318,-0.183944 -2.983306,-0.103334 -1.29734,0.09322 -2.720637,0.382328 -3.694893,0.750546 -0.774571,0.292749 -2.241268,0.970648 -3.1621514,1.461531 -0.2538487,0.135319 -0.9059821,0.553959 -0.8629214,0.553959 0.061891,0 0.4847812,-0.218687 0.8773073,-0.453675 C 9.46909,20.406195 9.794058,20.220908 9.9307913,20.150367 10.469677,19.87237 11.465886,19.497649 12.251141,19.27758 c 1.480729,-0.414973 3.384559,-0.485015 4.49112,-0.165223 0.521508,0.150711 1.330324,0.577216 2.00015,1.054709 0.138804,0.09895 0.357225,0.23271 0.485375,0.297233 0.473774,0.238554 0.802307,0.515172 1.164396,0.980413 0.194535,0.249957 0.541825,0.755233 0.665794,0.968678 0.118689,0.204351 0.411691,0.811366 0.57848,1.198427 l 0.15652,0.363246 v 0.364321 c 0,0.334589 0.0051,0.378784 0.06218,0.541517 0.03422,0.09746 0.07159,0.191395 0.08311,0.20876 0.0115,0.01734 0.122029,0.463526 0.245612,0.991466 l 0.224702,0.959897 8.6e-5,0.892185 c 9.2e-5,0.818146 -0.006,0.952804 -0.07139,1.622723 -0.05267,0.537968 -0.09326,0.831232 -0.154014,1.112504 -0.04537,0.210077 -0.08251,0.39427 -0.08251,0.40932 0,0.04087 0.885456,-1.073035 1.006993,-1.266815 z m -0.07898,-6.150792 c 4.48e-4,-0.03395 0.0059,-0.04533 0.01178,-0.02535 0.006,0.02005 0.0057,0.04781 -9.55e-4,0.06174 -0.0064,0.01395 -0.01139,-0.0022 -0.01091,-0.0364 z m -0.04925,-0.216077 c -0.107368,-0.527698 -0.422398,-1.360525 -0.741061,-1.959119 -0.4685,-0.880038 -1.136891,-1.678634 -1.688549,-2.017486 -0.213203,-0.130958 -0.551041,-0.278808 -0.982595,-0.430022 -0.188825,-0.06617 -0.33415,-0.120376 -0.322951,-0.120482 0.0112,-7.9e-5 0.139059,0.03209 0.284125,0.07155 0.269097,0.0732 0.713353,0.268171 1.036709,0.45501 0.334754,0.193424 0.82075,0.611689 1.138777,0.980074 0.408467,0.473139 0.632541,0.896918 0.951059,1.798699 0.189124,0.535443 0.384403,1.253088 0.364427,1.339292 -0.0048,0.02027 -0.0227,-0.03259 -0.03992,-0.117505 z m 1.390067,4.413454 c 0.525653,-0.813779 0.84189,-1.27737 1.127085,-1.652271 0.356587,-0.468739 0.409626,-0.550156 0.527711,-0.810125 0.167049,-0.367762 0.505302,-0.957525 0.694121,-1.210226 0.198594,-0.265791 0.590928,-0.602308 0.933286,-0.800522 0.46422,-0.268768 1.050437,-0.487275 1.560411,-0.581619 0.508272,-0.09404 1.675859,-0.02865 2.813429,0.157556 0.314107,0.0514 0.573251,0.091 0.575876,0.08797 0.01115,-0.01288 0.09329,-0.326253 0.306818,-1.170739 l 0.227004,-0.897714 0.04258,-1.787804 0.04257,-1.787803 -0.184746,-1.327323 C 32.78786,14.296001 32.73462,14.087036 32.131417,12.527079 31.443855,10.748983 31.000068,9.8879347 30.344251,9.0595746 30.003024,8.6285695 29.26567,7.814083 28.118517,6.6010075 27.641672,6.0967617 27.148568,5.7030755 26.668968,5.4437076 26.152693,5.1645097 25.342321,4.8920265 24.658781,4.7677956 24.166524,4.6783288 23.969048,4.6653923 23.546187,4.6949082 c -0.246086,0.017181 -0.503356,0.021314 -0.7313,0.011768 -0.405624,-0.016999 -0.471753,-0.0018 -0.598652,0.137439 -0.182993,0.2008097 -0.27913,0.522511 -0.29781,0.9965602 -0.02043,0.5182198 0.03134,0.8142604 0.32337,1.8508006 0.234746,0.8331275 0.367506,1.2008357 0.753985,2.0883543 0.576001,1.3227387 0.754139,1.7196517 0.928205,2.0681567 0.399851,0.800544 0.624555,1.321237 0.676859,1.568409 0.009,0.04284 0.02432,0.08251 0.03388,0.08817 0.01815,0.01071 0.220424,0.830244 0.363191,1.471375 0.252525,1.134016 0.361908,2.232789 0.339041,3.405768 -0.01834,0.942 -0.04716,1.29843 -0.171158,2.1196 -0.108391,0.717788 -0.110612,0.706629 -0.03485,-0.17492 0.08691,-1.011132 0.105535,-1.421957 0.105858,-2.335676 2.7e-4,-0.833174 -0.0044,-0.947296 -0.05294,-1.265586 -0.0882,-0.579388 -0.393752,-2.10918 -0.371972,-1.86237 0.0064,0.07356 0.01796,0.615304 0.02544,1.203851 l 0.01367,1.070092 -0.169038,1.491952 c -0.09297,0.820574 -0.179,1.66327 -0.19117,1.872657 -0.01217,0.209388 -0.03842,0.52424 -0.05839,0.699676 -0.08248,0.725388 -0.277923,2.078898 -0.344708,2.387123 -0.128295,0.592092 -0.369814,1.453636 -0.577292,2.059277 l -0.178488,0.521037 -9.55e-4,0.567069 -9.53e-4,0.567069 0.136207,0.858921 c 0.07492,0.472407 0.144428,0.851786 0.154464,0.843057 0.01005,-0.0088 0.347054,-0.524886 0.748915,-1.147023 z m -0.716201,0.1653 c 0.0078,-0.03395 0.158205,-0.645143 0.334202,-1.358194 0.221038,-0.895517 0.355154,-1.493743 0.433665,-1.934394 0.06253,-0.350868 0.114697,-0.627765 0.115953,-0.615334 0.0015,0.01241 -0.0141,0.22079 -0.03417,0.463019 l -0.03645,0.440417 -0.365102,1.419927 c -0.200812,0.780962 -0.386981,1.470859 -0.413714,1.533112 -0.02675,0.06225 -0.0422,0.0854 -0.03442,0.05143 z m 8.819777,-5.804901 c 9.53e-4,-0.02399 0.0067,-0.02883 0.01428,-0.01241 0.0068,0.01483 0.006,0.03259 -0.0019,0.03944 -0.0078,0.0067 -0.01347,-0.0053 -0.01246,-0.02703 z m 0.02385,-0.0703 c -4.83e-4,-0.01697 0.05754,-0.304054 0.129458,-0.637939 l 0.130767,-0.607071 0.07201,-1.389306 0.07202,-1.389309 -0.285013,-1.388813 c -0.312165,-1.521066 -0.31633,-1.542105 -0.299624,-1.512284 0.0063,0.01131 0.129246,0.44079 0.273128,0.954384 l 0.261601,0.933807 0.06956,0.835572 0.06956,0.835572 -0.06103,1.008743 -0.06102,1.008737 -0.185059,0.689387 c -0.101787,0.379164 -0.185653,0.675493 -0.186367,0.65852 z M 25.04133,21.273011 c 4.48e-4,-0.03395 0.0059,-0.04534 0.01178,-0.02535 0.006,0.02005 0.0057,0.04781 -9.53e-4,0.06174 -0.0064,0.01396 -0.01139,-0.0022 -0.01091,-0.0364 z m 5.469394,-1.234718 c 4.44e-4,-0.03394 0.0059,-0.04533 0.01178,-0.02535 0.006,0.02005 0.0057,0.04781 -9.54e-4,0.06173 -0.0064,0.01396 -0.01139,-0.0022 -0.01091,-0.03641 z m -0.02051,-0.288103 c 9.3e-5,-0.07923 0.0044,-0.109115 0.0095,-0.06642 0.0052,0.04269 0.0051,0.107521 -1.8e-4,0.144053 -0.0053,0.03656 -0.0094,0.0013 -0.0093,-0.07764 z m -0.0628,-0.68424 C 30.285387,17.329265 30.027345,15.507591 29.78445,14.526873 29.34545,12.754365 28.351066,10.411212 27.119287,8.2467161 26.744027,7.5873145 26.224524,6.8255641 25.431651,5.772132 25.293222,5.5882105 25.184566,5.4377285 25.190199,5.4377285 c 0.01703,0 0.624686,0.7644491 0.96512,1.2141414 0.603973,0.7978164 0.870116,1.2087015 1.332459,2.0571374 1.030912,1.8917917 1.743588,3.5825197 2.249475,5.3365507 0.256141,0.888115 0.416378,1.826897 0.578541,3.389533 0.08198,0.790063 0.185083,2.140183 0.163423,2.140183 -0.0057,0 -0.02887,-0.229198 -0.05179,-0.509321 z m -3.45716,-1.809533 C 26.866071,16.103891 26.757573,15.335408 26.576312,14.466267 26.102046,12.192155 25.651636,10.931008 24.663705,9.1110202 24.083585,8.042315 23.447976,6.9337978 22.864269,5.9727744 22.792081,5.8539323 22.743834,5.7659583 22.757031,5.7772769 c 0.02863,0.024528 0.576538,0.8909838 1.054097,1.6668723 1.087212,1.7663822 1.571072,2.6748008 1.922326,3.6090508 0.501849,1.334803 1.038576,3.642518 1.20817,5.194652 0.03572,0.326852 0.09554,1.41433 0.08002,1.454764 -0.005,0.01283 -0.02805,-0.187945 -0.05139,-0.446199 z m 1.335774,-1.891197 c 9.54e-4,-0.02397 0.0067,-0.02884 0.01428,-0.01242 0.0068,0.01486 0.006,0.0326 -0.0019,0.03945 -0.0078,0.0067 -0.01347,-0.0053 -0.01246,-0.02701 z m -0.08249,-0.43106 c -0.03949,-0.213353 -0.127533,-0.560167 -0.208154,-0.819797 -0.07685,-0.247504 -0.136099,-0.453157 -0.131669,-0.457011 0.0044,-0.0039 0.07023,0.166237 0.14622,0.377979 0.114339,0.318622 0.149975,0.455932 0.206709,0.79656 0.03771,0.226365 0.06557,0.425181 0.06193,0.441816 -0.0039,0.01663 -0.03741,-0.136164 -0.07503,-0.339547 z m 4.060236,0.225273 c 9.54e-4,-0.02397 0.0067,-0.02884 0.01429,-0.01242 0.0068,0.01486 0.006,0.0326 -0.0019,0.03945 -0.0078,0.0067 -0.01347,-0.0053 -0.01246,-0.027 z m -7.275272,-1.630864 c -0.08317,-0.541609 -0.09902,-0.607333 -0.325693,-1.349494 -0.131051,-0.429085 -0.235296,-0.782743 -0.231661,-0.785905 0.0039,-0.0032 0.131051,0.315499 0.283139,0.708131 l 0.276527,0.713881 0.05056,0.634406 c 0.02781,0.348922 0.04697,0.637537 0.04258,0.641363 -0.0044,0.0038 -0.04736,-0.249246 -0.09544,-0.562382 z m 6.838295,-1.022864 c -0.02284,-0.05175 -0.01612,-0.0651 0.01182,-0.02339 0.0138,0.02066 0.02013,0.04189 0.01404,0.04719 -0.0062,0.0053 -0.01771,-0.0054 -0.02588,-0.02381 z M 31.208075,11.203241 C 30.874519,10.525246 30.498955,9.7863944 30.373484,9.5613499 30.025001,8.9363106 29.885121,8.676818 29.908881,8.6994477 c 0.01187,0.011319 0.143655,0.191896 0.292833,0.4012832 0.252235,0.3540483 0.304656,0.4477116 0.748593,1.3376141 0.333609,0.66874 0.538261,1.111311 0.679577,1.469632 0.111215,0.281996 0.198266,0.516156 0.193433,0.520353 -0.0048,0.0042 -0.281687,-0.547094 -0.615242,-1.225089 z M 22.66903,5.6640941 c -0.01396,-0.022634 -0.02003,-0.04116 -0.01352,-0.04116 0.0064,0 0.02321,0.018525 0.03717,0.04116 0.01396,0.022634 0.02003,0.04116 0.01352,0.04116 -0.0064,0 -0.02322,-0.018525 -0.03717,-0.04116 z M 38.48229,24.438801 c 0.189267,-1.573217 0.238955,-2.405189 0.194598,-3.258394 -0.05431,-1.044723 -0.144362,-1.527282 -0.424474,-2.274716 -0.353083,-0.942143 -0.781698,-1.675311 -1.288699,-2.204377 -0.220855,-0.230466 -0.274766,-0.266955 -0.587313,-0.397514 -0.135844,-0.05675 -0.281957,-0.120746 -0.324693,-0.142223 -0.09726,-0.04888 -0.507362,-0.09479 -0.675556,-0.07565 -0.474054,0.05397 -1.058547,0.352368 -1.317189,0.672466 -0.126924,0.157078 -0.296786,0.44671 -0.43912,0.748727 l -0.08729,0.185208 -0.05434,0.854014 c -0.04455,0.700531 -0.0518,0.970513 -0.04021,1.502245 0.0077,0.356522 0.01824,0.625168 0.02331,0.596993 0.02385,-0.132649 0.349501,-1.231339 0.455744,-1.53754 0.29811,-0.859125 0.759797,-1.67726 1.226847,-2.174041 0.168294,-0.179007 0.485752,-0.441109 0.597465,-0.493287 l 0.08022,-0.03747 -0.07103,0.04582 c -0.155323,0.100221 -0.417387,0.355048 -0.562476,0.546952 -0.225893,0.298775 -0.455947,0.668807 -0.560855,0.902092 -0.17535,0.389968 -0.583411,1.565363 -0.889457,2.562048 -0.06082,0.198069 -0.215886,0.689715 -0.344596,1.09255 -0.229682,0.718868 -0.405116,1.313598 -0.431352,1.462327 l -0.01327,0.07516 0.323694,0.01387 c 0.17803,0.0077 0.338741,0.01548 0.357138,0.01743 0.03485,0.0037 0.236204,-0.204974 0.237884,-0.24659 0.0015,-0.0399 0.417802,-1.622714 0.60749,-2.310295 0.09812,-0.355663 0.231247,-0.897397 0.295835,-1.203851 0.132964,-0.630815 0.207445,-0.910054 0.310358,-1.163513 0.158263,-0.389772 0.453991,-0.814894 0.738735,-1.061942 0.209716,-0.181955 0.348906,-0.243296 0.548384,-0.241665 0.379034,0.0032 0.667591,0.241376 1.104283,0.911868 0.297212,0.456326 0.381264,0.69769 0.576895,1.656582 0.07157,0.350863 0.134647,0.65183 0.140137,0.668802 0.03635,0.112319 0.321424,1.838675 0.317847,1.924724 -9.53e-4,0.02232 -0.03813,-0.144666 -0.08266,-0.371032 -0.121585,-0.618017 -0.184616,-0.875494 -0.415596,-1.697738 -0.242789,-0.864283 -0.330771,-1.113347 -0.507073,-1.435434 -0.168334,-0.307527 -0.328951,-0.505429 -0.614862,-0.757578 -0.438768,-0.38696 -0.76573,-0.471162 -1.02846,-0.26486 -0.164239,0.128961 -0.228042,0.320817 -0.295619,0.888937 -0.08354,0.702332 -0.02921,1.550914 0.176042,2.748334 0.142333,0.830465 0.479442,2.313368 0.536757,2.361137 0.01066,0.0089 0.397594,0.165791 0.85989,0.348705 l 0.840532,0.332574 0.224933,0.252524 c 0.123714,0.138885 0.231358,0.242349 0.239217,0.229915 0.0078,-0.01241 0.02674,-0.125972 0.0419,-0.252301 z m 0.03128,-2.280907 c 4.46e-4,-0.03394 0.0059,-0.04533 0.01178,-0.02534 0.006,0.02005 0.0057,0.04781 -9.54e-4,0.06173 -0.0064,0.01396 -0.01139,-0.0022 -0.01091,-0.0364 z m -1.23121,-0.617362 c 4.5e-4,-0.03395 0.0059,-0.04533 0.01178,-0.02534 0.006,0.02005 0.0057,0.04781 -9.53e-4,0.06174 -0.0064,0.01395 -0.01139,-0.0022 -0.01091,-0.0364 z m -0.07284,-0.397179 c -0.03017,-0.177692 -0.149795,-0.73053 -0.265839,-1.228534 -0.218575,-0.938012 -0.234727,-0.988639 -0.600776,-1.882749 -0.04939,-0.120643 -0.02867,-0.09827 0.171277,0.185012 l 0.167044,0.236653 0.167247,0.730544 c 0.273036,1.192661 0.377176,1.702328 0.406993,1.991853 0.0155,0.150447 0.02385,0.277306 0.01853,0.281915 -0.0053,0.0047 -0.03432,-0.137011 -0.06448,-0.314694 z M 33.99505,17.9084 c 0.005,-0.01697 0.08637,-0.224552 0.181037,-0.461275 l 0.172114,-0.430406 0.286841,-0.2874 c 0.278183,-0.278722 0.29292,-0.289864 0.488098,-0.368975 0.11069,-0.04486 0.227892,-0.09 0.260447,-0.100313 0.05705,-0.01807 0.05748,-0.01758 0.01183,0.01321 -0.02602,0.01757 -0.160763,0.09376 -0.29938,0.169298 l -0.25203,0.137345 -0.209674,0.296639 c -0.115324,0.163153 -0.308348,0.469014 -0.428943,0.679696 -0.120596,0.210676 -0.215254,0.369162 -0.21035,0.352183 z m 1.956786,-1.563036 c 0.01955,-0.01149 0.05593,-0.02104 0.0809,-0.02121 0.06057,-3.88e-4 0.04166,0.01136 -0.04537,0.02829 -0.05187,0.01008 -0.06146,0.0082 -0.03553,-0.0071 z m 0.171659,-0.0357 c 0.02278,-0.0052 0.06008,-0.0052 0.08287,0 0.02278,0.0052 0.0044,0.0094 -0.04142,0.0094 -0.04557,0 -0.06422,-0.0043 -0.04142,-0.0094 z M 8.9244327,21.745703 c 0.5978413,-0.06916 0.9562775,-0.143418 1.7950633,-0.371863 0.556983,-0.151697 0.897514,-0.260696 1.780166,-0.569799 1.018505,-0.356676 1.514707,-0.489098 2.592638,-0.691892 0.371725,-0.06994 0.327348,-0.08171 -0.08287,-0.02201 -0.399618,0.05819 -0.659013,0.107868 -1.243042,0.238099 -0.658684,0.146885 -1.114303,0.277337 -2.20196,0.630476 -1.13118,0.367274 -1.466701,0.464344 -2.0492349,0.592874 -0.2598046,0.05732 -0.5895709,0.132761 -0.7328166,0.167638 -0.2554656,0.06219 -0.3536855,0.09508 -0.2130914,0.07133 0.039055,-0.0066 0.1988849,-0.02678 0.3551536,-0.04487 z m -1.0209379,-0.400593 0.015832,-0.07195 -0.051911,0.04511 c -0.043777,0.03803 -0.04706,0.05019 -0.020901,0.07759 0.037408,0.03915 0.03717,0.0394 0.056961,-0.05074 z m 7.5972322,-1.310156 c -0.01627,-0.0058 -0.04291,-0.0058 -0.05918,0 -0.01627,0.0058 -0.0029,0.01041 0.0296,0.01041 0.03254,0 0.04586,-0.0047 0.0296,-0.01041 z m 18.116911,-3.234101 c 0.166581,-0.367822 0.428312,-0.635042 0.764634,-0.78066 0.437092,-0.189252 0.8599,-0.194169 1.415574,-0.01646 0.07562,0.02417 -0.256473,-0.2463 -0.379063,-0.308742 -0.06114,-0.03115 -0.171344,-0.06894 -0.244884,-0.08397 -0.377794,-0.07728 -0.693648,0.0038 -1.375792,0.35299 l -0.308768,0.158082 2.7e-4,0.394127 c 0,0.21677 0.0076,0.44506 0.01661,0.507311 l 0.01641,0.113183 0.01806,-0.102897 c 0.0099,-0.05659 0.04455,-0.161421 0.07697,-0.232956 z"
       id="path944" /></g></svg>
