<?xml version="1.0" encoding="UTF-8" standalone="no"?>
<!-- Created with Inkscape (http://www.inkscape.org/) -->

<svg
   width="50mm"
   height="50mm"
   viewBox="0 0 50 50"
   version="1.1"
   id="svg4844"
   xml:space="preserve"
   xmlns="http://www.w3.org/2000/svg"
   xmlns:svg="http://www.w3.org/2000/svg"><defs
     id="defs4841" /><g
     id="layer1"><circle
       style="fill:none;stroke:#000400;stroke-width:2;stroke-linecap:round"
       id="path5394"
       cx="25"
       cy="25"
       r="24" /><path
       style="fill:#333333;stroke-width:0.023183"
       d="m 24.64772,45.530528 c -2.906539,-0.166401 -5.70557,-1.382377 -7.583581,-3.294516 -1.331424,-1.355617 -2.218317,-3.020958 -2.556861,-4.801084 -0.321139,-1.688599 -0.124491,-3.477476 0.556986,-5.066848 0.724364,-1.689398 1.938152,-3.155414 3.492294,-4.218002 1.588788,-1.086278 3.470215,-1.77187 5.476577,-1.995669 0.387746,-0.04325 1.277414,-0.08498 1.501639,-0.07044 l 0.17849,0.01157 0.01444,-0.133325 c 0.01893,-0.174785 0.105283,-1.399265 0.137451,-1.949163 0.104559,-1.787409 0.104651,-3.680546 2.49e-4,-4.993557 -0.0845,-1.062701 -0.27832,-2.309826 -0.498895,-3.210143 C 25.245225,15.314328 24.853715,13.871959 24.706392,13.377417 24.266518,11.900804 23.687303,10.359858 23.13195,9.1887487 L 23.001085,8.9127834 22.84857,8.9262486 c -0.109388,0.00967 -0.194694,0.00295 -0.301685,-0.023851 C 21.894953,8.7393447 21.451964,8.4026786 20.940158,7.6812994 20.244135,6.7002757 20.139889,6.5778275 19.771505,6.3086114 19.490771,6.1034513 19.383286,6.0021316 19.264561,5.8307456 18.948208,5.3740698 19.033683,4.8403483 19.486124,4.4472644 c 0.191884,-0.16671 0.469561,-0.3013103 0.73618,-0.356854 0.223471,-0.046555 0.625076,-0.031758 0.845304,0.031155 0.437617,0.1250038 0.864636,0.3239149 1.102903,0.5137503 0.325859,0.2596207 0.532078,0.5472067 0.827062,1.1533874 0.414446,0.8516648 0.538707,1.0425143 0.901503,1.3845946 0.146776,0.1383935 0.257848,0.266563 0.308706,0.3562286 0.07252,0.1278286 0.07945,0.1580243 0.07945,0.3458737 0,0.1855235 -0.0072,0.2183533 -0.07408,0.3329522 -0.04074,0.069925 -0.126759,0.1759168 -0.191138,0.2355389 l -0.117049,0.1083981 0.182654,0.3726424 c 0.491105,1.001919 0.977063,2.2384304 1.393038,3.5445574 0.215379,0.676275 0.704429,2.383931 0.841956,2.939931 0.378398,1.529801 0.603056,2.991001 0.716244,4.658491 0.03619,0.533301 0.04485,3.859826 0.0137,5.266839 l -0.01922,0.867755 0.230537,0.03666 c 1.72958,0.275087 3.433116,0.947325 4.84242,1.910889 2.015545,1.378052 3.451597,3.436448 3.975801,5.698773 0.5027,2.169539 0.162963,4.406267 -0.970259,6.387862 -1.115443,1.950505 -2.808249,3.409555 -5.056644,4.358381 -1.693941,0.714841 -3.575417,1.040314 -5.407467,0.935431 z m 1.255527,-0.45191 c 1.429769,-0.07835 2.704821,-0.374172 4.002763,-0.928658 2.025545,-0.865321 3.602065,-2.209395 4.650053,-3.964445 2.03084,-3.401015 1.507993,-7.534888 -1.322661,-10.457542 -0.963055,-0.994361 -2.275197,-1.848308 -3.667789,-2.387013 -0.555685,-0.214958 -1.120701,-0.388354 -1.659269,-0.509209 -0.293185,-0.0658 -0.876933,-0.173406 -0.888073,-0.16372 -0.0034,0.003 -0.0293,0.671476 -0.05743,1.485479 -0.02813,0.814 -0.05846,1.503698 -0.06744,1.532656 l -0.01631,0.05266 0.07249,-0.04367 c 0.03987,-0.02403 0.240295,-0.122558 0.445406,-0.218959 0.845967,-0.397604 1.383787,-0.519099 1.887325,-0.426346 0.307374,0.05662 0.693854,0.247411 0.775115,0.382649 0.0897,0.14929 -0.0101,0.319279 -0.20644,0.351655 -0.08423,0.01388 -0.138957,-0.0066 -0.401997,-0.150983 -0.345264,-0.189425 -0.834774,-0.144721 -1.479945,0.135154 -0.296675,0.1287 -0.78,0.364612 -0.872401,0.425821 -0.112583,0.07459 -0.353038,0.174878 -0.538557,0.224638 -0.80738,0.216554 -1.704232,-0.01419 -2.770526,-0.712796 -0.456795,-0.299283 -0.877415,-0.600482 -0.908037,-0.650234 -0.0935,-0.151914 0.0448,-0.362567 0.238072,-0.362567 0.100393,0 0.166224,0.03767 0.622693,0.356382 0.656913,0.458656 1.158634,0.732224 1.566865,0.854346 l 0.132635,0.03968 0.01408,-0.133415 c 0.0077,-0.07338 0.03122,-0.415516 0.05213,-0.760309 0.04112,-0.677665 0.151592,-2.199938 0.172838,-2.38157 l 0.01307,-0.111773 -0.155371,-0.0142 c -0.192309,-0.01757 -1.046835,0.02123 -1.448191,0.06575 -1.834248,0.203458 -3.558131,0.816546 -5.050936,1.796332 -3.431288,2.252088 -4.947865,6.289341 -3.750461,9.984044 0.668686,2.063296 2.100496,3.83928 4.065207,5.042384 1.909245,1.169145 4.30216,1.771029 6.551108,1.647783 z m 0.365515,-14.919645 c 0.143317,-0.05332 0.338839,-0.228605 0.431421,-0.386737 0.08405,-0.143546 0.07241,0.03724 0.148197,-2.300435 0.149393,-4.607383 0.143306,-6.633745 -0.02512,-8.365831 C 26.70844,17.925296 26.493108,16.671973 26.200349,15.480387 26.077192,14.979142 25.567516,13.193278 25.355338,12.519562 25.063382,11.59253 24.602781,10.367739 24.264333,9.6184579 24.088005,9.228093 23.800925,8.6324712 23.7891,8.6324712 c -0.0042,0 -0.08969,0.038014 -0.189882,0.084476 -0.100181,0.046463 -0.246855,0.1018361 -0.325931,0.1230666 -0.07909,0.021219 -0.138637,0.048871 -0.13236,0.06144 0.264599,0.5295963 0.662226,1.4605052 0.956193,2.2386042 0.47508,1.257483 0.852609,2.498609 1.357846,4.463938 0.384507,1.495688 0.594468,3.245067 0.626572,5.220536 0.02577,1.584862 -0.03511,2.834308 -0.315895,6.48514 -0.0416,0.540967 -0.101901,1.382415 -0.133989,1.869881 l -0.05833,0.886303 0.06553,0.04908 c 0.15334,0.114865 0.394355,0.13171 0.629931,0.04404 z M 23.072426,8.5770966 C 23.601889,8.4440258 23.95078,8.1662381 23.951355,7.877292 23.951677,7.7164437 23.880667,7.5988034 23.663963,7.4011279 23.287955,7.0581412 23.140605,6.8376943 22.718387,5.9864614 22.398159,5.3408507 22.28712,5.176445 21.99993,4.9226754 21.788075,4.7354752 21.75804,4.7174047 21.435291,4.5829419 20.907682,4.3631295 20.682189,4.3216707 20.347201,4.3828815 c -0.247296,0.045187 -0.41947,0.1215689 -0.598016,0.265297 -0.208553,0.1678843 -0.30722,0.3473366 -0.318391,0.5790826 -0.01519,0.3149356 0.141946,0.5550492 0.549932,0.8403687 0.377279,0.2638427 0.56977,0.4801471 1.099395,1.2353885 0.349154,0.497891 0.491198,0.6680911 0.731918,0.8769888 0.229504,0.1991673 0.448528,0.3213854 0.72242,0.4031225 0.207407,0.061887 0.270514,0.06118 0.537967,-0.00602 z"
       id="path1256" /></g></svg>
