<?xml version="1.0" encoding="UTF-8" standalone="no"?>
<!-- Created with Inkscape (http://www.inkscape.org/) -->

<svg
   width="50mm"
   height="50mm"
   viewBox="0 0 50 50"
   version="1.1"
   id="svg4844"
   xml:space="preserve"
   xmlns="http://www.w3.org/2000/svg"
   xmlns:svg="http://www.w3.org/2000/svg"><defs
     id="defs4841" /><g
     id="layer1"><circle
       style="fill:none;stroke:#000400;stroke-width:2;stroke-linecap:round"
       id="path5394"
       cx="25"
       cy="25"
       r="24" /><path
       style="fill:#333333;stroke-width:0.0205323"
       d="M 27.433071,43.956938 C 25.760818,43.854907 23.922445,43.172644 22.266571,42.039526 21.808656,41.726173 21.29257,41.219357 20.833929,40.632617 20.45245,40.144588 20.191729,39.756034 19.458324,38.582553 18.094339,36.400101 17.543753,35.686357 16.396348,34.613219 15.691201,33.953721 14.961097,33.346092 13.19578,31.949566 11.064071,30.263197 10.394093,29.696931 9.7324909,29.022372 8.8881387,28.16149 8.2266164,27.192722 7.915403,26.361349 7.6687801,25.702511 7.5914224,25.077595 7.6327,24.077583 c 0.046398,-1.123922 0.1045928,-1.548964 0.3230739,-2.359485 0.2795709,-1.037151 0.6747194,-1.989934 1.2934319,-3.118723 0.9936692,-1.812872 1.8494912,-2.836207 3.3070082,-3.954301 0.08948,-0.06865 0.332431,-0.259419 0.539899,-0.423957 0.207469,-0.164537 0.459171,-0.354009 0.559341,-0.421043 0.100171,-0.06705 0.182128,-0.124325 0.182128,-0.127305 0,-0.0085 -0.347532,0.06404 -0.566925,0.117629 -0.519192,0.126881 -0.926006,0.362903 -1.156224,0.670806 -0.04456,0.0596 -0.08462,0.10834 -0.08905,0.10834 -0.02185,0 0.373882,-0.596332 0.568843,-0.857203 0.389679,-0.521414 0.927435,-1.065905 1.392928,-1.410371 0.871436,-0.644862 1.964682,-1.09911 3.10222,-1.288988 0.852468,-0.14229 1.91602,-0.145553 2.920195,-0.0094 0.164729,0.02244 0.321169,0.04555 0.347643,0.05149 0.02648,0.0057 0.04814,0.0066 0.04814,9.43e-4 0,-0.0057 -0.365164,-0.225808 -0.811477,-0.489858 -0.446311,-0.264041 -0.804181,-0.482513 -0.795267,-0.485502 0.02786,-0.0094 0.953329,0.170384 1.450718,0.281704 0.910947,0.203892 1.346633,0.33314 2.33815,0.693637 0.319669,0.116224 0.604401,0.265729 0.752432,0.39509 0.06874,0.06007 0.08784,0.06705 0.153037,0.05574 0.08303,-0.01433 0.100019,-0.0397 0.100019,-0.149081 0,-0.0956 0.09262,-0.730332 0.162288,-1.112153 0.163383,-0.8954538 0.426436,-1.8721723 0.669217,-2.4848188 0.311883,-0.7870012 0.528209,-1.1653608 0.848493,-1.4840052 0.162893,-0.1620571 0.100511,-0.1532206 0.566307,-0.080255 1.006453,0.1575681 1.58764,0.5478292 1.744668,1.1715096 0.04298,0.1706862 0.04189,0.544123 -0.0022,0.757351 -0.08984,0.4344912 -0.332801,0.9586399 -0.721612,1.5567536 -0.230113,0.3539908 -0.826812,1.1469428 -1.080118,1.4353618 l -0.0751,0.08554 0.126013,-0.01301 c 0.06931,-0.0075 0.227096,-0.02527 0.350643,-0.04027 1.191072,-0.144394 2.779686,-0.245746 3.852766,-0.245802 1.830168,-7.6e-5 3.061457,0.216623 4.366185,0.768479 1.827971,0.773176 3.443389,2.209302 4.799022,4.266382 0.808485,1.22683 1.188328,2.632278 1.262194,4.670204 0.0384,1.059643 -0.148504,3.01292 -0.36299,3.793367 -0.287949,1.04775 -0.745299,1.925588 -2.0482,3.931299 -0.881371,1.356804 -1.098466,1.71269 -1.429869,2.344038 -0.628753,1.197821 -0.906384,2.097463 -1.346187,4.362207 -0.48184,2.481198 -0.769958,3.332271 -1.474747,4.356266 -1.130796,1.642931 -2.226509,2.842846 -3.307409,3.621954 -0.478825,0.345126 -1.091351,0.662506 -1.529626,0.792556 -0.404149,0.11992 -1.009289,0.177636 -1.529627,0.145893 z m 0.567486,-1.346713 c 0.231127,-0.02593 0.354949,-0.05885 0.633071,-0.1683 0.608957,-0.239578 1.134833,-0.579941 1.860567,-1.204206 0.811614,-0.698126 1.75552,-1.808148 2.502086,-2.942416 0.393212,-0.597406 0.640755,-1.184797 0.863673,-2.049394 0.11075,-0.429568 0.174766,-0.738688 0.397638,-1.920175 0.301924,-1.600587 0.486736,-2.272496 0.875656,-3.183624 0.397166,-0.930443 0.665143,-1.401827 1.703139,-2.995879 0.997659,-1.532111 1.354512,-2.152472 1.677294,-2.915858 0.119102,-0.281676 0.266515,-0.708246 0.322548,-0.933356 0.08225,-0.330452 0.208575,-1.226359 0.271277,-1.923985 0.03683,-0.40983 0.03669,-1.810082 -2.43e-4,-2.187338 -0.09685,-0.989676 -0.265147,-1.757052 -0.548884,-2.502634 -0.185309,-0.486944 -0.33831,-0.790009 -0.623751,-1.235534 -0.979299,-1.528528 -2.228324,-2.737307 -3.6343,-3.517188 -1.109404,-0.615382 -2.432674,-1.010368 -3.67966,-1.098375 -0.67246,-0.04744 -0.668495,-0.04753 -0.877128,0.0075 -0.259544,0.06884 -0.522071,0.186652 -0.641006,0.287636 -0.05387,0.04574 -0.09483,0.08601 -0.09103,0.0895 0.0038,0.0038 0.103502,0.01971 0.221557,0.03603 0.908804,0.125731 1.654583,0.462916 2.358335,1.066264 0.580914,0.498025 1.020967,1.228046 1.403008,2.327477 l 0.06961,0.200327 -0.280369,-0.23292 c -0.733677,-0.609496 -1.31489,-0.962506 -2.077403,-1.261733 -0.612113,-0.240209 -1.14627,-0.354547 -1.843693,-0.394646 -0.319125,-0.01839 -0.712815,-0.01217 -0.712815,0.01122 0,0.0038 0.0493,0.0845 0.10954,0.180221 0.18375,0.291842 0.473267,0.827242 0.621555,1.149423 0.665288,1.445462 0.783878,2.780585 0.378947,4.266297 -0.03545,0.130059 -0.08425,0.296944 -0.108432,0.370862 l -0.04398,0.134378 -0.03617,-0.05555 c -0.01989,-0.03055 -0.10525,-0.176495 -0.189676,-0.324293 -0.183121,-0.320587 -0.472752,-0.782805 -0.652744,-1.041706 -0.590783,-0.8498 -1.390112,-1.665027 -1.951822,-1.990631 l -0.06505,-0.03772 -0.199815,0.388516 c -0.109897,0.213681 -0.359232,0.697316 -0.554076,1.074751 l -0.354264,0.686244 -0.03542,-0.06554 c -0.01948,-0.03602 -0.221575,-0.457907 -0.449101,-0.937496 -0.227526,-0.479589 -0.420539,-0.871981 -0.428917,-0.871981 -0.02908,0 -0.437666,0.385725 -0.574341,0.542208 -0.79669,0.912147 -1.117085,2.082449 -0.876585,3.201892 0.07938,0.369514 0.256354,0.853639 0.423594,1.158797 0.03646,0.06649 0.06628,0.126918 0.06628,0.134199 0,0.02414 -0.542593,-0.0075 -0.705982,-0.04131 -0.08824,-0.0182 -0.260288,-0.07733 -0.382312,-0.13153 -0.187677,-0.08327 -0.249083,-0.123297 -0.39853,-0.259543 -0.406281,-0.37039 -0.621543,-0.833211 -0.749275,-1.61097 -0.108647,-0.661564 -0.06394,-1.804244 0.108999,-2.786149 0.02857,-0.162199 0.05194,-0.309214 0.05194,-0.326689 0,-0.03603 -0.231974,-0.128955 -0.663195,-0.265757 -1.028435,-0.326274 -1.950853,-0.387253 -2.659837,-0.175845 -0.553785,0.165132 -1.068063,0.542077 -1.442607,1.057379 -0.123504,0.169913 -0.382001,0.607215 -0.478221,0.809003 -0.248047,0.520188 -0.382067,1.133844 -0.389438,1.783147 -0.0022,0.186936 -0.0087,0.339553 -0.01455,0.339147 -0.01548,-9.43e-4 -0.305979,-0.343277 -0.462995,-0.545424 -0.291819,-0.3757 -0.567631,-0.895539 -0.6776,-1.277115 l -0.05077,-0.176175 -0.01517,0.117931 c -0.02395,0.186228 -0.08463,0.275782 -0.291004,0.429455 -0.308454,0.229675 -0.769307,0.493612 -0.936114,0.536126 -0.06608,0.01688 -0.164478,-0.07611 -0.200501,-0.189312 -0.06987,-0.219641 0.0037,-0.796517 0.132243,-1.037575 0.07501,-0.140611 0.226697,-0.292823 0.351874,-0.353066 0.04707,-0.02263 0.126258,-0.06083 0.175984,-0.08488 0.190598,-0.09204 0.510887,-0.06451 0.640835,0.05526 l 0.06031,0.05555 -0.0073,-0.228147 c -0.01405,-0.434218 0.07163,-1.020166 0.209193,-1.430533 0.23135,-0.690139 0.734931,-1.485684 1.449002,-2.289104 0.09808,-0.110349 0.178322,-0.205137 0.178322,-0.210644 0,-0.0057 -0.04092,0.0019 -0.09092,0.0165 -0.05001,0.01462 -0.224394,0.06319 -0.387527,0.10802 -0.704741,0.193631 -1.230582,0.440177 -1.686498,0.790735 -0.169474,0.130304 -0.84183,0.686499 -1.117789,0.924661 -0.693631,0.598642 -1.282194,1.32673 -1.911527,2.364691 -0.228682,0.377172 -1.2153037,2.236783 -1.432327,2.699698 -0.4319961,0.921455 -0.6766353,1.645072 -0.8098476,2.395454 -0.048533,0.273415 -0.057186,0.392119 -0.066761,0.91657 -0.015406,0.843623 0.03023,1.321316 0.1772778,1.85565 0.183857,0.668099 0.5874669,1.381003 1.2189231,2.153028 0.3030737,0.370532 0.4929407,0.571755 0.8549237,0.906054 0.652144,0.602254 1.130257,0.973843 3.144826,2.444107 1.097166,0.800723 1.519238,1.116651 1.999045,1.496313 1.744737,1.380569 2.475186,2.211715 3.779325,4.300313 1.092074,1.74897 1.383833,2.168608 1.913176,2.751727 0.348514,0.383914 0.656342,0.644871 1.240189,1.051343 1.144232,0.796612 2.330055,1.357314 3.406372,1.61066 0.203327,0.04781 0.648195,0.121779 0.818819,0.136057 0.194532,0.01632 0.719468,0.01245 0.888386,-0.0066 z m -2.065022,-3.411357 c -0.160867,-0.02037 -0.425112,-0.09899 -0.620408,-0.184606 -0.198441,-0.08695 -0.454306,-0.317239 -0.543611,-0.489189 -0.104838,-0.201855 -0.107844,-0.537286 -0.0065,-0.720005 0.02178,-0.03923 0.08707,-0.101182 0.145081,-0.137613 0.10329,-0.06488 0.109137,-0.06602 0.281991,-0.0564 0.14372,0.0085 0.205839,0.02273 0.334355,0.07894 0.281522,0.123146 0.388188,0.251423 0.557065,0.6699 0.171323,0.424542 0.228604,0.740687 0.14614,0.806561 -0.05185,0.0414 -0.143346,0.05149 -0.294159,0.03244 z m -0.0026,-0.540813 c -0.0018,-0.06658 -0.03177,-0.159162 -0.09627,-0.297227 -0.08777,-0.187897 -0.100389,-0.204184 -0.20063,-0.258948 -0.135816,-0.07422 -0.205812,-0.08865 -0.30752,-0.06337 -0.08814,0.02188 -0.121533,0.06705 -0.143622,0.194263 -0.02114,0.121778 0.02387,0.22809 0.149,0.351925 0.108703,0.107566 0.121441,0.114074 0.303585,0.15489 0.1131,0.02537 0.211986,0.03706 0.244093,0.02895 0.04886,-0.01235 0.05373,-0.02282 0.05136,-0.110405 z m 3.54188,-0.639854 c -0.05724,-0.05272 -0.122033,-0.19331 -0.16173,-0.350944 -0.0304,-0.120713 -0.0439,-0.438056 -0.02013,-0.473468 0.0063,-0.0094 0.0214,-0.08148 0.03351,-0.160153 0.04629,-0.300603 0.233684,-0.536965 0.534758,-0.674455 0.251289,-0.114762 0.488712,-0.132058 0.631311,-0.04602 0.164837,0.09948 0.252835,0.556751 0.161692,0.840181 -0.04697,0.146082 -0.704317,0.723448 -0.972684,0.854346 -0.12654,0.06168 -0.149822,0.0629 -0.206731,0.01047 z m 0.6019,-0.585203 c 0.265963,-0.211804 0.285523,-0.24251 0.267641,-0.420194 -0.01458,-0.144903 -0.02753,-0.171695 -0.09958,-0.206014 -0.108485,-0.05168 -0.22828,-0.03716 -0.354685,0.0431 -0.157231,0.09975 -0.189317,0.181399 -0.189317,0.481767 0,0.238861 0.01803,0.293691 0.09658,0.293691 0.02082,0 0.146533,-0.08657 0.279356,-0.192311 z m -6.446396,-2.075753 c -0.162818,-0.03489 -0.423719,-0.184813 -0.672365,-0.3863 -0.109294,-0.08855 -0.29563,-0.365148 -0.348989,-0.518 -0.09378,-0.268653 -0.01376,-0.579884 0.199629,-0.776439 0.127527,-0.117469 0.227163,-0.142903 0.400048,-0.102106 0.168142,0.0397 0.282358,0.09502 0.397008,0.192367 0.173735,0.147506 0.227833,0.270171 0.267745,0.607092 0.03788,0.319748 0.0026,0.86571 -0.06183,0.957999 -0.02404,0.03442 -0.09366,0.04413 -0.18124,0.02537 z m -0.0087,-0.495668 c 0.03042,-0.112631 0.03769,-0.314476 0.0165,-0.458162 -0.02271,-0.154022 -0.02572,-0.159785 -0.131334,-0.250687 -0.264468,-0.227648 -0.46683,-0.144148 -0.472434,0.194942 -0.0027,0.164103 0.02381,0.21999 0.165368,0.348549 0.09331,0.08478 0.321885,0.209692 0.383575,0.209692 0.0145,0 0.03174,-0.01999 0.03833,-0.04433 z m 7.159444,-0.898698 c -0.253547,-0.09148 -0.602467,-0.349248 -0.746297,-0.551404 -0.185125,-0.260193 -0.205707,-0.316711 -0.205707,-0.564814 0,-0.209437 0.0024,-0.22098 0.07322,-0.341165 0.08672,-0.147326 0.253011,-0.29287 0.354693,-0.31044 0.0395,-0.0066 0.121329,-0.0028 0.181856,0.0094 0.290215,0.05734 0.541399,0.253818 0.618533,0.483852 0.08658,0.258193 0.106083,0.785397 0.04178,1.12926 -0.03415,0.182663 -0.113796,0.219056 -0.318082,0.145374 z m 0.0936,-0.497951 c 0.02087,-0.09615 0.01569,-0.453428 -0.0077,-0.528449 -0.0401,-0.128767 -0.245273,-0.277027 -0.383392,-0.277027 -0.111578,0 -0.172264,0.06969 -0.196011,0.225111 -0.0392,0.256562 0.06768,0.433576 0.35275,0.584185 0.147815,0.07809 0.216778,0.07695 0.234319,-0.0038 z M 19.880869,31.047539 c -0.234399,-0.07469 -0.574333,-0.308252 -0.730791,-0.502185 -0.276745,-0.343023 -0.327838,-0.646984 -0.164949,-0.981311 0.06177,-0.126777 0.205265,-0.264682 0.297643,-0.286043 0.177057,-0.04093 0.459615,0.05243 0.64345,0.212559 0.204357,0.178023 0.256738,0.329188 0.278672,0.804202 0.01403,0.303829 -0.01379,0.604942 -0.06667,0.721515 -0.03572,0.07875 -0.08826,0.08516 -0.257356,0.03131 z m 0.0619,-0.491679 c 0.04884,-0.229468 0.0254,-0.543812 -0.04733,-0.634526 -0.02129,-0.0266 -0.0848,-0.07752 -0.141146,-0.11331 -0.216889,-0.137669 -0.387967,-0.05187 -0.425591,0.213341 -0.02372,0.167216 0.137295,0.3873 0.380043,0.519481 0.157467,0.08573 0.218142,0.08959 0.234023,0.01499 z m 6.14043,-0.02141 c -0.472687,-0.283015 -0.763037,-0.85858 -0.642834,-1.274314 0.06927,-0.239577 0.189156,-0.409264 0.350795,-0.496517 0.137449,-0.07422 0.259792,-0.06969 0.434386,0.01603 0.280484,0.137707 0.469345,0.384074 0.469379,0.612288 4.2e-5,0.258344 -0.172035,0.916003 -0.29423,1.124544 -0.04776,0.08148 -0.06366,0.09355 -0.123007,0.09355 -0.04284,0 -0.115093,-0.0281 -0.194489,-0.07563 z m 0.255326,-0.51204 c 0.05823,-0.119515 0.12109,-0.357687 0.12109,-0.458803 0,-0.08101 -0.06831,-0.196649 -0.159935,-0.270746 -0.144299,-0.116705 -0.316835,-0.06696 -0.421213,0.121543 -0.08248,0.14892 -0.02216,0.388469 0.145185,0.576593 0.08096,0.09101 0.16271,0.14395 0.224456,0.145364 0.02177,4.91e-4 0.05516,-0.04159 0.09042,-0.113951 z M 14.477832,28.287616 c -0.05377,-0.01962 -0.164899,-0.07573 -0.246954,-0.124617 -0.307658,-0.183323 -0.486556,-0.367995 -0.630438,-0.650793 -0.06658,-0.13087 -0.07305,-0.159577 -0.07235,-0.321069 0.0011,-0.268416 0.101216,-0.488481 0.27877,-0.613221 0.06863,-0.04819 0.100469,-0.05677 0.211285,-0.05677 0.105411,0 0.159157,0.01301 0.279779,0.06771 0.267886,0.121458 0.450564,0.3343 0.500722,0.583383 0.06147,0.305263 0.04632,0.951841 -0.02556,1.090632 -0.03413,0.06592 -0.154888,0.07601 -0.295265,0.0248 z m 0.09501,-0.470818 c 0.05454,-0.173694 0.02469,-0.557646 -0.05097,-0.655528 -0.04808,-0.06224 -0.193677,-0.133925 -0.305889,-0.150693 -0.0634,-0.0094 -0.08599,-9.43e-4 -0.15403,0.05621 -0.06421,0.05423 -0.08317,0.08733 -0.09741,0.170338 -0.02112,0.123032 0.0074,0.2117 0.116868,0.363496 0.07711,0.106907 0.145794,0.154089 0.311057,0.213662 0.124557,0.04489 0.166884,0.04546 0.180378,0.0028 z m 19.220118,0.436689 c -0.139977,-0.0397 -0.460875,-0.242011 -0.635798,-0.400909 -0.395597,-0.359366 -0.465532,-0.912561 -0.158938,-1.257206 0.10412,-0.117035 0.179839,-0.149335 0.326741,-0.139367 0.258576,0.01754 0.58174,0.234447 0.692991,0.465122 0.0776,0.160897 0.108561,0.430644 0.09385,0.81767 -0.01455,0.38299 -0.03814,0.492122 -0.113148,0.523602 -0.06551,0.02754 -0.07931,0.02688 -0.205702,-0.0085 z m 0.08063,-0.592738 c 0.0084,-0.07224 0.0089,-0.206901 0.0013,-0.299161 -0.01621,-0.194169 -0.0596,-0.26406 -0.223383,-0.359734 -0.133031,-0.07771 -0.21805,-0.07526 -0.317981,0.0094 -0.07019,0.05922 -0.07929,0.07837 -0.08761,0.184398 -0.01996,0.254167 0.168506,0.479174 0.476765,0.569209 0.133536,0.03895 0.134397,0.03838 0.15093,-0.103785 z M 22.499406,26.609848 c -0.113971,-0.05545 -0.344328,-0.294813 -0.430995,-0.447788 -0.215038,-0.379567 -0.234178,-0.781126 -0.05333,-1.118858 0.08697,-0.162425 0.252455,-0.26903 0.476964,-0.307262 0.10714,-0.0182 0.123721,-0.01575 0.210725,0.03122 0.123355,0.06658 0.291892,0.220508 0.361848,0.330461 0.03062,0.0481 0.07246,0.143148 0.09299,0.211191 0.0352,0.116592 0.03528,0.132888 0.0015,0.28377 -0.08184,0.365703 -0.440035,1.05835 -0.546,1.055813 -0.02003,-4.71e-4 -0.0712,-0.01782 -0.113722,-0.03848 z m 0.24577,-0.581355 c 0.109264,-0.241049 0.163286,-0.450863 0.138128,-0.536494 -0.02281,-0.07761 -0.196687,-0.248697 -0.276505,-0.272028 -0.07375,-0.0216 -0.215512,0.07309 -0.283621,0.189312 -0.09429,0.160934 -0.08462,0.270029 0.04382,0.494423 0.05614,0.09807 0.130027,0.199987 0.164193,0.226468 0.09923,0.07695 0.142309,0.0564 0.21398,-0.101681 z M 11.597213,24.103687 c -0.205167,-0.05074 -0.546358,-0.389224 -0.672831,-0.667514 -0.161054,-0.354387 -0.177999,-0.537701 -0.07253,-0.784653 0.116046,-0.271717 0.321026,-0.434651 0.548086,-0.43566 0.192812,-8.59e-4 0.506712,0.229147 0.611992,0.448429 0.06346,0.132171 0.06328,0.229232 -0.0011,0.605394 -0.06006,0.350926 -0.122337,0.572849 -0.201332,0.717535 -0.06387,0.116997 -0.109312,0.141923 -0.212278,0.116469 z m 0.130638,-0.632017 c 0.120199,-0.364251 0.126631,-0.463179 0.03802,-0.584713 -0.163561,-0.224328 -0.40677,-0.208729 -0.519408,0.03329 -0.06184,0.132897 -0.05252,0.236314 0.03532,0.391544 0.0416,0.07356 0.09215,0.150881 0.112316,0.171912 0.04648,0.04847 0.218347,0.150504 0.253501,0.150504 0.01473,0 0.05055,-0.07262 0.08026,-0.162566 z m 16.739881,-0.650992 c -0.458118,-0.292747 -0.684448,-0.990628 -0.471488,-1.453817 0.108545,-0.236079 0.287368,-0.362337 0.548346,-0.387149 0.101968,-0.0097 0.12343,-0.0047 0.210012,0.05036 0.201485,0.127691 0.356131,0.342749 0.403598,0.561258 0.02097,0.09652 0.01897,0.140518 -0.0125,0.275886 -0.06623,0.284864 -0.263065,0.734576 -0.412628,0.942749 -0.0683,0.09508 -0.129505,0.09756 -0.265342,0.01075 z m 0.303076,-0.610175 c 0.142093,-0.27266 0.167265,-0.378973 0.117912,-0.498007 -0.04238,-0.102229 -0.217203,-0.245887 -0.299222,-0.245887 -0.134326,0 -0.308921,0.211635 -0.31055,0.376436 -9.41e-4,0.09926 0.082,0.332857 0.141882,0.399409 0.105971,0.117771 0.16895,0.170026 0.204919,0.170026 0.02936,0 0.06739,-0.05291 0.145059,-0.201977 z m 7.240948,-0.185615 c -0.170389,-0.08309 -0.385527,-0.297718 -0.520497,-0.519169 -0.214833,-0.352501 -0.189353,-0.899604 0.05409,-1.16158 0.155357,-0.167178 0.460519,-0.247008 0.612813,-0.160312 0.19252,0.109594 0.406606,0.394807 0.433597,0.57764 0.02098,0.142149 -0.195989,0.907271 -0.322494,1.137219 -0.09019,0.163953 -0.135063,0.185945 -0.257514,0.126202 z m 0.215748,-0.700427 c 0.124265,-0.288108 0.137341,-0.415121 0.05436,-0.52795 -0.159775,-0.217236 -0.406862,-0.202383 -0.50168,0.03018 -0.05307,0.130135 -0.05104,0.260655 0.0062,0.401682 0.05217,0.128522 0.23713,0.336789 0.299081,0.336789 0.02894,0 0.06341,-0.05838 0.142023,-0.240671 z m -17.027126,0.200892 c -0.147571,-0.04084 -0.44043,-0.215887 -0.648416,-0.387686 -0.153852,-0.127079 -0.3362,-0.434708 -0.365695,-0.616938 -0.03859,-0.238417 0.02093,-0.445016 0.180383,-0.626132 0.139405,-0.158342 0.298745,-0.196102 0.52494,-0.124419 0.146922,0.04659 0.214749,0.08469 0.333517,0.187491 0.124736,0.107982 0.188953,0.230939 0.227821,0.436246 0.05313,0.280667 0.04064,0.873612 -0.02264,1.074628 -0.01018,0.03235 -0.09792,0.07818 -0.143808,0.07516 -0.01416,-9.33e-4 -0.0529,-0.0094 -0.0861,-0.01839 z m 0.03606,-0.544293 c 0.01868,-0.125522 0.01547,-0.373559 -0.0061,-0.476665 -0.03829,-0.182512 -0.313579,-0.346257 -0.482026,-0.286721 -0.06433,0.02273 -0.100533,0.123523 -0.104301,0.290371 -0.0032,0.142234 0.0029,0.170771 0.05415,0.250998 0.0624,0.09776 0.154499,0.170611 0.325575,0.257515 0.161129,0.08186 0.196169,0.07601 0.21276,-0.03546 z m 5.856874,0.473327 c -0.126511,-0.05809 -0.396363,-0.290776 -0.479506,-0.413498 -0.08329,-0.122929 -0.185422,-0.409604 -0.204565,-0.574179 -0.03313,-0.284779 0.04526,-0.527289 0.233465,-0.722259 0.219703,-0.22761 0.467991,-0.224451 0.73639,0.0094 0.130794,0.113942 0.208835,0.225413 0.267191,0.381642 0.03841,0.102851 0.03837,0.111046 -0.002,0.329122 -0.04978,0.268935 -0.110963,0.513294 -0.171939,0.686734 -0.05796,0.164867 -0.180793,0.354707 -0.229506,0.354707 -0.02037,0 -0.08766,-0.0232 -0.149526,-0.05159 z m 0.155663,-0.477023 c 0.04154,-0.07403 0.162286,-0.491189 0.162327,-0.560882 8.1e-5,-0.140159 -0.17437,-0.317456 -0.312368,-0.317456 -0.09267,0 -0.203826,0.09525 -0.254898,0.218434 -0.06031,0.145459 -0.03727,0.287221 0.07501,0.461642 0.160925,0.24997 0.265586,0.312864 0.329927,0.198262 z m 6.86805,-3.508069 c -0.191547,-0.08544 -0.476133,-0.275546 -0.596884,-0.398655 -0.195736,-0.199572 -0.302436,-0.552167 -0.250883,-0.82909 0.05023,-0.269775 0.23207,-0.494112 0.421777,-0.52031 0.250075,-0.03452 0.629953,0.188104 0.767179,0.449646 0.09706,0.185002 0.143367,0.659243 0.100146,1.025749 -0.02606,0.220998 -0.05048,0.30761 -0.0939,0.333035 -0.05846,0.03423 -0.184469,0.01235 -0.347435,-0.06036 z m 0.195476,-0.46566 c 0.0073,-0.02688 0.0099,-0.160784 0.0057,-0.297567 l -0.0075,-0.248706 -0.132091,-0.114357 c -0.138118,-0.119571 -0.21747,-0.150325 -0.329422,-0.127672 -0.110295,0.02235 -0.153136,0.10916 -0.140787,0.28541 0.02002,0.285845 0.131586,0.418289 0.440679,0.523187 0.11444,0.03885 0.148466,0.03461 0.163424,-0.02028 z m -10.005103,4.024513 c -0.09694,-0.460237 -0.130532,-0.748741 -0.141695,-1.216834 -0.01211,-0.507588 0.01674,-0.780522 0.123715,-1.170425 0.07791,-0.283967 0.286456,-0.789773 0.415629,-1.008047 0.280954,-0.47476 0.722958,-0.906026 1.251539,-1.221124 0.183674,-0.109491 0.556334,-0.305084 0.58127,-0.305084 0.0055,0 0.148595,0.332395 0.317982,0.738669 0.169386,0.406265 0.314249,0.732153 0.321918,0.724184 0.01194,-0.01245 0.808441,-1.632369 0.920298,-1.871749 0.02152,-0.04602 0.04254,-0.08374 0.04671,-0.08374 0.03594,0 0.261489,0.07347 0.346937,0.113008 0.711168,0.329065 1.629432,1.50828 2.351061,3.019172 0.09143,0.191424 0.116981,0.230326 0.12749,0.194121 0.0072,-0.0249 0.01924,-0.191603 0.02669,-0.370428 0.03649,-0.875923 -0.16075,-1.849388 -0.54667,-2.697963 -0.323856,-0.712102 -0.79091,-1.437559 -1.314111,-2.041133 l -0.119446,-0.137801 0.100632,-0.04706 c 0.560846,-0.262542 1.379899,-0.302679 2.26035,-0.110764 0.713178,0.155456 1.39822,0.421543 2.681627,1.041602 0.144138,0.0696 0.262069,0.122514 0.262069,0.117516 0,-0.04121 -0.450743,-0.540228 -0.673697,-0.745818 -0.406638,-0.374974 -0.787612,-0.625283 -1.409609,-0.926151 -0.554088,-0.268011 -1.162488,-0.47028 -1.989595,-0.661469 -0.189656,-0.04385 -0.380932,-0.08827 -0.425056,-0.09884 -0.09271,-0.02216 -0.101036,-0.05489 -0.03806,-0.150052 0.09502,-0.143544 0.347196,-0.255883 0.849466,-0.378416 0.51074,-0.124608 1.109828,-0.200214 2.049964,-0.258731 0.511627,-0.03188 0.557,-0.04828 0.19254,-0.06988 -0.801624,-0.04744 -1.868749,-0.0097 -2.601227,0.09195 -0.157784,0.02188 -0.450538,0.06177 -0.650566,0.08865 -1.279966,0.171884 -2.250615,0.402333 -3.367115,0.799431 l -0.05114,0.0182 0.05341,-0.0646 c 0.342632,-0.414489 0.987275,-1.293364 1.283207,-1.749451 0.481404,-0.7419508 0.857229,-1.4718962 1.019659,-1.9804371 0.161171,-0.5046174 0.147063,-1.0844073 -0.03397,-1.3956109 -0.09896,-0.1701298 -0.311119,-0.3487849 -0.538935,-0.4538335 -0.109233,-0.05036 -0.211201,-0.091572 -0.226596,-0.091572 -0.0266,0 -0.198346,0.1698186 -0.388619,0.3842633 -0.281411,0.3171543 -0.660234,0.930989 -0.820887,1.3301433 -0.187878,0.4667819 -0.353877,1.0149412 -0.444585,1.4680772 -0.09409,0.4700348 -0.171854,1.2251598 -0.177565,1.7242518 -0.0015,0.135481 -0.0087,0.31011 -0.01607,0.388073 l -0.01325,0.141744 -0.216158,-0.133162 c -0.750431,-0.462283 -1.827262,-0.92021 -2.578907,-1.096696 -0.238623,-0.05602 -0.617177,-0.125221 -0.617177,-0.112819 0,0.0047 0.01921,0.0232 0.04268,0.04121 0.120112,0.09204 0.807815,0.663997 0.80358,0.668288 -0.0027,0.0028 -0.196627,-0.01235 -0.430938,-0.03348 -0.831767,-0.07507 -1.116835,-0.08827 -1.923554,-0.08874 -0.831787,-5.19e-4 -1.078472,0.01301 -1.625897,0.08903 -0.514488,0.07139 -1.303246,0.261344 -1.758469,0.423411 -0.893511,0.318088 -1.66114,0.854958 -2.217293,1.550746 -0.05685,0.07111 -0.04915,0.106972 0.0091,0.04234 0.08447,-0.09374 0.47192,-0.265503 0.76946,-0.34109 0.08886,-0.02254 0.30546,-0.06403 0.48135,-0.09204 0.283606,-0.04527 0.379125,-0.05112 0.843939,-0.05187 0.541177,-8.49e-4 0.796552,0.01679 1.219423,0.0844 0.210435,0.03367 0.681283,0.132521 0.702032,0.147468 0.0037,0.0028 -0.04442,0.04734 -0.106966,0.09922 -0.209922,0.174213 -0.648027,0.587702 -0.833349,0.786529 -0.343863,0.368929 -0.670268,0.793565 -0.933716,1.214731 -0.541761,0.866068 -0.780085,1.596296 -0.780499,2.391427 -1.61e-4,0.357008 0.04625,0.664638 0.146179,0.968448 0.08605,0.261607 0.215796,0.541784 0.231369,0.499629 0.006,-0.01622 0.03146,-0.127098 0.05657,-0.246311 0.172019,-0.816699 0.482552,-1.623429 0.826795,-2.147936 0.232475,-0.354208 0.600622,-0.74164 0.833429,-0.877065 0.319821,-0.186058 0.614204,-0.243415 1.238025,-0.241218 0.849324,0.0028 1.550047,0.10089 2.503025,0.349747 0.579786,0.151391 1.615199,0.473704 1.615199,0.502779 0,0.0075 -0.03944,0.110622 -0.08764,0.2286 -0.320082,0.783455 -0.550707,1.695451 -0.618034,2.443975 -0.02785,0.309619 -0.02728,0.782776 0.0011,0.959102 0.06872,0.426145 0.262819,0.797431 0.511878,0.979132 0.08757,0.06385 0.31943,0.19713 0.343023,0.19713 0.0076,0 -0.01278,-0.126362 -0.04531,-0.280808 z m -8.865275,-2.057231 c 0.04686,-0.02867 0.168241,-0.108585 0.269748,-0.177524 0.20065,-0.136292 0.211492,-0.154239 0.210929,-0.349162 -4.85e-4,-0.159822 -0.01399,-0.183729 -0.123345,-0.218057 -0.135766,-0.04263 -0.197837,-0.03867 -0.311294,0.01971 -0.110802,0.05706 -0.181998,0.149118 -0.200345,0.259089 -0.0069,0.04112 -0.02316,0.08714 -0.03624,0.10237 -0.06013,0.06998 0.004,0.415715 0.07714,0.415715 0.01552,0 0.06655,-0.02348 0.113406,-0.05215 z"
       id="path1408" /></g></svg>
